<svg viewBox="0 0 458 566" xmlns="http://www.w3.org/2000/svg"><title>San Diego Padres cap logo on light</title><g fill-rule="nonzero" fill="none"><path d="M299.7 113.8H102.6c-1.4 0-1.4 2.8 0 2.8S129 119 129 142.1V209H77.6c-11.3 0-13.7-9.4-13.7-15.1 0-.5-.5-57 0-92.4.5-28.8 16-43.4 42.9-43.4l126.8-1.4c7.5 0 14.1 3.3 14.1 12.7 0 9.4-9.9 11.8-11.8 12.7-.9.5-.9 1.4 0 1.4h74l-.9-24C308.5 42.1 297.7.1 242.5.1H94C40.3.1 2.5 38.8 2.5 90.1v.9c0 30.6-.9 74-.9 101.8 0 33.9 29.2 69.3 70.7 69.3H237c11.3 0 14.6 10.4 14.6 14.1 0 1.4.5 52.3.5 89.6l-.5.5c0 23.6-15.6 42-40.1 42H187l.5-123-58.5-.5v124c-29.7 0-50 .5-52.3.5-12.3 0-14.6-10.4-14.6-15.1 0-2.8 0-41.5.5-55.6 0-16 23.1-20.7 23.1-20.7V316H1.3s0 57.5-.5 85.8c0 30.2 25.5 64.6 61.8 64.6h65.5v59.9c0 23.1-15.1 34.4-27.8 38.2-.5 0-.5 1.4 0 1.4h198.5c81.6 0 127.3-40.1 127.3-120.2V233.5c0-81.6-45.8-119.7-126.4-119.7zm69.8 114c-.5 58.9.5 175.4.5 227.2 0 37.2-29.7 57-66.9 57h-115l.5-46.7h29.7c54.2 0 89.6-39.1 89.6-90.5 2.8-55.6 1.4-96.2 1.4-102.3 0-22.2-17.9-64.6-70.7-64.6h-49v-45.3h116c38.9.7 63.9 28.5 63.9 65.2z" fill="#002D62"/><path d="M422.8 561.6v-17h6.1v-3.7h-16.5v3.7h6.1v17h4.3zm34.4 0v-20.7h-7.1l-5.2 13.6-4.7-13.6h-7.5v20.7h4.2v-16.5l6.1 16.5h3.8l6.1-16.5v16.5h4.3z" fill="#FFF"/></g></svg>
