<svg xmlns="http://www.w3.org/2000/svg" viewBox="0 0 156.194 182.75"><title>St. Louis Cardinals Cap Logo on Light</title><g fill="#c41e3a"><path d="M132.425 153.732c-5.988 6.819-13.344 8.788-18.106 8.788H45.51v-17.363c8.788 2.386 17.672 4.101 26.022 4.63 32.57 2.081 63.697-6.799 63.697-37.353 0-15.177-11.592-28.68-34.885-30.615V69.122h17.278L111.288 57.7h-35.71l-6.331 11.422h17.271v12.807H45.51V41.117c15.367-.272 44.311.957 66.695 9.141l10.173-17.091c-6.222.988-13.843 1.429-21.046-.35-8.232-2.04-33.307-6.819-55.822-6.348V13.293h10.261V0H20.326v13.293h10.261v13.622C13.333 29.274 0 44.101 0 61.997c0 17.892 13.333 31.884 30.588 34.111v28.239a175.579 175.579 0 0 1-11.616-5.061l-9.566 12.488a237.434 237.434 0 0 0 21.181 8.7v22.047H20.326v14.922h93.993c11.87 0 21.229-4.097 28.707-12.23l-10.601-11.481zM30.588 82.082C20.085 80.768 13.51 71.905 13.51 61.175c0-10.031 7.315-18.432 17.078-20.56v41.467zm55.93 14.44v13.296h13.826V96.844c8.052.879 18.221 4.284 18.221 17.709 0 19.396-33.541 26.198-73.056 14.854V96.522h41.009zM149.028 178.144h-1.67v4.606h-1.069v-4.606h-1.663v-.869h4.403v.869zm4.155 3.011l1.48-3.88h1.531v5.475h-.991v-4.267h-.031l-1.633 4.267h-.743l-1.626-4.267h-.027v4.267h-.995v-5.475h1.538l1.497 3.88z"/></g></svg>