<svg xmlns="http://www.w3.org/2000/svg" viewBox="0 0 213.716 231.435"><title>Milwaukee Brewers Cap Logo on Light</title><path d="M78.213 16.962v.017s.004-.009.012-.017h-.012zM182.834 162.794l-.812-.808-6.923-6.94s-1.726-.178-3.566-.378c-1.857-5.198-1.683-12.066-.48-16.193l7.336-26.402 1.492-5.359 1.785-6.392 1.483-5.347 2.036-7.323.905-3.235 14.459-51.996c.115-.366.217-.765.294-1.148.004-.017.021-.021.025-.03h.017v-.013c.238-.208.858-.654 1.168-.88 2.661-1.887 7.068-5.028 9.231-12.865l2.266-8.207L204.268 0l-42.149 10.315-17.574 30.831-1.585 2.784-27.065 47.496-1.096-11.488c-1.25-13.354-6.397-24.961-14.906-33.572-.004-.013-4.654-4.658-5.474-5.499h-.021l-.14-.149a48.38 48.38 0 0 0-4.068-3.57c-10.634-8.39-24.536-12.258-39.17-10.876-13.405 1.258-25.845 7.57-35.08 17.766C6.78 54.164 1.735 67.068 1.735 80.362c0 13.269 4.326 24.898 12.185 32.76l5.045 5.041c5.249 5.245 11.782 8.449 18.191 8.976l-3.676 13.346-.88 3.222-3.753 13.618-.663 2.516c-.599 2.491-.965 3.375-1.122 3.689-3.651 2.401-8.258 6.707-10.196 13.779l-3.43 12.317 10.077 10.077 3.481-2.07a264.907 264.907 0 0 1 8.679-4.9l-1.445 5.109-.557.323a221.98 221.98 0 0 0-28.612 19.257L1 220.647l7.688 9.89 4.14-3.285c8.577-6.792 17.677-12.925 27.069-18.22 0 0 .264-.14.548-.306l11.416 3.204.684-.323a515.537 515.537 0 0 1 5.07-2.372c1.301-.599 2.699-1.216 4.199-1.879 20.69-9.049 60.144-22.445 116.484-14.378 1.093.157 2.172.298 3.269.472 1.16.178 2.278.293 3.451.497l1.84.306 1.67-6.43 11.335.977 1.539-9.941-10.434-4.271 1.768-6.609-5.372-1.16a123.393 123.393 0 0 0-3.307-.671 30.723 30.723 0 0 0-1.024-.217l-.199-3.137zM48.823 84.638c-4.573-4.441-9.563-6.711-14.85-6.711-.043 0-.08 0-.106.009.722-8.215 6.541-15.403 14.455-18.093-.931 4.867.518 9.066 4.063 11.85l-3.562 12.945zm21.408 88.335l7.88-28.871 1.862 19.84 4.875 4.781a236.124 236.124 0 0 0-14.617 4.25m45.362-10.005l13.065-22.942c.964 8.258 4.101 15.781 9.032 21.476-7.566.064-14.978.552-22.097 1.466" fill="#0a2351"/><path d="M200.841 31.236v.021c.004-.008.004-.017.012-.021h-.012z" fill="#0a2351"/><path d="M85.763 184.559c-3.324.897-6.63 1.891-9.878 2.946l10.8 5.325a212.254 212.254 0 0 1 9.376-2.384l-10.298-5.887zM111.488 179.211a212.12 212.12 0 0 0-10.158 1.717l10.039 6.605c3.183-.48 6.371-.888 9.597-1.228l-9.478-7.094zM107.059 169.466l-6.231 9.465c3.404-.659 6.852-1.25 10.319-1.755l6.868-9.163c-3.68.395-7.347.879-10.956 1.453M60.918 193.02a218.088 218.088 0 0 0-9.436 4.148l11.356 3.953a199.485 199.485 0 0 1 9.019-3.515l-10.939-4.586zM48.919 198.374a221.5 221.5 0 0 0-9.151 4.731l11.582 3.247a208.983 208.983 0 0 1 8.789-4.067l-11.22-3.911zM73.203 188.398a203.866 203.866 0 0 0-9.678 3.558l11.102 4.658a211.866 211.866 0 0 1 9.214-2.962l-10.638-5.254zM87.909 181.843c3.383-.88 6.77-1.67 10.196-2.388l6.265-9.542a241.834 241.834 0 0 0-10.859 2.125l-5.602 9.805zM98.522 181.469a217.887 217.887 0 0 0-10.031 2.351l10.46 5.984a220.618 220.618 0 0 1 9.512-1.802l-9.941-6.533zM124.79 167.368c-1.382.106-2.725.242-4.089.374l-6.771 9.04c3.451-.455 6.911-.82 10.404-1.114l7.408-8.725c-2.307.106-4.623.246-6.952.425M114.273 178.817l9.647 7.217c.769-.064 1.535-.153 2.312-.208 2.444-.196 4.892-.332 7.336-.433l-9.053-7.667c-3.442.279-6.855.64-10.242 1.091M75.183 185.58a213.304 213.304 0 0 1 10.021-3.005l5.687-9.945c-3.6.846-7.17 1.773-10.702 2.793l-5.006 10.157zM195.553 182.476c-15.947-4.348-32.416-7.268-49.536-7.531l1.798 1.041-1.708 1.012c16.852.28 33.538 1.912 49.408 5.695l.038-.217zM38.696 201.35a194.3 194.3 0 0 1 9.299-4.807l3.77-10.804a223.09 223.09 0 0 0-10.022 4.718l-3.047 10.893zM62.702 190.065a225.086 225.086 0 0 1 9.826-3.617l5.058-10.247a220.186 220.186 0 0 0-10.519 3.447l-4.365 10.417zM50.521 195.348a216.083 216.083 0 0 1 9.579-4.22l4.442-10.57a208.412 208.412 0 0 0-10.294 4.089l-3.727 10.701zM183.072 188.075c-15.828-3.43-32.123-5.457-48.949-4.781l2.367 1.985c15.828-.467 31.498.238 46.522 2.983l.06-.187zM131.784 169.889l-5.653 6.656 6.894 5.801 10.761-6.439zM9.576 223.155a213.695 213.695 0 0 1 27.736-18.684l-1.075-1.751a214.345 214.345 0 0 0-27.911 18.811l1.25 1.624zM202.646 5.785l-1.458 5.275c-1.662 6.04-4.867 8.318-7.191 9.984-1.708 1.203-2.631 1.87-3.166 3.676l-29.857 107.287c-1.964 6.749-1.505 17.379 2.648 23.55 1.203 1.785 2.614 2.975 4.208 3.647-3.366-6.29-3.647-15.891-1.828-22.152l29.87-107.287c.527-1.815 1.467-2.473 3.15-3.676 2.342-1.674 5.55-3.953 7.217-9.988l1.445-5.27-5.038-5.046zM170.347 166.087c-11.093 2.618-20.958.132-27.8-7.008.977 1.007 4.356 4.314 5.045 5.041 1.071 1.118 2.244 2.083 3.464 2.975-5.491-.311-11.012-.463-16.609-.259l-1.777 2.112c7.102-.314 14.136-.302 21.128-.094 6.086 3.341 13.507 4.182 21.586 2.274l1.645-.399c3.077.416 6.159.82 9.189 1.381l.043-.179c-2.707-.582-5.444-1.058-8.177-1.551l-.336-5.274-5.049-5.049.34 5.376-2.692.654zM104.536 157.886c-6.388.791-14.523 2.317-19.542 3.651l5.134 5.045c4.331-1.169 14.166-2.975 19.457-3.651l28.2-49.446c1.993-7.191 4.849-17.494 7.484-27.027l-40.733 71.428zM47.636 48.515c-13.524 1.271-24.124 12.729-24.124 26.083 0 3.685 1.288 7.229 3.587 10.026.701-.31 1.453-.497 2.189-.71-.047-.017-.094-.017-.145-.038a15.885 15.885 0 0 1-.599-4.242c0-13.346 10.6-24.808 24.136-26.079a26.554 26.554 0 0 1 12.398 1.794l2.338-.574a26.477 26.477 0 0 0-19.78-6.26M33.972 116.946c-5.606 0-11.561-2.746-16.355-7.527.85.842 4.195 4.187 5.057 5.041 4.773 4.781 10.732 7.527 16.325 7.527 1.819 0 3.578-.298 5.219-.829l2.894-10.506c-3.101 3.834-7.836 6.294-13.14 6.294M135.3 122.467c.106-.425.352-1.288.688-2.495-.34 1.224-.583 2.079-.688 2.495M108.325 115.251l3.927-6.881c-1.284-13.397-2.665-27.941-2.665-27.936-1.152-12.232-5.755-22.632-13.405-30.397-.922-.926-4.628-4.641-5.589-5.585-.004 0-.008 0-.012-.004 7.986 7.82 12.78 18.42 13.957 30.941l3.787 39.862M59.461 169.063c-14.489 4.93-30.954 13.507-40.177 19.028l5.053 5.036c10.659-6.303 25.603-14.119 40.13-18.926l16.163-59.218-1.636-17.523-19.533 71.603z" fill="#b6922e"/><path d="M163.625 155.557c-4.156-6.171-4.611-16.801-2.652-23.55L190.83 24.716c.536-1.802 1.462-2.474 3.166-3.672 2.325-1.666 5.53-3.944 7.191-9.984l1.458-5.275-37.095 9.087-53.297 93.499-3.927 6.881c-1.385-14.599-3.787-39.862-3.787-39.862-1.177-12.521-5.972-23.125-13.957-30.941a44.285 44.285 0 0 0-3.634-3.192c-9.576-7.557-22.161-11.029-35.443-9.784-12.083 1.148-23.329 6.851-31.676 16.07C11.528 56.707 6.96 68.36 6.96 80.363c0 11.858 3.796 22.186 10.66 29.058 4.794 4.781 10.744 7.527 16.354 7.527 5.304 0 10.039-2.461 13.138-6.299l-2.89 10.506-10.63 38.642c-.501 1.76-1.641 6.312-3.587 7.612-2.325 1.56-6.43 5.211-8.109 11.297l-2.61 9.38c9.223-5.517 25.688-14.093 40.177-19.024L78.992 97.46l1.64 17.523 4.365 46.552c5.015-1.334 13.15-2.86 19.538-3.651l40.733-71.428c-2.635 9.533-5.491 19.835-7.484 27.027-.735 2.673-1.352 4.871-1.794 6.49-.34 1.207-.582 2.066-.693 2.495a7.208 7.208 0 0 0-.089.314c-3.792 13.426-.918 27.669 7.34 36.296 6.843 7.136 16.703 9.623 27.8 7.009l2.686-.655-.34-5.376-2.758-.289c-.74-.077-1.437-.293-2.108-.565-1.594-.67-3.005-1.86-4.203-3.645M65.077 55.351l-10.889 2.673-.506 1.819c-1.836 6.605 2.648 8.432 4.335 9.113.136.059.319.127.476.195-.038.191-7.816 28.476-7.816 28.476-.493-3.591-2.159-6.907-4.764-9.516a16.753 16.753 0 0 0-11.939-4.947c-1.606 0-3.166.302-4.688.748-.736.217-1.488.404-2.189.714A15.797 15.797 0 0 1 23.514 74.6c0-13.354 10.6-24.812 24.12-26.083a26.472 26.472 0 0 1 19.784 6.261l-2.341.573z" fill="#fff"/><path d="M56.792 166.562l23.762-86.928 7.31 77.956c2.61-.544 8.896-1.874 14.685-2.665l52.693-92.407-16.928 61.134c-5.827 20.571 5.389 45.43 31.281 39.31-11.926-1.266-15.029-20.435-11.726-31.821l29.87-107.316c1.866-6.345 7.863-4.577 10.358-13.622l-30.444 7.455-61.551 108.005-4.752-49.965C98.707 47.63 76.823 32.33 51.802 34.68c-23.436 2.206-41.63 22.624-41.63 45.681 0 22.296 13.745 33.372 23.801 33.372 7.548 0 13.685-6.129 13.685-13.681 0-7.557-6.137-13.681-13.685-13.681-2.784 0-5.355.829-7.515 2.244a18.945 18.945 0 0 1-6.15-14.017c0-15.05 11.701-27.834 27.027-29.279 10.464-.986 20.192 3.57 26.249 11.254l-16.801 4.123c-2.057 7.421 6.482 3.251 4.739 9.614l-25.569 92.696c-2.864 10.422-7.918 5.211-11.475 18.323 9.193-5.114 20.753-10.576 32.314-14.767M190.715 154.064h-2.529v6.877h-1.713v-6.877h-2.52v-1.496h6.762v1.496zm11.45 6.876h-1.713v-6.66h-.043l-2.418 6.66h-1.658l-2.342-6.66h-.038v6.66h-1.709v-8.373h2.958l1.951 5.47h.034l2.036-5.47h2.941v8.373z" fill="#0a2351"/></svg>