<svg viewBox="0 0 850.4 850.4" xmlns="http://www.w3.org/2000/svg"><path d="m715.7 370.7c-8.1-7-21.1-10.2-42.1-10.2-15.6 0-32.7 1.8-45 3.5-.6-4.3-1.4-6.7-1.9-8.1-3.2-8.1-10.2-12.8-19.4-12.8-1.7 0-3.5.1-5.5.4-16.2 2.5-32.5 7.1-51.1 14.5.6-2.9.9-5.3 1-6.9v-.6c.2-5-1.8-10-5.4-13.7-4.9-5.1-12.5-7.1-19.3-5.2-2 .6-5.5 1.7-9.2 2.9l-12.3 3.9c-.3-.8-.7-1.6-1.2-2.4-3.5-6.1-9.8-9.7-16.8-9.7-2.4 0-4.7.4-7 1.2-.3.1-.6.3-.9.4l-5.5 2.3c-4.7 2-10.1 4.3-13.8 6.1-2.2 1.1-4.4 2.8-6.6 5.1-.8-.8-1.7-1.6-2.7-2.3-.4-1.6-1-3.1-2-4.6-.2-.3-.4-.6-.5-.8-.2-.4-.5-.8-.7-1.1-1.8-2.8-7.3-9.2-18.2-9.2-5 0-10.3 1.4-16.1 4.2-3 1.2-8 3.8-20.8 10.5v-.1c-.3-.9-.7-1.8-1.2-2.6-.6-1-1.2-1.9-1.8-2.7-.2-.3-.5-.6-.7-.9-3.9-4.8-10.1-7.6-16.8-7.6-5.6 0-11.4 1.8-17.8 5.5-4.3 2.4-8.8 5-13.6 7.9-3.7-3.5-8.3-5.4-13.2-5.4-3.2 0-6.3.8-9.3 2.3-.3.1-.6.3-.8.5-7 4.2-13.9 8.5-20.6 12.7-1 .6-1.9 1.2-2.7 1.9-4.9-7.5-9.5-12.5-10.6-13.5-2.2-1.8-4.5-3.1-6.9-3.9-3-21-17.2-36.2-18.8-37.9-3.8-3.9-8.5-6-13.6-6-3.6 0-7 1-10.4 3l-1.1.6c-1.9 1.2-6.9 4.3-20.2 12.6l-72.1 45c-8.2 5.4-12.7 11.5-13.7 18.8-.6 4.3.2 8.7 2.2 12.2-.8 1.8-1.3 3.7-1.5 5.7-.5 4.2.3 8.5 2.3 12 .2.3.3.6.5.8l.6 1c2.3 3.7 5.9 6.3 10.2 7.3 4.1.9 8.6.2 12.3-2.1l10.7-6.7c0 .4.1.7.1.9 1.3 15.4-2.2 26.1-4.6 33.3l-.8 2.4c-1.5 4.8-1.2 9.8.7 14.2l-.7.4c-3.5 2.1-4.4 2.7-5.2 3.2l-.2.2c-4.1 2.9-6.9 6.4-8.8 10.9-3 7.2-4 32.5-4 32.7-1 27.5 3 37.1 6.5 42.3.3.5.7.9 1.1 1.4-1 4.5-.1 9.3 2.6 13.1 3.1 4.3 8 6.9 13.3 6.9 3.3 0 6.5-1 9.2-2.9.7-.5 69.9-46.9 159.1-50.6 5.2-.2 9.9-2.8 12.8-7.1l4.1-.8 6.3 1.8c6.8 1.9 13.9-.8 17.8-6.5 7.8-1.7 22.6-4.4 39.1-4.4 1.9 0 3.8-.3 5.6-1l3.9-1.4c2.2.4 4 .8 4.9 1.1 2.8 2.1 6.2 3.2 9.7 3.2.6 0 1.1 0 1.8-.1.1 0 8.4-.9 18.6-.9 11.3 0 20.6 1.1 26.2 3.1 3 1.1 6.2 1.2 9.2.5l9 3.6c2.1 3.3 5.3 5.8 9.2 7 5.8 1.7 23.5 7.2 29.1 9.2 4.8 1.7 10.2 1.1 14.4-1.7 6.2 1.6 15.3 4.5 25.3 9.4 1.6 4.8 5.3 8.6 10.1 10.3 10.4 3.6 29.7 11.3 37.1 16.3 5.8 3.9 13.9 3.6 19.4-.7 5.6-4.5 7.7-12 5-18.7-.9-2.2-3.2-7.7-6.6-14 2.4-5.7 1.4-12.4-2.7-17-1.2-1.4-5.8-6.2-16.8-12.4-4.2-2.7-10.1-5.9-17.5-9.5 11.3-3.3 25.7-7.2 28.5-7.9.4-.1.7-.1 1-.2 10-2.4 15.9-7.8 19.8-12.3 4-4.5 7.5-9.9 10.4-14.2l.4-.7c7.9-11.9 13.4-24 16.1-35.1 1.1.5 2.1 1.1 2.9 1.6 4 2.6 8.7 4 13.4 4 6 0 12.1-2.2 16.3-6 5.1-4.6 7.9-10.8 7.8-17.3 0-6.5-3.2-13.1-8.3-17.4z" fill="#fff"/><g clip-rule="evenodd" fill-rule="evenodd"><path d="m164 558.6c-4.6 0-8.9-2.2-11.5-6-2.6-3.7-3.3-8.3-2-12.4-.6-.6-1.2-1.3-1.7-2.1-3.4-4.9-7.2-14-6.2-41 0-.3 1-25.3 3.8-31.9 1.7-4 4.3-7.3 8-10l.2-.1c.7-.5 1.5-1 5.1-3.1l1.1-.7 1.3-.8c-2.4-4.1-3.1-9.2-1.5-14.3l.8-2.4c2.4-7.3 6-18.3 4.7-34.1-.1-.9-.2-2.5-.4-4.5l-13.7 8.6c-2.2 1.4-4.8 2.1-7.5 2.1-1.1 0-2.1-.1-3.2-.4-3.7-.9-6.8-3.1-8.8-6.3l-.6-1c-.1-.2-.3-.5-.4-.7-1.8-3.1-2.5-6.9-2.1-10.6.3-2.1.9-4.1 1.8-6.1v-.1c-.2-.3-.3-.5-.5-.8-1.8-3.2-2.6-7.1-2-10.9.9-6.6 5.1-12.2 12.8-17.2 0 0 14.3-8.9 31.4-19.6 53.7-33.5 60.8-37.9 61.9-38.6 3-1.8 6.1-2.7 9.2-2.7 4.5 0 8.7 1.8 12.1 5.3 1.8 1.8 16 17.4 18.4 38.1 2.7.6 5.2 1.9 7.5 3.8.8.7 6.1 6.3 11.7 15.3 1.4-1.7 2.8-2.8 4.1-3.6 6.6-4.2 13.6-8.5 20.7-12.8.2-.1.5-.3.8-.4 2.6-1.3 5.4-2.1 8.2-2.1 4.6 0 8.8 1.8 12.2 5.2.3.2.5.5.7.7 5-2.9 10-5.9 15-8.7 6.1-3.5 11.6-5.2 16.7-5.2 6.1 0 11.6 2.5 15.1 6.8.2.3.4.5.6.8.6.7 1.2 1.6 1.7 2.5.4.7.8 1.5 1.1 2.3l.9 2.4c14.5-7.7 19.7-10.3 22.8-11.6 5.6-2.7 10.6-4 15.2-4 9.9 0 14.8 5.7 16.4 8.2l.6.9c.2.3.4.7.6 1 .9 1.4 1.5 3 1.8 4.6 1.8 1.1 3.3 2.6 4.5 4.3 2.6-3 5.2-5.2 7.7-6.5 3.5-1.8 8.6-4 13.6-6 2-.8 3.9-1.6 5.5-2.3.3-.1.5-.2.8-.3 2-.7 4.1-1.1 6.2-1.1 6.2 0 11.8 3.2 14.9 8.6.8 1.3 1.3 2.7 1.7 4.1l10-3.3c5.7-1.9 10.9-3.6 13.5-4.3 1.5-.4 3.1-.7 4.7-.7 4.7 0 9.2 1.9 12.4 5.3 3.2 3.3 4.9 7.7 4.8 12.1v.5c-.1 2-.8 5.9-1.9 10.7 1-.5 2-1 3.2-1.5 18.7-7.5 35.1-12.2 51.3-14.6 1.9-.3 3.6-.4 5.2-.4 8.2 0 14.6 4.1 17.4 11.4.6 1.5 1.5 4.2 2.1 9.7 12-1.7 30.3-3.7 46.9-3.7 20.5 0 33 3 40.7 9.6 4.7 4 7.6 10 7.7 16 .1 5.9-2.4 11.5-7 15.6-3.8 3.4-9.4 5.4-14.9 5.4-4.3 0-8.6-1.3-12.2-3.7-1.6-1-3.5-2-5.7-2.9-2.3 11.6-7.9 24.3-16.3 37l-.3.5c-2.8 4.3-6.4 9.6-10.3 14.1-3.8 4.3-9.3 9.4-18.7 11.7-.3.1-.6.1-.9.2-3.5.8-22.6 6.1-34.2 9.6 7.3 3.4 16.3 7.8 22.4 11.8 10.8 6 15.2 10.7 16.3 12 3.8 4.4 4.5 10.6 1.9 15.7 4 7.1 6.5 13.4 7.1 14.7 2.3 5.8.5 12.3-4.4 16.2-2.5 2-5.6 3.1-8.8 3.1-2.9 0-5.6-.8-8-2.5-7.5-5.1-27.1-12.9-37.6-16.5-4.5-1.6-7.9-5.3-9-9.8-10.6-5.3-20.4-8.4-27.5-10.2-2.4 1.8-5.4 2.8-8.5 2.8-1.6 0-3.2-.3-4.8-.8-6-2.2-25.4-8.1-29.2-9.2-3.6-1.1-6.6-3.5-8.3-6.6l-10.3-4.2c-1.3.4-2.6.5-3.9.5-1.6 0-3.2-.3-4.8-.8-5.8-2.1-15.3-3.2-26.9-3.2-10.4 0-18.8.9-18.9.9-.5.1-1 .1-1.5.1-3.2 0-6.2-1.1-8.7-3-1-.3-3.3-.9-6.1-1.4l-4.4 1.6c-1.6.6-3.2.9-4.9.9-17.4 0-33 2.9-40.5 4.7l-.2.3c-2.6 4.1-7.1 6.6-11.9 6.6-1.3 0-2.5-.2-3.8-.5l-6.8-1.9-5.5 1.1c-2.4 4-6.7 6.7-11.6 6.9-90.5 3.7-159.6 50.5-160.3 50.9-2.3 2-5.1 2.9-7.9 2.9z" fill="#232435"/><path d="m225.6 411.9c-.9-1.2-2.6-1.7-4.8-.9-1.4.5-4.9 2.9-6.4 3.8l-15.7 10.2c16.4-13.1 5.3-64.9 3.6-71.9-.3-1.1-1.9-3-4.3-1.8-.8.4-48.1 29.8-48.1 29.8-9.1 6.2-6 9.7-6 9.7l.6 1 29.1-18.1c.6-.3 1.9-.5 3 2.3 2.2 5.8 3.2 16.2 3.7 22.5 1.7 20.5-3.6 34.2-6 41.9-.7 2.1.1 3.3 1.4 3.8 1.5.7 2.9-.3 2.9-.3l47.9-30.3c-.2-.6-.5-1.2-.9-1.7zm479.4-28.9c-16.6-14.7-102.9 1.1-102.2 2.2 5.4-1.6 10.4-7.1 10.1-12.3 0 0-.3-7.9-1.5-11.1-.6-1.5-1.4-3-7.3-2.1-16.7 2.5-32.4 7.4-48.2 13.8-2.8 1.1-3.7 2.3-5.9 5.1-5.6 7.1-12.3 20.3-12.8 21.4-5.1 1.6-28.3 11.5-28.2 11.6 14.4-7 25.8-54.4 26.2-61.4 0-1.5-1.8-3.3-4-2.7-3.7 1-14.6 4.7-23 7.5-1.6.5-1.9 1.6-2 2.4-.2 1.1-10.8 60.1-26.7 67.4-4.9 2.2-5.9-2-6.4-3.4-7.7-24.7 15-71.9 17-74.6 1-1.6-.9-4.9-4.3-3.7-5.4 2.3-14 5.8-18.3 8-2.8 1.3-18.7 16.9-22.3 62.7-2.2 1.1-20.1 10.4-22 11.4 4.3-2.6 6.9-8.3 6.5-11.8-3.6-24.7 8.7-49.3 11.5-54 3.2-5.7.1-8.4-3.6-6.8-4.6 2.1-8.9 4.2-13.3 6.4-1.2.6-3.1 1.6-4.3 2.5l-.1.1-.1.1h-.1l-.2.2-.1.1-.1.1v.1s-.1 0-.1.1l-.1.1-.1.1-.1.1-.1.1-.1.1s0 .1-.1.1l-.1.1-.1.1s-.1.1 0 .1c0 0-.1 0-.1.1l-.1.1-.1.1v.1l-.1.1-.1.1v.2s0 .1-.1.1l-.1.1-.1.1c0 .1 0 .1-.1.1v.2s0 .1-.1.1c0 0-.1.1-.1.2 0 0 0 .1-.1.1l-.2.2s0 .1-.1.1c0 .1-.1.1-.1.1 0 .1-.1.2-.1.3 0 0-.1.1-.1.2l-.1.1c-.1.1-.1.3-.2.4 0 .1-.1.1-.1.2-3.7 6.5-6.7 13.6-9.1 21-3.4 10.7-4.9 20.9-4.8 29.6 0 1-.3 1.5-1.2 2.2-.5.3-1 .6-1.6.9-3.7 2-7.4 4-11 6.1 0 0-4.4 3.3-5.6-3.5-4.7-24.2 3.3-47.2 6.4-55 .4-.6.9-1.1 1.4-1.5 14.3-7.8 28.9-15.3 43.9-22.4l-.7-1.1s-2.4-5.3-14.2.5c-.4-.4-48.4 24.9-49.7 26.4-2 1.3-12.6 19.9-14 46.7-6.2 3.7-12.4 7.5-18.5 11.3-.8.5-1.6 1.1-2.5 1.6-3.3 2.1-6.7 4.3-10 6.5 4.6-3.6 3.4-12.1 3.3-12.2-1.4-6.8-1.7-13.4-1.2-23.4.5-11 2.2-21.3 4.8-29.2 0-.2.1-.3.2-.5 14.5-9.1 29.4-17.8 44.6-26.2 0 0-.7-1.1-.8-1.1 0 0-2.7-5.2-14.2 1.4-11.4 6.5-22.7 13.2-33.7 20.2 5.2-4 4.6-8 4.2-9.4 0-.1 0-.1-.1-.2-.8-2-2-3.8-3.2-4.9-.6-.5-1.8-1.7-3.9-.6-7 4.2-13.8 8.4-20.6 12.7-2 1.2-5.5 17.4-3.3 23.8.7 1.9 2.5 2.2 4 1.7.7-.3 1.4-.9 2.1-1.3-1.5 4.6-2.8 9.5-3.7 14.3-3.4 17.3-2.3 32.5 1.7 43.2.7 1.8 2.6 6.1 3.6 7.7.7 1.1 2.2 2.2 4.1 1 13.8-9.8 28.2-19.2 42.9-28.3.3 6.7 2.6 15.9 5.2 22.4.4 1 2.3 2.6 4 1.4 12.3-7.6 24.9-14.9 37.8-22 .3 2.2.8 4.3 1.4 6.2.9 3 2.5 6.7 6.1 6.6 2.3-.1 5.5-2.1 7.7-3.3 2.4-1.3 4.9-2.6 7.3-3.8 6.3-3.3 12.8-6.5 19.2-9.7.2 4.4 2.6 20.1 3.7 23.5.6 1.7 2.4 2.6 4.5 1.6 2.3-2.4 64.3-34 71.1-35.5-3.7 12.2-4.9 29.6-2.6 39.9.4 1.7 1 2.3 2.4 2.5 3.3.2 40.4-15 56.1-19.4 5.7-1.7 6.2-1.7 10.2-7 3.6-4.8 6.9-9.8 9.7-14.7 4.8-8.3 8.2-16.4 10.3-23.9 3.9-1.5 36.3-5.8 48.8-5.4 0 0-13.5 5.4-18.4 7-1.5.5-1.9 1.3-2.1 2.5 0 1.5-.9 35.3-18 52.7-2.8 2.5-11.5 6.7-10.3.2.6-3.3 2.5-10 3.5-14.2.2-.8.2-1.8-.7-2.7-.6-.6-1.9-1.2-3.1-.8-7.8 2.8-15.6 5.8-23.3 8.8 0 0-1.5.5-1.8 2.2-.5 2.4-1.1 6.6-1.3 8.8-.3 3.9-1.6 15.4 4.2 16.6.6.1 1.5-.2 1.5-.2 6.8-2.5 43.2-12.6 43.4-12.4 5.2-1.2 8.3-3.8 11.4-7.3 3.4-3.9 6.7-8.9 9.4-13 11.7-17.7 17-34.9 14.7-47.2 1.6.2 16.3 2.2 26.8 9 4.3 2.8 8.8.5 9.9-.5 5.7-4.3 2.1-9.1.5-10.5zm-127.1 23.7c-2.7 8.2-6.1 15.9-9.5 22.2-1.2 2.3-2.5 3.1-4.7 3.9-.5.2-11.2 4.1-13.9 3.8-2.9-.4-2.7-3-2.6-5.1.3-6.9 1.9-15.7 4.7-25.3.4-1.3.8-2.5 1.2-3.8 9.4-2.4 18.2-5.2 28.1-7.5-.8 3.7-1.9 7.6-3.3 11.8zm-12.9-14.2c2.2-5.4 4.7-10.4 7.2-14.6 1.3-2.1 1.6-2.5 3.3-3.2.6-.2 3.5-.9 4.1-1 2.8-.3 3.8 1.4 3.9 3.8.1 3.1-.2 6.7-.9 10.7-6 1.3-11.8 2.7-17.6 4.3z" fill="#f6f7f7"/><path d="m273 349.1c-.6-.5-1.6-1.4-3.5-.6l-14.5 9.2c4.1-4.3 5.6-14.2 5.7-16.4.6-18.6-14.3-34.6-14.8-35.2-.9-.9-1.8-1.5-3.8-.3l-92.9 57.9c-9.2 6-6 9.7-6 9.7l.6 1 71.2-44.4s1.4-1.1 3.2.1c4 2.7 13.7 13 12.7 30.3-.7 13.2-10.6 18.8-10.6 18.8-9.2 5.7-6 9.7-6 9.7l.6 1s26.6-16.5 27.5-17.1c2.6-1.5 4.4.5 4.4.5 4.5 5.2 8.3 11.4 11.1 18.4 10.3 25.6 3 74.1-35.4 96.3l-24.7 15s-5.8 3.4-8.5 5c-.4.3-1.3.4-2.1.3-.9-.2-1.9-.9-2.4-3-3-12.9-.5-28.8 2-42.3.2-1.3.5-2.6.8-3.9.5-1.8 1.2-2.2 2.7-3.1 0 0 15.2-9.2 16.4-9.6 1.5-.5 2.9-.1 3.6.9.8 1.3 1.3 17.4-4.3 20.9-8.7 5.5-4.5 9.7-4.5 9.7l29.6-18.2s1.2-.5 1.7-1.7c2.2-4.8 8.6-19.5 11.1-37 .5-3.2-2.7-3.8-4.2-3l-13.3 8.3-58.5 37.1c-3.1 1.9-5.1 3.1-5.5 3.4-1.5 1-2.5 2.1-3.2 3.9-1.3 3.2-6.2 49 1 59.4.8 1.2 2.7 1.4 3.7.9.3-.2 3.5-2 8.3-5 21.1-12.6 56.4-33.7 75.1-45.1 37.4-22.7 41.1-46 44.4-57.4 12.1-40.5-17.8-73.5-18.7-74.4z" fill="#f6f7f7"/><path d="m635.9 535.2s-7.1-21.8-31-34c0 0 9.2 2 12.1 3.3 4.4 1.9 12.5 5.8 12.5 5.8s-10.3-13.3-50.3-25.3l2.8-1.7s-17.2-10.1-48.9-16.5l-1.8-4.7-9.6.8s-19-5.3-35.4-1.7l.9-5.6-11.2 1.7s-26.4-4.3-28.1-5.7l-2.2 3.2s-41.9-2.5-69 4.2l3.2-4.1s-27.8 3.2-50.1 18l-6.5-3.5s-74.8 13.4-159.2 75.3c0 0 71.7-49.5 167.7-53.4l-.2-.2c-12.1-1.6-33.2-.3-45.7.8l1.8-2.1c17-4 48.7-9.8 72.3-4.8.4.1 3.2-4.3 3.2-4.3s22.4-6.4 49.4-6.4l7.7-2.8s13.1 1.3 16.4 4.7c0 0 33.5-3.7 52.1 3.1l-.1-3.2 33.2 13.3-6.6.7s23 7 30 9.5l-1.9-5s28.3 2.8 57.7 21.6l-6.1.8s29 10.1 40.9 18.2z" fill="#d70f16"/></g></svg>
