<svg xmlns="http://www.w3.org/2000/svg" viewBox="0 0 722.006 404.713"><linearGradient id="a" gradientUnits="userSpaceOnUse" x1="361.003" y1="16.41" x2="361.003" y2="379.692"><stop offset="0" stop-color="#fff"/><stop offset="1" stop-color="#b8b8b8"/></linearGradient><path d="M353.693 1.121L120.572 82.215c-5.734 1.819-12.097 11.001-10.492 17.105 11.234 42.717 66.298 188.281 242.355 264.365a21.315 21.315 0 0 0 16.96 0c177.154-76.558 231.764-223.588 242.56-265.15 1.475-5.678-4.682-14.412-10.011-16.103L368.138 1.121a23.822 23.822 0 0 0-14.445 0z" fill="url(#a)"/><path d="M370.28 352.068a21.863 21.863 0 0 1-18.734 0c-82.783-39.106-148.145-93.963-194.471-174.553-16.018-27.868-27.062-53.792-34.452-74.318-2.246-6.236 1.014-13.162 7.095-15.157l223.57-81.927a24.408 24.408 0 0 1 15.251 0l224.316 82.171c5.677 1.863 8.714 8.317 6.628 14.143-7.389 20.638-18.508 46.864-34.733 75.088-46.324 80.589-111.688 135.447-194.47 174.553z" fill="#002d00" stroke="#5b5b5f" stroke-miterlimit="10"/><path d="M370.074 339.056a22.082 22.082 0 0 1-18.321 0c-80.979-36.83-144.917-89.589-190.233-165.489-15.482-25.934-26.214-50.081-33.442-69.3-2.337-6.216.886-13.174 7.042-15.165L353.31 9.964a24.674 24.674 0 0 1 15.207 0l218.948 79.382c5.716 1.849 8.759 8.305 6.601 14.082-7.228 19.347-18.046 43.821-33.76 70.139-45.314 75.9-109.254 128.659-190.232 165.489z" fill="#00652e" stroke="#004302" stroke-miterlimit="10"/><path d="M369.414 328.933a20.158 20.158 0 0 1-16.983 0c-75.063-34.729-134.329-88.516-176.335-160.087-14.351-24.455-24.299-47.224-30.999-65.348-2.167-5.861.821-12.422 6.528-14.3l202.249-75.162a22.498 22.498 0 0 1 14.096 0l202.952 75.393c5.299 1.744 8.119 7.831 6.119 13.279-6.699 18.244-16.728 41.322-31.293 66.139-42.004 71.57-101.272 125.357-176.334 160.086z" fill="#029f32"/><linearGradient id="b" gradientUnits="userSpaceOnUse" x1="525.042" y1="267.806" x2="216.446" y2="14.316"><stop offset=".029" stop-color="#3d0000"/><stop offset="1" stop-color="#b00d13"/></linearGradient><path d="M369.736 326.427a20.056 20.056 0 0 1-16.883 0c-74.623-34.485-133.542-87.895-175.301-158.964-14.267-24.283-24.157-46.893-30.817-64.889-2.154-5.82.816-12.335 6.489-14.2l201.064-74.635a22.395 22.395 0 0 1 14.013 0l201.762 74.864c5.268 1.731 8.072 7.776 6.083 13.186-6.66 18.116-16.63 41.032-31.11 65.675-41.757 71.068-100.678 124.478-175.3 158.963z" fill="url(#b)"/><path d="M308.76 361.477a.008.008 0 0 1-.002-.004l.002.004z" fill="none"/><path d="M303.759 348.496l.01.044a.567.567 0 0 0-.01-.044z" fill="#002d00"/><g><path d="M705.769 78.857c-18.898 4.62-39.751 9.287-61.51 13.675l-3.19.637-52.793 9.903-5.304.788c-6.675.991-13.734 1.98-21.553 3.02-7.678.999-15.449 1.949-23.027 2.818l-43.931 4.699-.001-.001-3.182.291c-20.274 1.851-41.332 3.277-64.381 4.356l-3.603.169-.069.077-10.376.409c-7.724.3-11.5.422-19.191.619-5.951.119-12.08.208-18.725.272l-4.475.037c-20.705.115-41.941-.149-63.071-.785-4.567-.167-6.85-.259-11.426-.463a1008.89 1008.89 0 0 1-36.346-2.208c-3.142-.243-4.712-.369-7.85-.629l-7.052-.584-.001.003-7.309-.717a2166.865 2166.865 0 0 1-17.56-1.808c-3.793-.41-12.256-1.329-18.69-2.028-22.604-3.07-48.668-7.213-66.491-10.132l-2.922-.513c-6.46-1.133-12.926-2.266-19.368-3.432-3.347-.608-46.317-10.657-70.026-16.216-1.956-.458-10.419-2.873-15.682-1.55-2.996.754-6.449 2.153-9.201 3.569-1.101.566-4.442 3.246-5.468 4.646-1.459 1.992-3.053 4.412-3.913 5.571-2.826 3.806-5.54 7.121-7.405 11.142-1.071 2.31-.555 4.712-.507 4.96.391 2.028.935 4.649 1.211 5.734 5.85 23.044 24.107 103.699 35.831 142.734l.928 2.929a4.122 4.122 0 0 0 2.19 2.462l28.139 13.044c.06.028.12.054.181.079l2.652 1.083c.56.229 1.156.324 1.735.277l2.139-.174s33.166-4.21 40.716-5.254c4.686-.648 9.114-1.26 11.503-1.541l6.144-.733.103-.183 7.559-.848c5.171-.589 10.184-1.153 15.103-1.705 18.197-2.044 35.408-3.975 54.645-6.546 3.806-.423 5.738-.644 9.593-1.093 13.369-1.594 26.272-2.781 38.299-3.525 4.91-.274 7.533-.429 12.134-.721l.003.006 7.3-.483a967.427 967.427 0 0 1 38.603-1.614c3.93-.085 5.897-.133 9.726-.24 26.205-.393 52.391-.134 77.756.773 3.945.168 5.918.246 9.863.389l2.787.101.104.098 6.691.418c14.914.853 30.683 2.171 48.231 4.034l5.737.579.076-.042s141.692 14.22 180.583 16.137l1.659.082a3.882 3.882 0 0 0 2.545-.818l1.342-1.032c10.091-7.747 14.958-12.179 24.938-20.119l1.17-.929a3.993 3.993 0 0 0 1.403-2.157l.334-1.357c5.438-22.018 9.81-44.602 14.067-66.443l1.315-6.727c.171-.872.005-1.744-.467-2.45l-.772-1.154-3.155-4.715c-1.471-2.197.235-5.315 3.09-5.644l.074-.008 3.62-.416c1.847-.212 3.381-1.672 3.609-3.433l.424-3.271c1.812-13.96 3.774-26.573 5.302-37.268.349-2.444 2.575-17.688 2.942-19.789.73-4.172-1.757-6.591-2.763-8.196-1.877-2.994-4.527-6.085-6.948-9.102-1.363-1.698-5.188-2.119-6.395-1.824zm-213.794 43.176l.001-.001.005.068-.006-.067z" fill="#fff"/><path d="M711.64 92.919c-.921-1.693-2.352-3.368-3.587-4.71-1.083-1.177-1.818-1.805-2.211-1.708-21.227 5.239-39.012 8.793-60.635 13.163-1.281.258-1.518.584-2.8.839-.001.001-.38-.121-.382-.12l-33.512 74.042 13.71 28.417-13.931-.971s-4.557.064-6.672-3.306c-1.312-2.09-2.091-18.975-2.091-18.975s-1.477-49.947-1.779-53.91c-.303-3.963-3.262-5.923-3.262-5.923l-11.839-8.409c-16.38 2.486-27.138 3.45-43.658 5.347l-7.079 50.445-23.355 34.206s.583-5.952 1.388-14.218a.688.688 0 0 1-.029-.295c.122-2.183-1.464-2.642-1.464-2.642l-19.281-1.608s16.84.115 19.037-.115 2.319-2.183 2.319-2.183l.097-.121c1.733-17.805 3.942-40.646 4.056-42.48.087-1.402.439-3.835-2.556-6.417-.481-.414-6.364-4.644-9.326-6.665-.988-.674-2.419-1.094-3.351-1.253-3.388-.576-7.615-1.342-7.661-1.339-3.175.182-5.438.325-5.464.306-21.395 1.958-37.351 2.739-58.845 3.751l-.472.222c-2.943 3.348-8.284 10.294-11.773 12.918-.078.058-2.193-10.151-2.508-12.321l-.802.034c-9.406.385-10.249.216-19.872.501-28.334.84-56.645.614-84.908-.283-1.905-.06-4.07-.172-5.527-.235-2.051-.089-3.329-.132-6.008-.252-12.214-.528-24.286-1.489-36.432-2.457-2.962-.23-4.532-.355-7.321-.586-.317-.026-.609.177-.67.47l-1.561 7.461a221.148 221.148 0 0 0-1.307 6.973c-.105.61-.998.653-1.221.061-1.406-3.734-2.898-7.423-4.628-11.143a2047.64 2047.64 0 0 1-2.274-4.503l.009-.342c-.732-.024-1.517-.06-2.33-.103-.959-.096-1.849-.186-3.112-.315-4.996-.511-11.247-1.147-18.261-1.921-1.58-.175-4.667-.473-10.572-1.119-6.188-.812-7.305-.626-13.936-1.586-1.588-.23-6.662 2.196-9.924 3.67-1.541.697-3.308 2.383-3.008 5.117.754 6.868 3.335 20.861 4.765 29.793a291.338 291.338 0 0 0 1.525 8.631c1.423 7.496 3.582 7.326 7.162 7.948 5.147.894 10.983 2.149 11.007 2.293.703 4.211 6.515 29.785 5.937 30.317-.129.118-3.738.235-9.249-1.696-9.545-3.344-21.037-9.48-23.509-9.687-3.853-.323-12.447 9.53-15.292 6.944-7.538-6.848-4.146-30.585-4.678-31.842-6.119-14.469 6.579-55.591 2.159-56.231-2.339-.339-21.195-3.804-29.461-5.17-10.094-1.806-17.544-3.019-27.596-4.935-.933-.178-5.389 1.478-7.128 2.065-3.043 1.028-2.348 2.842-2.265 3.251.407 2.018-.13.264.244 2.473a1239.183 1239.183 0 0 1-10.512-11.073l-2.389-1.379c-16.775-3.993-32.145-7.375-48.543-12.162-1.093-.319-9.049 4.342-11.993 6.338-.601.408-1.594 1.588-1.841 1.953-3.698 5.456-5.704 8.477-6.772 10.151-1.851 2.903-1.305 5.835-1.344 6.982 9.706 49.079 23.507 97.187 37.823 145.185l.402.46 24.761 11.512.3.122 1.021.414 1.068-.087s14.783-1.256 19.716-1.694c5.986-.532 23.254-3.081 30.405-3.974.387-.048 3.853-.59 4.677-2.39.9-1.59 1.986-3.516 3.064-5.437.243-.433.912-.352 1.11.133.645 1.578 1.133 2.693 1.167 2.831.808 3.363 3.648 3.11 4.233 3.044 24.802-2.823 45.897-5.036 70.515-8.323 3.855-.427 5.783-.646 9.638-1.095 12.94-1.539 25.951-2.769 38.886-3.568 5.096-.283 7.721-.439 12.67-.753a.602.602 0 0 0 .554-.478l.566-2.942c.104-.537.834-.647 1.129-.17.618.999 1.119 1.807 1.847 2.979a.657.657 0 0 0 .591.307l2.074-.139c13-.8 26.029-1.348 39.014-1.627 3.92-.084 5.88-.132 9.801-.24 26.181-.392 52.268-.152 78.399.78 3.718.158 5.679.235 9.205.364a.626.626 0 0 0 .65-.591l.116-3.368c.019-.544.711-.791 1.08-.388 1.384 1.515 1.676 1.82 2.001 2.128.915.871 1.452 1.381 2.237 2.125l1.346.577c18.079.965 36.103 2.546 54.128 4.489l1.332-.275c.742-.413 1.271-.709 2.153-1.202.465-.26 1.07-.635 1.896-1.18l-.627 2.373a.589.589 0 0 0 .515.741l61.655 5.925a1897 1897 0 0 0 114.569 9.274c.721.036 2.817-.211 3.961-1.079 8.485-6.438 13.325-10.298 21.628-16.893.477-.379 1.913-2.376 2.015-2.796 5.47-22.555 9.789-45.455 14.19-68.24l-.582-3.016a3475.473 3475.473 0 0 1-11.806-17.687c-.25-.375.047-.913.533-.962 6.173-.624 9.962-1.028 15.628-1.671.812-.092 3.137-.704 3.469-3.116 2.451-17.768 4.253-35.582 6.351-53.392.407-3.429-.043-4.118-.72-5.363z" fill="#002d00"/><g fill="#00652e"><path d="M410.608 188.227c-1.693-.042-2.54-.065-4.234-.112-8.557-.074-13.036-.105-21.782-.158-1.226.152-1.839.228-3.066.378l-.095 11.899c-7.707-.09-15.154-.116-23.097-.141-.071-.561-.198-2.88-.268-3.436 5.287.015 9.312.044 15.845.075 1.499.017 2.248.025 3.747.039l-.292-3.732c-.337-5.057-.523-7.325-.708-9.593-.181-2.229-.362-4.458-.685-9.428l-.259-3.385c-1.337.003-2.006.003-3.343.003-7.535.02-12.011.012-18.332-.003-.067-.567-.183-2.888-.249-3.44 9.304.012 17.548.037 26.576-.049.223 5.006.335 7.509.562 12.515a1285.6 1285.6 0 0 0 3.389-.238c7.956-.049 22.522-.217 26.618-.29.607-17.42 1.212-34.84 1.815-52.261-7.725.3-11.588.425-19.314.624a1756.39 1756.39 0 0 1-84.435-.316c-1.843-.062-2.764-.094-4.606-.162a5807.109 5807.109 0 0 0 6.375 39.694l2.641.039c2.786.057 4.72.091 6.881.128-.161.123 3.211 32.507 3.07 33.188-1.245.004-4.748.03-7.23.031.001.004-7.964.07-9.692.085-1.774-7.55-7.009-27.504-8.448-33.801 1.277.035 2.637.072 4.327.115 2.071-.055 3.107-.085 5.178-.147a6041.216 6041.216 0 0 1-5.896-39.446c-1.592-.065-2.388-.099-3.98-.168a1014.65 1014.65 0 0 1-36.327-2.149c-1.709-.129-2.563-.195-4.27-.329l-.897 4.379c-1.614 7.861-2.759 16.269-3.912 25.134a446.642 446.642 0 0 1-3.02-8.099c-2.532-6.981-4.893-13.588-8.035-20.187l-1.307-2.765c-1.152-.113-1.728-.169-2.879-.284-4.984-.499-11.224-1.122-18.109-1.867-6.52-.706-26.877-2.925-26.877-2.925s1.665 13.613 3.643 23.017c1.941 9.058 3.137 14.335 3.835 17.304.633 2.692 2.972 3.62 3.878 3.676 2.244.137 4.063.242 6.888.401 3.308 14.294 6.639 28.601 10.044 42.902-1.557.094-8.136.124-10.787.123a3561.112 3561.112 0 0 0 8.788 34.235c13.933-.953 27.858-2.031 41.774-3.016 2.435-.166 3.653-.252 6.088-.427-.577-2.368-.865-3.552-1.439-5.921-.546-2.259-1.304-5.698-1.743-7.612 2.465 3.417 3.701 5.123 6.18 8.528l2.034-8.96a445.794 445.794 0 0 0 2.439 9.134c.483 1.734.724 2.601 1.209 4.334 1.8-.092 2.701-.139 4.501-.236a996.002 996.002 0 0 1 38.694-1.584c2.062-.057 3.093-.087 5.156-.151l.001.005c1.817-.033 2.725-.051 4.542-.089 25.969-.394 51.848-.178 77.769.702 1.368.055 2.052.082 3.421.135.569-15.307 1.138-30.611 1.705-45.915zM671.394 141.828l-.69 4.186c-.156.943.616 1.726 1.61 1.632 9.878-.93 15.565-1.522 25.547-2.658.785-.089 1.445-.704 1.548-1.449a4927.485 4927.485 0 0 0 7.434-55.659c.13-1.015-.814-1.772-1.887-1.513-19.957 4.836-40.108 9.24-60.408 13.314l-1.387.278-1.226.244-.956.819c-5.93 5.067-9.039 8.179-15.401 14.933l-.807.851-.357 1.141c-3.994 12.488-7.35 25.419-10.513 38.181-1.408 5.619-4.854 15.894-5.662 18.29-.123.364-.107.739.052 1.072 1.228 2.594 7.118 13.272 8.736 16.211.256.466.76.746 1.322.737 11.673-.187 23.347-.356 35.009-.648 1.013-.025 1.713.862 1.431 1.82a1513.064 1513.064 0 0 1-4.73 15.735c-.216.707-.913 1.203-1.657 1.19-6.545-.119-11.432-.228-17.09-.364-1.003-.024-1.659-.943-1.34-1.889l.477-1.419a4689.87 4689.87 0 0 0 1.69-5.062c.319-.959-.363-1.894-1.384-1.895a2830.617 2830.617 0 0 1-29.066-.209 1.699 1.699 0 0 0-1.608 1.118l-.842 2.411a152.774 152.774 0 0 0-1.573 4.815 1.68 1.68 0 0 1-1.672 1.163c-2.237-.11-6.818-.334-9.237-.446-.787-.037-1.384-.638-1.398-1.403-.581-31.594-1.156-63.187-1.836-94.781-.019-.883-.833-1.518-1.768-1.38a1427.68 1427.68 0 0 1-49.283 6.403c-.744.084-1.35.632-1.463 1.332-.905 5.583-4.707 29.116-5.851 34.14-.5 2.178-.814 3.544-1.221 5.309-.229.995.597 1.89 1.652 1.786 1.261-.124 2.336-.231 3.524-.352 1.274-.129 2.116 1.149 1.463 2.224-8.349 13.828-16.467 27.861-24.599 41.935-.305.53-.896.849-1.509.815l-5.037-.278a5569.7 5569.7 0 0 0-3.943-4.823 1652.889 1652.889 0 0 0 1.428-8.337c.153-.901-.541-1.708-1.481-1.722a3314.856 3314.856 0 0 1-25.441-.51c-1.31-.031-2.159-.051-3.196-.078-.822-.021-1.541.576-1.646 1.366l-.421 3.172c-.404 3.027-.699 5.218-1.009 7.453-.111.802-.854 1.394-1.684 1.35-6.205-.327-11.062-.507-16.951-.693-.895-.028-1.573-.778-1.484-1.643.638-6.219 1.217-11.015 1.775-15.694.607-5.104 1.225-10.348 1.901-17.405.075-.777.753-1.395 1.565-1.419 2.803-.081 5.296-.147 7.697-.215 3.703-.106 7.276-.219 11.451-.431.969-.049 1.733.74 1.614 1.664a2359.4 2359.4 0 0 0-.68 5.336l-.325 3.24c-.088.878.606 1.627 1.52 1.63 5.605.017 23.474.068 26.858.028 1.139-.066 1.882-.11 2.779-.164.762-.046 1.405-.611 1.522-1.339l.448-2.788c.923-5.785 1.627-12.382 2.295-18.758.488-4.685 1.474-12.497 2.03-17.225.328-2.792-2.172-5.839-3.06-6.475a1545.676 1545.676 0 0 1-10.823-7.816 1.642 1.642 0 0 0-1.109-.3c-20.052 1.838-43.313 3.108-63.454 4.116-.439.022-.847.21-1.136.527-2.217 2.431-8.85 10.179-10.895 12.356a1.474 1.474 0 0 0-.404.945c-1.27 26.479-2.504 55.979-3.801 82.457-.023.472.18.925.55 1.227l.693.566c.042.034.081.068.119.107.806.813 3.647 3.888 5.391 5.765 2.56 2.75 2.992 3.203 3.291 3.482l.815.758 1.636.689c16.767.895 33.492 2.303 50.216 4.023l1.629-.332.728-.399c1.354-.744 4.612-2.966 9.76-6.587l1.325-.933.591-.165a459.568 459.568 0 0 1-.934 3.579l-1.13 4.25a1.482 1.482 0 0 0 1.334 1.863c11.406.887 17.79 1.319 29.47 2.001.57.033 1.13-.238 1.447-.718 2.231-3.374 10.22-16.948 13.536-23.706.285-.58.908-.934 1.555-.902 6.978.349 12.105.599 18.936.926.863.041 1.493.757 1.403 1.599-.582 5.436-1.942 15.534-2.04 16.267a1.452 1.452 0 0 0 .445 13.512 1914.591 1914.591 0 0 0 104.631 6.228c.389.012.776-.12 1.093-.369 3.02-2.375 16.553-14.786 19.098-16.865.279-.228.473-.529.563-.865 3.369-12.529 5.851-25.438 8.399-38.13 1.515-7.653 5.004-24.189 5.708-27.506a1.393 1.393 0 0 0-.205-1.075 3482.644 3482.644 0 0 1-13.367-19.886c-.285-.425-.794-.669-1.345-.633-4.234.276-22.491 1.465-28.333 1.77-.958.05-1.674-.709-1.537-1.62.458-3.046 1.389-9.397 1.93-12.349.118-.646.651-1.175 1.328-1.323 3.558-.779 14.651-3.212 21.334-4.687 1.107-.244 2.037.61 1.808 1.662l-.366 1.68c-.581 2.66-1.119 5.116-1.461 6.499a2.71 2.71 0 0 0-.021.112z"/></g><path d="M201.866 191.813c-9.824.874-15.341 1.319-25.061 2.019-.827.06-1.365.82-1.139 1.607.386 1.346.685 2.382 1.163 4.039.063.22.435 1.358.964 2.952.416 1.25 1.122 3.365 1.828 5.504a1.247 1.247 0 0 1-1.073 1.651l-7.219.766a1.474 1.474 0 0 1-1.559-1.086c-2.217-8.84-4.444-16.93-6.566-24.804-2.4-9.005-4.643-17.626-6.748-27.212l.758.085c2.235.246 4.466.488 6.792.718 2.08.202 3.376.326 5.073.483.915.085 1.617-.687 1.406-1.549-.549-2.247-.933-3.829-1.577-6.487-3.425-12.211-6.398-24.591-9.368-36.938-.134-.554-.618-.988-1.21-1.084-3.945-.64-18.629-3.026-23.917-3.956-10.812-1.904-21.654-3.778-32.419-5.806-.941-.177-1.724.532-1.559 1.418.796 4.281 2.784 15.127 3.309 19.308.387 3.042.818 6.29 1.317 9.658-.716-2.998-1.431-6.019-2.149-9.08-.529-2.27-.807-3.466-1.305-5.622a1.486 1.486 0 0 0-.365-.669 1271.29 1271.29 0 0 1-17.375-18.547 1.599 1.599 0 0 0-.798-.467c-17.266-4.06-34.324-8.528-51.385-12.829-.578-.145-1.157.047-1.461.487-2.281 3.304-11.504 16.782-11.809 17.882l-.005.016-.073 2.835c9.938 46.971 23.801 92.929 37.968 138.891.066.217.186.42.347.59 1.117 1.183 2.288 1.682 13.158 5.57 2.545.907 7.585 2.916 8.883 3.435.207.083.417.116.632.098 2.164-.177 14.674-1.201 19.109-1.581 6.676-.572 23.71-2.407 27.206-2.785.403-.044.743-.263.936-.602 1.405-2.462 7.23-12.638 7.454-13.188l.354-.91c1.019 2.921 3.779 9.47 4.84 11.974.249.587.867.951 1.49.881 23.811-2.647 47.562-5.809 71.277-8.896l1.336-.171a1.252 1.252 0 0 0 1.07-1.557 4069.243 4069.243 0 0 1-10.998-45.955c-.155-.677-.826-1.148-1.532-1.086zM81.468 215.827A1.499 1.499 0 0 1 80 214.801c-1.11-3.467-2.922-9.075-5.838-18.29-5.344-17.211-10.472-34.493-15.087-51.924-.244-.92.541-1.708 1.516-1.515 1.965.388 4.062.793 6.12 1.184 2.865.544 6.145 1.154 8.58 1.621a1.516 1.516 0 0 1 1.179 1.067c6.003 22.166 12.035 44.401 18.341 66.601.219.776-.289 1.509-1.093 1.567-4.303.315-8.841.589-12.25.715zm52.173-1.705c-2.01.19-3.193.3-4.91.457a1.498 1.498 0 0 1-1.543-1.028c-6.16-19.886-11.782-39.905-17.068-60.026-.233-.885.488-1.668 1.429-1.546l.708.092c3.142.406 5.295.678 7.723.981.616.077 1.132.53 1.267 1.112 2.759 11.915 6.114 23.713 9.621 35.335 2.221 7.27 4.513 14.768 6.835 22.738a1.233 1.233 0 0 1-1.08 1.6c-.899.087-1.867.179-2.982.285z" fill="#00652e"/><linearGradient id="c" gradientUnits="userSpaceOnUse" x1="75.877" y1="91.962" x2="75.877" y2="250.362"><stop offset="0" stop-color="#ebebeb"/><stop offset=".361" stop-color="#c2c2c2"/><stop offset="1" stop-color="#d2e7da"/></linearGradient><path d="M79.075 250.141c-2.901-1.178-13.822-4.936-17.645-6.492a3.097 3.097 0 0 1-1.742-1.793c-15.917-43.311-27.025-89.47-36.57-134.803a2.42 2.42 0 0 1 .319-1.829c1.574-2.452 6.304-8.991 8.283-12.096.598-.937 1.795-1.37 2.997-1.075 15.24 3.744 30.169 8.433 45.634 11.815.571.125 1.11.411 1.53.814 5.473 5.255 8.625 8.741 14.51 15.576.302.351.521.768.625 1.199 9.126 38.052 18.759 76.186 31.532 113.18a2.6 2.6 0 0 1-.027 1.8c-1.737 4.38-2.795 6.639-4.668 9.068a2.565 2.565 0 0 1-1.743.98c-13.898 1.619-27.798 2.755-41.708 3.869a2.904 2.904 0 0 1-1.327-.213zm22-33.003c-6.841-24.707-13.569-49.42-20.625-73.836-.305-1.05-1.219-1.876-2.335-2.115-4.526-.971-16.203-3.115-22.413-4.4-1.943-.402-3.562 1.105-3.148 2.946 6.049 27.067 15.276 53.064 23.19 79.6a3.067 3.067 0 0 0 2.933 2.163c5.157-.064 15.151-.791 20.173-1.18 1.625-.126 2.658-1.606 2.225-3.178z" fill="url(#c)"/><linearGradient id="d" gradientUnits="userSpaceOnUse" x1="158.205" y1="109.423" x2="158.205" y2="243.842"><stop offset="0" stop-color="#ebebeb"/><stop offset=".361" stop-color="#c2c2c2"/><stop offset="1" stop-color="#d2e7da"/></linearGradient><path d="M142.164 242.795c-2.066-4.826-3.907-10.247-7.398-21.372a1.451 1.451 0 0 1 1.265-1.911c2.562-.244 4.416-.423 6.992-.674a1.455 1.455 0 0 0 1.278-1.882c-6.586-22.432-13.494-44.629-19.066-67.32-.167-.676-.776-1.201-1.495-1.289-3.784-.465-6.16-.766-9.894-1.248-.757-.098-1.394-.674-1.525-1.393-2.11-11.485-3.61-23.091-5.539-34.597-.174-1.034.74-1.86 1.834-1.654 15.012 2.826 30.075 5.597 45.269 7.983.699.11 1.274.622 1.431 1.276 2.568 10.751 5.191 21.513 8.236 32.108.297 1.037-.535 1.986-1.645 1.87-3.344-.349-6.554-.719-9.938-1.093-1.068-.118-1.91.757-1.696 1.767 4.392 20.788 10.4 41.029 15.331 61.722.192.81.992 1.375 1.826 1.288 6.894-.717 10.984-1.154 17.706-1.884.95-.103 1.55-.997 1.277-1.908-.905-3.023-3.001-9.185-4.059-12.311-.321-.948.318-1.887 1.326-1.956 3.635-.249 11.319-.94 14.442-1.25a1.711 1.711 0 0 1 1.784 1.157c3.747 11.638 6.783 23.738 9.704 35.721a1.475 1.475 0 0 1-1.266 1.832c-21.433 2.713-42.9 5.425-64.404 8.053a1.732 1.732 0 0 1-1.776-1.035z" fill="url(#d)"/><linearGradient id="e" gradientUnits="userSpaceOnUse" x1="255.26" y1="123.617" x2="255.26" y2="234.313"><stop offset="0" stop-color="#ebebeb"/><stop offset=".361" stop-color="#c2c2c2"/><stop offset="1" stop-color="#d2e7da"/></linearGradient><path d="M220.398 233.456c-.941-3.842-4.318-17.561-5.149-21.628a1.012 1.012 0 0 1 .914-1.217c3.174-.301 6.399-.387 9.513-.682a1.018 1.018 0 0 0 .905-1.257c-4.018-16.995-7.988-33.988-12.108-50.892-.116-.475-.552-.83-1.058-.866-3.399-.239-5.44-.389-9.329-.685-.306-.025-5.14-25.277-6.227-31.433-.121-.686.466-1.257 1.193-1.171 12.273 1.457 24.563 2.855 36.908 4.057.422.041.796.302.964.676 5.943 13.325 10.15 27.51 16.413 40.738.468.993 1.983.822 2.118-.24 1.618-12.675 3.066-25.438 5.456-38.037.1-.523.597-.882 1.16-.839 11.498.879 23.05 1.55 34.606 2.034.522.022.969.373 1.073.861 1.672 7.847 2.576 17.896 4.28 27.041.122.657-.408 1.241-1.103 1.223-3.061-.08-5.067-.137-8.03-.227-.71-.022-1.254.592-1.11 1.26 3.074 14.267 7.058 28.254 10.282 42.505.113.502.584.863 1.111.857 2.84-.031 3.3-.048 6.189-.071.55-.004 1.038.386 1.122.915.57 3.617 1.82 16.822 2.18 20.741.056.604-.424 1.114-1.044 1.129-12.118.294-22.568 1.131-34.716 1.869-.569.035-1.089-.361-1.184-.915-.663-3.877-2.226-17.915-2.753-22.092-.078-.615.404-1.141 1.039-1.153a2045.8 2045.8 0 0 1 7.156-.131c.68-.011 1.175-.609 1.028-1.258-2.352-10.374-4.636-23.164-5.876-30.183-.203-1.15-1.894-1.24-2.167-.117-2.533 10.458-8.211 34.011-9.868 41.971-.199.958-1.517 1.121-2.017.25-3.774-6.567-13.368-25.079-20.608-38.53-.589-1.09-2.276-.586-2.064.613 1.982 11.228 3.478 15.292 5.651 28.047.094.552.606.967 1.176.939 1.164-.059 3.074-.091 4.221-.137a1.148 1.148 0 0 1 1.16.908c1.853 9.279 2.883 13.998 4.735 21.809a1.034 1.034 0 0 1-.96 1.27c-12.007.731-21.898 1.523-33.942 2.896a1.148 1.148 0 0 1-1.24-.848z" fill="url(#e)"/><linearGradient id="f" gradientUnits="userSpaceOnUse" x1="359.258" y1="132.469" x2="359.258" y2="228.597"><stop offset="0" stop-color="#ebebeb"/><stop offset=".361" stop-color="#c2c2c2"/><stop offset="1" stop-color="#d2e7da"/></linearGradient><path d="M319.817 224.7c-.432-4.122-1.121-11.13-1.594-15.472-.226-2.067 1.418-3.839 3.556-3.845l3.328-.009c2.165-.005 3.822-1.824 3.565-3.914-1.06-8.599-3.176-28.652-3.824-36.568-.151-1.843-1.752-3.28-3.68-3.312-1.592-.026-2.99-.052-4.579-.083-1.899-.037-3.489-1.438-3.679-3.251-.559-5.319-1.489-15.994-2.121-21.797-.23-2.108 1.522-3.894 3.749-3.838 30.097.764 59.235.7 89.403-.14 2.127-.059 3.856 1.576 3.804 3.597-.294 11.449-.252 22.9-.367 34.348-.019 1.939-1.668 3.515-3.684 3.538-5.884.067-10.051.105-15.984.145-1.996.013-3.646-1.508-3.712-3.426l-.188-5.457c-.066-1.924-1.725-3.447-3.734-3.427-10.729.11-17.57.135-28.017.097-2.199-.008-3.91 1.815-3.665 3.91.204 1.749.386 3.324.602 5.187.208 1.803 1.804 3.181 3.689 3.187 6.039.021 10.242.024 16.318.01 1.949-.004 3.575 1.459 3.701 3.33.369 5.487.52 6.643.883 11.888.142 2.051-1.545 3.79-3.671 3.779-5.017-.025-8.718-.041-13.666-.061-2.188-.009-3.883 1.829-3.628 3.933.218 1.8.412 3.375.638 5.195.222 1.788 1.794 3.145 3.647 3.152 9.266.036 15.247.08 24.436.186 2.086.024 3.777-1.65 3.704-3.674l-.181-4.953c-.074-2.016 1.609-3.689 3.694-3.676 5.224.032 9.022.058 14.251.1 2.028.016 3.65 1.625 3.612 3.587-.224 11.615-.377 18.748-.74 28.191-.075 1.956-1.757 3.5-3.758 3.438-24.327-.756-54.068-.962-78.392-.652-1.899.025-3.522-1.392-3.716-3.243z" fill="url(#f)"/><linearGradient id="g" gradientUnits="userSpaceOnUse" x1="458.605" y1="127.35" x2="458.605" y2="233.505"><stop offset="0" stop-color="#ebebeb"/><stop offset=".361" stop-color="#c2c2c2"/><stop offset="1" stop-color="#d2e7da"/></linearGradient><path d="M424.344 228.883c-1.68-1.791-5.587-6.024-7.324-7.825a2.66 2.66 0 0 1-.746-2c1.348-24.663 2.546-49.332 3.815-73.997a2.684 2.684 0 0 1 .649-1.614c2.042-2.381 8.66-8.989 10.987-11.351a2.982 2.982 0 0 1 1.959-.873 2196.716 2196.716 0 0 0 55.765-3.861 2.915 2.915 0 0 1 1.812.435c1.848 1.177 6.357 4.051 8.587 5.668a2.605 2.605 0 0 1 1.06 2.537c-1.467 9.321-2.434 22.441-4.014 33.176-.198 1.349-1.383 2.394-2.796 2.463-6.452.313-11.573.313-16.466.275-1.644-.013-2.899-1.357-2.741-2.934.255-2.533.357-4.327.6-6.72.169-1.661-1.229-3.052-2.967-2.938-10.52.685-16.5.697-27.32 1.021-1.465.044-2.682 1.14-2.817 2.54-1.313 13.684-3.179 27.306-4.561 40.986-.157 1.563 1.07 2.915 2.683 2.967 9.632.307 15.54.497 24.978 1.022 1.499.083 2.842-.994 3.045-2.446.422-3.022.733-5.335 1.146-8.478.188-1.426 1.476-2.506 2.957-2.472 5.648.129 9.477.209 15.056.312 1.701.031 2.95 1.502 2.66 3.134-1.742 9.853-3.262 17.951-5.065 26.805a2.851 2.851 0 0 1-1.168 1.767c-2.104 1.466-7.187 5.051-9.556 6.563a2.9 2.9 0 0 1-1.855.447c-15.485-1.575-30.972-2.876-46.493-3.746a2.775 2.775 0 0 1-1.87-.863z" fill="url(#g)"/><linearGradient id="h" gradientUnits="userSpaceOnUse" x1="543.054" y1="117.189" x2="543.054" y2="245.225"><stop offset="0" stop-color="#ebebeb"/><stop offset=".361" stop-color="#c2c2c2"/><stop offset="1" stop-color="#d2e7da"/></linearGradient><path d="M492.814 234.173c2.025-7.85 3.229-13.212 5.383-23.366a1.302 1.302 0 0 1 1.334-1.008c3.09.172 5.038.279 8.209.453a1.31 1.31 0 0 0 1.202-.649c10.545-18.307 21.008-36.585 31.955-54.448.528-.857-.15-1.877-1.169-1.766-2.811.304-4.897.524-7.846.828-.83.085-1.48-.603-1.318-1.388 2.25-10.827 2.725-21.463 4.536-29.388.119-.52.585-.909 1.14-.976a1295.179 1295.179 0 0 0 38.856-5.26c.742-.112 1.387.392 1.404 1.094.311 13.149 2.601 63.229 3.619 94.425.019.601.486 1.059 1.105 1.087 3.48.159 7.486.415 11 .571.73.032 1.231.661 1.084 1.367-1.076 5.152-5.413 23.74-6.558 28.487a1.301 1.301 0 0 1-1.377.984c-4.734-.442-22.734-1.7-27.742-2.053a1.136 1.136 0 0 1-1.058-1.322c.737-4.912 2.825-23.089 3.002-27.846.024-.633-.481-1.147-1.13-1.176a4305.83 4305.83 0 0 1-28.669-1.4 1.311 1.311 0 0 0-1.265.766c-2.549 5.832-10.331 20.722-12.549 24.197a1.284 1.284 0 0 1-1.226.593c-2.872-.322-14.029-.718-20.889-1.338a1.169 1.169 0 0 1-1.033-1.468zm67.117-42.654c-.618-4.544-1.355-18.527-1.905-25.188-.098-1.181-1.742-1.441-2.351-.375-3.572 6.259-11.153 19.814-13.685 24.453-.42.771.08 1.663.959 1.718 3.69.232 12.009.664 15.634.805.797.032 1.451-.652 1.348-1.413z" fill="url(#h)"/><linearGradient id="i" gradientUnits="userSpaceOnUse" x1="647.863" y1="93.605" x2="647.863" y2="250.445"><stop offset="0" stop-color="#ebebeb"/><stop offset=".361" stop-color="#c2c2c2"/><stop offset="1" stop-color="#d2e7da"/></linearGradient><path d="M595.416 243.123c1.844-8.019 6.603-28.592 8.298-35.688.336-1.404 1.667-2.425 3.134-2.41 5.567.058 9.363.088 14.67.116 1.948.01 3.233 1.802 2.606 3.631-.341.996-.66 1.917-.999 2.89-.628 1.805.617 3.591 2.533 3.643 9.509.257 15.612.391 25.581.552 1.414.023 2.732-.922 3.142-2.269 2.152-7.054 4.843-16.08 7.045-23.771.522-1.819-.815-3.496-2.74-3.442-12.098.343-24.203.626-36.311.897-1.059.024-2.012-.488-2.512-1.353-1.492-2.577-4.392-8.005-5.273-10.337a2.69 2.69 0 0 1-.051-1.7c5.119-17.781 9.368-35.782 14.522-53.492.135-.462.392-.901.735-1.266 5.628-5.974 8.642-8.987 13.78-13.415.437-.376.976-.64 1.541-.757a2276.943 2276.943 0 0 0 51.705-11.259c2.031-.466 3.787.981 3.538 2.903-1.779 13.757-3.015 27.595-5.145 41.311-.208 1.343-1.366 2.454-2.78 2.682-4.354.702-7.545 1.215-11.917 1.908-2.031.322-3.656-1.282-3.242-3.203.709-3.281 1.593-7.515 2.292-10.571.451-1.97-1.26-3.593-3.351-3.209-9.862 1.814-19.613 4.225-29.43 6.349-1.232.267-2.219 1.199-2.512 2.364-1.493 5.944-2.231 12.778-3.783 19.339-.432 1.833.974 3.455 2.917 3.333 7.762-.484 24.535-1.793 29.891-1.979.981-.034 1.871.379 2.404 1.12 2.207 3.072 8.15 11.505 10.023 14.416.375.584.494 1.293.342 2.002-4.462 20.864-8.762 41.775-14.033 62.464a3.186 3.186 0 0 1-.824 1.452c-2.484 2.524-11.494 10.822-14.761 13.382a3.19 3.19 0 0 1-2.142.683c-20.186-1.17-36.581-2.189-56.465-3.977-1.689-.151-2.808-1.684-2.428-3.339z" fill="url(#i)"/><path d="M349.967 177.309l.133 1.534c.065.752.729 1.335 1.531 1.345 6.84.085 10.887.111 17.676.11.881 0 1.588-.692 1.556-1.521l-.056-1.416c-.031-.783-.712-1.406-1.544-1.411-6.849-.044-10.93-.097-17.712-.227-.92-.017-1.659.723-1.584 1.586z" fill="#fff"/><g fill="#fff"><path d="M388.544 161.69l-.942.043c-1.081.049-1.918.93-1.869 1.966l.322 6.747c.048 1.007.917 1.8 1.966 1.791l.749-.006c1.088-.01 1.962-.873 1.943-1.918l-.12-6.784c-.02-1.058-.947-1.89-2.049-1.839zM389.927 196.623l-.797.015c-1.093.021-1.955.918-1.904 1.975l.375 7.691c.052 1.07-.826 1.971-1.928 1.975-9.881.041-19.765-.007-29.635-.173-1.122-.019-2.015.889-1.943 1.977l.006.094c.064.978.891 1.753 1.898 1.778 11.347.273 22.713.41 34.073.41.593 0 1.926-.024 1.965-1.688.11-4.609-.086-7.606-.136-12.196-.012-1.041-.898-1.879-1.974-1.858zM320.272 209.092c.425 3.779 1.298 11.759 1.695 15.418.104.959.93 1.696 1.916 1.71.272.004.555.009.836.016 1.151.027 2.052-.927 1.927-2.046-.43-3.828-1.244-11.849-1.692-15.465-.118-.955-.962-1.673-1.951-1.675l-.831-.003c-1.142-.006-2.024.941-1.9 2.045zM327.366 163.783c1.004 7.547 4.123 32.627 4.815 39.646.095.963.928 1.703 1.924 1.717l1.092.015c1.183.016 2.088-.99 1.916-2.128-1.199-7.887-4-33.004-4.882-39.658-.124-.934-.951-1.638-1.932-1.658l-.973-.02c-1.186-.025-2.111.956-1.96 2.086zM312.668 136.729c.933 8.116 1.501 12.989 2.473 21.23.109.929.918 1.655 1.891 1.701l1.041.049c1.203.056 2.157-.938 2.009-2.084a5579.374 5579.374 0 0 1-2.187-17.101c-.142-1.121.776-2.094 1.96-2.072 27.858.527 55.697.419 83.601-.333 1.048-.028 1.899-.832 1.937-1.829l.001-.034c.041-1.078-.88-1.957-2.015-1.924-29.624.86-59.17.976-88.745.347-1.176-.025-2.094.935-1.966 2.05z"/></g><g fill="#fff"><path d="M478.45 169.49l.576.018c.975.03 1.733-.618 1.821-1.455.297-2.833.501-4.79.791-7.571.097-.933-.678-1.719-1.654-1.669l-.567.029c-.928.047-1.607.675-1.689 1.461l-.793 7.509c-.094.882.594 1.65 1.515 1.678zM468.511 210.302c-10.763-.477-17.815-.872-29.516-1.636-.888-.058-1.672.601-1.737 1.465l-.107 1.445c-.064.86.605 1.595 1.488 1.64 12.982.665 20.261 1.329 33.117 1.329 1.598 0 2.279-1.229 2.373-1.904.763-5.472 1.249-8.977 2.02-14.559.125-.902-.567-1.701-1.503-1.727l-1.236-.035c-.841-.024-1.58.59-1.688 1.401-.573 4.307-.951 7.129-1.494 11.178-.11.821-.868 1.441-1.717 1.403zM435.704 137.283c17.976-1.266 35.923-2.799 53.809-4.716 1.401-.15 2.016-1.8 1.006-2.699l-.431-.383a1.898 1.898 0 0 0-1.437-.459 2014.907 2014.907 0 0 1-54.253 4.294 1.736 1.736 0 0 0-1.106.499 1869.23 1869.23 0 0 1-11.028 10.936l-.005-.001v.006l-.003.003.003.002a81326.158 81326.158 0 0 1-3.222 73.157 1.53 1.53 0 0 0 .371 1.063l1.277 1.485c.928 1.079 2.747.467 2.821-.948 1.279-24.169 2.542-48.338 3.787-72.508.017-.335.152-.665.373-.928 2.654-3.162 4.599-5.488 6.851-8.199.29-.35.723-.571 1.187-.604z"/></g><g fill="#fff"><path d="M497.755 233.679l.717.059a1.98 1.98 0 0 0 2.079-1.507 5477.7 5477.7 0 0 0 4.139-17.995c.242-1.055-.477-2.066-1.569-2.195l-.915-.108c-1.005-.119-1.959.555-2.17 1.529a5661.662 5661.662 0 0 1-3.915 18.028 1.803 1.803 0 0 0 1.634 2.189zM561.14 241.507l.549.039c1.042.074 1.993-.703 2.121-1.729 1.199-9.61 1.893-15.241 3.057-24.803.134-1.095-.729-2.02-1.859-1.985l-.976.03c-.997.03-1.846.8-1.947 1.768-.996 9.6-1.58 15.159-2.598 24.726-.108 1.01.628 1.881 1.653 1.954zM568.836 191.149c-.793-6.117-2.78-22.07-3.802-27.215-.169-.851-.955-1.435-1.87-1.407l-1.013.03c-1.18.035-2.11 1.051-1.97 2.164.727 5.805 2.991 21.958 3.476 26.893.083.842.752 1.482 1.624 1.565.443.042.889.09 1.336.137 1.265.134 2.376-.947 2.219-2.167zM537.695 149.835c1.13-8.093 1.841-13.235 2.82-20.401.121-.886.885-1.593 1.822-1.688a1310.939 1310.939 0 0 0 30.529-3.44c1.069-.133 1.875-1.05 1.812-2.058l-.061-.974c-.065-1.044-1.035-1.779-2.142-1.623a1304.496 1304.496 0 0 1-35.061 4.457l-.351.032-.001.009-.176.02-.318 3.58a6059.255 6059.255 0 0 1-3.015 21.795c-.169 1.21.896 2.205 2.16 2.008l.277-.043c.884-.139 1.587-.829 1.705-1.674zM514.315 211.392l.041.001a2.004 2.004 0 0 0 1.803-1.011c9.598-16.999 26.835-45.799 32.177-55.347.742-1.322-.313-2.814-1.852-2.657l-.286.031a2.067 2.067 0 0 0-1.572 1.047c-3.064 5.643-21.235 36.839-31.844 55.227-.696 1.216.127 2.667 1.533 2.709z"/></g><g fill="#fff"><path d="M38.702 99.332c10.263 1.395 29.554 6.04 44.093 9.283-.808-.938-1.26-1.465-1.98-2.305a1.482 1.482 0 0 0-.786-.475 1274.238 1274.238 0 0 1-44.77-11.18c-.547-.147-1.103.039-1.389.459-2.9 4.258-4.539 6.659-7.505 10.991a1.144 1.144 0 0 0-.158.922A2802.207 2802.207 0 0 0 62.719 239.54c.122.407.447.751.853.91 2.684 1.052 4.454 1.74 6.827 2.654.965.372 1.874-.416 1.591-1.383-13.638-46.283-25.944-90.023-37.156-136.578.424-.697 1.432-3.658 3.868-5.811zM82.795 143.323a3112.884 3112.884 0 0 0 21.63 76.922c.213.723-.319 1.453-1.112 1.528-9.576.904-15.08 1.379-24.524 2.116-.912.071-1.461.993-1.045 1.76l1.078 1.986c.238.439.746.702 1.267.659 11.868-.967 18.316-1.553 30.01-2.734.801-.081 1.326-.827 1.093-1.553a3023.382 3023.382 0 0 1-24.809-81.162c-.136-.468-.56-.814-1.07-.879l-1.09-.141c-.905-.118-1.651.664-1.428 1.498zM131.642 148.857l-2.011-.319c-1.043-.167-1.867.708-1.585 1.685 6.552 22.815 12.64 45.672 19.714 68.432a1.323 1.323 0 0 1-1.113 1.726c-2.869.368-4.851.616-7.706.966a1.325 1.325 0 0 0-1.103 1.776c2.107 6.119 3.382 9.788 5.558 15.988.243.694.974 1.139 1.691 1.031 1.087-.163 1.959-.295 3.001-.454.863-.131 1.354-.999 1.037-1.826a2405.87 2405.87 0 0 1-4.894-12.841c-.318-.841.201-1.715 1.087-1.823 2.544-.31 4.358-.536 6.924-.863a1.324 1.324 0 0 0 1.114-1.731c-7.343-23.485-13.672-47.077-20.42-70.638-.166-.571-.683-1.012-1.294-1.109zM189.906 200.015c-1.238.022-2.142.037-3.306.055-.646.01-1.082.602-.892 1.21 1.342 4.314 2.156 6.912 3.551 11.335.14.443.579.757 1.047.745 1.182-.03 2.051-.052 3.164-.083a.925.925 0 0 0 .879-1.204c-1.302-4.298-2.08-6.887-3.397-11.298a1.084 1.084 0 0 0-1.046-.76zM110.174 112.103a.28.28 0 0 0 .016.02l-.661-.122c1.975 12.49 3.534 19.168 5.538 31.21.129.776.813 1.399 1.631 1.486 1.055.113 1.883.214 2.856.319 1.081.118 1.936-.731 1.77-1.756-1.528-9.451-2.988-15.647-4.32-24.254-.164-1.056.758-1.91 1.875-1.73a2077.432 2077.432 0 0 0 32.735 5.012c1.157.168 2.09-.763 1.849-1.849l-.007-.032c-.155-.699-.766-1.253-1.51-1.369a2062.458 2062.458 0 0 1-41.772-6.935z"/></g><g fill="#fff"><path d="M236.095 131.79l-.612-1.764a.747.747 0 0 0-.632-.481c-11.743-1.132-18.606-1.858-28.936-3.087a16.072 16.072 0 0 1-.04-.214c-1.988-.162-3.117-.256-4.869-.406-.451-.039-.805.338-.723.761a3585.644 3585.644 0 0 0 5.251 26.587.747.747 0 0 0 .669.578c1.587.123 2.624.202 4.144.315.445.033.792-.343.71-.764a3513.826 3513.826 0 0 1-4.291-22.357c-.081-.426.285-.801.738-.756 10.217 1.009 16.729 1.574 27.888 2.437.49.038.858-.402.703-.849zM217.601 213.079a3731.521 3731.521 0 0 0 4.322 18.128.73.73 0 0 0 .769.547c1.612-.162 2.662-.269 4.253-.434a.641.641 0 0 0 .563-.779 3946.647 3946.647 0 0 1-3.841-17.958.736.736 0 0 0-.751-.567c-1.801.106-2.956.172-4.721.27a.64.64 0 0 0-.594.793zM216.431 157.72a4005.47 4005.47 0 0 0 12.417 51.479c.08.324.394.553.733.538l3.226-.151a.64.64 0 0 0 .606-.794 4018.027 4018.027 0 0 1-12.468-51.113.73.73 0 0 0-.668-.543 990.501 990.501 0 0 1-3.144-.198c-.453-.029-.802.355-.702.782zM295.854 134.62c-.01-.352-.318-.646-.689-.664-11.197-.566-17.726-.955-27.753-1.672l.03-.162a1101.56 1101.56 0 0 1-4.809-.466l-.043.278-.25-.018.21.278c-2.065 13.688-4.131 27.375-6.2 41.062a.676.676 0 0 0 .063.387l1.583 3.263c.29.596 1.194.508 1.31-.128 2.454-13.45 4.896-26.901 7.34-40.352.06-.326.375-.552.725-.529 10.641.689 16.74 1.019 27.819 1.513.401.018.737-.292.726-.673l-.062-2.117zM279.783 208.339c-1.542-.028-.213-.108-2.906.018-.37.017-.656.311-.639.671.142 2.912 1.647 14.775 1.987 17.639.042.353.366.613.729.6 1.6-.056 1.445-.179 2.928-.246a.648.648 0 0 0 .624-.769c-.582-3.058-1.82-14.475-2.029-17.281a.703.703 0 0 0-.694-.632zM277.253 166.925c.656 2.794 6.036 33.116 6.834 37.716a.703.703 0 0 0 .71.571c1.063-.022 1.816-.039 2.833-.063.429-.01.74-.389.639-.797-1.256-5.11-6.652-32.81-8.218-40.924-.126-.653-1.057-.768-1.323-.166l-1.438 3.255a.662.662 0 0 0-.037.408zM238.914 169.381c.744 1.581 16.884 31.478 23.115 42.802.321.585 1.21.436 1.28-.211l.29-2.663a.703.703 0 0 0-.105-.44c-2.339-3.694-18.295-34.077-24.68-45.783-.382-.697-1.465-.346-1.288.416.41 1.76.804 3.438 1.348 5.76.011.042.022.08.04.119z"/></g><g fill="#fff"><path d="M696.603 97.477c-7.703 1.538-46.199 9.241-50.289 9.979a1.183 1.183 0 0 0-.616.309c-5.342 5.062-12.403 13.472-13.544 14.829a1.033 1.033 0 0 0-.214.399c-.957 3.436-12.789 46.455-14.01 52.095-.084.387.094.732.386.985a.673.673 0 0 1 .055.054c1.438 1.557 2.966 1.193 3.542-.923 4.274-15.631 8.488-32.554 12.632-47.978a.991.991 0 0 1 .176-.362c1.244-1.608 10.786-11.562 12.603-13.681a1.2 1.2 0 0 1 .773-.418c4.997-.574 42.39-7.094 48.155-8.169.48-.089.861-.449.948-.9.197-1.014.435-2.932.635-5.211.055-.656-.538-1.146-1.232-1.008zM680.065 139.116c-.118.634.387 1.17 1.059 1.122 1.602-.116 4.174-.37 4.449-.822.328-.54 2.597-11.254 3.423-15.17.148-.699-.467-1.265-1.207-1.117-1.334.266-2.378.471-3.831.756-.478.094-.862.478-.944.931-.984 5.47-1.95 8.935-2.949 14.3zM638.414 160.627l-1.041 2.634c-.265.669.215 1.347.945 1.336 12.958-.194 20.003-.824 33.251-1.332.24-.009.483.063.666.197 1.937 1.42 3.398 2.968 4.886 4.053.951.694 2.285-.546 1.594-1.481-1.707-2.306-3.248-4.909-5.436-7.881a1.034 1.034 0 0 0-.896-.397c-13.019.823-19.904 1.617-32.92 2.137a1.196 1.196 0 0 0-1.049.734zM620.26 211.078l.509-1.857c.174-.636-.286-1.232-.953-1.232-4.736-.006-7.593-.024-12.439-.075-.518-.005-.997.351-1.12.847-1.188 4.786-6.684 27.737-7.81 33.021a.957.957 0 0 0 .897 1.171c.843.053 1.994.122 2.814.208a1.118 1.118 0 0 0 1.201-.875c1.026-4.95 5.963-25.28 7.042-29.845.122-.516.618-.88 1.154-.855 2.874.132 4.679.21 7.562.326a1.154 1.154 0 0 0 1.143-.834zM655.424 219.631c-4.058-.023-21.4-.359-33.579-.84a1.128 1.128 0 0 0-1.058.635c-.398.832-.853 1.965-1.178 2.821a.958.958 0 0 0 .858 1.323c5.43.279 26.622.878 38.138 1.096.5.009.957-.319 1.108-.795 3.692-11.628 7.328-25.029 10.894-36.723.204-.665-.299-1.273-1.006-1.232-1.095.063-2.068.118-3.215.182a1.193 1.193 0 0 0-1.059.828c-3.559 11.886-5.15 20.04-8.802 31.887a1.17 1.17 0 0 1-1.101.818z"/></g></g><g><linearGradient id="j" gradientUnits="userSpaceOnUse" x1="361.003" y1="280.84" x2="361.003" y2="441.755"><stop offset="0" stop-color="#fff"/><stop offset="1" stop-color="#b8b8b8"/></linearGradient><ellipse cx="361.003" cy="335.778" rx="73.813" ry="68.935" fill="url(#j)"/><linearGradient id="k" gradientUnits="userSpaceOnUse" x1="361.003" y1="397.035" x2="361.003" y2="361.571"><stop offset="0" stop-color="#fff"/><stop offset=".551" stop-color="#c7d6dd"/><stop offset="1" stop-color="#9db8c4"/></linearGradient><path d="M361.003 377.914c-32.791 0-59.995-22.283-65.237-51.517a58.107 58.107 0 0 0-.928 10.276c0 34.127 29.623 61.792 66.165 61.792s66.165-27.665 66.165-61.792c0-3.503-.328-6.932-.928-10.276-5.242 29.234-32.445 51.517-65.237 51.517z" fill="url(#k)"/><linearGradient id="l" gradientUnits="userSpaceOnUse" x1="300.382" y1="367.901" x2="421.148" y2="367.901"><stop offset="0" stop-color="#430000"/><stop offset="1" stop-color="#b70c12"/></linearGradient><path d="M414.826 355.553c.57-2.437 1.164-4.871 1.819-7.299l-.01-.168c-.114-1.081-1.199-1.866-2.408-1.742-1.206.13-2.057 1.111-1.906 2.189a379.667 379.667 0 0 0-.868 6.654.692.692 0 0 1-.654.597c-1.297.089-2.711.2-4.221.336-.473.043-.871-.346-.793-.788a279.75 279.75 0 0 1 1.204-6.498l-.021-.167c-.179-1.067-1.295-1.809-2.483-1.615-1.189.189-1.979 1.204-1.769 2.275a408.499 408.499 0 0 0-.496 6.679.688.688 0 0 1-.624.628c-1.355.157-2.76.334-4.209.535-.47.065-.887-.304-.833-.748.263-2.181.545-4.364.859-6.536l-.03-.166c-.238-1.066-1.391-1.738-2.57-1.491-1.18.239-1.913 1.298-1.643 2.357a392.278 392.278 0 0 0-.121 6.676.68.68 0 0 1-.587.656 176.04 176.04 0 0 0-4.167.742c-.464.088-.9-.257-.873-.702.132-2.185.284-4.37.472-6.55l-.039-.164c-.299-1.044-1.496-1.677-2.663-1.358-1.168.31-1.84 1.403-1.506 2.443.069 2.21.166 4.429.279 6.646a.674.674 0 0 1-.548.687 156.45 156.45 0 0 0-4.084.961c-.456.114-.909-.203-.912-.648-.017-2.169-.012-4.344.032-6.528l-.05-.161c-.368-1.028-1.608-1.564-2.763-1.199-1.155.372-1.75 1.532-1.342 2.542.224 2.192.492 4.372.764 6.551.041.325-.169.627-.502.722-1.33.382-2.662.786-3.991 1.213-.445.143-.915-.14-.956-.581a173.318 173.318 0 0 1-.485-6.447l-.062-.158c-.449-1.006-1.74-1.465-2.868-.987-1.131.467-1.641 1.641-1.146 2.623a232.73 232.73 0 0 0 1.299 6.393c.069.321-.115.639-.44.759-1.283.472-2.56.969-3.825 1.49-.427.176-.917-.064-1.001-.496-.4-2.07-.771-4.153-1.09-6.258l-.077-.152c-.542-.958-1.881-1.287-2.982-.734-1.102.552-1.481 1.822-.885 2.741a199.685 199.685 0 0 0 1.926 6.078c.105.315-.048.65-.361.798a86.108 86.108 0 0 0-3.607 1.811c-.4.213-.905.029-1.041-.384a113.32 113.32 0 0 1-1.79-5.908l-.095-.143c-.654-.896-2.055-1.107-3.081-.382-1.034.708-1.279 1.971-.558 2.823a149.537 149.537 0 0 0 2.618 5.56.644.644 0 0 1-.257.84 68.163 68.163 0 0 0-3.306 2.169c-.363.254-.878.14-1.074-.244a100.877 100.877 0 0 1-2.529-5.29l-.116-.128c-.783-.799-2.2-.768-3.15.066-.952.834-.95 2.197-.102 2.914a129.691 129.691 0 0 0 3.255 4.709.642.642 0 0 1-.123.882 54.451 54.451 0 0 0-2.909 2.569c-.314.298-.834.267-1.097-.072a77.769 77.769 0 0 1-3.135-4.331l-.139-.107c-.465-.326-1.051-.43-1.627-.326-.565.114-1.095.462-1.475.974-.761 1.034-.557 2.323.44 2.886a109.016 109.016 0 0 0 3.661 3.555.633.633 0 0 1 .049.895c-.7.809-1.37 1.643-2.011 2.499a.716.716 0 0 1-.361.247 61.86 61.86 0 0 0 6.466 2.599c-.158-.235-.181-.546.016-.786.449-.548.914-1.084 1.392-1.609a.773.773 0 0 1 .955-.13c1.31.788 2.602 1.594 3.867 2.422l.125.121c.853.749 2.039.764 2.793.125.731-.657.705-1.855-.066-2.663a99.254 99.254 0 0 0-3.88-2.393c-.403-.237-.467-.771-.119-1.075a51.468 51.468 0 0 1 3.106-2.51.772.772 0 0 1 .942.025 135.055 135.055 0 0 1 3.896 3.362l.103.137c.709.86 1.953 1.087 2.783.499.819-.601 1.047-1.74.391-2.655a110.493 110.493 0 0 0-3.877-3.204.656.656 0 0 1 .061-1.087 69.751 69.751 0 0 1 3.558-2.055.77.77 0 0 1 .915.145 175.73 175.73 0 0 1 3.691 4.085l.084.148a2.136 2.136 0 0 0 2.733.793c.938-.48 1.273-1.653.74-2.615a150.711 150.711 0 0 0-3.68-3.801.665.665 0 0 1 .205-1.085 91.092 91.092 0 0 1 3.829-1.645.763.763 0 0 1 .887.235 199.577 199.577 0 0 1 3.378 4.594l.068.155c.487.985 1.68 1.447 2.669 1.029.983-.43 1.461-1.536 1.016-2.546a163.037 163.037 0 0 0-3.419-4.246c-.302-.364-.142-.903.318-1.062 1.325-.459 2.658-.893 3.993-1.303.325-.1.681.029.855.305a263.868 263.868 0 0 1 3.054 4.964l.055.16c.405 1.024 1.548 1.532 2.593 1.208a1.92 1.92 0 0 0 1.233-2.473 223.932 223.932 0 0 0-3.144-4.568c-.271-.385-.065-.912.408-1.037 1.371-.362 2.738-.701 4.095-1.018a.744.744 0 0 1 .824.359 284.584 284.584 0 0 1 2.737 5.228l.043.163c.328 1.04 1.454 1.65 2.519 1.361 1.065-.287 1.704-1.34 1.409-2.394-.937-1.617-1.9-3.22-2.876-4.815-.246-.401.002-.915.483-1.01 1.4-.278 2.781-.532 4.139-.767a.732.732 0 0 1 .793.403c.831 1.805 1.664 3.609 2.458 5.419l.033.165c.263 1.051 1.356 1.727 2.443 1.497 1.086-.235 1.786-1.261 1.553-2.324a247.308 247.308 0 0 0-2.617-5.004c-.221-.413.055-.91.54-.98 1.441-.207 2.839-.392 4.187-.556a.722.722 0 0 1 .765.441c.734 1.858 1.47 3.715 2.168 5.578l.024.167c.205 1.068 1.26 1.788 2.36 1.608 1.1-.175 1.855-1.17 1.68-2.243a265.551 265.551 0 0 0-2.359-5.164c-.198-.422.107-.906.595-.952 2.299-.218 4.365-.373 6.129-.483a.713.713 0 0 1 .759.59 54.098 54.098 0 0 0 3.223-6.75.748.748 0 0 1-.381.125c-.574.021-1.227.046-1.949.079z" fill="url(#l)"/><linearGradient id="m" gradientUnits="userSpaceOnUse" x1="300.382" y1="306.212" x2="421.148" y2="306.212"><stop offset="0" stop-color="#430000"/><stop offset="1" stop-color="#b70c12"/></linearGradient><path d="M303.041 327.54c1.356.422 2.671-.112 2.953-1.168a51.382 51.382 0 0 1 .136-4.618c.033-.446.506-.729.955-.585 1.223.391 2.492.724 3.801 1.001.324.069.555.332.557.645a90.96 90.96 0 0 0 .165 5.009l-.031.166c-.155 1.052.829 2.145 2.151 2.209 1.276.084 2.333-.67 2.439-1.696a.71.71 0 0 0-.02-.234 83.599 83.599 0 0 1-.975-4.523c-.083-.448.317-.84.797-.79 1.307.134 2.64.225 3.997.27a.703.703 0 0 1 .678.542c.345 1.679.716 3.351 1.133 5.005l.001.168c.056 1.082 1.151 1.906 2.434 1.835 1.233-.078 2.113-1.02 2.055-2.042a.666.666 0 0 0-.057-.227 100.551 100.551 0 0 1-1.727-4.42c-.157-.429.166-.874.648-.894a78.454 78.454 0 0 0 4.029-.279c.331-.031.641.153.747.45a163.716 163.716 0 0 0 1.851 4.927l.024.167c.205 1.071 1.388 1.789 2.613 1.534 1.184-.231 1.944-1.216 1.757-2.233a.722.722 0 0 0-.083-.218 140.088 140.088 0 0 1-2.31-4.297c-.212-.409.056-.888.533-.961a97.025 97.025 0 0 0 3.98-.704.724.724 0 0 1 .795.375 173.35 173.35 0 0 0 2.44 4.812l.043.163c.322 1.041 1.555 1.613 2.747 1.277 1.196-.323 1.836-1.469 1.458-2.495a134.619 134.619 0 0 1-2.88-4.249c-.254-.388-.036-.892.432-1.01 1.308-.329 2.609-.683 3.899-1.061a.73.73 0 0 1 .827.302 215.182 215.182 0 0 0 2.965 4.659l.059.159c.425 1.009 1.711 1.483 2.865 1.059 1.14-.465 1.671-1.643 1.195-2.632a160.885 160.885 0 0 1-3.355-4.065c-.291-.364-.121-.887.333-1.044a99.813 99.813 0 0 0 3.779-1.394.734.734 0 0 1 .852.229 210.855 210.855 0 0 0 3.485 4.482l.075.153c.523.968 1.862 1.352 2.955.784 1.099-.553 1.516-1.764.94-2.707a160.49 160.49 0 0 1-3.845-3.853c-.327-.338-.209-.876.228-1.074a82.26 82.26 0 0 0 1.979-.926 64.103 64.103 0 0 0 1.595-.811.748.748 0 0 1 .889.148 177.512 177.512 0 0 0 4.06 4.26l.091.145c.623.913 1.988 1.127 3.038.481 1.057-.633 1.332-1.907.648-2.79a120.606 120.606 0 0 1-4.423-3.587c-.358-.302-.299-.843.108-1.083a71.699 71.699 0 0 0 3.343-2.095.742.742 0 0 1 .89.052 155.492 155.492 0 0 0 4.722 3.91l.109.134c.732.83 2.154.923 3.124.132.961-.811 1.079-2.101.276-2.886a109.53 109.53 0 0 1-5.091-3.148.658.658 0 0 1-.041-1.084 52.574 52.574 0 0 0 2.947-2.486.739.739 0 0 1 .892-.073 116.721 116.721 0 0 0 5.55 3.352l.129.116c.865.72 2.278.531 3.139-.417.847-.889.733-2.206-.111-2.854a.772.772 0 0 0-.219-.113 73.053 73.053 0 0 1-5.824-2.336.662.662 0 0 1-.231-1.055c.84-.95 1.612-1.913 2.312-2.888a.722.722 0 0 1 .851-.242 89.001 89.001 0 0 0 6.552 2.248l.154.087c1.039.546 2.395.005 3.009-1.197.305-.595.371-1.21.196-1.732a1.832 1.832 0 0 0-1.132-1.139 53.077 53.077 0 0 1-6.776-.932.671.671 0 0 1-.483-.968 25.675 25.675 0 0 0 1.382-3.204.696.696 0 0 1 .729-.452c1.714.146 3.453.217 5.21.22.057 0 .105.033.16.046-5.398-3.408-11.424-6.006-17.875-7.635.196.08.368.214.419.408.15.573.621 1.144 1.347 1.461a78.947 78.947 0 0 1 3.983 2.962.68.68 0 0 1 .238.741 20.917 20.917 0 0 1-1.884 4.101c-.257.435-.92.455-1.225.048a71.44 71.44 0 0 0-3.549-4.377l-.146-.098c-.967-.589-2.201-.498-2.738.233-.509.745-.356 1.863.55 2.566a112.629 112.629 0 0 1 3.948 5.135.657.657 0 0 1-.033.827 39.174 39.174 0 0 1-3.234 3.258c-.363.327-.967.205-1.165-.23a93.418 93.418 0 0 0-2.958-5.988l-.121-.124c-.8-.757-2.061-.865-2.807-.215-.735.658-.759 1.852-.023 2.674a160.925 160.925 0 0 1 3.229 6.319.664.664 0 0 1-.213.833 60.938 60.938 0 0 1-3.814 2.558c-.411.254-.973.053-1.101-.394a121.95 121.95 0 0 0-2.151-6.819l-.1-.14c-.697-.885-1.896-1.087-2.778-.545-.875.55-1.083 1.741-.458 2.653a184.482 184.482 0 0 1 2.446 6.992.67.67 0 0 1-.339.803 77.795 77.795 0 0 1-4.147 2.019c-.437.198-.951-.063-1.023-.515a154.634 154.634 0 0 0-1.334-7.241l-.082-.15c-.573-.944-1.791-1.322-2.727-.839a1.902 1.902 0 0 0-.783 2.603 223.813 223.813 0 0 1 1.662 7.363.692.692 0 0 1-.441.776 93.937 93.937 0 0 1-4.338 1.571c-.458.153-.941-.159-.965-.616a154.457 154.457 0 0 0-.556-7.477l-.065-.157a2.104 2.104 0 0 0-2.625-1.076c-.996.373-1.475 1.5-1.065 2.513.34 2.519.633 5.05.885 7.575.033.329-.192.638-.529.731a92.121 92.121 0 0 1-4.503 1.118c-.47.104-.911-.254-.885-.708.14-2.519.229-5.028.25-7.52l-.048-.162c-.36-1.032-1.474-1.63-2.497-1.332a1.948 1.948 0 0 0-1.32 2.408c.066 2.527.078 5.065.051 7.609-.003.332-.264.619-.612.675a80.192 80.192 0 0 1-4.634.61c-.476.048-.862-.349-.782-.793.44-2.455.814-4.923 1.111-7.397l-.029-.166c-.238-1.076-1.267-1.714-2.302-1.565-1.035.167-1.747 1.174-1.58 2.245a162.946 162.946 0 0 1-.88 7.418c-.047.334-.352.592-.71.602a60.59 60.59 0 0 1-4.702-.035c-.472-.022-.783-.466-.641-.89a106.512 106.512 0 0 0 2.083-6.947l-.006-.168c-.09-1.082-.984-1.905-2.008-1.834-1.015.043-1.84.908-1.852 1.999a128.053 128.053 0 0 1-1.96 6.841c-.104.331-.464.542-.826.486a36.422 36.422 0 0 1-4.566-1.004.664.664 0 0 1-.402-.977 72.82 72.82 0 0 0 3.086-5.904l.027-.167c.119-1.081-.538-2.045-1.489-2.145-.938-.115-1.868.556-2.148 1.623-1.017 1.99-1.807 3.129-3 5.068-.056-.028-.434.806-.491.779-.043.097-.228-.127-.26-.027-1.208 3.778-2.789 8.137-3.549 12.307.295.516.818.934 1.483 1.124z" fill="url(#m)"/><path d="M411.021 294.402c-26.448-27.87-72.899-28.254-99.872-.824-23.047 23.439-23.397 60.131-.793 83.949 26.448 27.868 72.897 28.252 99.869.824 23.049-23.438 23.4-60.13.796-83.949zm-70.142 94.757a.688.688 0 0 1-.361-.291 61.643 61.643 0 0 1-6.466-2.599.746.746 0 0 1-.543-.027c-1.898-.872-4.403-2.536-5.262-3.055-8.921-5.394-16.231-12.926-21.067-21.84l-.002-.004c-4.142-7.635-6.491-16.265-6.491-25.414 0-3.246.31-6.422.874-9.517.779-4.276 3.654-12.352 3.58-12.391 3.003-6.655 7.425-12.875 13.277-18.243 12.486-11.455 28.994-16.759 45.233-16.013.092.004.185.005.278.01a74.93 74.93 0 0 1 3.518.276c.721.076 1.441.157 2.159.257.437.06.869.134 1.303.203 1.438.229 2.868.504 4.289.831.199.046.402.083.601.131.178.043.358.072.535.116.04.01.071.039.11.055 6.451 1.629 12.477 4.227 17.875 7.635.085.019.174.024.246.07a59.676 59.676 0 0 1 9.154 7.138c16.736 15.911 21.271 38.82 13.718 58.534a.687.687 0 0 1-.275.329c-.915 2.328-2 4.578-3.223 6.75a.614.614 0 0 1-.065.415c-2.808 4.917-6.437 9.526-10.913 13.633-16.879 15.485-41.109 19.788-62.082 13.011zm-39.832-45.006z" fill="#002d00"/></g><g fill="#fff"><path d="M301.941 74.08c.507-1.074 1.076-2 1.708-2.775.485-.595 1.304-.882 2.059-.761 2.471.395 4.793.676 6.965.843 2.512.193 4.703.1 6.571-.279 1.431-.287 2.678-.651 3.741-1.094 1.061-.442 1.942-.927 2.643-1.454.699-.527 1.266-1.086 1.7-1.677.433-.591.757-1.18.976-1.768.821-2.47-.346-3.876-1.386-4.597-.669-.464-1.515.222-1.862.749-.348.527-.851 1.068-1.511 1.621-.661.553-1.501 1.064-2.521 1.533-1.022.468-2.223.845-3.603 1.13a51.46 51.46 0 0 1-8.315.946 88.413 88.413 0 0 1-8.332-.116c-2.74-.168-5.429-.396-8.064-.684-2.633-.288-5.149-.556-7.549-.806a99.288 99.288 0 0 0-6.799-.484c-2.134-.074-4.061.032-5.78.315-1.958.332-3.603.819-4.935 1.46-1.335.642-2.374 1.37-3.116 2.185-.745.815-1.2 1.668-1.364 2.561a4.25 4.25 0 0 0 .285 2.551c.357.808.964 1.541 1.824 2.198.859.658 1.969 1.142 3.328 1.452 1.557.38 2.994.489 4.312.328 1.317-.16 2.465-.49 3.441-.989.976-.498 1.736-1.105 2.284-1.822.545-.717.858-1.45.939-2.201.079-.749-.109-1.442-.564-2.078-.456-.636-2.042-1.037-1.81-.488.697 1.646-.147 4.455-2.635 5.335-.666.236-1.524.369-2.358.435l-.019-.001c-1.486-.012-5.352-.488-4.927-4.105.648-5.5 10.339-5.363 10.392-5.362.283.007.565-.014.852.022 3.335.422 10.373 2.165 13.886 3.067 1.102.283 1.592 1.391 1.055 2.383a81.917 81.917 0 0 0-2.672 5.389c-1.003 2.247-4.006 11.099-4.715 13.134a153.441 153.441 0 0 1-1.473 4.006c-.245.638-4.121 8.923-8.949 10.537-2.581.861-5.138.226-5.825-.128-1.245-.642-1.976-1.476-2.382-2.686-.406-1.212-.448-2.519-.127-3.921.317-1.403 1.008-2.674 2.072-3.813-.003.81.239 1.462.729 1.955.49.494 1.197.707 2.121.639.958-.07 1.796-.314 2.517-.73.719-.416 1.3-.913 1.743-1.491.442-.578.724-1.186.848-1.825.122-.638.075-1.222-.143-1.751-.219-.529-.603-.954-1.152-1.276-.55-.322-1.299-.447-2.249-.375-2.032.154-3.777.754-5.239 1.798-1.466 1.044-2.591 2.306-3.373 3.784a10.273 10.273 0 0 0-1.233 4.665c-.037 1.632.364 3.128 1.206 4.488.842 1.362 2.134 2.478 3.938 3.256 2.61 1.13 8.248 1.003 11.623.002 2.115-.628 4.183-1.9 4.876-2.392a20.36 20.36 0 0 0 2.169-1.77 26.356 26.356 0 0 0 4.303-5.271 48.231 48.231 0 0 0 3.197-6.111 86.2 86.2 0 0 0 2.456-6.384 343.075 343.075 0 0 1 2.1-6.09 54.368 54.368 0 0 1 2.123-5.212z"/><path d="M355.397 82.05c-.076-1.424-.423-2.648-1.044-3.671-.621-1.023-1.505-1.795-2.655-2.32-1.151-.522-2.552-.718-4.202-.586-1.021.082-2.059.334-3.118.755a16.87 16.87 0 0 0-3.105 1.641l1.196-3.655c.897-2.723.899-4.662.003-5.816-.896-1.152-2.731-1.614-5.506-1.385-.536.044-1.019.105-1.451.179-.431.075-.835.168-1.209.278-.425.115-1.016.354-.742.529.821.525 2.363 1.932 1.552 4.792-.035.082-.177.527-.425 1.336-.249.81-.588 1.864-1.019 3.16-.43 1.297-.903 2.763-1.418 4.401-.514 1.637-1.035 3.304-1.561 5-.531 1.716-1.101 3.545-1.695 5.447-.437 1.068-1.086 1.926-1.953 2.57-.884.656-1.725 1.072-2.525 1.249-.801.177-1.471.128-2.011-.147-.541-.275-.687-.794-.435-1.56.053-.24.212-.772.476-1.599.263-.825.574-1.802.93-2.931.356-1.128.737-2.328 1.142-3.598.405-1.27.797-2.482 1.177-3.633.379-1.152.709-2.171.99-3.059.281-.888.462-1.513.544-1.875l-5.442.432s-2.555.387-2.993 2.022c-1.173-1.007-2.649-2.047-4.544-1.896-3.351.265-6.406 1.446-9.16 3.541-2.753 2.091-4.794 5.178-6.121 9.26-.568 1.643-.8 3.172-.698 4.589.103 1.418.471 2.63 1.106 3.637.635 1.008 1.528 1.774 2.681 2.296 1.152.522 2.549.725 4.189.607 1.303-.094 2.615-.462 3.936-1.105a17.61 17.61 0 0 0 2.181-1.267c.834-.566 1.915-.514 2.594.107.35.321.766.582 1.247.784 1.035.436 2.3.599 3.796.492a11.735 11.735 0 0 0 3.414-.777 14.253 14.253 0 0 0 3.073-1.64c.175-.124.325-.268.492-.399l-.612 1.943 7.892-.572c.033-.081.064-.182.092-.303.019-.159.111-.462.276-.908 1.251.974 2.794 1.395 4.629 1.262 3.282-.238 6.298-1.417 9.053-3.541 2.377-1.834 4.241-4.426 5.596-7.768.276-.519 1-2.754 1.086-3.304.24-1.049.351-2.052.301-2.994zM314.305 94a6.183 6.183 0 0 0-.369 1.557c-.836.768-1.701 1.381-2.594 1.837-.894.457-1.751.715-2.572.775-.823.06-1.453-.108-1.897-.507-.443-.397-.711-.965-.801-1.702-.092-.735-.026-1.612.199-2.625.223-1.015.593-2.108 1.106-3.282.634-1.575 1.265-2.914 1.893-4.02.627-1.105 1.28-2.008 1.961-2.707.68-.699 1.394-1.225 2.139-1.578.747-.352 1.581-.565 2.503-.637l.029-.002c1.26-.092 2.114 1.028 1.761 2.158L314.305 94zm33.166-9.669a21.427 21.427 0 0 1-1.065 3.351c-1.306 3.149-2.611 5.384-3.918 6.707-1.306 1.323-2.876 2.052-4.711 2.187-.967.071-1.712-.131-2.238-.605.28-.889.609-1.911.989-3.065s.765-2.347 1.156-3.582c.392-1.235.781-2.479 1.171-3.734.329-1.061.654-2.095.977-3.1.116-.36.343-.696.656-.949a13.036 13.036 0 0 1 2.044-1.368c.831-.441 1.659-.694 2.485-.76.874-.069 1.517.098 1.933.501.415.403.663.978.746 1.724.082.748.006 1.646-.225 2.693zM405.379 77.184c-.941-.67-2.089-1.103-3.447-1.297-1.357-.193-2.769-.111-4.234.247.488-.32.883-.764 1.186-1.332a12 12 0 0 0 .659-1.411c.372-1.359.281-2.468-.274-3.328-.557-.86-1.54-1.233-2.948-1.117-1.458.119-2.718.625-3.78 1.515-1.063.89-1.834 2.116-2.318 3.68-.187.658-.222 1.282-.1 1.875.12.592.337 1.097.651 1.513.314.417.73.716 1.25.894.52.18 1.107.164 1.76-.049 2.655-.893 4.496-.818 5.523.227 1.026 1.047 1.114 3.052.265 6.016a15.774 15.774 0 0 1-1.244 3.235 14.299 14.299 0 0 1-1.772 2.668 8.116 8.116 0 0 1-2.23 1.856c-.83.464-1.703.73-2.62.798-.966.072-1.697-.134-2.19-.619-.496-.484-.76-1.126-.793-1.927.399.051.719.066.962.048 1.45-.109 2.702-.605 3.758-1.489 1.055-.883 1.827-2.088 2.316-3.614.376-1.315.274-2.403-.307-3.263-.58-.859-1.549-1.235-2.905-1.129-.34.027-.764.131-1.273.31-.511.181-1.05.484-1.618.909-.568.427-1.138.992-1.709 1.698-.571.706-1.089 1.578-1.555 2.616a8.684 8.684 0 0 0-.445 1.117c-.452 1.086-1.113 1.959-1.988 2.615-.892.668-1.74 1.092-2.541 1.272-.803.18-1.471.131-2.007-.149s-.674-.809-.411-1.589c.056-.245.223-.787.5-1.628.275-.84.6-1.836.973-2.985.372-1.149.77-2.371 1.194-3.665.423-1.294.833-2.528 1.229-3.701.396-1.173.741-2.211 1.034-3.116.293-.904.484-1.542.571-1.91l-5.418.437s-2.686.404-3.192 2.074c-1.156-1.026-2.467-2.097-4.361-1.945-3.351.27-6.509 1.374-9.202 3.606-4.159 3.441-6.286 9.862-6.674 10.953a2.231 2.231 0 0 0-.082.287c-.217 1.002-.313 1.962-.262 2.872.081 1.445.431 2.679 1.051 3.706.619 1.027 1.5 1.807 2.644 2.339 1.143.532 2.535.739 4.176.618 1.303-.095 2.619-.471 3.949-1.126a17.85 17.85 0 0 0 2.202-1.294c.838-.575 1.919-.513 2.597.123.343.322.75.584 1.222.787 1.028.444 2.289.61 3.785.5a11.625 11.625 0 0 0 3.422-.791c1.123-.443 2.154-1 3.094-1.67a12.65 12.65 0 0 0 2.426-2.263c.108.328.234.645.399.94.485.866 1.22 1.554 2.208 2.061.987.508 2.252.706 3.797.592a26.1 26.1 0 0 0 5.343-.938 15.99 15.99 0 0 0 4.569-2.122 12.748 12.748 0 0 0 3.473-3.526c.949-1.423 1.629-3.159 2.04-5.209.294-1.555.214-2.91-.237-4.066-.454-1.151-1.151-2.064-2.091-2.736zM371.246 89.73a6.464 6.464 0 0 0-.392 1.586c-.847.782-1.719 1.407-2.618 1.872-.9.466-1.76.729-2.58.79-.823.061-1.45-.11-1.888-.517-.436-.405-.696-.983-.775-1.734-.081-.749-.002-1.642.238-2.675.238-1.034.624-2.147 1.154-3.343.657-1.605 1.307-2.969 1.95-4.096.643-1.126 1.309-2.045 1.999-2.758.689-.713 1.41-1.248 2.16-1.607.751-.359 1.587-.576 2.509-.649.97-.077 1.72.143 2.249.66l-4.006 12.471zM458.89 73.85c-.11-1.465-.507-2.723-1.199-3.772-.689-1.05-1.672-1.837-2.95-2.367-1.282-.528-2.794-.721-4.541-.577-3.789.312-7.049 1.63-9.778 3.952-2.726 2.318-4.723 5.458-5.993 9.422-.392 1.269-.609 2.472-.655 3.613-.429.716-1 1.412-1.719 2.09a13.495 13.495 0 0 1-2.473 1.834 16.67 16.67 0 0 1-2.948 1.351 12.152 12.152 0 0 1-3.087.66c-2.609.197-4.48-.369-5.615-1.699-1.135-1.329-1.274-3.483-.414-6.463a21.698 21.698 0 0 1 1.266-3.469 17.143 17.143 0 0 1 1.868-3.155c.713-.948 1.488-1.74 2.325-2.374.835-.635 1.739-.992 2.71-1.071.97-.079 1.701.127 2.193.614.49.488.724 1.139.7 1.953a1.105 1.105 0 0 0-.409-.028l-.473.038c-1.455.117-2.716.624-3.781 1.519-1.066.897-1.848 2.114-2.347 3.651-.384 1.327-.303 2.415.244 3.263.546.849 1.497 1.221 2.852 1.116.338-.026.775-.131 1.31-.315.534-.183 1.088-.489 1.659-.92.571-.43 1.147-.992 1.728-1.688.58-.694 1.11-1.569 1.588-2.622.515-1.138.796-2.288.842-3.449.047-1.162-.17-2.19-.648-3.086-.479-.895-1.224-1.596-2.233-2.103-1.011-.505-2.294-.695-3.848-.568-3.74.306-6.983 1.594-9.728 3.858-2.743 2.262-4.754 5.401-6.035 9.417-.517 1.695-.635 3.268-.358 4.719.278 1.453.888 2.688 1.831 3.706.941 1.019 2.174 1.786 3.694 2.299 1.52.513 3.294.694 5.321.543 3.957-.295 7.304-1.154 10.042-2.577 1.937-1.009 3.387-2.227 4.399-3.634.191.553.433 1.07.743 1.538.694 1.045 1.667 1.837 2.919 2.373 1.25.536 2.768.738 4.555.604a16.85 16.85 0 0 0 5.202-1.218 16.78 16.78 0 0 0 4.505-2.763 19.662 19.662 0 0 0 3.622-4.112c1.044-1.574 1.869-3.347 2.467-5.319.544-1.725.757-3.319.647-4.784zm-7.862 1.838a29.303 29.303 0 0 1-.9 3.676 28.034 28.034 0 0 1-1.455 3.625 26.268 26.268 0 0 1-1.749 3.095c-.603.9-1.217 1.628-1.843 2.184-.627.556-1.23.856-1.81.9-.579.044-1.027-.176-1.342-.66-.317-.484-.5-1.15-.552-1.998-.053-.849.033-1.84.258-2.974.224-1.135.537-2.327.941-3.577.399-1.29.879-2.527 1.44-3.711a24.037 24.037 0 0 1 1.781-3.16c.626-.925 1.265-1.679 1.918-2.261.651-.582 1.269-.898 1.85-.945.581-.047 1.008.183 1.278.69.27.507.417 1.198.445 2.072.027.873-.059 1.888-.26 3.044z"/></g><g><path fill="#deac36" d="M354.804 35.471h-11.27l14.753 4.513z"/><path fill="#f1d13c" d="M358.287 39.984zM358.287 39.984l9.118 11.815-3.483-10.091z"/><path fill="#deac36" d="M349.169 51.799l9.118-6.237v-5.578z"/><path fill="#f1d13c" d="M373.041 35.471H361.77l-3.483 4.513zM358.287 39.984z"/><path fill="#c99730" d="M358.287 45.562l9.118 6.237-9.118-11.815z"/><path fill="#f1d13c" d="M358.287 39.984l-5.635 1.724-3.483 10.091 9.118-11.815zM354.804 35.471l3.483 4.513V25.381z"/><path fill="#deac36" d="M358.287 25.381v14.603l3.483-4.513z"/><path fill="#c99730" d="M358.287 39.984l-14.753-4.513 9.118 6.237 5.635-1.724z"/><path fill="#c99730" d="M358.287 39.984l5.635 1.724 9.119-6.237-14.754 4.513z"/><path fill="#f1d13c" d="M358.287 39.984zM358.287 39.984z"/></g></svg>