<svg xmlns="http://www.w3.org/2000/svg" viewBox="0 0 273.479 272.829"><path d="M271.979 135.54c0 74.363-60.283 134.646-134.646 134.646S2.687 209.903 2.687 135.54 62.97.895 137.333.895c5.761 0 11.438.362 17.008 1.064 66.333 8.361 117.638 64.98 117.638 133.581z" fill="#ad1e23"/><circle cx="137.333" cy="135.54" r="89.764" fill="#fff"/><path d="M137.333 228.47c-51.242 0-92.931-41.688-92.931-92.93 0-51.242 41.688-92.931 92.931-92.931 51.242 0 92.93 41.688 92.93 92.931 0 51.242-41.688 92.93-92.93 92.93zm0-179.527c-47.75 0-86.597 38.847-86.597 86.597 0 47.749 38.847 86.597 86.597 86.597 47.749 0 86.597-38.847 86.597-86.597 0-47.75-38.848-86.597-86.597-86.597z" fill="#293179"/><path d="M137.333 263.321c-70.458 0-127.78-57.322-127.78-127.78S66.875 7.76 137.333 7.76s127.78 57.322 127.78 127.78-57.322 127.781-127.78 127.781zm0-251.339c-68.13 0-123.558 55.428-123.558 123.558 0 68.13 55.428 123.558 123.558 123.558 68.13 0 123.558-55.428 123.558-123.558 0-68.13-55.428-123.558-123.558-123.558z" fill="#fff"/><g fill="#fff"><path d="M35.702 181.95l1.492.568-.553 1.498-2.665 1.212-2.193-.984-1.773-3.897.892-2.386 10.468-4.762 2.98.625 1.773 3.898-.907 2.392-2.254 1.025-1.492-.568.553-1.498 1.433-.651.132-.795-.832-1.83-1.094-.237-8.982 4.086-.223.592 1.017 2.236.594.22 1.634-.744zM44.605 200.202l-2.453 1.627-3.876-5.844.571-1.214 1.227.264 9.89-6.557.252-1.246 1.381.456.984 1.484-.118 1.45-1.248-.251-9.68 6.419 1.254 1.891.563-.372 1.253 1.893zM64.946 207.147l-8.531 7.953-3.287-.131-2.161-2.317-.054-3.453 8.531-7.954-.087-1.148 1.757.236 1.103 1.184-.04 1.604-1.154-.184-7.874 7.341.124 1.451.935 1.003 1.271.044 7.874-7.34-.088-1.148 1.604.072 1.256 1.349-.04 1.604-1.139-.166zM78.864 218.863l-2.582 3.43-1.258.178.448.9-4.081 5.423-1.573.222-5.244-3.946.138-1.303.629-.089 7.337-9.751-.134-.944 1.587-.24 4.148 3.121.585 2.999zm-8.597 7.649l2.581-3.43-.268-.765-2.709-.885-2.296 3.053 2.692 2.027zm4.742-6.302l1.5-1.994-.313-1.078-1.975-1.486-2.986 3.968 2.515.768 1.259-.178zM110.553 231.304l1.066 1.988-3.544 11.747-2.053 1.282-4.346-1.311-1.097-.331-.379-1.076.84-.451 3.544-11.747-.659-.927 1.401-.751 5.227 1.577zm-4.391 12.22l2.961-9.811-.086-.496-2.41-.727-3.219 10.672 2.409.727.345-.365zM125.136 236.437l.032-.244-2.251-.295-.535 4.077 1.371.181.764-.603.606.782-.265 2.027-.787.6-.613-.556-1.371-.181-.625 4.769 2.251.294.062-.468 2.272.298-.178 1.36-1.315 1.21-5.638-.739-.551-.98.758-.603 1.604-12.233-.803-.785 1.5-.937 5.42.71.745 1.231-.182 1.382-2.271-.297zM163.64 233.344l.918 4.193-.685 1.07.974.247 1.451 6.63-.857 1.338-6.41 1.404-.899-.954.343-.535-2.611-11.921-.802-.515.852-1.36 5.072-1.11 2.654 1.513zm-1.492 3.8l-.534-2.437-1.022-.466-2.415.529 1.062 4.851 2.223-1.407.686-1.07zm1.687 7.706l-.918-4.193-.755-.295-2.437 1.477.817 3.732 3.293-.721zM176.949 229.105l-.092-.229-2.108.843 1.528 3.819 1.283-.514.373-.899.911.386.759 1.898-.393.908-.807-.186-1.283.513 1.787 4.466 2.107-.844-.175-.438 2.128-.851.51 1.272-.556 1.699-5.278 2.112-.961-.584.367-.898-4.583-11.455-1.084-.291.851-1.551 5.075-2.03 1.252.709.518 1.294-2.129.851zM195.309 232.933l1.115.137-.136 1.115-2.183 1.254-1.032-.443.444-1.032-6.321-10.546-1.116-.136.415-1.534 1.597-.919 1.534.414-.443 1.032 6.126 10.658zM206.857 227.212l-2.207-.29-1.122-1.461.07-1.754 1.731.371.561.731.315.041 1.069-.821.32-1.095-2.491-3.244-.315-.042-2.709 2.081-1.904-.266-3.038-3.957.18-2.716 3.084-2.368 2.356.486 1.108 1.443-.184 1.275-1.754-.071-.424-.553-.63-.083-1.266.973-.11.963 1.929 2.514 2.709-2.081 2.206.289 3.6 4.689-.377 2.867-2.707 2.079zM215.064 201.04l3.122 2.946.037 1.271.944-.346 4.936 4.658.047 1.589-4.504 4.772-1.28-.28-.018-.635-8.876-8.375-.953.028-.063-1.604 3.562-3.776 3.046-.248zm.911 3.979l-1.815-1.712-1.107.192-1.697 1.798 3.613 3.409 1.042-2.415-.036-1.272zm5.737 5.414l-3.122-2.946-.789.182-1.18 2.594 2.778 2.623 2.313-2.453zM232.705 200.547l-2.184.424-10.133-6.84-.532-2.827 2.012-2.98 2.82-.564 10.133 6.84.297 2.37-2.413 3.577zm.018-4.082l.065-.499-8.588-5.797-.954.17-1.006 1.49.199.948 8.589 5.797.311-.061 1.384-2.048zM241.986 177.731l2.668 1.243-2.959 6.356-1.334.148-.415-1.184-10.757-5.008-1.195.435-.332-1.416.751-1.614 1.299-.657.438 1.195 10.53 4.902.958-2.058-.612-.284.96-2.058z"/></g><g fill="#fff"><path d="M26.455 125.249l-1.57-.116-.475.407-.148 1.997.832.724 9.731.721.473-.406.164-2.217-.189-.456-3.758-.278-.475.409-.065.884-1.211 1.044-1.022-1.209.146-1.974 1.886-1.454 1.326.098 4.229.313 1.446 1.69-.31 4.19-1.924 1.663-11.296-.837-2.299-1.976.296-3.991 1.94-1.64 2.436.18 1.023 1.198-1.186 1.036zM27.325 108.815l-.238-.054-.494 2.184 3.957.895.301-1.33-.523-.806.823-.524 1.968.445.517.828-.602.551-.301 1.33 4.627 1.047.494-2.183-.454-.103.499-2.205 1.319.298 1.069 1.401-1.238 5.47-1.012.453-.523-.8-11.869-2.686-.845.718-.783-1.559 1.19-5.258 1.277-.62 1.341.304-.5 2.204zM44.934 92.842l.698-.482.76 1.074-1.016 2.506-1.092.275-.509-1.163-8.435.98 7.128 2.891.698-.482.761 1.074-.5 1.232-.433 1.068-1.092.275-.5-1.184-11.092-4.5-.979.584-.531-1.699.592-1.458 1.473-.623.287 1.121 8.526-1.206-6.902-2.8-.978.584-.623-1.473.592-1.459 1.481-.643.37.915 11.316 4.593zM41.524 75.247l-.208-.127-1.165 1.912 3.464 2.112.709-1.164-.238-.93.947-.234 1.722 1.05.226.949-.747.33-.71 1.164 4.051 2.469 1.165-1.912-.397-.242 1.177-1.93 1.155.704.566 1.669-2.92 4.788-1.103.106-.241-.925-10.391-6.335-1.029.411-.245-1.728 2.806-4.603 1.408-.18 1.173.715-1.175 1.931zM62.538 66.669l.95-.1.254 1.11-1.73 2.064-1.122-.077.043-1.432-2.396-2.008-2.23.176-.864 1.031 3.788 3.175.936-.082.27 1.093-1.737 2.072-1.123-.073.047-1.435-9.126-7.65-1.093.27-.154-1.574 3.322-3.963 2.524-.22 4.309 3.611.298 1.402 1.575-.122 3.259 2.732zM50.28 63.105l3.449 2.89 1.58-1.886-.027-.312-2.939-2.464-.61.038-1.453 1.734zM72.789 56.382l1.272-.229.229 1.273-1.836 1.604-1.084-.23-.104-.793-1.626-1.523-1.652 1.444 1.271 2.128.626.042.249.959-1.669 1.459-1.084-.23.063-.939-6.66-10.313-.792.104.105-1.564 2.487-2.173 1.564.105-.245 1.067 5.941 5.112 2.945 2.697zm-9.349-5.341l3.271 5.09 1.318-1.152-4.589-3.938zM85.952 46.21l1.555 2.452-5.841 3.704-1.186-.586.286-1.205-6.269-9.884-1.224-.274.478-1.353 1.483-.941 1.428.146-.273 1.225 6.136 9.675 1.891-1.199-.356-.561 1.892-1.199zM93.137 31.294l-.099-.223-2.047.906 1.642 3.709 1.247-.551.335-.9.911.348.816 1.845-.356.909-.801-.155-1.247.552 1.92 4.338 2.047-.906-.189-.426 2.068-.915.547 1.236-.487 1.694-5.128 2.269-.967-.542.33-.897-4.924-11.129-1.08-.249.784-1.559 4.93-2.181 1.26.655.556 1.257-2.068.915zM109.432 39.424l-1.907-1.085-.482-1.753.716-1.576 1.443.983.241.877.273.155 1.282-.352.7-.882-1.069-3.89-.272-.155-3.249.893-1.641-.951-1.304-4.745 1.175-2.415 3.698-1.016 1.972 1.32.476 1.731-.641 1.096-1.577-.716-.182-.662-.545-.31-1.518.417-.459.839.828 3.014 3.249-.893 1.908 1.085 1.545 5.622-1.411 2.48-3.249.889zM146.14 20.328l1.492 1.651-.612 12.087-1.663 1.714-4.472-.227-1.13-.057-.617-.941.698-.631.612-12.087-.85-.731 1.163-1.051 5.379.273zm-1.312 12.739l.512-10.095-.199-.454-2.479-.126-.557 10.981 2.479.126.244-.432zM161.814 24.977l.049-.239-2.194-.449-.813 3.974 1.336.273.795-.539.54.812-.404 1.977-.816.534-.564-.59-1.335-.273-.951 4.647 2.194.449.093-.456 2.215.454-.271 1.325-1.378 1.098-5.494-1.125-.474-1.002.79-.54 2.44-11.922-.736-.829 1.543-.816 5.281 1.081.647 1.264-.276 1.346-2.217-.454zM197.748 37.016l.571 2.151-6.077 10.467-2.263.763-3.873-2.248-.977-.568-.119-1.119.908-.241 6.077-10.467-.422-1.04 1.515-.402 4.66 2.704zm-6.998 10.727l5.076-8.741.031-.495-2.147-1.246-5.52 9.508 2.146 1.246.414-.272zM212.982 50.407l-7.299 8.892-3.231.302-2.416-1.983-.504-3.368 7.299-8.892-.235-1.111 1.748.001 1.233 1.013.171 1.574-1.152-.028-6.737 8.207.311 1.402 1.045.858 1.248-.123 6.736-8.207-.235-1.111 1.577-.139 1.405 1.153.17 1.574-1.134-.014zM216.655 71.857l-.042.955-1.135.086-1.784-2.018.243-1.098 1.409.256 2.342-2.07.158-2.231-.892-1.008-3.704 3.274-.058.939-1.122.104-1.791-2.026.239-1.099 1.412.261 8.923-7.887-.105-1.121 1.579.082 3.425 3.874-.158 2.529-4.212 3.723-1.431.087-.114 1.575-3.182 2.813zm5.348-11.591l-3.372 2.981 1.63 1.843.313.02 2.873-2.54.054-.609-1.498-1.695zM225.308 83.535l.036 1.292-1.293.036-1.312-2.054.389-1.038.799.015 1.749-1.38-1.182-1.849-2.293.94-.135.612-.986.104-1.193-1.868.389-1.038.918.203 11.191-5.046.015-.799 1.531.337 1.779 2.783-.338 1.531-1.018-.401-5.941 5.111-3.105 2.509zm6.675-8.448l-5.521 2.476.943 1.476 4.578-3.952zM232.885 100.289l-.15.835-1.298-.22-1.057-2.489.576-.967 1.183.461 5.26-6.666-7.08 3.007-.152.835-1.297-.22-.521-1.224-.45-1.061.576-.967 1.193.481 11.016-4.68.277-1.105 1.578.823.615 1.448-.599 1.483-.996-.589-5.165 6.89 6.855-2.912.277-1.105 1.482.598.615 1.449-.59 1.503-.91-.384-11.238 4.776zM246.009 110.92l1.53-.374.326-.533-.475-1.946-1.015-.431-9.479 2.317-.325.532.528 2.16.321.375 3.66-.895.326-.536-.211-.861.83-1.366 1.345.835.47 1.922-1.345 1.965-1.292.316-4.119 1.007-1.898-1.161-.998-4.082 1.316-2.176 11.004-2.69 2.796 1.17.95 3.887-1.339 2.159-2.373.58-1.342-.824.809-1.35zM236.813 124.484l1.404-1.686 12.009-1.095 2.17 1.827.322 3.532-1.803 2.19-12.009 1.096-1.706-1.625-.387-4.239zm2.532 3.13l.261.422 10.178-.929.623-.724-.161-1.766-.743-.6-10.178.928-.2.241.22 2.428z"/></g><path fill="#fff" d="M22.38 145.584v8.501l8.886 9.034 8.488-8.944v-8.591zM234.912 145.584v8.501l8.885 9.034 8.488-8.944v-8.591z"/><g><path d="M193.473 139.522c-9.121 16.053-22.74 26.754-38.063 35.024-5.473 14.106-11.066 38.185-31.497 38.185-12.526 0-16.66-9.121-16.538-15.931 0-9.972 9.121-15.444 15.444-18.363 3.648-1.823 8.999-3.77 14.471-6.201l4.013-9.85c-3.891 3.405-10.093 7.661-18.484 7.661-12.526 0-18.971-9.728-18.971-22.984 0-4.256.729-9.121 1.945-14.593-16.052-4.986-24.808-16.051-24.808-30.037 0-12.526 7.174-22.741 15.931-27.606l9.242 13.5c-.244.121-8.634 4.499-8.634 13.011 0 3.405 1.338 12.04 12.891 16.174 9.607-24.564 29.186-50.71 54.967-50.71 15.931 0 23.714 10.093 23.714 22.863 0 14.957-9.607 26.875-22.254 34.657-11.188 6.932-25.781 10.945-40.496 10.945-.851 0-1.581 0-2.432-.122-1.094 4.622-1.703 8.635-1.703 11.918 0 4.378 1.095 8.27 5.959 8.27 6.567 0 16.417-7.419 22.132-15.323l2.067-5.108 20.916-4.256-11.795 29.184c11.796-7.783 20.552-16.659 25.173-25.172 2.675.243 5.837 2.553 6.81 4.864zm-75.154 56.67c0 2.31 1.946 3.04 3.405 3.04 3.405 0 6.202-4.135 10.337-14.106-3.162 1.338-5.715 2.431-7.661 3.526-3.041 1.702-6.081 4.499-6.081 7.54zm51.197-103.733c0-3.526-1.703-6.445-6.932-6.445-12.404 0-25.173 16.54-32.956 33.686 9.485-.608 18.849-3.283 26.267-7.905 7.297-4.62 13.621-11.188 13.621-19.336z" fill="#293179"/></g><g><path d="M136.74 272.829C61.341 272.829 0 211.634 0 136.415 0 61.195 61.341 0 136.74 0c75.398 0 136.739 61.195 136.739 136.415 0 75.219-61.341 136.414-136.739 136.414zm0-263.532C66.48 9.297 9.319 66.322 9.319 136.415c0 70.092 57.161 127.117 127.421 127.117 70.259 0 127.42-57.025 127.42-127.117 0-70.093-57.161-127.118-127.42-127.118z" fill="#293179"/></g></svg>