<svg xmlns="http://www.w3.org/2000/svg" viewBox="0 0 219.884 221.298"><path d="M82.914 152.111c.334 0 .639.015.967.015h31.902V77.401l21.465-3.126V50.167H62.267v24.108l20.647 3.126v74.71zM194.849 164.014l-3.762 28.164h-75.303v-10.933H82.915v12.81l-20.65 3.144v24.099h157.619v-57.284z" fill="#691c32"/><path d="M199.825 0v24.099l-20.671 3.142v87.584c0 37.869-20.349 58.221-58.221 58.221H78.877c-37.866 0-58.206-20.352-58.206-58.221V27.24L0 24.099V0h53.525v113.574c0 21.605 8.451 30.357 30.354 30.357h31.732c21.602 0 30.686-8.753 30.686-30.357V0h53.528z" fill="#691c32"/></svg>