<svg xmlns="http://www.w3.org/2000/svg" viewBox="0 0 426.957 344.643"><path d="M154.065 18.022l1.005 3.06c.552 1.685 1.105 3.372 1.656 5.059.075.223.154.445.208.674.044.19.134.248.33.246 1.451-.008 2.903-.005 4.353-.005h4.985a.4.4 0 0 0 .011.047c-2.587 1.85-5.173 3.702-7.773 5.564l2.919 8.87a.876.876 0 0 0-.039.031l-7.655-5.435-7.657 5.438a.433.433 0 0 0-.037-.027c.165-.495.33-.988.492-1.483.789-2.4 1.577-4.799 2.372-7.196.056-.168.011-.24-.12-.333-2.526-1.798-5.047-3.601-7.57-5.405-.011-.008-.014-.025-.037-.072h.252c3.033 0 6.065-.002 9.096.005.193 0 .276-.053.338-.24.661-2.049 1.334-4.098 2.003-6.146.281-.862.565-1.724.868-2.652M197.171 4.648c.348 1.06.678 2.059 1.005 3.058.552 1.686 1.107 3.372 1.657 5.059.073.224.152.447.207.676.045.188.134.247.332.246 1.451-.009 2.9-.005 4.351-.005 1.591 0 3.18 0 4.769-.002h.216a.415.415 0 0 1 .011.048l-7.771 5.562 2.919 8.87c-.014.011-.026.022-.04.031l-7.653-5.434-7.658 5.437a.833.833 0 0 1-.037-.026c.165-.495.33-.988.493-1.482.789-2.4 1.575-4.8 2.37-7.196.056-.168.011-.24-.118-.333-2.526-1.799-5.048-3.603-7.571-5.407-.009-.006-.013-.023-.037-.072h.254c3.032 0 6.065 0 9.096.006.193 0 .276-.055.336-.24.663-2.051 1.335-4.098 2.004-6.146.279-.86.563-1.724.865-2.65M240.05 0a3815.638 3815.638 0 0 1 2.661 8.117c.075.224.154.447.209.676.044.188.134.247.33.246 1.451-.009 2.901-.005 4.353-.005H252.586l.012.047-7.774 5.562 2.92 8.871a.876.876 0 0 1-.039.031l-7.655-5.434c-2.558 1.818-5.109 3.627-7.658 5.437l-.036-.026c.165-.495.33-.988.492-1.481.789-2.4 1.575-4.8 2.37-7.196.058-.168.013-.24-.118-.333-2.525-1.799-5.048-3.603-7.569-5.405-.011-.007-.014-.025-.038-.072h.252c3.031 0 6.065-.001 9.096.005.193 0 .275-.054.336-.24.663-2.051 1.335-4.098 2.005-6.146L240.05 0M281.156 3.773a3815.638 3815.638 0 0 1 2.661 8.117c.075.224.154.447.209.676.044.188.134.247.33.246 1.451-.009 2.901-.005 4.353-.005H293.692l.012.047-7.774 5.562 2.92 8.871a.876.876 0 0 1-.039.031l-7.655-5.434c-2.558 1.818-5.109 3.627-7.658 5.437l-.036-.026c.165-.495.33-.988.492-1.481.789-2.4 1.575-4.8 2.37-7.196.058-.168.013-.24-.118-.333-2.525-1.799-5.048-3.603-7.569-5.405-.011-.007-.014-.025-.038-.072h.252c3.031 0 6.065-.001 9.096.005.193 0 .275-.054.336-.24.663-2.051 1.335-4.098 2.005-6.146.281-.864.564-1.728.868-2.654" fill-rule="evenodd" clip-rule="evenodd" fill="#024c2c"/><path d="M308.486 176.431c.209-1.034.237-2.232.266-3.501.07-2.996.156-6.724 2.649-10.619 2.712-4.236 7.934-7.597 11.906-9.049 4.022-1.47 7.132-4.999 9.644-8.256l1.354-1.755 1.805.231c.665-.086 5.421-.958 11.233-9.36l.62-.895c4.664-6.735 10.468-15.118 9.665-18.889-.098-.462-.333-1.016-1.335-1.623-3.438-2.087-6.538-5.558-9.82-9.232-4.629-5.182-9.415-10.541-14.095-10.645l-5.141-.114 1.445-4.734c.186-.947.995-7.518-11.442-10.859l-1.932-.519-.706-1.872c-.014-.037-2.303-5.78-9.234-12.404-6.428-6.143-18.287-14.329-38.279-18.442-18.114-3.727-32.29-2.64-40.994-1.072-9.438 1.702-14.651 4.313-14.703 4.339l-.718.364-.815.056c-.27.017-27.523 1.887-54.984 15.881-10.443 5.322-19.576 11.703-27.316 19.049-30.693 30.559-38.649 77.219-16.488 113.382 26.226 42.794 84.679 54.691 130.569 26.573l.039-.025c-3.433-6.359-8.239-15.305-10.051-18.886l-1.176-2.326 20.145-23.436 2.774 1.529c.672.371 16.226 9.124 14.417 23.599.072.135.249.368.68.635 1.48.915 6.544 2.598 21.559-1.51 10.676-2.921 13.08-6.42 13.618-7.788.485-1.231.057-2.199.052-2.207l-1.331-2.15 1.421-2.093c.029-.048 3.44-5.166 4.699-11.377z" fill="#fff"/><path d="M164.781 107.136c.198-.605 1.035-2.06 1.156-2.915M271.108 75.124s-3.445 2.452-11.049 5.16c-7.601 2.707-18.845 2.108-27.525 4.559-8.681 2.451-20.689 9.388-20.689 9.388s2.893.241 6.796.433c6.099.363 17.403 2.146 17.403 2.146 8.487-3.481 14.805-6.544 19.507-9.129 3.52-1.781 6.33-3.617 8.532-5.318 3.606-2.638 4.522-4.074 4.522-4.074l-.003.003c1.786-1.91 2.506-3.168 2.506-3.168z" fill="#024c2c"/><g fill="#024c2c"><path d="M183.51 133.26c18.576-17.294 23.275-32.253 53.823-26.515 0 0-18.19-9.084-38.332-3.169-20.536 6.834-26.482 37.114-61.611 41.445 0 0 27.542 5.534 46.12-11.761z"/><path d="M179.436 155.857c17.978-6.052 23.027-29.868 58.245-36.685 0 0-23.663-3.865-44.443 15.546-20.779 19.409-23.933 20.963-49.15 18.713 0 0 19.098 7.751 35.348 2.426z"/><path d="M153.507 165.932c13.373 3.125 36.508 1.672 53.135-6.5 16.627-8.171 30.182-28.509 30.182-28.509s-7.221 6.881-29.755 21.4c-22.534 14.519-53.562 13.609-53.562 13.609z"/></g><path d="M272.278 72.99s-62.521-3.452-97.292 39.458c0 0 13.24-28.996 51.069-42.759 0 0-13.19-3.611-27.795-2.287-.001 0 46.752-11.159 74.018 5.588M323.093 98.232c-.364-.025-.874-.028-1.487-.058-.309-.013-.64-.027-.991-.029-.351.001-.718-.033-1.098-.044-.383-.012-.775-.039-1.174-.042-.407-.005-.823-.008-1.237-.014-.427.041-.867.058-1.279.135-.114.017-.224.043-.335.065l1.238-.715c.193.006.385.015.585.013.284.004.574.009.865.016.298.004.594-.016.887-.031.294-.012.579-.052.857-.079a15.54 15.54 0 0 0 1.5-.242c.43-.087.802-.186 1.034-.244.123-.029.226-.063.3-.064l.109-.013c-.004.007-.129-.07-.397-.099a10.775 10.775 0 0 0-1.088-.09 37.21 37.21 0 0 0-1.502-.032l-.841-.003c-.264-.004-.533.007-.801.002l1.04-.593c.091-.006.183-.008.274-.022.288-.035.585-.059.823-.132.252-.065.454-.128.7-.208.111-.05.215-.095.313-.144.095-.053.181-.116.26-.168a1.63 1.63 0 0 0 .354-.36c.079-.112.116-.216.139-.283.02-.072.024-.109.024-.109s-.022.033-.067.084a1.302 1.302 0 0 1-.221.184 1.989 1.989 0 0 1-.391.185 3.38 3.38 0 0 1-.539.117c-.137.007-.318.019-.501.034l-3.344-.952c-.748-.213-1.741-.519-2.835-.84.67-.514 1.215-1.044 1.613-1.575a8.568 8.568 0 0 0 .955-1.533c.229-.438.346-.812.433-1.056.082-.25.108-.387.108-.387s-.366.427-1.063 1.05c-.343.313-.789.659-1.306 1.005-.512.356-1.13.664-1.791.934a7.468 7.468 0 0 1-1.978.406c.168-.203.307-.419.428-.632.28-.591.345-1.169.363-1.676-.002-1.015-.244-1.79-.429-2.313a5.16 5.16 0 0 0-.356-.798s.026.318.035.858c.001.27-.004.596-.027.961-.016.366-.086.769-.165 1.186-.109.41-.263.828-.493 1.176-.136.156-.257.322-.433.428l-.118.092-.118.052c-.038.017-.074.038-.11.059a.357.357 0 0 1-.151.063l-.422.119-.326.047c-.066.012-.131.014-.197.021l-.056-.018-.305-.092-.039-.012h-.002l-.08-.033-.179-.07-.723-.281c-.475-.196-.867-.397-1.322-.589-.734-.359-1.487-.728-2.248-1.112-.636-.714-1.153-1.485-1.584-2.174a32.304 32.304 0 0 1-1.078-1.94l-.384-.77s-.002.318.073.867c.074.548.219 1.332.532 2.24.076.226.163.461.262.7a40.187 40.187 0 0 0-1.295-.608 32.362 32.362 0 0 0-2.994-1.197 28.847 28.847 0 0 0-1.497-.455c-.494-.134-.994-.233-1.472-.334-.971-.168-1.896-.281-2.758-.282l-.628-.01c-.205.008-.405.023-.601.04-.389.037-.756.058-1.097.105-.683.137-1.267.252-1.736.394-.469.15-.826.298-1.069.385l-.368.147.4.04c.257.018.636.062 1.102.082.468.039 1.034.157 1.663.228l.994.213.53.111.548.161c.745.19 1.531.475 2.351.781.405.177.828.321 1.25.516.419.207.857.374 1.291.594.433.227.881.419 1.328.657l1.364.706 2.838 1.475c.44.218.889.433 1.341.643-2.149.172-4.493-.079-6.887-.759-2.709-1.342-4.691-.285-4.862-.192l-4.17 2.26 4.739-.14c.043-.002 4.244-.096 6.44 2.623 1.624 2.01 3.127 2.753 4.877 2.41 1.115-.219 2.211-.873 3.476-1.629l.16-.099c.568-.339 1.273-.594 2.105-.757 1.562-.306 3.18-.218 3.443-.22l.741.125c-2.212 1.346-6.479 3.667-10.23 4.097-5.338.613-10.759-4.755-10.759-4.755l-7.721-.402s.933.422 4.775 3.308c3.84 2.884 1.613 5.75-.569 8.24-2.18 2.49-12.789 12.091-17.216 16.114-4.426 4.023-5.451 9.925-5.183 13.614.27 3.69 3.277 16.165 3.277 16.165 2.886-3.833 17.159-20.116 17.159-20.116-.762-2.035-3.6-9.286.557-12.529 4.155-3.242 18.669-16.151 21.343-17.98.919-.628 2.631-1.666 4.483-2.759l.721-.2c.336-.078.687-.182 1.052-.249.183-.037.368-.081.556-.11.19-.022.38-.048.571-.079.384-.064.769-.063 1.157-.096.407-.007.813-.011 1.211-.017.41.001.812-.025 1.2-.036.779-.012 1.501-.12 2.115-.2.617-.076 1.126-.204 1.478-.278.177-.036.314-.083.408-.107l.144-.039-.569-.028zm-17.405-2.644l-.164.097c-1.131.676-2.022 1.21-2.751 1.353-.419.082-1.195.234-2.687-1.612-.038-.047-.075-.096-.116-.142 1.814.157 3.565.08 5.193-.24.805-.158 1.409-.34 1.816-.468.052 0 .12.007.195.017l.108.03.094.025a.383.383 0 0 0 .06.017l.012.003.028.004.056.011.243.043a8.48 8.48 0 0 0-2.087.862zm2.609-3.771l-.01-.003a.766.766 0 0 1 .013.004l-.003-.001z" fill="#024c2c"/><g fill="#024c2c"><path d="M318.758 104.831c-.682-.1-1.428-.163-2.221-.172-.792.006-1.635.019-2.496.156-.859.123-1.75.283-2.626.56-.881.253-1.745.604-2.595.986-.422.195-.826.428-1.236.641-.396.24-.792.478-1.171.731-.759.507-1.453 1.078-2.106 1.644-.314.296-.636.574-.928.87-.281.304-.557.601-.823.891-.514.596-.993 1.165-1.377 1.731l-.562.802c-.17.258-.315.516-.461.751-.29.47-.527.888-.699 1.245-.357.706-.542 1.117-.542 1.117s.309-.336.815-.933c.244-.305.573-.649.934-1.052.355-.41.783-.844 1.241-1.32.224-.244.471-.482.735-.721.262-.239.508-.508.793-.754l.87-.757.933-.751c.317-.252.66-.48.996-.728.338-.239.703-.452 1.051-.691.359-.225.734-.424 1.1-.647.381-.192.756-.4 1.145-.579.773-.366 1.56-.708 2.365-.957.397-.142.804-.24 1.199-.367.401-.097.794-.212 1.192-.283a25.65 25.65 0 0 1 2.304-.359c.741-.06 1.448-.108 2.104-.113a24.075 24.075 0 0 1 3.19.182c.773.097 1.217.193 1.217.193s-.393-.23-1.138-.509a15.088 15.088 0 0 0-3.203-.807z"/><path d="M314.454 108.733c-.469.248-.958.57-1.426.976a7.868 7.868 0 0 0-1.337 1.433c-.412.548-.745 1.183-1.017 1.849a9.697 9.697 0 0 0-.569 2.092c-.062.357-.074.717-.113 1.073-.02.356-.009.711-.013 1.061.022.349.05.694.078 1.035l.155.993c.13.641.275 1.258.465 1.822.162.573.376 1.094.573 1.569.18.483.414.898.595 1.271.176.377.37.688.522.944.307.513.5.795.5.795s-.06-.34-.195-.917c-.067-.288-.15-.637-.234-1.037-.076-.402-.195-.845-.282-1.334-.093-.491-.196-1.017-.279-1.573-.102-.554-.145-1.144-.216-1.743l-.063-.914a32.358 32.358 0 0 0-.016-.93l.045-.935c.038-.308.052-.624.109-.928.091-.613.239-1.213.434-1.783.206-.566.438-1.114.738-1.606.297-.493.615-.96.977-1.359.359-.399.725-.767 1.097-1.073a12.284 12.284 0 0 1 2.788-1.752s-.346-.008-.941.109a8.244 8.244 0 0 0-2.375.862z"/><path d="M351.02 115.881c-.032-.275-.122-.545-.183-.814a7.394 7.394 0 0 0-1.592-2.856c-.193-.194-.371-.389-.576-.572l-.661-.515-.622-.375-.129-.08-.081-.04-.161-.076-.321-.156c-.423-.22-.845-.437-1.267-.655-.406-.242-.81-.486-1.206-.738a16.64 16.64 0 0 1-4.06-3.642c-1.117-1.371-1.889-2.832-2.867-4.235-.501-.704-1.069-1.386-1.718-1.975-.167-.149-.352-.294-.527-.437-.179-.144-.356-.29-.506-.379l-.469-.305-.116-.075a.693.693 0 0 0-.059-.039l-.018-.009-.033-.018-.065-.037-.26-.143a13.516 13.516 0 0 0-3.987-1.398 14.847 14.847 0 0 0-3.177-.233c-.709.022-1.282.095-1.72.167.051-.054.102-.114.15-.188.104-.158.17-.399.148-.638a1.271 1.271 0 0 0-.232-.586 2.616 2.616 0 0 0-.277-.337 1.321 1.321 0 0 0-.49-.318c-.066-.023-.132-.022-.199-.028.008-.044.018-.086.019-.133a1.255 1.255 0 0 0-.187-.663 3.038 3.038 0 0 0-.279-.405 1.65 1.65 0 0 0-.475-.413 1.26 1.26 0 0 0-.647-.16c-.072.003-.134.017-.198.03.28-.355.619-.792.917-1.361.315-.573.626-1.275.745-2.131.075-.426.071-.889.03-1.371a5.376 5.376 0 0 0-.418-1.445c-.44-.945-1.169-1.767-2.009-2.414-.839-.656-1.785-1.163-2.764-1.582-.978-.419-1.999-.735-3.02-1.004-1.043-.259-2.048-.444-3.019-.654l-.14-.027c-.682-2.007-2.538-6.18-6.949-9.487 0 0 2.085 3.377 1.184 7.93-.223-.238-.465-.49-.74-.754-.14-.14-.299-.295-.45-.443-1.915-14.247-16.58-22.178-16.58-22.178 6.89 8.066 7.814 14.191 7.907 16.325l-.651-.202a37.614 37.614 0 0 0-2.001-.522c-1.031-3.907-6.576-19.84-29.278-24.63 0 0 15.578 6.288 20.579 23.804a18.93 18.93 0 0 0-1.207.075l-.782.068-.34.048c-2.621-4.989-22.678-38.932-72.822-16.502-19.977.534-42.244 7.391-59.246 17.804-43.252 26.516-58.287 80.711-33.569 121.056 22.698 37.037 68.77 47.144 109.627 28.067.029-.013.05-.028.078-.041l.001.003 5.406-2.716s-4.567-9.71-5.545-12.791c-.977-3.079-1.686-6.213 2.091-10.787 3.659-4.431 18.818-20.192 21.54-25.818l.115.023c.394.29.788.575 1.184.846.678.485 1.314 1.041 1.984 1.51.662.483 1.286 1.036 1.923 1.547.647.494 1.262 1.047 1.891 1.565.633.508 1.224 1.091 1.849 1.616a54.75 54.75 0 0 1 1.851 1.613c.615.546 1.221 1.097 1.831 1.654l1.854 1.643.943.823.472.412c.158.139.331.276.43.388.233.237.465.473.709.697l.666.774c.231.246.412.562.623.838.209.276.402.579.59.884.396.591.734 1.249 1.071 1.901l.49 1.002.453 1.034c.278.705.55 1.417.81 2.139.255.724.479 1.461.693 2.201.058.199.11.398.166.597a.965.965 0 0 0 .03.329c.363 1.611.662 3.376.662 3.376.557.192 1.57.181 2.317.14l.07.061c.263-.017.526-.038.787-.064l.391-.038.348-.054c.462-.076.937-.144 1.369-.238.437-.088.888-.171 1.31-.286l1.278-.327c.842-.229 1.682-.457 2.511-.702.416-.118.831-.238 1.24-.383l1.229-.415 2.44-.854 2.408-.954c.111-.043.221-.094.332-.139l.008.004c7.195-1.96 5.05-4.241 5.05-4.241a43.924 43.924 0 0 1-1.292-1.399c.975-1.501 4.915-7.787 5.237-11.781.367-4.56-3.725-4.815-5.759-2.313-1.525 1.875-4.196 4.279-5.439 5.366-.789-1.585-1.168-2.654-1.25-2.899l-.018-.054-.253-.893a11.004 11.004 0 0 1-.226-.886c-.058-.297-.136-.55-.188-.886l-.076-.504-.038-.254c-.004-.026.02.106.009.037v-.028l-.001-.057-.002-.114-.024-.925.007-1.031c-.003-.688.025-1.409.04-2.132.075-2.896.191-5.972.319-9.136.034-.788.071-1.583.108-2.385.02-.404.037-.81.058-1.217.016-.384.061-.761.09-1.143.144-1.521.378-3.067.762-4.56a20.38 20.38 0 0 1 .671-2.174c.126-.387.259-.605.371-.904.036-.123.167-.336.261-.515l.154-.277.048-.086.009-.012.045-.064c.965-1.342 1.935-2.688 2.904-4.037.934-1.35 1.97-2.72 2.978-4.081l2.99-4.078c.996-1.348 1.956-2.714 2.904-3.976.473-.629.946-1.227 1.416-1.736.467-.508.927-.932 1.317-1.139a1.69 1.69 0 0 1 .549-.218c.176-.047.376-.046.605-.028.46.05 1.039.236 1.627.512 1.189.556 2.385 1.38 3.531 2.2 1.154.827 2.243 1.695 3.318 2.537.274.211.532.428.812.63l.839.625c.555.412 1.087.826 1.663 1.168l.087.055a17.513 17.513 0 0 1-5.12 10.439c-.975.752-3.418 3.177 1.11 4.814 4.378 1.581 13.687-3.843 20.276-11.91.275-.085.547-.183.818-.294l.024.03.226-.129a7.69 7.69 0 0 0 2.007-1.288l.059-.042c.352-.258.778-.549 1.162-.889l.6-.528c.104-.093.208-.188.313-.284l.079-.072.041-.038.02-.018.059-.071.184-.242c.48-.69.656-1.371.875-1.952a9.55 9.55 0 0 1 .782-1.687c.639-1.094 1.587-2.161 2.722-3.216l.861-.769.982-.824c.074-.063.193-.156.227-.193l.268-.238.536-.481c.371-.304.681-.697 1.017-1.058 1.302-1.484 2.446-3.36 2.789-5.55.111-.536.106-1.1.111-1.65l-.096-.836zm-18.389-15.968c.021.014.01.007-.004-.002l.004.002zM152.5 213.713c.252-.334.52-.687.81-1.066.455.33 1.04.695 1.755 1.019 1.302.595 2.391 1.114 3.278 1.301.291.097.603.197.839.289.601.217 2.688.514 2.569.213-.098-.255-2.243-1.153-2.839-1.389-.021-.008-.044-.008-.065-.015l-.154-.109c-.671-.465-2.475-1.257-3.11-1.644-.299-.171-.793-.571-1.304-.917a184.39 184.39 0 0 1 2.09-2.63c.362.186.763.37 1.223.533 1.425.499 2.61.95 3.565 1.057.302.071.622.143.866.215.639.184 2.874.298 2.736-.003-.116-.258-2.416-.999-3.064-1.185-.027-.008-.056-.007-.084-.012l-.166-.096c-.721-.42-2.667-1.096-3.349-1.429-.169-.082-.404-.228-.661-.387a169.14 169.14 0 0 1 2.128-2.528c.46.231 1.002.462 1.637.654 1.536.47 2.814.896 3.859.972.336.062.695.122.967.188.699.17 3.169.18 3.031-.131-.117-.277-2.628-.967-3.323-1.134-.029-.008-.062-.005-.092-.009l-.179-.098c-.776-.418-2.877-1.041-3.628-1.367-.243-.109-.597-.326-.992-.552.843-.959 1.719-1.931 2.62-2.901.463.294 1.028.6 1.706.872 1.486.588 2.709 1.106 3.741 1.266.333.092.688.183.956.272.683.226 3.136.428 3.024.101-.087-.274-2.516-1.164-3.201-1.387-.026-.009-.055-.009-.082-.015l-.172-.112c-.736-.476-2.776-1.265-3.488-1.654-.274-.153-.688-.465-1.142-.769a108.863 108.863 0 0 1 3.344-3.349 11.17 11.17 0 0 0 2.449 1.346c1.687.675 3.08 1.271 4.249 1.436.353.095.723.19 1.005.284.759.247 3.495.474 3.378.107-.1-.298-2.818-1.293-3.57-1.543-.035-.011-.075-.011-.111-.019l-.18-.118c-.818-.543-3.094-1.41-3.901-1.85-.391-.213-1.043-.73-1.719-1.141a71.176 71.176 0 0 1 3.358-2.885c.18-.144.364-.289.553-.434a11.56 11.56 0 0 0 2.948 1.704c1.766.701 3.221 1.325 4.442 1.507.378.103.779.207 1.085.307.801.267 3.676.513 3.546.127-.104-.329-2.965-1.37-3.762-1.638-.039-.013-.081-.014-.122-.023l-.178-.112c-.861-.573-3.264-1.519-4.101-1.967-.44-.244-1.189-.844-1.945-1.288 1.594-1.092 3.392-2.194 5.319-3.285a11.298 11.298 0 0 0 2.796 1.873c1.712.83 3.119 1.559 4.321 1.818.367.128.756.259 1.05.382.78.312 3.628.744 3.522.359-.081-.331-2.847-1.573-3.625-1.886-.037-.016-.078-.018-.117-.029a19.793 19.793 0 0 1-.174-.131c-.806-.628-3.131-1.731-3.93-2.232-.397-.255-1.041-.847-1.715-1.328 1.55-.834 3.16-1.658 4.795-2.463a10.478 10.478 0 0 0 2.144 1.883c1.595 1.074 2.904 2.002 4.111 2.44.377.19.784.388 1.085.559.754.437 3.703 1.254 3.702.835 0-.371-2.654-2.019-3.401-2.463a.907.907 0 0 0-.13-.06 18.398 18.398 0 0 0-.137-.147c-.712-.757-2.93-2.207-3.647-2.854-.31-.275-.759-.846-1.266-1.381a242.145 242.145 0 0 1 6.711-3.051c.63.551 1.393 1.084 1.715 1.402.687.679 2.061 2.584 2.904 3.277l.163.135a.54.54 0 0 0 .053.115c.393.623 1.94 2.884 2.418 2.989.582.117.229-2.108-.15-2.741-.151-.242-.306-.557-.459-.856-.264-.948-1.194-2.109-2.233-3.506a10.077 10.077 0 0 0-1.883-1.906c2.036-.866 3.97-1.663 5.73-2.372.551.616 1.223 1.227 1.492 1.575.582.747 1.688 2.801 2.42 3.596l.156.166c.008.031.015.063.03.095.305.67 1.531 3.098 1.993 3.266.557.185.52-2.075.215-2.743-.114-.256-.222-.589-.332-.904-.137-.974-.897-2.235-1.73-3.742-.523-.94-1.193-1.71-1.788-2.287a297.735 297.735 0 0 1 5.64-2.159c-.254 6.869.007 27.535 11.1 41.652-24.472 11.273-50.858 11.194-71.941.245zm142.703-34.748c1.55-1.147 2.835-2.707 2.835-2.707s.667-.411.159.81c-.439 1.055-3.416 6.451-4.782 8.459a40.993 40.993 0 0 1-2.594-3.888c1.67-.958 3.581-2.084 4.382-2.674zm22.517-31.331c-2.096 1.1-3.574.577-1.62-.932 1.953-1.508 4.728-9.636 4.728-9.636 1.944 2.28 5.312 2.968 5.312 2.968-1.026 1.566-6.324 6.501-8.42 7.6zm20.826-16.072a28.66 28.66 0 0 1-.143 1.797l-.005.047-.044.103-.003.008c-.033.041.042-.048.032-.035l-.017.023-.033.042-.063.087-.249.338-.462.65c-.246.349-.488.62-.708.893a7.679 7.679 0 0 1-4.314 2.308c-.427.048-.896.087-1.401.108a9.762 9.762 0 0 1-1.437-.107c-1.358-.248-2.917-.714-4.59-1.467-1.819-.821-3.73-2.038-5.627-3.592-.489-.366-.943-.803-1.413-1.236l-.711-.654c-.246-.221-.488-.47-.734-.706a72.169 72.169 0 0 0-3.214-2.929c-1.153-.98-2.379-1.958-3.915-2.826-.773-.424-1.652-.829-2.744-1.017-1.074-.203-2.43-.032-3.446.496-1.043.506-1.796 1.176-2.454 1.827-.655.658-1.216 1.324-1.757 1.984-1.077 1.321-2.076 2.639-3.094 3.966l-3.068 4.02c-1.02 1.356-2.046 2.69-3.061 4.129l-3.011 4.263-.047.066-.024.032a1.585 1.585 0 0 0-.082.142l-.077.139-.151.28c-.102.195-.197.342-.312.615-.209.481-.455 1.021-.579 1.443a24.502 24.502 0 0 0-.756 2.655c-.416 1.761-.627 3.521-.717 5.272-.016.436-.049.875-.05 1.306-.003.408-.008.815-.013 1.219-.01.808.007 1.632.01 2.436.031 3.215.122 6.305.273 9.256.046.739.077 1.46.141 2.191.028.363.058.724.084 1.081.034.371.094.772.145 1.148l.02.142.009.072.005.035.019.101.064.247.128.495c.085.325.227.709.336 1.053.113.362.24.681.367.994l.375.935c1.045 2.431 2.242 4.526 3.488 6.264.284.448.624.844.924 1.24.154.197.305.388.451.578.08.097.141.178.232.285l.228.254 1.088 1.223c.163.21.326.42.498.631 2.446 3.01-.187 4.302-1.888 4.794-1.602.354-3.206.7-4.81 1.045-1.663.345-3.326.678-4.995.969l-1.254.205c-.418.073-.835.118-1.254.18-.418.064-.835.097-1.254.141-.338.043-.669.047-1.001.058a32.648 32.648 0 0 0-.454-2.219 38.72 38.72 0 0 0-.675-2.431 39.535 39.535 0 0 0-.842-2.38l-.493-1.165c-.174-.383-.361-.763-.547-1.142-.395-.745-.795-1.492-1.274-2.192a11.257 11.257 0 0 0-.729-1.042c-.267-.329-.497-.687-.794-.993l-.869-.935-.957-.85c-.648-.538-1.308-1.039-1.962-1.559l-1.98-1.536a91.147 91.147 0 0 0-2.002-1.51c-.106-.08-.217-.154-.323-.234l.018.007-.102-.067a53.717 53.717 0 0 0-1.627-1.175c-.687-.478-1.364-.969-2.077-1.413-.708-.444-1.389-.932-2.126-1.336-.217-.121-.431-.247-.645-.371-4.377-2.919-9.512-6.381-10.577-7.258-1.923-1.586-5.613-17.164-6.014-18.504l-25.957 24.492c-.31.112-2.407.87-5.546 2.089.205-.772.299-1.606.328-2.024.034-.896.462-3.337.428-4.335a3.846 3.846 0 0 0-.044-.442c.249-.323-.125-1.399-.21-2.118-.077-.757-1.319-2.689-1.759-2.174-.36.411-.207 3.066-.119 3.917-.627.952-1.03 2.486-.988 4.072.029 1.413.068 3.026.092 3.998a322.562 322.562 0 0 0-6.489 2.66c.159-.882.139-1.919.102-2.403-.075-.88.016-3.347-.162-4.344a4.019 4.019 0 0 0-.1-.428c.216-.323-.309-1.364-.481-2.071-.192-.744-1.68-2.505-2.052-1.942-.29.439.207 3.04.413 3.882-.495 1.02-.689 2.59-.434 4.152.228 1.446.494 3.091.647 4.038-2.175.94-4.434 1.95-6.7 3.011.122-.929-.001-2.087-.092-2.602-.161-.876-.28-3.337-.545-4.299a4.135 4.135 0 0 0-.137-.421c.199-.338-.431-1.329-.672-2.033-.252-.724-1.893-2.373-2.209-1.784-.256.466.471 3.01.748 3.844-.398 1.051-.452 2.629-.069 4.16a765.57 765.57 0 0 0 1.035 4.056c-1.84.885-3.666 1.798-5.431 2.73-.017-.894-.244-1.909-.381-2.376-.247-.857-.651-3.292-1.023-4.223-.055-.14-.12-.28-.19-.413.139-.361-.583-1.289-.899-1.946-.331-.69-2.158-2.158-2.405-1.542-.198.482.82 2.96 1.187 3.742-.281 1.082-.155 2.65.401 4.137.484 1.287 1.034 2.741 1.384 3.662-2.154 1.186-4.182 2.393-5.998 3.599-.091-.883-.395-1.868-.57-2.318-.315-.845-.896-3.242-1.334-4.146a4.355 4.355 0 0 0-.225-.398c.111-.367-.68-1.245-1.044-1.877-.383-.665-2.319-2.014-2.525-1.386-.158.499 1.038 2.874 1.474 3.649-.199 1.101.047 2.661.721 4.107.595 1.28 1.275 2.736 1.691 3.625a39.23 39.23 0 0 0-1.523 1.153 71.7 71.7 0 0 0-3.181 2.719c-.145-.913-.637-2.016-.892-2.482-.403-.78-1.245-3.008-1.789-3.832a4.134 4.134 0 0 0-.257-.354c.07-.365-.809-1.121-1.232-1.697-.452-.602-2.473-1.683-2.594-1.059-.103.502 1.354 2.662 1.855 3.349-.055 1.073.375 2.542 1.194 3.858l2.246 3.575a109.416 109.416 0 0 0-3.877 3.861c-.185-.775-.782-1.75-1.059-2.145-.414-.609-1.374-2.378-1.917-3.004a3.808 3.808 0 0 0-.254-.271c.012-.32-.796-.859-1.211-1.284-.446-.46-2.252-1.173-2.287-.636-.019.428 1.429 2.083 1.925 2.607.07.899.582 2.07 1.416 3.084.849 1.037 1.838 2.239 2.3 2.801a147.16 147.16 0 0 0-3.155 3.496c-.026-.746-.843-2.051-1.19-2.529-.433-.604-1.43-2.348-1.972-2.983a3.945 3.945 0 0 0-.249-.269c-.015-.29-.787-.862-1.201-1.296-.438-.462-2.125-1.244-2.107-.747.008.4 1.456 2.083 1.936 2.592.134.853.683 1.994 1.508 3.007a914.354 914.354 0 0 1 2.431 2.961c-.338.298-.369.551-.364.659a177.92 177.92 0 0 0-2.357 2.815c-.014-.001-.029-.007-.043-.008.019-.576-.925-1.835-1.283-2.276-.407-.492-1.423-1.955-1.926-2.496a4.587 4.587 0 0 0-.224-.217c-.042-.248-.741-.729-1.118-1.102-.407-.388-1.867-1.056-1.792-.653.052.34 1.428 1.765 1.866 2.189.207.71.784 1.666 1.565 2.512.807.879 1.753 1.901 2.186 2.369-.327.335-.233.615-.233.615s.053.049.14.124a188.609 188.609 0 0 0-2.272 2.868 10.574 10.574 0 0 0-1.115-1.231c-.473-.441-1.639-1.735-2.197-2.192a5.136 5.136 0 0 0-.25-.19c-.073-.233-.808-.62-1.228-.933-.438-.33-1.938-.818-1.827-.422.097.309 1.604 1.516 2.092 1.885.291.661.978 1.521 1.86 2.254.687.582 1.459 1.232 2.002 1.688-.378.493-.721.946-1.035 1.363-10.198-5.703-19.072-14.012-25.746-24.901-15.37-25.086-13.947-56.021.955-80.891.526.121 1.1.238 1.727.348-.504.677-1.08 1.544-1.46 2.416-.206.471-.406.916-.578 1.323l-.012.03c-.13.312-.243.599-.326.857l-.026.062c-.067.145-.11.367-.127.608v.01c-.044.635.096 1.394.464 1.202.272-.142.783-.977 1.188-1.713.108-.153.217-.309.324-.465.579-.85 1.31-2.591 1.747-3.33.104-.173.292-.44.506-.741.897.12 1.876.225 2.951.307-.488.709-1.018 1.619-1.336 2.607-.578 1.83-1.134 3.327-.706 4.071.062.634.253 1.211.567 1.102.305-.1.86-1.071 1.278-1.902l.224-.366c.567-.92 1.196-2.987 1.615-3.823.171-.333.597-.933.978-1.544.922.034 1.894.054 2.931.054.348 0 .707-.004 1.069-.008-.569.726-1.411 1.955-1.829 3.324-.472 1.527-.929 2.826-.807 3.642.025.736.22 1.521.588 1.408.182-.067.457-.449.738-.925.294-.3.575-.768.85-1.218.552-.925 1.153-2.976 1.561-3.801.257-.508 1.122-1.661 1.478-2.496.676-.025 1.364-.055 2.082-.095.782-.044 1.528-.088 2.257-.132-.358.737-.71 1.653-.861 2.62-.192 1.249-.399 2.352-.368 3.176a4.03 4.03 0 0 1-.024.246c-.082.656.574 2.544 1.08 2.242.23-.144.479-.957.67-1.754.169-.297.322-.653.474-1.001.424-.997.73-3.161 1.02-4.046.118-.354.455-1.002.743-1.655 1.872-.124 3.549-.249 5.049-.37-.367.792-.715 1.744-.873 2.75-.292 1.902-.612 3.507-.256 4.428v.061c-.031.606.744 2.259 1.181 1.877.201-.174.361-.982.468-1.764.242-.368.456-.866.665-1.346.474-1.118.817-3.544 1.147-4.531.123-.382.465-1.054.776-1.746 3.25-.305 5.383-.58 6.735-.786-4.421 6.249-7 10.756-7 10.756 32.176-38.989 60.645-45.417 60.645-45.417s-15.781-1.811-29.041 7.802c-8.952 6.949-16.764 16.202-22.383 23.793-1.343.316-3.677.793-7.215 1.282.171-.749.082-1.744.014-2.176-.119-.7-.179-2.657-.397-3.426-.115-.398-.325-.808-.601-1.045-.372-.523-.835-.952-1.065-.73-.126.121-.184.528-.201 1.02-.602.77-.8 2.235-.416 3.685.261.988.556 2.101.759 2.862a3.417 3.417 0 0 0-.987.178c-1.572.184-3.326.363-5.266.53.07-.58-.024-1.283-.094-1.603-.118-.561-.227-2.156-.437-2.788-.129-.405-.38-.828-.694-.983-.286-.405-.603-.681-.807-.511-.172.143-.275.75-.333 1.411-.151.496-.175 1.127-.06 1.787v.025a.375.375 0 0 0 .027.122c.031.152.066.303.113.456.225.759.48 1.597.668 2.217-1.623.127-3.36.246-5.231.351-.101.006-.196.009-.297.014.117-.412.187-.811.215-1.038.034-.337.173-.981.295-1.616.068-.135.095-.351.106-.598a5.36 5.36 0 0 0 .086-.801 2.41 2.41 0 0 0-.093-.641c-.16-.734-.66-1.758-1.038-1.529-.201.125-.405.747-.567 1.407-.529.609-.904 1.643-.928 2.752-.015.716-.027 1.504-.037 2.149a90.474 90.474 0 0 1-5.201.039c.369-.458.627-1.359.705-1.745.123-.577.646-2.047.719-2.729.076-.666-.053-1.532-.646-1.485-.717.061-1.426 1.202-1.618 2.666-.192 1.439-.432 3.212-.438 3.252a58.07 58.07 0 0 1-4.165-.309c.019-.103.014-.186-.045-.222.241-.417.441-1.013.522-1.302.139-.536.672-1.882.794-2.517.057-.294.083-.632.056-.921-.012-.597-.195-1.394-.482-1.284-.188.066-.489.661-.735 1.232-.257.408-.482.994-.624 1.677-.293 1.388-.643 3.095-.643 3.095l.136.117a36.936 36.936 0 0 1-2.426-.407c5.983-9.411 13.936-17.882 23.671-24.748 1.668-1.148 6.53-4.376 13.334-7.905 6.486-3.266 13.74-6.25 20.958-8.513l.958-.369a84.183 84.183 0 0 1 10.527-2.317c-8.475 5.018-17.676 11.52-27.654 19.824 0 0 63.574-48.813 105.568-7.751h.001l4.033-.958.344-.053 1.204-.192c.849-.081 1.759-.196 2.729-.234l.735-.042.757-.001c.509.003 1.026-.023 1.555.008 1.057.015 2.146.114 3.248.218.552.057 1.105.113 1.661.205.556.075 1.11.171 1.663.28 1.11.187 2.206.441 3.27.734.535.151 1.051.304 1.549.464.252.078.518.185.773.275.229.076.461.215.689.317.922.405 1.79.968 2.619 1.461.8.554 1.586 1.042 2.276 1.553 1.18.83 2.164 1.568 2.934 2.141a87.303 87.303 0 0 0-1.996-.29c-.759-.1-1.456-.216-2.073-.309-.617-.1-1.16-.164-1.607-.223-.893-.114-1.41-.154-1.41-.154s.467.225 1.296.574c.416.173.917.389 1.5.612.583.228 1.233.498 1.971.715 1.457.484 3.179.997 5.035 1.505.929.254 1.891.508 2.871.751.98.261 1.978.455 2.912.699.952.238 1.882.524 2.766.852.875.342 1.712.719 2.421 1.185.714.462 1.297 1.002 1.686 1.606.382.605.577 1.279.592 1.954a5.62 5.62 0 0 1-.052.866 1.764 1.764 0 0 0-.064-.242c-.049-.166-.092-.34-.16-.503-.168-.306-.311-.65-.55-.908l-.338-.406c-.121-.125-.258-.226-.387-.338a8.076 8.076 0 0 0-.39-.317 83.304 83.304 0 0 0-.415-.243c-.272-.16-.534-.317-.806-.404a12.313 12.313 0 0 0-.75-.269c-.226-.092-.457-.11-.65-.153-.196-.038-.367-.062-.508-.082-.281-.039-.444-.051-.444-.051s.133.1.37.257c.118.077.26.172.425.268.16.107.358.196.546.335.191.136.397.279.619.417.23.127.426.322.651.483.111.084.225.168.337.255.098.102.198.201.3.298.102.099.21.193.308.294l.26.328c.202.202.296.46.452.682.087.249.241.479.277.736.073.248.103.499.134.744-.003.243.024.483-.004.704-.026.447-.11.828-.171 1.098l-.003.012-.009.021c-.028.024-.06.049-.084.073a1.63 1.63 0 0 0-.35.503c-.058.135-.075.219-.075.219l.153-.047-.009.019.023-.023a6.78 6.78 0 0 1 .56-.141c.195-.035.41-.041.534.016.12.053.192.126.32.29l.236.308c.065.086.092.133.105.127.02-.007.05.023.023.105-.017.076-.065.169-.112.261l-.279.468c-.071.123-.108.204-.108.204s.086.002.233-.015c.064-.008.143-.023.226-.043l.032-.001c.125-.006.302-.02.475-.032a.794.794 0 0 1 .232.02c.059.02.059.05.055.07-.001.018.032.059.085.128.063.086.126.173.191.259.054.076.062.083.076.098.012.008.033.021.031.075 0 .106-.09.288-.181.439l-.364.564s.112.021.282.012l.006.07.685.112c.445.075 1.093.201 1.895.391.803.195 1.762.459 2.806.852 1.043.39 2.174.91 3.275 1.631l.21.132.052.034.018.011.101.076.448.336c.165.117.276.219.389.323.116.107.235.202.354.317.485.484.962 1.032 1.472 1.642 1.006 1.248 2.276 2.644 3.755 3.803 1.465 1.179 3.054 2.219 4.637 3.301.403.258.801.53 1.201.802l1.222.787.302.205.152.104.075.051c-.099-.062-.017-.008-.035-.019l.018.015.034.029.556.461.285.333a2.273 2.273 0 0 1-1.583.67c-.491.011-1.047-.134-1.614-.4-.545-.278-1.198-.68-1.859-1.058a47.292 47.292 0 0 0-2.169-1.15c-.755-.396-1.57-.745-2.397-1.106-.85-.312-1.699-.67-2.604-.908-.879-.309-1.816-.463-2.73-.675-.471-.052-.941-.108-1.409-.145l-.349-.03-.044-.004-.022-.002c-.046-.001.051 0 .037-.001l-.01-.001-.08-.004-.16-.007c-.207-.012-.437-.015-.622-.034a12.289 12.289 0 0 1-2.051-.345 8.784 8.784 0 0 1-1.79-.678c-.27-.133-.509-.286-.75-.426-.222-.157-.438-.309-.624-.467a5.073 5.073 0 0 1-.894-.922 3.78 3.78 0 0 1-.431-.735l-.115-.295-.223.005-.048.346c-.023.228-.016.576.087 1.002.022.108.055.217.095.33.015.162.036.335.074.526.115.529.323 1.174.687 1.831.358.659.828 1.36 1.406 2.053.571.701 1.243 1.394 1.977 2.087.724.703 1.529 1.383 2.366 2.063.844.671 1.733 1.328 2.619 2.001a30.751 30.751 0 0 1 2.546 2.152c.788.767 1.527 1.58 2.055 2.466l.196.332.156.318c.11.187.197.489.293.74l.365 1.511c.061.255.123.507.182.757.045.254.072.509.108.759l.207 1.474c.048.482.064.955.098 1.412.027.457.068.9.053 1.326-.001.859.007 1.644-.052 2.336zm10.073-13.685c-.387 1.564-1.368 2.943-2.506 4.095-.296.285-.568.576-.89.831-.325.275-.645.547-.962.818-.332.286-.659.551-.987.844-.329.321-.658.637-.98.95-1.225 1.267-2.238 2.698-2.894 4.195-.02.047-.036.095-.055.142l.048-.491c.055-.434.056-.89.073-1.361a9.42 9.42 0 0 1 .005-.168l.366-.535c.555-.809 1.954-2.508 3.871-5.196 1.916-2.688 1.216-5.157.972-5.678-.245-.521-2.11-2.261-4.442-3.335-2.083-.751-4.418-1.962-6.073-2.883.249.037.498.08.747.138.848.146 1.68.419 2.509.645.814.285 1.631.53 2.401.84.781.281 1.513.607 2.222.891.719.303 1.345.599 2.035.854.681.227 1.362.323 1.961.237a2.638 2.638 0 0 0 1.396-.625c.139-.122.246-.243.337-.357.093.133.183.269.274.4.44.734.693 1.547.768 2.357.106.807.011 1.621-.196 2.392z"/><path d="M249.05 159.011c1.178 2.667 11.172 10.243 17.411 16.309l6.24 6.068s-3.33-4.581-8.213-17.553c-4.884-12.972-7.311-13.43-9.568-15.885-2.258-2.456-3.404-13.543-1.348-20.211 2.058-6.666 10.508-20.291 14.845-25.349 4.337-5.058 8.084-11.217 8.084-11.217s-16.137 9.244-24.063 11.733c.001.001-20.439 22.576-3.388 56.105z"/></g><path d="M365.255 112.714c-.588-2.766-2.288-5.071-4.915-6.666-2.443-1.483-5.167-4.532-8.05-7.761-4.566-5.111-9.639-10.792-15.882-12.636-.488-4.585-3.311-11.723-15.352-15.53-3.15-6.278-15.866-26.351-52.396-33.867-34.171-7.03-55.756 1.625-60.064 3.6-4.031.331-22.489 2.242-43.901 10.662a114.019 114.019 0 0 0-23.438 10.942c-50.118 30.723-67.537 93.521-38.894 140.271 28.659 46.766 92.526 59.752 142.647 29.029a119.895 119.895 0 0 0 6.626-4.377l.735-.496-.119-.228.027-.014-.878-1.62-1.472-2.826-.088-.057-1.604-2.969c-.007-.038-.019-.057-.033-.061-2.769-5.132-6.301-11.705-8.426-15.768l12.424-14.454c3.405 2.565 8.836 7.787 7.797 14.421l-.04.382c-.101 1.782.702 4.609 3.299 6.71 5.003 4.049 14.431 4.102 28.827.165 10.35-2.832 16.681-7.023 18.818-12.457 1.053-2.677.861-5.041.427-6.703 1.381-2.409 3.704-7.024 4.8-12.425.347-1.711.384-3.317.42-4.87.059-2.537.106-4.541 1.42-6.595 1.429-2.232 4.876-4.781 8.017-5.93 5.296-1.937 9.223-5.941 12.144-9.553 3.186-.695 9.248-3.253 15.628-12.476l.616-.891c6.645-9.598 12.385-17.887 10.88-24.952zm-17.292 20.513l-.62.895c-5.811 8.402-10.568 9.274-11.233 9.36l-1.804-.231-1.354 1.755c-2.512 3.257-5.622 6.786-9.644 8.256-3.972 1.452-9.194 4.814-11.906 9.049-2.493 3.894-2.58 7.623-2.649 10.619-.03 1.269-.057 2.467-.266 3.501-1.259 6.21-4.67 11.329-4.7 11.373l-1.421 2.093 1.332 2.15c.005.008.432.977-.052 2.207-.538 1.368-2.943 4.868-13.618 7.788-15.015 4.108-20.079 2.425-21.559 1.51-.431-.267-.608-.5-.68-.635 1.81-14.474-13.745-23.228-14.417-23.599l-2.774-1.529-20.145 23.436 1.176 2.326c1.811 3.581 6.618 12.527 10.051 18.886l-.039.025c-45.89 28.118-104.343 16.221-130.569-26.573-22.161-36.163-14.206-82.823 16.488-113.382 7.741-7.346 16.873-13.727 27.316-19.049 27.461-13.994 54.714-15.864 54.984-15.881l.815-.056.718-.364c.052-.026 5.265-2.637 14.703-4.339 8.703-1.568 22.88-2.654 40.994 1.072 19.992 4.113 31.851 12.299 38.279 18.442 6.931 6.624 9.22 12.367 9.234 12.404l.706 1.872 1.932.519c12.438 3.341 11.629 9.912 11.442 10.859l-1.445 4.734 5.142.114c4.68.104 9.467 5.463 14.095 10.645 3.282 3.674 6.382 7.144 9.82 9.232 1.001.608 1.236 1.162 1.335 1.623.801 3.775-5.003 12.157-9.667 18.893z" fill="#024c2c"/><path fill="#024c2c" d="M114.611 180.516l.099.08-.123.077z"/><path fill="#f16522" d="M134.383 195.479l.086.069-.107.067z"/><g fill="#fff"><path d="M348.935 246.05l-.471 5.559 5.377-.488a20.04 20.04 0 0 1-4.906-5.071zM253.918 284.84c.722 1.066.12-.09 1.727-.09.078 0 .531-.367.609-.373l1.568.224c4.333-.392 7.426-1.001 11.95-1.494 1.387-.151 3.296.002 4.705-.149l1.792-.373 1.53.685c1.6-18.229 3.097-35.133 4.571-51.62l.945-.209 1.065-.234 1.581-.349.146-1.613.933-10.388.231-2.576-2.581.172c-8.181.544-16.163 1.076-24.177 1.614l-1.884.127-.172 1.879-.386 4.245-.575 6.314-.204 2.262 2.265.146 1.114.071.147.01-1.366 15.126a3822.738 3822.738 0 0 1-17.025-26.504c-.408-.635-1.472-2.032-3.055-2.24l-.144-.048-.418.022c-5.673.308-11.469.71-17.073 1.099l-4.558.315-1.876.127-.175 1.874-.065.695-.957 10.26-.209 2.236 2.238.175c.543.042 1.009.071 1.407.095a68.28 68.28 0 0 0-.053.551c-.368 4.188-.76 8.383-1.153 12.583-.183 1.952-.364 3.906-.544 5.86-.17 1.836-.342 3.674-.515 5.512-.468 4.985-.955 10.14-1.346 15.222a2.12 2.12 0 0 1-.03.247 3.012 3.012 0 0 1-.55.109c-.47.056-.894.17-1.268.269-.137.037-.276.074-.418.108l-1.555.363-.145 1.59-.419 4.584-.581 6.362-.245 2.694 2.689-.294c8.225-.898 16.328-1.778 24.523-2.663l1.804-.195.162-1.807c.328-3.666.646-7.189.968-10.759l.207-2.3-2.306-.109a790.2 790.2 0 0 1-1.384-.066c.465-5.129.925-10.218 1.399-15.422 6 9.257 11.626 17.808 17.136 26.048z"/><path d="M368.843 275.615c1.608.084 3.247.127 4.871.127 2.527 0 5.102-.103 7.651-.309a101.453 101.453 0 0 0 15.889-2.574c10.085-2.464 16.766-7.955 18.812-15.465 1.324-4.845 1.124-9.357-.592-13.408-2.646-6.264-8.955-9.63-19.287-10.286-.683-.043-1.368-.083-2.052-.123-2.951-.172-6.004-.35-8.784-.81-2.292-.379-4.003-1.513-4.578-3.035-.48-1.27-.134-2.717.976-4.076.253-.31 1.316-.909 2.1-1.035 2.642-.426 5.385-.62 8.066-.785.009.374 0 .778-.011 1.213-.006.366-.015.741-.015 1.124l.004 2.375 2.368-.172 4.642-.338c5.198-.377 10.383-.754 15.576-1.127l1.393-.101.508-1.302c1.08-2.765.76-5.787-.899-8.512-2.456-4.033-7.369-6.802-13.139-7.406a89.758 89.758 0 0 0-12.789-.42 87.929 87.929 0 0 0-14.942 1.867c-9.941 2.129-16.364 7.785-18.575 16.355-1.174 4.542-.903 8.772.807 12.572 2.918 6.48 9.658 9.751 20.604 9.998 2.869.068 6.628.194 10.246.582 3.679.394 3.571 1.92 3.524 2.571l-.05.717c-.095 1.388-.186 2.699-.439 3.989-.272 1.408-2.046 1.852-3.076 1.99-3.225.431-6.649.792-10.7 1.129.026-.35.067-.728.112-1.133.045-.418.095-.857.134-1.32l.218-2.635-2.631.249-21.075 1.991-.149.014-1.866.177-.132 1.871-.017.2-.012.126-.026.291.051.287.154.881c.11.633.219 1.265.336 1.898.926 5.024 4.59 11.14 16.794 11.778zM295.986 242.771c-.708 8.034-1.415 16.068-2.113 24.102-.043.497-.091 1.048-.145 1.347-.414.177-1.367.436-2.293.689l-1.487.405-.143 1.539c-.298 3.425-.596 6.872-.899 10.383l-.231 2.675 2.669-.286a31390.82 31390.82 0 0 1 53.867-5.697l1.82-.191.153-1.824.466-5.567.673-8.028.222-2.64-2.637.253-9.6.924-6.325.608-1.441.139-.451 1.376c-.194.594-.377 1.151-.561 1.707l-3.435.339-4.356.431c.316-3.691.634-7.389.959-11.147l3.815-.338c4.005-.354 8.018-.711 12.119-1.071l1.852-.162.159-1.853.194-2.278.718-8.416.224-2.605-2.606.212-1.373.111c-4.583.372-9.177.743-13.844 1.125l.283-3.248.587-6.737 3.214-.232 4.776-.344.122.785.311 2.019 2.037-.15c5.278-.389 10.59-.778 15.903-1.165l1.882-.138.161-1.878.227-2.628.931-10.845.22-2.56-2.564.163c-15.468.983-32.461 2.088-53.476 3.478l-1.888.125-.17 1.885c-.219 2.437-.426 4.767-.629 7.047l-.301 3.378-.2 2.243 2.247.16 1.232.088.201.014-.011.132-1.065 12.146zM187.913 222.917a83.85 83.85 0 0 0-3.732-.082c-1.317 0-2.688.031-4.076.089-3.328.138-6.898.435-11.234.934-14.411 1.659-23.991 9.738-25.626 21.611a396.482 396.482 0 0 0-3.25 34.482c-.486 9.885 4.843 16.205 15.005 17.794 1.817.283 3.687.386 5.495.485.785.042 1.569.085 2.348.142l.205.015.204-.023c3.036-.338 6.074-.674 9.113-1.01l5.546-.614.204-.022.196-.061c.228-.069.457-.146.686-.222.383-.129.744-.25 1.046-.31 13.545-2.694 22.511-10.57 23.982-21.067 1.565-11.21 2.654-22.876 3.238-34.674.229-4.519-1.066-8.467-3.746-11.415-3.323-3.653-8.719-5.745-15.604-6.052zM155.053 301.801c-.877-.426-1.255-1.196-2.985-1.46-2.815-.43-5.923 2.69-8.215 1.746l-10.356-1.301-1.366.153-2.499.28-1.409 3.757 26.83-3.175zM293.074 284.619l-10.755-.317-3.734.299-8.738.523c-4.755.538-8.654 1.215-13.294 1.643l-2.315.523c-.445.039-3.468.523-3.958.523-3.102 0-2.842 1.564-5.004-.149l-5.377 1.867-13.958 3.886 70.898-8.387a8.622 8.622 0 0 0-3.765-.411zM69.729 308.063l1.779-.202.173-1.782c.78-8.01 1.543-15.783 2.305-23.549l.264-2.688-2.687.27-9.609.971-5.935.6-1.694.172-.267 1.682-1.047 6.604-.435 2.742c-3.402.365-6.701.721-10.009 1.077 1.47-14.735 2.944-29.467 4.428-44.199l1.163-.27.876-.203 1.542-.357.159-1.576.904-8.948.319-3.151.265-2.624-2.629.195c-9.72.72-19.252 1.43-28.783 2.143l-1.846.138-.19 1.841c-.426 4.146-.849 8.297-1.273 12.453l-.243 2.385 2.397.051 1.183.025.296.006-.039.386c-1.47 14.5-2.934 28.994-4.395 43.491-.054.54-.113 1.131-.176 1.494-.46.094-1.303.186-2.124.274l-1.784.193-.179 1.786c-.421 4.191-.841 8.391-1.26 12.591l-.273 2.732 2.729-.316c19.023-2.201 37.897-4.366 56.095-6.437z"/><path d="M133.497 300.785l.42-.047.17-1.789.598-6.316.854-8.999.256-2.688-2.685.278-7.125.733c-2.869.296-5.7.587-8.511.878l-1.466.151-.425 1.412-.509 1.699-.065.217-2.032.215-5.755.607 1.142-11.773.159-1.646 13.356-1.272 2.744-.26 1.818-.173.174-1.818.335-3.495c.277-2.884.548-5.71.833-8.652l.257-2.65-2.652.232c-5.138.45-10.177.894-15.238 1.342.308-3.153.612-6.24.913-9.312l.258-2.631 7.957-.629.154 1.096.292 2.062 2.076-.167 13.089-1.051 2.464-.197 1.847-.148.178-1.844c.497-5.136.979-10.103 1.475-15.21l.254-2.607-2.614.187a45429.626 45429.626 0 0 0-53.291 3.839l-1.856.135-.185 1.852-.636 6.401-.522 5.264-.218 2.194 2.193.226 1.535.159-.031.301a6221.483 6221.483 0 0 0-4.059 41.951c-.148 1.649-.268 1.659-1.414 1.747-.047.003-.109.008-.176.011h-.026l-.082.005c-.775.054-1.275.46-1.515.655l-.058.047-.873.582-.082 1.031-.21 2.168-.92 9.481-.263 2.719 2.714-.308a34009.79 34009.79 0 0 1 51.113-5.764l.329-.877 3.537.446z"/></g><g fill="#231f20"><path d="M314.992 310.727h1.897c.402 0 .719-.042.946-.126.228-.084.4-.217.518-.401.118-.183.177-.382.177-.598a.992.992 0 0 0-.343-.778c-.228-.203-.59-.304-1.085-.304h-2.111v2.207zm-.882 3.725v-6.669h2.956c.594 0 1.046.061 1.355.18.309.12.556.331.742.634.185.304.276.64.276 1.006 0 .474-.152.871-.46 1.196-.306.324-.779.531-1.419.619.234.112.411.222.533.332.258.236.501.533.733.887l1.16 1.815h-1.11l-.882-1.388a12.78 12.78 0 0 0-.638-.918c-.166-.213-.315-.362-.447-.446a1.337 1.337 0 0 0-.403-.178 2.799 2.799 0 0 0-.492-.031h-1.023v2.961h-.881z"/><path d="M316.814 316.485c-3.015 0-5.468-2.453-5.468-5.468s2.453-5.468 5.468-5.468 5.468 2.453 5.468 5.468-2.453 5.468-5.468 5.468zm0-10.305a4.842 4.842 0 0 0-4.836 4.836 4.842 4.842 0 0 0 4.836 4.836 4.842 4.842 0 0 0 4.836-4.836 4.84 4.84 0 0 0-4.836-4.836z"/></g><path d="M259.701 230.831c1.307.084 2.432.158 3.526.227-.704 7.79-1.398 15.457-2.139 23.729-.931-1.411-1.554-2.35-2.162-3.292a3725.789 3725.789 0 0 1-18.363-28.564c-.334-.518-.995-1.243-1.591-1.243l-.031.001a.064.064 0 0 1-.009-.002c-7.155.389-14.321.914-21.599 1.41-.35 3.746-.68 7.282-1.021 10.955 4.165.326 3.67-.192 3.385 3.046-.54 6.138-1.13 12.29-1.698 18.452-.633 6.889-1.326 13.796-1.858 20.7-.11 1.432-.713 2.165-2.521 2.383-.471.056-.948.218-1.447.335l-1 10.946c8.226-.899 16.329-1.778 24.526-2.664.328-3.666.646-7.189.968-10.76-1.277-.06-2.467-.119-3.69-.179.718-7.926 1.422-15.708 2.171-23.902.558.758.914 1.184 1.208 1.642a2171.42 2171.42 0 0 0 19.402 29.56c.373.551 1.049 1.344 1.681 1.344l.058-.002.002-.002c5.934-.523 11.891-1.208 18.099-1.873 1.558-17.747 3.128-35.494 4.716-53.237l3.593-.793.933-10.386c-8.181.544-16.161 1.075-24.176 1.614-.33 3.607-.65 7.098-.963 10.555zM187.815 225.128a80.927 80.927 0 0 0-3.634-.08c-1.319 0-2.649.03-3.983.086-3.677.154-7.395.499-11.074.923-13.364 1.538-22.169 8.691-23.688 19.715a392.958 392.958 0 0 0-3.232 34.289c-.393 8.002 3.353 13.969 13.137 15.5 2.472.385 5.105.417 7.665.607 4.884-.545 9.771-1.082 14.66-1.625.646-.197 1.294-.456 1.942-.585 12.262-2.439 20.856-9.43 22.225-19.205 1.597-11.437 2.648-22.945 3.219-34.476.464-9.179-5.932-14.646-17.237-15.149zm-5.319 34.284c-.532 5.749-.907 11.493-1.659 17.274-.553 4.286-2.862 6.002-8.138 6.643-.838.101-1.605.182-2.314.233-.696.053-1.332.082-1.912.082-4.604 0-5.636-1.794-5.203-7.116.886-10.752 1.99-21.497 3.076-32.206.244-2.405.605-5.103 4.021-6.322 2.106-.752 4.291-1.296 6.388-1.397.234-.012.467-.017.698-.017 1.652 0 3.235.299 4.662 1.015 1.285.646 2.011 2.556 1.936 4.003-.303 5.902-1.015 11.858-1.575 17.807l.02.001z" fill="#f16623"/><path d="M181.123 239.578c-1.031-.517-2.266-.78-3.669-.78-.195 0-.392.005-.591.015-1.68.081-3.615.509-5.752 1.271-1.982.708-2.303 1.902-2.563 4.461l-.19 1.872c-1.008 9.925-2.05 20.188-2.882 30.29-.233 2.862.08 3.857.384 4.186.185.201.771.538 2.613.538.511 0 1.082-.025 1.75-.077a44.346 44.346 0 0 0 2.208-.223c4.869-.591 5.851-1.938 6.212-4.732.525-4.032.872-8.136 1.207-12.106.075-.89.15-1.78.227-2.67h-.031l.227-2.419c.154-1.634.32-3.268.484-4.903.427-4.218.867-8.579 1.084-12.813.046-.856-.452-1.776-.718-1.91z" fill="#024c2c"/><path d="M54.495 294.901c-4.941.529-9.629 1.035-14.401 1.549 1.612-16.163 3.228-32.324 4.857-48.486l3.582-.832c.408-4.053.81-8.019 1.222-12.1-9.719.72-19.25 1.43-28.782 2.143-.426 4.146-.849 8.296-1.272 12.452 1.22.026 2.436.054 3.872.082-.106 1.031-.19 1.904-.28 2.774a79001.635 79001.635 0 0 0-4.395 43.485c-.332 3.316-.331 3.32-4.262 3.746l-1.26 12.591c18.699-2.165 37.398-4.312 56.103-6.44.78-8.011 1.542-15.785 2.305-23.552l-15.543 1.57c-.601 3.779-1.174 7.409-1.746 11.018zM84.206 244.233l3.725.384c-.095.944-.167 1.724-.247 2.502a6257.548 6257.548 0 0 0-4.057 41.929c-.197 2.193-.765 3.54-3.446 3.748a9.252 9.252 0 0 1-.296.017h-.005c-.123.009-.274.184-.482.322l-1.129 11.648c17.87-2.031 35.742-4.042 53.615-6.045.495-5.213.972-10.277 1.452-15.315-5.354.553-10.525 1.082-15.636 1.612-.361 1.199-.672 2.249-.996 3.325-4.094.432-7.997.842-11.946 1.261.581-6.003 1.149-11.855 1.739-17.935 6.075-.579 11.986-1.14 17.916-1.704.397-4.137.769-8.03 1.169-12.15-6.036.529-11.934 1.05-17.892 1.577.549-5.634 1.08-11.024 1.611-16.44 4.061-.322 7.959-.631 11.877-.94l.445 3.157c5.278-.426 10.352-.832 15.554-1.249.497-5.137.979-10.104 1.476-15.211-17.762 1.27-35.527 2.547-53.289 3.839-.398 3.988-.775 7.827-1.158 11.668zM392.769 221.567h.024c.475 0 1.171.574 1.236.976.175 1.134.072 2.32.074 3.625 6.755-.49 13.48-.981 20.218-1.465 2.208-5.653-3.491-12-12.208-12.912a87.972 87.972 0 0 0-12.473-.411c-4.826.186-9.698.78-14.564 1.821-9.229 1.977-14.913 7.06-16.896 14.744-.996 3.852-.888 7.622.683 11.111 2.81 6.243 9.663 8.492 18.636 8.695 3.513.082 7.03.229 10.432.594 3.731.4 5.699 2.07 5.494 4.93-.119 1.653-.196 3.309-.522 4.973-.391 2.011-2.143 3.379-4.954 3.757-3.952.527-7.905.909-11.838 1.225h-.007l-.046.002c-.523 0-1.27-.618-1.31-1.046-.112-1.156.123-2.376.248-3.882-7.194.678-14.208 1.342-21.223 2.005-.008.124-.022.247-.032.368.162.922.318 1.843.486 2.763 1.145 6.215 6.263 9.522 14.733 9.966 1.577.083 3.163.124 4.755.124 2.476 0 4.97-.101 7.474-.302a98.839 98.839 0 0 0 15.541-2.519c9.447-2.307 15.379-7.207 17.203-13.897 1.134-4.154 1.101-8.194-.495-11.964-2.465-5.835-8.76-8.393-17.391-8.941-3.715-.236-7.514-.372-11.058-.959-6.17-1.02-8.544-6.296-4.952-10.694.65-.797 2.243-1.622 3.461-1.819 3.068-.495 6.18-.683 9.266-.868h.005zM329.179 266.744c-3.981.393-7.818.774-11.871 1.173.443-5.178.888-10.346 1.346-15.65 5.911-.522 11.753-1.043 17.786-1.573.307-3.595.601-7.045.914-10.696-5.891.478-11.789.955-17.825 1.45.43-4.934.838-9.659 1.259-14.474 3.988-.287 7.877-.57 11.908-.86.136.901.274 1.778.432 2.802 5.278-.389 10.59-.778 15.904-1.167l1.158-13.472a20321.345 20321.345 0 0 0-53.47 3.478c-.328 3.651-.631 7.062-.931 10.423 1.307.093 2.422.173 3.679.261-.075.877-.145 1.625-.21 2.37-1.061 12.085-2.132 24.167-3.182 36.252-.255 2.944-.255 2.943-4.068 3.982-.298 3.424-.596 6.87-.899 10.38 17.954-1.914 35.91-3.815 53.869-5.699l1.138-13.595c-5.277.506-10.551 1.015-15.923 1.532-.351 1.08-.668 2.041-1.014 3.083z" fill="#f16623"/><path d="M304.302 306.733c.195-1.078.425-2.143.637-3.213a213.076 213.076 0 0 1 1.626-10.372c-.144-.262-.321-.519-.495-.779-.02-.034-.05-.064-.072-.097-.71-.769-2.06-2.094-4.071-3.537-.283-.185-.561-.379-.881-.512l-1.237-.58c-.42-.183-.808-.425-1.253-.561l-1.315-.444-1.317-.449c-.442-.143-.911-.214-1.364-.324-.918-.196-1.826-.426-2.753-.599l-2.818-.348-1.411-.174-1.431-.058-2.86-.128c-.697-.056-1.397-.036-2.097-.012-.321-.002-.631-.01-.96-.008-22.692.125-47.333 10.083-60.532 12.821-12.895 2.677-39.395 8.848-80.045 5.899-.084-.008-.169-.013-.253-.02-3.792-.322-7.581-.668-11.347-1.24-.032.691-.063 1.385-.132 2.074-.056.782-.174 1.557-.286 2.331-.226 1.549-.549 3.084-.898 4.611-.695 3.059-1.666 6.042-2.711 8.992a125.839 125.839 0 0 1-3.499 8.717 156.58 156.58 0 0 1-1.999 4.252c-.375.759-.75 1.511-1.137 2.264l4.041.529 6.12.666c4.081.404 8.172.699 12.265.916 4.093.265 8.19.306 12.289.377 2.05.027 4.097-.013 6.149-.032 2.05-.08 4.101-.094 6.149-.225 4.1-.185 8.192-.538 12.287-.884 4.09-.399 8.178-.864 12.267-1.378 4.09-.502 8.17-1.121 12.245-1.78a309.023 309.023 0 0 0 12.189-2.213 470.54 470.54 0 0 0 12.117-2.603c4.028-.92 8.043-1.916 12.066-2.892l.018-.004c-.563.63-1.161 1.088-1.829 1.201 3.269.706 12.533 1.322 15.813 1.942 4.332.826 8.664 1.65 13.015 2.307 2.175.341 4.354.643 6.531.917l3.267.42 3.269.344c1.087.128 2.177.192 3.266.271 1.09.078 2.181.169 3.251.187 1.083.025 2.135.098 3.238.082l3.267-.058 3.224-.234c1.05-.152 2.121-.25 3.153-.433 2.059-.344 4.09-.911 5.598-1.851 1.5-.939 2.035-2.116 1.869-3.895-.222-.757-.388-1.63-.514-2.582l-.121-.449-.141-.485c-.038-.04-.071-.085-.111-.125-.185-.194-.388-.549-.603-1.002.014-.788.041-1.71.015-1.901-.216-2.492.009-4.725.246-6.984.238-2.25.615-4.456 1.006-6.655z" fill="#0b4027"/><g fill="#fff"><path d="M164.094 320.478c-.019.002-.028.002-.049.002l-1.447-6.565c-1.607.173-2.411.252-4.016.399 1.283 4.109 1.929 6.155 3.214 10.241l-.903 6.943c1.428-.153 2.152-.229 3.58-.398.361-2.778.534-4.169.892-6.947 2.387-4.504 3.582-6.764 5.971-11.301a256.1 256.1 0 0 1-3.871.503c-1.348 2.854-2.025 4.279-3.371 7.123zM181.096 323.495c-.225 1.759-.808 3.143-2.476 3.405-1.668.261-1.929-.989-1.705-2.746l1.588-12.342c-1.434.22-2.153.326-3.586.536l-1.59 12.336c-.618 4.731 2.026 5.304 4.941 4.846 2.912-.456 5.831-2.115 6.419-6.628.633-4.941.948-7.412 1.583-12.353-1.434.244-2.156.367-3.588.6l-1.586 12.346zM196.767 308.343c-5.39.996-6.561 4.919-7.246 10.303-.687 5.381-.512 9.104 4.876 8.112 4.711-.864 6.083-4.355 6.581-8.177-1.439.27-2.157.404-3.593.67-.495 3.826-1.516 4.671-2.81 4.911-1.549.283-2.178-.546-1.488-5.909.644-5.012 1.283-6.901 3.104-7.237 1.622-.298 2.015.719 1.687 3.3 1.437-.267 2.156-.406 3.594-.678.326-2.579.434-6.246-4.705-5.295zM209.946 306.183c-2.8 7.453-4.198 11.184-6.994 18.635 1.497-.285 2.242-.43 3.741-.717l1.303-3.906c1.897-.363 2.845-.544 4.742-.909.138 1.436.208 2.154.348 3.588 1.495-.283 2.249-.425 3.746-.711-.977-6.733-1.467-10.1-2.441-16.831-1.779.341-2.666.509-4.445.851zm-.952 10.961l2.737-8.298c.022-.002.03-.004.052-.009.281 3.057.423 4.582.706 7.637l-3.495.67zM231.904 302.087a777.634 777.634 0 0 0-11.374 2.083c-.151 1.171-.225 1.756-.374 2.927 1.558-.294 2.335-.441 3.893-.728-.762 5.918-1.143 8.873-1.903 14.792 1.437-.268 2.154-.397 3.591-.658.761-5.918 1.138-8.875 1.901-14.792 1.558-.283 2.342-.417 3.9-.691.148-1.173.217-1.763.366-2.933zM238.035 301.045c-2.793 7.393-4.193 11.098-6.989 18.51 1.498-.261 2.24-.391 3.735-.642l1.303-3.882c1.892-.313 2.843-.469 4.737-.763.138 1.444.199 2.169.339 3.615 1.491-.231 2.243-.344 3.733-.562-.97-6.799-1.456-10.195-2.428-16.98-1.771.273-2.656.413-4.43.704zm-.955 10.96c1.093-3.297 1.638-4.947 2.733-8.237.019-.002.032-.004.052-.004.281 3.07.424 4.606.704 7.68-1.396.219-2.093.33-3.489.561zM243.989 295.586c-1.374.208-2.059.315-3.435.534-.715 1.515-1.071 2.271-1.784 3.787.935-.154 1.402-.227 2.34-.376 1.151-1.581 1.725-2.37 2.879-3.945zM259.394 298.116c-.622 4.832-.937 7.25-1.56 12.085l-.045.007c-1.106-4.649-1.659-6.973-2.765-11.603-1.648.196-2.474.303-4.122.52l-2.277 17.676c1.313-.177 1.968-.268 3.281-.432.633-4.945.949-7.421 1.579-12.366l.049-.007c1.117 4.731 1.674 7.101 2.789 11.85 1.629-.181 2.441-.266 4.065-.419.907-7.056 1.365-10.579 2.275-17.63-1.305.118-1.96.183-3.269.319z"/></g><path fill="#231f20" d="M125.224 232.687l.081.065-.101.063z"/><path d="M310.105 293.196l-.084-.261-.292-.905-.029-.088-.032-.089a8.6 8.6 0 0 0-.484-1.059l-.053-.1c-.372-.795-.803-1.395-1.122-1.837l-.094-.132c-.472-.71-.981-1.244-1.358-1.637l-.096-.101c-.427-.462-.951-1.027-1.659-1.558l-1.136-.912-.134-.108-.143-.097a22.205 22.205 0 0 0-1.08-.681c-.107-.065-.214-.129-.32-.195-1.133-.747-2.248-1.232-3.241-1.658-1.17-.559-2.296-.89-3.29-1.184l-.085-.025-1.384-.419-.039-.012-.038-.011a13.741 13.741 0 0 0-1.332-.292c-.127-.024-.255-.047-.381-.074l-.065-.013-.066-.012c-.309-.057-.617-.117-.924-.176-.666-.128-1.355-.262-2.078-.371l-.13-.019-.129-.012-2.884-.263a52.697 52.697 0 0 0-4.414-.177c-2.308 0-4.804.131-7.856.413l-1.382.116-.138.012-.137.021-1.411.207-2.815.411c-.334.051-.644.094-.954.138a47.96 47.96 0 0 0-2.011.311l-.043.009-.043.008-2.783.569-.028.005-.027.005c-.627.137-1.257.261-1.887.387-1.243.246-2.529.501-3.84.845l-5.424 1.367c-1.62.379-3.177.834-4.681 1.275l-.949.277-5.425 1.573-2.144.595a570.698 570.698 0 0 1-8.533 2.325 384.539 384.539 0 0 1-10.761 2.231l-5.497.904c-.423.069-.854.142-1.286.214-1.403.234-2.728.456-4.047.605-1.373.165-2.707.34-4.04.517-2.317.305-4.714.621-7.042.844-2.183.225-3.975.425-5.671.631-1.088.118-2.173.209-3.323.306-.726.062-1.451.123-2.176.191l-.032.003-.032.003c-3.092.335-6.29.553-9.383.764l-1.652.113a439.61 439.61 0 0 1-11.094.574l-5.566.19-5.592.099a310.71 310.71 0 0 1-6.217.053c-1.342 0-2.683-.004-4.026-.01l-.928-.003a299.708 299.708 0 0 1-11.102-.279l-1.071-.045-2.924-.312-.029.188-.103-.004-.287 2.582-.215 1.42c-.387 2.546-1.043 5.221-1.95 7.949a97.949 97.949 0 0 1-3.058 7.96c-1.002 2.314-2.153 4.72-3.74 7.82a147.467 147.467 0 0 1-2.028 3.826 124.977 124.977 0 0 1-2.132 3.722l-1.067 1.797-3.304 5.56 6.381 1.063 2.076.346 5.953.991.057.009.057.009c.559.078 1.117.16 1.676.239 1.436.208 2.92.424 4.421.594 4.167.467 8.242.903 12.322 1.1l3.007.154.052.002.053.002 2.991.082c.857.034 1.775.052 2.884.052.658 0 1.316-.007 1.974-.013.453-.005.906-.007 1.358-.009 1.619-.017 3.209-.073 4.746-.125l1.42-.048.064-.002.064-.004c.694-.043 1.389-.078 2.084-.112 1.303-.065 2.649-.134 4.012-.251 3.763-.25 7.77-.659 12.247-1.249 3.631-.499 7.894-1.121 12.172-1.964 5.707-1.063 11.468-2.327 17.039-3.549 2.183-.478 4.365-.957 6.549-1.426a736.03 736.03 0 0 1 11.682-2.432c3.331-.659 6.935-1.318 11.681-2.13.422-.073.829-.14 1.236-.207l.083-.013c1.305.404 2.396.728 3.441 1.022 2.298.661 4.353 1.231 6.264 1.737 1.689.467 3.426.882 5.107 1.283l1.227.296a252.4 252.4 0 0 0 6.421 1.428c1.978.422 4.089.836 6.434 1.261l.038.007.039.007 3.184.52.054.009.054.006 3.204.443c.9.136 1.823.231 2.717.324l.636.067.511.054c.95.102 1.93.205 2.979.259.338.019.7.045 1.061.069.762.054 1.548.11 2.36.123l3.268.048h.117l.117-.004 3.284-.128.156-.006.155-.015c.336-.039.672-.067 1.007-.1.772-.069 1.648-.147 2.56-.303l.205-.037c1.103-.192 2.35-.408 3.67-.823l.184-.052c.27-.076.54-.151.809-.244l.127-.044.125-.049.842-.346.883-.376.284-.119.265-.16.783-.469c1.909-1.093 3.505-2.798 4.503-4.809 1.202-2.363 1.197-4.725 1.087-6.297-.119-1.616-.49-2.973-.786-4.062l-.064-.233-.011-.041-.012-.039-.452-1.547-.012-.041-.02-.116-.082-.458c-.11-1.447.045-3.247.231-4.984.225-2.054.5-4.076.818-6.001a208.592 208.592 0 0 1 2.382-12.23l.093-.404.27-1.184-.376-1.155zm-10.486 36.994c-1.458.91-3.424 1.458-5.416 1.791-.998.177-2.035.272-3.05.419l-3.119.227-3.161.056c-1.067.015-2.085-.056-3.133-.08-1.035-.017-2.091-.106-3.146-.181-1.054-.076-2.108-.138-3.16-.262l-3.163-.333-3.16-.406a209.955 209.955 0 0 1-6.319-.887c-4.21-.635-8.401-1.433-12.593-2.232-3.174-.6-6.338-1.268-9.501-1.951 2.709-.46 5.416-.925 8.125-1.359 3.945-.625 7.876-1.296 11.808-1.959 3.94-.65 7.84-1.353 11.799-1.942l2.962-.475 2.964-.564c1.938-.317 3.884-.615 5.83-.782 1.947-.17 3.902-.264 5.838-.145 1.929.102 3.862.348 5.675.946 1.812.568 3.554 1.452 4.87 2.828.039.039.071.082.108.121l.136.469c.27.994.534 1.955.607 2.821.195 1.787-.317 2.952-1.801 3.88zm1.59-23.297c-.378 2.127-.743 4.262-.97 6.44-.229 2.187-.447 4.347-.238 6.758.041.311.106.637.162.955-1.149-1.039-2.516-1.837-3.936-2.422-3.912-1.549-8.12-1.784-12.184-1.631-2.045.049-4.067.304-6.083.564l-2.945.456-2.975.384c-3.955.548-7.95 1.121-11.893 1.812a243.474 243.474 0 0 0-11.795 2.322c-3.908.886-7.81 1.791-11.7 2.733-3.893.944-7.777 1.908-11.674 2.798a456.941 456.941 0 0 1-11.724 2.519 298.46 298.46 0 0 1-11.793 2.141c-3.943.638-7.889 1.236-11.847 1.722-3.956.497-7.911.946-11.869 1.333-3.962.335-7.922.676-11.888.856-1.981.127-3.966.14-5.949.218-1.985.018-3.966.056-5.949.03-3.966-.069-7.931-.108-11.89-.365-3.96-.21-7.918-.495-11.867-.886l-5.922-.644-3.91-.512c.374-.728.737-1.456 1.1-2.19a155.502 155.502 0 0 0 1.934-4.113 122.264 122.264 0 0 0 3.385-8.434c1.011-2.854 1.951-5.74 2.623-8.7.337-1.478.65-2.962.868-4.461.108-.749.222-1.499.276-2.255.067-.667.097-1.339.128-2.007 3.644.553 7.31.888 10.979 1.199.082.007.163.012.245.02 39.33 2.853 64.97-3.118 77.446-5.708 12.77-2.649 36.611-12.284 58.566-12.405.318-.002.619.005.929.007.677-.023 1.355-.042 2.029.012l2.767.123 1.385.056 1.366.168 2.726.337c.897.167 1.776.389 2.664.579.438.106.892.175 1.32.313l1.275.434 1.272.43c.43.132.806.365 1.212.543l1.197.562c.41.171.745.451 1.121.667.363.236.741.454 1.093.7l.977.819c.347.255.616.57.892.879.279.307.577.603.778.946.222.333.477.655.611.998.075.167.188.344.235.497.017.059.039.114.056.173a210.51 210.51 0 0 0-2.616 12.23z" fill="#024c2c"/><path d="M418.822 233.246l4.556-.348 2.59-6.604c1.639-4.184 1.227-8.656-1.158-12.594-3.524-5.816-10.867-9.856-19.642-10.806a104.98 104.98 0 0 0-14.779-.553 101.96 101.96 0 0 0-17.439 2.107c-3.664.734-7.056 1.895-10.13 3.402l.301-3.512-12.562.749c-17.814 1.069-35.628 2.15-53.438 3.251l-11.742.724-.011.121-5.141.318c-6.058.376-9.719.607-14.776.924l-16.106 1.014-.317 3.469c-2.283-1.903-5.239-2.923-8.611-2.923-.205 0-.415.004-.694.015l-.158.007c-5.779.289-11.588.667-17.207 1.032l-16.304 1.05-.484 5.169c-4.511-2.526-9.97-3.977-15.634-4.04-2.787-.136-5.621-.143-8.836-.024-3.714.138-7.581.441-12.131.944-5.934.573-12.05 2.299-17.52 5.2l.343-3.556-12.638.842c-13.666.918-27.332 1.841-41.001 2.772l-23.958 1.646-3.055 30.51 3.725.376-.415 4.139c-.432 4.308-.895 8.955-1.361 13.736L54.467 273.6c.652-6.557 1.086-10.914 1.773-17.767l3.584-.84 3.161-31.331-12.664.881c-11.506.802-17.257 1.203-28.76 2.018l-11.701.835-3.363 32.707 3.878.067-.524 5.159a39836.86 39836.86 0 0 0-2.481 24.503l-3.935.41L0 324.548l12.896-1.551a24462.77 24462.77 0 0 1 49.92-5.947l17.898-2.117.006-.076c11.445-1.348 18.073-2.126 30.378-3.565 8.153-.953 7.275-.851 15.428-1.797l3.433-9.154 13.892 1.746c2.292.944 5.401-2.176 8.215-1.746 2.342.358 2.204 1.644 4.182 1.746h3.137c.67.035 2.028-.047 2.689 0l4.332-.682 10.775-1.557 2.13 1.821c1.183 2.143 2.228.136 2.533.034l2.039.383c6.425-1.367 9.539-2.195 14.499-5.345l-.4 4.457 41.915-11.669 5.377-1.867c2.162 1.713 1.902.149 5.004.149.491 0 3.513-.484 3.958-.523l2.315-.523c4.64-.428 8.539-1.105 13.294-1.643l8.738-.523 3.734-.299 10.755.317c6.169-.682 8.595 5.081 14.768 4.4 11.772-1.297 25.037-2.755 36.872-4.052l11.717-1.279.223-2.653c2.832.875 6.014 1.419 9.525 1.59 1.679.08 3.396.121 5.102.121 3.066 0 6.18-.132 9.263-.391a117.76 117.76 0 0 0 18.33-3.05c14.327-3.556 24.166-11.526 26.991-21.867 1.599-5.863 1.333-11.355-.786-16.321-1.031-2.416-2.893-5.314-6.255-7.869zM73.985 282.529c-.762 7.766-1.525 15.54-2.305 23.549l-.174 1.782-1.779.202c-18.198 2.07-37.072 4.236-56.098 6.438l-2.729.316.273-2.732c.419-4.201.839-8.4 1.26-12.591l.179-1.786 1.784-.193c.821-.088 1.664-.18 2.124-.274.063-.363.122-.954.176-1.494 1.461-14.497 2.925-28.99 4.395-43.491l.039-.386-.296-.006-1.182-.025-2.397-.051.243-2.385c.424-4.157.847-8.308 1.273-12.454l.19-1.841 1.846-.138c9.532-.713 19.064-1.423 28.783-2.143l2.629-.195-.265 2.624-.319 3.151-.904 8.948-.159 1.576-1.542.357-.876.203-1.163.27a46222.842 46222.842 0 0 0-4.428 44.199c3.308-.356 6.607-.712 10.009-1.077l.435-2.742 1.047-6.604.267-1.682 1.694-.172 5.935-.6 9.609-.971 2.687-.27-.261 2.688zm65.216-36.533l-1.847.148-2.464.197-13.089 1.051-2.076.167-.292-2.062-.154-1.096-7.957.629-.258 2.631c-.302 3.072-.605 6.159-.913 9.312 5.061-.448 10.1-.892 15.238-1.342l2.652-.232-.257 2.65c-.286 2.943-.557 5.769-.833 8.652l-.335 3.495-.174 1.818-1.818.173-2.744.26-13.356 1.272-.159 1.646-1.142 11.773 5.755-.607 2.032-.215.065-.217.509-1.699.425-1.412 1.466-.151c2.812-.292 5.643-.582 8.512-.878l7.125-.733 2.685-.278-.256 2.688-.854 8.999-.598 6.316-.17 1.789-1.786.2a35924.222 35924.222 0 0 0-53.612 6.044l-2.715.308.263-2.719.92-9.482.21-2.168.082-1.031.873-.582.058-.047c.24-.194.74-.601 1.515-.655l.082-.005h.026l.176-.011c1.146-.088 1.266-.098 1.414-1.747a6156.767 6156.767 0 0 1 4.059-41.951l.031-.301-1.535-.159-2.193-.226.218-2.194.522-5.264.636-6.401.185-1.852 1.856-.135c17.763-1.292 35.528-2.568 53.291-3.839l2.614-.187-.254 2.607c-.496 5.107-.978 10.074-1.475 15.21l-.179 1.843zm68.06-5.611c-.583 11.798-1.672 23.464-3.238 34.674-1.471 10.497-10.437 18.373-23.982 21.067-.302.06-.663.181-1.046.31-.229.076-.458.153-.686.222l-.196.061-.204.022-5.546.614c-3.038.336-6.076.672-9.113 1.01l-.204.023-.205-.015c-.778-.057-1.563-.1-2.348-.142-1.808-.099-3.678-.202-5.495-.485-10.162-1.59-15.49-7.91-15.005-17.794a396.518 396.518 0 0 1 3.25-34.482c1.636-11.873 11.216-19.952 25.626-21.611 4.336-.499 7.906-.796 11.234-.934a98.167 98.167 0 0 1 4.076-.089c1.27 0 2.526.028 3.732.082 6.885.307 12.281 2.399 15.602 6.052 2.682 2.948 3.978 6.895 3.748 11.415zm79.781-21.528l-.933 10.388-.146 1.613-1.581.349-1.065.234-.945.209a29683.671 29683.671 0 0 0-4.571 51.62l-1.53-.685-1.792.373c-1.41.151-3.318-.002-4.705.149-4.524.492-7.616 1.101-11.95 1.494l-1.568-.224c-.078.007-.531.373-.609.373-1.607 0-1.006 1.156-1.727.09a2115.624 2115.624 0 0 1-17.132-26.049c-.474 5.204-.934 10.294-1.399 15.422l1.384.066 2.306.109-.207 2.3c-.322 3.57-.64 7.093-.968 10.759l-.162 1.807-1.804.195c-8.195.886-16.298 1.765-24.523 2.664l-2.689.294.245-2.694.581-6.362.419-4.584.145-1.59 1.555-.363c.142-.034.281-.071.418-.108.374-.1.798-.213 1.268-.269.281-.035.452-.078.55-.109a2.12 2.12 0 0 0 .03-.247c.391-5.082.877-10.237 1.346-15.222.173-1.838.345-3.676.515-5.512.18-1.954.362-3.908.544-5.86.392-4.2.784-8.395 1.153-12.583l.053-.551a80.443 80.443 0 0 1-1.407-.095l-2.238-.175.209-2.236.957-10.26.065-.695.175-1.874 1.876-.127 4.557-.315c5.604-.389 11.4-.791 17.073-1.099l.418-.022.144.048c1.582.208 2.646 1.605 3.055 2.24a3822.738 3822.738 0 0 0 17.025 26.504c.463-5.149.914-10.128 1.366-15.126l-.147-.01-1.114-.071-2.265-.146.204-2.262.575-6.314.386-4.245.172-1.879 1.884-.127c8.015-.538 15.996-1.069 24.177-1.614l2.581-.172-.234 2.576zm61.28 43.459l-.673 8.028-.466 5.567-.153 1.824-1.82.191a31422.655 31422.655 0 0 0-53.867 5.698l-2.669.286.231-2.675c.303-3.511.601-6.958.899-10.382l.143-1.54 1.487-.405c.926-.253 1.879-.512 2.293-.689.054-.299.102-.85.145-1.347.698-8.034 1.405-16.067 2.113-24.102l1.069-12.151.01-.132-.201-.014-1.232-.088-2.247-.16.2-2.243.301-3.378.629-7.047.17-1.885 1.888-.125c21.015-1.39 38.008-2.495 53.476-3.478l2.564-.163-.22 2.56-.931 10.845-.227 2.628-.161 1.878-1.882.138c-5.313.388-10.625.777-15.903 1.165l-2.037.15-.311-2.019-.122-.785-4.776.344-3.214.232-.587 6.737-.283 3.248c4.666-.381 9.26-.753 13.844-1.124l1.373-.111 2.606-.212-.224 2.605-.718 8.416-.194 2.278-.159 1.853-1.852.162c-4.102.36-8.114.716-12.12 1.07l-3.815.338c-.326 3.759-.643 7.456-.959 11.147l4.356-.431 3.435-.339c.184-.556.367-1.113.561-1.707l.451-1.376 1.441-.139 6.325-.608 9.6-.924 2.637-.253-.224 2.644zm5.519-11.196l-5.377.488.471-5.559a20.008 20.008 0 0 0 4.906 5.071zm30.008-26.5c-.784.126-1.847.724-2.1 1.035-1.11 1.359-1.456 2.806-.976 4.077.574 1.522 2.285 2.656 4.578 3.035 2.78.46 5.833.638 8.784.81.685.04 1.369.08 2.052.123 10.332.657 16.641 4.023 19.287 10.286 1.716 4.052 1.916 8.563.592 13.408-2.046 7.51-8.727 13.002-18.812 15.465a101.336 101.336 0 0 1-15.889 2.574 95.87 95.87 0 0 1-7.651.309c-1.624 0-3.263-.043-4.871-.127-12.205-.638-15.869-6.754-16.793-11.776-.117-.633-.226-1.265-.336-1.898l-.154-.881-.051-.287.026-.292.012-.126.017-.2.132-1.871 1.866-.177.149-.014 21.075-1.99 2.631-.249-.218 2.635c-.039.463-.089.902-.134 1.32-.045.405-.087.783-.112 1.133 4.051-.337 7.474-.698 10.7-1.129 1.031-.138 2.804-.581 3.076-1.99.253-1.29.343-2.601.439-3.989l.05-.717c.048-.651.156-2.178-3.524-2.571-3.619-.388-7.378-.514-10.246-.582-10.946-.247-17.686-3.518-20.604-9.998-1.71-3.8-1.981-8.03-.807-12.572 2.212-8.57 8.635-14.226 18.576-16.355a87.828 87.828 0 0 1 18.386-1.934c3.104 0 6.247.164 9.345.487 5.77.604 10.683 3.372 13.139 7.406 1.659 2.724 1.979 5.746.899 8.512l-.508 1.302-1.393.101c-5.193.372-10.378.75-15.576 1.127l-4.642.338-2.368.172-.004-2.375c0-.384.008-.758.015-1.124.011-.436.02-.839.011-1.213-2.682.162-5.426.356-8.068.782z" fill="#024c2c"/></svg>