<svg xmlns="http://www.w3.org/2000/svg" viewBox="0 0 528.319 527.796"><path d="M280.12 0h-31.923C109.747 8.258 0 123.11 0 263.637c0 1.538.09 3.054.116 4.583C2.573 411.988 119.805 527.796 264.16 527.796S525.749 411.988 528.205 268.22c.031-1.529.114-3.046.114-4.583C528.319 123.11 418.573 8.258 280.12 0z"/><path d="M264.159 517.73c-67.092 0-130.367-25.92-178.168-72.981-47.738-47.001-74.659-109.752-75.803-176.693-.01-.595-.03-1.187-.051-1.778-.03-.874-.06-1.749-.06-2.63 0-134.21 104.862-245.594 238.729-253.58l30.572-.003c134 7.989 238.864 119.373 238.864 253.583 0 .923-.031 1.839-.063 2.755-.018.552-.038 1.106-.049 1.66-1.142 66.934-28.065 129.685-75.803 176.686-47.801 47.062-111.075 72.981-178.168 72.981zm15.089-503.284l-30.311.003c-131.424 7.844-234.476 117.307-234.476 249.2 0 .831.03 1.655.058 2.478.021.618.043 1.234.053 1.854 1.124 65.785 27.581 127.453 74.496 173.644 46.976 46.249 109.158 71.72 175.092 71.72s128.117-25.471 175.092-71.72c46.915-46.19 73.372-107.858 74.496-173.644.012-.582.031-1.154.049-1.727.03-.866.059-1.732.059-2.605.001-131.894-103.052-241.356-234.608-249.203zm-14.643 432.869c-98.862 0-179.317-80.431-179.346-179.296 0-98.94 80.454-179.394 179.346-179.394s179.346 80.454 179.346 179.344c-.031 98.915-80.484 179.346-179.346 179.346zm0-354.306c-96.475 0-174.963 78.487-174.963 174.961.03 96.496 78.518 174.96 174.963 174.96 96.444 0 174.933-78.464 174.961-174.911 0-96.523-78.487-175.01-174.961-175.01z" fill="#fff"/><g fill="#fff"><path d="M112.026 399.577c1.014 1.183 1.501 2.408 1.486 3.741-.015 1.341-.5 2.646-1.439 3.882l-.359.473 2.925 3.411.556-.685c.865-1.068 1.52-2.188 1.951-3.333a9.443 9.443 0 0 0 .615-3.516 10.005 10.005 0 0 0-.692-3.445c-.441-1.119-1.096-2.189-1.948-3.184a10.974 10.974 0 0 0-3.282-2.618 10.336 10.336 0 0 0-3.953-1.129c-.989-.084-1.897-.015-2.714.187a9.58 9.58 0 0 0-2.45.996 18.493 18.493 0 0 0-2.499 1.749c-.841.689-1.82 1.51-2.927 2.459a168.316 168.316 0 0 0-2.878 2.52c-.837.753-1.543 1.496-2.104 2.211a9.538 9.538 0 0 0-1.355 2.267c-.327.782-.527 1.678-.598 2.658a10.42 10.42 0 0 0 .519 4.078c.44 1.313 1.146 2.533 2.091 3.636a11.266 11.266 0 0 0 2.853 2.411 10.166 10.166 0 0 0 3.301 1.21 9.122 9.122 0 0 0 1.559.132 9.89 9.89 0 0 0 2.008-.212c1.197-.251 2.405-.731 3.588-1.422l.761-.449-2.876-3.345-.521.283c-1.366.743-2.723 1.013-4.074.802-1.34-.202-2.487-.878-3.505-2.061a6.293 6.293 0 0 1-1.186-2.068 5.403 5.403 0 0 1-.285-2.26c.039-.534.147-1.03.329-1.476.183-.452.477-.932.879-1.425.423-.526.989-1.119 1.681-1.764a92.892 92.892 0 0 1 2.686-2.378 96.211 96.211 0 0 1 2.76-2.295 18.425 18.425 0 0 1 1.994-1.399c.546-.317 1.065-.534 1.544-.646a4.704 4.704 0 0 1 1.523-.102 5.409 5.409 0 0 1 2.177.623c.71.372 1.338.871 1.859 1.483zM127.224 410.311l-19.145 21.425 13.784 12.313 2.713-3.04-10.494-9.377 16.428-18.38zM158.925 435.181l-10.516 15.545c-.534.789-1.139 1.425-1.796 1.884-.655.458-1.344.761-2.049.899a5.262 5.262 0 0 1-2.217-.038c-.773-.164-1.545-.506-2.293-1.016-.753-.506-1.357-1.095-1.8-1.754a5.3 5.3 0 0 1-.856-2.04 5.18 5.18 0 0 1 .085-2.214c.192-.784.564-1.581 1.098-2.372l10.513-15.542-3.653-2.472-10.641 15.737c-.811 1.197-1.353 2.459-1.613 3.761a9.44 9.44 0 0 0 .012 3.84 9.688 9.688 0 0 0 1.57 3.54c.769 1.095 1.778 2.068 3.001 2.894 1.223.827 2.504 1.402 3.805 1.711.783.181 1.565.275 2.332.275.517 0 1.039-.041 1.547-.128a9.275 9.275 0 0 0 3.589-1.409c1.113-.723 2.081-1.696 2.893-2.893l10.642-15.734-3.653-2.474zM183.153 448.803c-.818-.79-1.808-1.466-2.937-2.005l-10.002-4.812-12.452 25.892 10.314 4.957c1.159.56 2.308.919 3.422 1.075.411.061.817.089 1.213.089.705 0 1.392-.094 2.049-.276a7.25 7.25 0 0 0 2.826-1.566c.844-.741 1.557-1.717 2.128-2.906.778-1.614 1.013-3.195.704-4.704a7.786 7.786 0 0 0-1.108-2.692 7.346 7.346 0 0 0 2.424-.792c1.289-.682 2.295-1.765 2.989-3.208.541-1.121.829-2.239.862-3.32a7.397 7.397 0 0 0-.571-3.083c-.405-.96-1.029-1.85-1.861-2.649zm-7.38 18.464c-.575 1.195-1.385 1.938-2.472 2.263-1.109.334-2.342.166-3.7-.488l-6.096-2.929 3.693-7.675 6.09 2.93c1.377.664 2.261 1.502 2.701 2.572.428 1.049.358 2.13-.216 3.327zm4.962-11.295c-.311.638-.682 1.134-1.107 1.479a3.388 3.388 0 0 1-1.37.689c-.5.118-1.044.123-1.616.03a7.099 7.099 0 0 1-1.862-.608l-5.816-2.799 3.46-7.193 5.815 2.799a6.702 6.702 0 0 1 1.638 1.073c.433.385.765.818.987 1.282.218.452.324.94.327 1.486-.001.541-.153 1.136-.456 1.762zM224.042 464.389c-.661-1.078-1.57-2.01-2.7-2.768-1.122-.753-2.436-1.317-3.907-1.675l-9.88-2.423-6.843 27.902 9.877 2.419c1.047.26 2.076.391 3.057.391.404 0 .797-.023 1.186-.066 1.353-.15 2.588-.556 3.672-1.205a8.023 8.023 0 0 0 2.396-2.186 13.47 13.47 0 0 0 1.542-2.768c.404-.971.743-1.994 1.011-3.029.264-1.017.508-1.987.734-2.906.223-.924.448-1.86.671-2.822.232-.999.384-1.994.457-2.957a12.076 12.076 0 0 0-.142-2.972 8.212 8.212 0 0 0-1.131-2.935zm-3.18 5.95a18.649 18.649 0 0 1-.384 2.258c-.185.804-.377 1.614-.573 2.428-.202.817-.414 1.65-.638 2.515a23.84 23.84 0 0 1-.76 2.391 10.429 10.429 0 0 1-1.008 1.994c-.364.559-.792.993-1.262 1.287-.768.485-1.576.761-2.398.817-.861.066-1.791-.02-2.768-.26l-5.104-1.251 4.9-19.986 5.107 1.251c.971.237 1.838.592 2.573 1.049.713.444 1.285 1.044 1.746 1.828.286.495.473 1.05.551 1.658a8.79 8.79 0 0 1 .018 2.021zM233.031 492.265l18.47 1.847.406-4.055-14.079-1.408.831-8.325 12.003 1.203.406-4.053-12.003-1.203.812-8.097 14.081 1.412.406-4.056-18.469-1.849zM293.503 479.581a7.78 7.78 0 0 0-2.334-1.732 7.141 7.141 0 0 0 1.663-1.928c.751-1.247 1.059-2.69.906-4.29-.12-1.244-.447-2.347-.975-3.287a7.344 7.344 0 0 0-2.078-2.345c-.846-.613-1.842-1.053-2.965-1.31-1.1-.251-2.288-.319-3.552-.204l-11.047 1.045 2.697 28.6 11.395-1.075c1.269-.117 2.443-.401 3.486-.845 1.06-.45 1.964-1.072 2.694-1.848a7.268 7.268 0 0 0 1.614-2.801c.339-1.068.447-2.275.324-3.588-.168-1.784-.783-3.258-1.828-4.392zm-15.608-10.407l6.426-.608a6.997 6.997 0 0 1 1.956.072c.572.11 1.08.309 1.507.592.416.273.768.647 1.049 1.108.274.46.452 1.042.516 1.745.069.694.005 1.312-.182 1.836-.191.516-.454.945-.819 1.293a4.159 4.159 0 0 1-1.371.861 6.944 6.944 0 0 1-1.908.442l-6.425.606-.749-7.947zm12.087 18.352c-.782.861-1.902 1.351-3.417 1.496l-6.736.638-.802-8.479 6.736-.634c1.5-.158 2.709.118 3.637.809.909.677 1.407 1.642 1.532 2.957.125 1.323-.185 2.372-.95 3.213zM311.908 484.992l-1.949-8.139 11.735-2.806-.95-3.963-11.732 2.809-1.897-7.914 13.76-3.297-.948-3.959-18.051 4.321 6.691 27.938 18.051-4.323-.95-3.964zM326.25 455.462l4.168-1.442 9.393 27.145-4.168 1.442zM357.63 458.362a6.439 6.439 0 0 0-1.239-.266 8.53 8.53 0 0 0-1.303-.035c-.455.02-.957.084-1.487.196-.523.105-1.104.245-1.757.424l-2.921.817c-.656.168-1.323.275-1.979.311-.626.035-1.182-.015-1.624-.131-.84-.25-1.483-.888-1.964-1.949-.546-1.208-.587-2.313-.133-3.376.464-1.07 1.463-1.962 2.972-2.645 1.251-.565 2.365-.868 3.317-.907l.302-.005c.868 0 1.763.145 2.664.427l.664.212 1.481-3.872-.75-.23c-1.588-.49-3.123-.697-4.551-.597-1.425.094-3 .524-4.669 1.28-1.312.595-2.428 1.318-3.319 2.155-.901.841-1.586 1.779-2.046 2.779a7.474 7.474 0 0 0-.669 3.258c.018 1.141.289 2.293.8 3.427.983 2.166 2.48 3.572 4.464 4.178 1.627.483 3.596.418 5.874-.195l3.126-.87c.937-.26 1.644-.414 2.091-.454.414-.036.851.013 1.313.156.434.13.832.377 1.186.733.378.381.699.861.955 1.426.567 1.256.56 2.387-.023 3.465-.615 1.131-1.777 2.089-3.445 2.842-1.325.597-2.574.939-3.715 1.019-1.136.069-2.405-.155-3.792-.674l-.682-.253-1.542 4.017.699.261c1.555.578 3.086.873 4.546.873.22 0 .439-.007.656-.016 1.65-.099 3.481-.595 5.437-1.476 1.346-.615 2.525-1.356 3.501-2.209.99-.866 1.756-1.831 2.285-2.853a7.466 7.466 0 0 0 .845-3.336c.02-1.16-.245-2.359-.781-3.544-1.033-2.289-2.651-3.758-4.787-4.363zM387.697 447.629c-.947-1.524-2.158-2.566-3.6-3.113-.927-.352-1.898-.501-2.86-.511.348-.759.56-1.589.629-2.47.115-1.449-.256-2.88-1.108-4.245-.656-1.054-1.441-1.897-2.337-2.503a7.288 7.288 0 0 0-2.904-1.167c-1.029-.177-2.119-.128-3.24.148-1.103.266-2.204.74-3.268 1.402l-9.421 5.868 15.177 24.389 9.72-6.052c1.09-.676 2.015-1.456 2.743-2.309.745-.876 1.279-1.838 1.586-2.855a7.34 7.34 0 0 0 .192-3.228c-.174-1.108-.616-2.238-1.309-3.354zm-22.209-5.468l5.475-3.411a6.98 6.98 0 0 1 1.786-.802c.56-.159 1.113-.2 1.609-.148.5.059.98.237 1.432.524.459.288.876.736 1.244 1.33.371.597.593 1.177.657 1.724a3.335 3.335 0 0 1-.153 1.527c-.169.485-.447.937-.843 1.381a6.99 6.99 0 0 1-1.51 1.244l-5.482 3.41-4.215-6.779zm19.005 11.04c-.312 1.101-1.114 2.065-2.39 2.858l-5.743 3.575-4.502-7.234 5.741-3.573c1.285-.797 2.483-1.103 3.623-.896 1.109.194 1.987.836 2.686 1.962.703 1.129.896 2.205.585 3.308zM412.337 428.766c-.439-.784-1.021-1.629-1.728-2.507a152.734 152.734 0 0 0-2.442-2.948 176.05 176.05 0 0 0-2.502-2.896c-.74-.832-1.473-1.545-2.191-2.12a9.772 9.772 0 0 0-2.258-1.372c-.773-.326-1.668-.533-2.653-.61-2.878-.242-5.465.634-7.737 2.553-2.265 1.918-3.544 4.344-3.795 7.202-.089.979-.029 1.892.168 2.718.194.812.521 1.639.978 2.457.44.797 1.024 1.644 1.726 2.51.684.848 1.497 1.833 2.443 2.947a155.24 155.24 0 0 0 2.498 2.893 18.37 18.37 0 0 0 2.193 2.125 9.877 9.877 0 0 0 2.263 1.372c.784.33 1.675.534 2.65.612.301.023.593.036.886.036 2.511 0 4.816-.871 6.847-2.595 1.137-.96 2.032-2.061 2.658-3.273a10.516 10.516 0 0 0 1.146-3.93c.082-.979.03-1.895-.169-2.714a9.755 9.755 0 0 0-.981-2.46zm-3.175 5.218a5.51 5.51 0 0 1-.63 2.194 6.119 6.119 0 0 1-1.481 1.854 6.084 6.084 0 0 1-2.076 1.157 5.458 5.458 0 0 1-2.281.255 4.812 4.812 0 0 1-1.473-.339c-.457-.187-.93-.483-1.412-.876-.508-.409-1.077-.957-1.734-1.678a97.146 97.146 0 0 1-2.362-2.7 91.803 91.803 0 0 1-2.273-2.776c-.585-.746-1.045-1.418-1.371-1.987-.307-.546-.52-1.062-.63-1.535a4.887 4.887 0 0 1-.089-1.53 5.52 5.52 0 0 1 .63-2.189 6.263 6.263 0 0 1 1.481-1.859 6.142 6.142 0 0 1 2.079-1.152 5.725 5.725 0 0 1 1.744-.283c.173 0 .347.008.534.028a4.844 4.844 0 0 1 1.476.337c.452.184.924.485 1.41.878.516.417 1.096.981 1.734 1.675a89.573 89.573 0 0 1 2.359 2.704 90.84 90.84 0 0 1 2.275 2.775 17.405 17.405 0 0 1 1.371 1.989c.309.546.521 1.06.629 1.535.108.464.139.974.09 1.523zM434.963 409.811l-9.46 10.414-18.244-16.585-2.967 3.262 21.255 19.331 12.437-13.683z"/></g><path d="M244.365 392.763c-.51 3.638-1.877 7.925-4.128 10.784h44.869c-2.25-2.86-3.621-7.146-4.129-10.784h-36.612z" fill="#a31d21"/><path d="M244.365 392.763c-.51 3.638-1.877 7.925-4.128 10.784l22.747-7.806v-2.978h-18.619z" fill="#b22226"/><path d="M353.358 151.53H179.815l-3.457 37.458c2.095-2.097 5.449-3.568 10.072-4.408a805.02 805.02 0 0 1 5.977-.63h56.084v169.546h20.169c4.54 0 8.433-1.633 11.676-4.893 2.619-2.635 4.166-5.711 4.666-9.204V184.091h-.041v-.142h55.807c7.555.212 13.01 1.889 16.366 5.038l-3.776-37.457z" fill="#a31d21"/><path d="M328.351 365.226c-3.522-4.696-5.502-9.031-5.937-13.015.004-.219.033-.432.033-.656V187.223h-33.974v145.335h.077v7.586c0 .871-.077 1.707-.196 2.529-.502 3.496-2.044 6.568-4.67 9.21-3.242 3.258-7.129 4.888-11.673 4.888h-40.718v-38.38c-.006-8.504-3.817-15.198-11.36-19.818l-33.943.004c7.606 4.779 11.406 9.656 11.406 18.563v.686l-.025 13.443v12.66c0 3.349-.2 6.498-.602 9.442-.534 4.288-2.812 8.777-6.831 13.465 1.874 1.609 8.907 7.03 21.095 16.271 6.03 4.823 9.244 7.233 9.648 7.233h78.74c19.555-15.134 29.663-22.905 30.337-23.307v-.197c-.134-.402-.602-.934-1.407-1.61M224.655 187.223h-.037l-1.735 17.06c.019-.008.036-.02.057-.026l-2.191 21.75c3.475-3.26 13.252-4.995 21.074-5.215h2.887v-33.569h-20.055z" fill="#e6e7e8"/><path d="M305.93 187.212h-17.472v154.856c-2.279 12.865-12.635 14.641-16.29 14.697l-40.873.009-18.488 10.071h92.089V203.867l17.547-16.655H305.93z" fill="#fff"/><path d="M212.779 343.93v-27.697l16.453-7.65a.039.039 0 0 1-.006-.02c-1.855-3.98-4.954-7.329-9.292-9.986l-33.946-.026a.034.034 0 0 1 .019.013c-.007.001-.009.006-.019.013 7.604 4.78 11.408 9.656 11.408 18.563v.687c0 .016-.021 12.371-.025 13.372v12.73c0 3.349-.2 6.498-.602 9.442-.534 4.288-2.812 8.777-6.831 13.465l22.869.013-.028-13.495v-9.424z" fill="#fff"/><path fill="#b22226" d="M267.066 316.219v37.299H248.49V183.976l18.576-16.514v109.095z"/><path fill="#b22226" d="M179.819 151.53l-3.461 37.456 17.485-21.584H340.7l12.658-15.872z"/><path d="M224.655 187.223h-.037l-1.735 17.06c.019-.008.036-.02.057-.026l-2.191 21.75 17.806-22.912h6.156v-15.872h-20.056z" fill="#fff"/><g fill="#fff" stroke="#fff" stroke-miterlimit="10"><path d="M49.266 187.796l35.733 12.222-1.449 4.238-35.734-12.223-3.929 11.488-3.773-1.291 9.308-27.213 3.773 1.291-3.929 11.488zM91.165 152.463c1.439.833 2.671 1.675 3.697 2.527 1.027.854 1.875 1.766 2.546 2.738.671.973 1.2 2.125 1.585 3.455.555 1.917.725 3.846.508 5.788-.216 1.942-.833 3.843-1.852 5.705-2.037 3.722-5.023 6.164-8.957 7.325-1.329.393-2.584.567-3.765.526-1.181-.042-2.406-.265-3.678-.67-1.271-.405-2.645-.988-4.122-1.753a250.656 250.656 0 0 1-5.147-2.75 245.35 245.35 0 0 1-5.09-2.854c-1.439-.831-2.671-1.674-3.697-2.527-1.027-.853-1.875-1.766-2.547-2.738-.671-.972-1.199-2.122-1.585-3.454-1.142-3.939-.694-7.77 1.344-11.492 2.038-3.722 5.023-6.163 8.957-7.325 1.329-.391 2.584-.567 3.765-.526 1.181.042 2.407.266 3.678.67 1.272.406 2.646.99 4.122 1.753 1.477.764 3.192 1.68 5.147 2.75a250.684 250.684 0 0 1 5.091 2.852zm-12.144-1.508c-1.348-.671-2.533-1.174-3.553-1.508-1.021-.334-1.959-.512-2.817-.534a8.58 8.58 0 0 0-2.641.368c-1.258.343-2.424.947-3.5 1.813a10.32 10.32 0 0 0-2.605 3.109 10.328 10.328 0 0 0-1.216 3.87c-.15 1.374-.031 2.682.358 3.925a8.541 8.541 0 0 0 1.113 2.423c.48.712 1.136 1.406 1.968 2.085.831.68 1.894 1.407 3.186 2.18 1.292.775 2.898 1.688 4.818 2.739a144.98 144.98 0 0 0 4.903 2.583c1.349.671 2.533 1.175 3.553 1.508 1.021.335 1.959.513 2.817.534.857.022 1.738-.1 2.642-.368 1.257-.342 2.423-.946 3.499-1.813a10.323 10.323 0 0 0 2.605-3.109 10.335 10.335 0 0 0 1.216-3.87c.15-1.373.031-2.682-.358-3.925a8.567 8.567 0 0 0-1.113-2.423c-.48-.711-1.136-1.406-1.968-2.085-.832-.679-1.893-1.406-3.185-2.181a147.11 147.11 0 0 0-4.819-2.738 143.936 143.936 0 0 0-4.903-2.583zM124.755 133.982l-20.36-4.473-6.431 7.759 14.268 11.825-2.859 3.449-32.148-26.644 10.267-12.388c1.153-1.391 2.422-2.509 3.806-3.352s2.811-1.37 4.281-1.581c1.469-.21 2.955-.088 4.458.365 1.502.454 2.946 1.255 4.331 2.402 2.348 1.946 3.727 4.187 4.14 6.722.411 2.536-.037 5.022-1.345 7.459l20.94 4.418-3.348 4.039zm-29.133-21.045c-1.969.384-3.743 1.529-5.322 3.435l-7.146 8.622 11.785 9.767 7.145-8.622c1.579-1.906 2.383-3.855 2.41-5.848.028-1.993-.952-3.813-2.939-5.459-1.987-1.648-3.965-2.279-5.933-1.895zM145.403 95.669c1.027 1.308 1.856 2.548 2.492 3.721.635 1.175 1.083 2.337 1.345 3.488.261 1.152.323 2.419.186 3.797a14.752 14.752 0 0 1-1.681 5.562c-.923 1.722-2.203 3.258-3.842 4.606-3.275 2.697-6.955 3.854-11.038 3.468-1.38-.129-2.61-.434-3.69-.912-1.081-.477-2.136-1.14-3.165-1.989-1.029-.848-2.087-1.901-3.174-3.16a241.983 241.983 0 0 1-3.754-4.467 250.844 250.844 0 0 1-3.664-4.542c-1.026-1.307-1.856-2.548-2.491-3.722-.635-1.173-1.084-2.336-1.345-3.488-.261-1.152-.324-2.417-.186-3.796.405-4.081 2.246-7.471 5.522-10.168 3.276-2.697 6.956-3.852 11.039-3.468 1.38.131 2.61.434 3.69.912 1.08.478 2.135 1.142 3.165 1.99 1.03.849 2.088 1.902 3.174 3.16a249.518 249.518 0 0 1 3.754 4.467 251.488 251.488 0 0 1 3.663 4.541zm-10.712-5.917c-1.002-1.124-1.915-2.032-2.738-2.722s-1.628-1.204-2.416-1.543-1.65-.552-2.589-.641c-1.294-.15-2.602-.022-3.923.382a10.335 10.335 0 0 0-3.574 1.917 10.328 10.328 0 0 0-2.568 3.139c-.651 1.219-1.026 2.479-1.127 3.777a8.49 8.49 0 0 0 .132 2.663c.181.839.531 1.728 1.051 2.667.518.94 1.234 2.01 2.146 3.209a146.456 146.456 0 0 0 3.453 4.334 146.03 146.03 0 0 0 3.591 4.223c1.002 1.125 1.914 2.032 2.737 2.722.823.69 1.628 1.204 2.416 1.543a8.46 8.46 0 0 0 2.589.641c1.294.15 2.601.023 3.923-.382a10.315 10.315 0 0 0 3.575-1.917 10.333 10.333 0 0 0 2.568-3.139c.65-1.219 1.026-2.478 1.128-3.777a8.53 8.53 0 0 0-.133-2.664c-.181-.838-.532-1.727-1.05-2.667-.519-.939-1.234-2.009-2.146-3.209a146.012 146.012 0 0 0-3.454-4.334 145.59 145.59 0 0 0-3.591-4.222zM180.459 85.018a10.276 10.276 0 0 1-.762 4.687c-.621 1.51-1.579 2.939-2.874 4.286-1.296 1.349-2.887 2.549-4.775 3.601-2.746 1.53-5.306 2.465-7.681 2.803-2.375.34-4.897.133-7.564-.619l1.193-4.155c2.348.662 4.455.852 6.324.572 1.868-.28 3.831-.994 5.89-2.141 2.678-1.492 4.46-3.257 5.348-5.296.888-2.039.732-4.134-.466-6.285-.533-.955-1.164-1.745-1.894-2.369-.729-.622-1.528-1.028-2.397-1.215-.87-.187-1.683-.214-2.442-.083-.759.132-1.864.468-3.317 1.009l-4.645 1.715c-3.184 1.148-5.946 1.479-8.285.992-2.767-.607-4.959-2.361-6.576-5.264-.857-1.537-1.368-3.098-1.531-4.685a10.25 10.25 0 0 1 .53-4.559c.518-1.451 1.359-2.826 2.525-4.125 1.166-1.298 2.658-2.454 4.477-3.468 2.333-1.3 4.517-2.103 6.552-2.408 2.033-.305 4.23-.197 6.589.323l-1.124 3.916c-1.704-.394-3.355-.491-4.954-.294-1.6.198-3.376.841-5.333 1.931-2.471 1.377-4.034 3.053-4.687 5.029-.653 1.976-.409 3.988.732 6.037 1.027 1.844 2.357 2.939 3.988 3.282.85.154 1.808.157 2.873.01a16.644 16.644 0 0 0 3.182-.766l4.359-1.623a40.569 40.569 0 0 1 2.533-.842c.755-.219 1.447-.37 2.076-.452a11.45 11.45 0 0 1 1.801-.097 8.825 8.825 0 0 1 1.71.222c3.03.595 5.401 2.429 7.113 5.502.896 1.603 1.399 3.213 1.512 4.829zM228.532 58.815c.379 1.558.646 3.114.802 4.668a19.692 19.692 0 0 1-.071 4.589 11.175 11.175 0 0 1-1.494 4.258c-.908 1.525-2.154 2.833-3.739 3.925-1.585 1.094-3.444 1.912-5.575 2.459l-13.93 3.572-10.37-40.445 13.929-3.572c2.132-.546 4.155-.722 6.071-.527 1.915.196 3.637.743 5.166 1.642 1.337.787 2.445 1.745 3.323 2.872a17.377 17.377 0 0 1 2.19 3.676 29.31 29.31 0 0 1 1.463 4.166 332.807 332.807 0 0 1 2.235 8.717zm-6.429-7.038a30.57 30.57 0 0 0-1.16-3.457 14.457 14.457 0 0 0-1.608-2.948 7.915 7.915 0 0 0-2.254-2.146c-1.347-.825-2.743-1.285-4.186-1.379-1.445-.093-2.965.064-4.564.474l-8.848 2.268 8.39 32.72 8.848-2.269c1.599-.41 3.008-1.003 4.229-1.781 1.22-.776 2.222-1.85 3.007-3.222.501-.895.802-1.932.906-3.109a17.082 17.082 0 0 0-.089-3.67 36.708 36.708 0 0 0-.727-3.9 259.783 259.783 0 0 0-1.944-7.581zM241.415 74.027l-2.741-41.663 25.993-1.711.26 3.979-21.523 1.417.967 14.687 18.347-1.208.263 3.979-18.35 1.208.99 15.038 21.525-1.416.26 3.979-25.991 1.711zM307.592 38.843l-6.44 37.213-4.414-.764 6.442-37.213-11.963-2.07.679-3.929 28.341 4.905-.681 3.929-11.964-2.071zM319.389 80.366l12.052-39.977 4.288 1.293-12.051 39.977-4.289-1.293zM352.599 85.167c-1.239 1.233-2.611 2.131-4.116 2.695-1.507.563-3.109.808-4.811.734-1.701-.075-3.436-.494-5.203-1.256-1.84-.795-3.352-1.778-4.537-2.949-1.185-1.172-2.117-2.607-2.795-4.305l3.944-1.555a10.395 10.395 0 0 0 1.576 2.82c.673.866 1.805 1.642 3.392 2.327 2.524 1.09 4.802 1.169 6.832.235 2.029-.934 3.656-2.818 4.88-5.655l11.296-26.166 4.112 1.775-11.528 26.705c-.79 1.83-1.805 3.362-3.042 4.595zM387.02 104.926c-1.562 1.056-3.236 1.746-5.023 2.07-1.788.325-3.615.282-5.486-.126-1.87-.409-3.691-1.195-5.466-2.359-1.773-1.163-3.22-2.522-4.339-4.075-1.121-1.552-1.879-3.207-2.277-4.965-.398-1.757-.423-3.562-.076-5.416.346-1.853 1.088-3.646 2.225-5.379l15.343-23.389 3.745 2.457-15.152 23.096c-.878 1.341-1.475 2.678-1.788 4.016-.314 1.337-.347 2.625-.102 3.861.245 1.237.754 2.412 1.528 3.527.772 1.115 1.8 2.092 3.081 2.933 1.281.84 2.586 1.393 3.917 1.658 1.329.265 2.611.264 3.843-.004 1.233-.266 2.408-.805 3.527-1.615 1.118-.81 2.117-1.883 2.996-3.224l15.15-23.095 3.745 2.457-15.343 23.389c-1.136 1.733-2.485 3.127-4.048 4.183zM408.499 135.526l4.149-9.122-13.175-12.743-8.978 4.451-3.431-3.319 40.127-19.277 2.711 2.622-17.972 40.706-3.431-3.318zm15.646-34.063l-21.006 10.358 11.267 10.899 9.739-21.257zM430.212 164.675l14.824-37.387-27.517 19.079-2.553-3.681 34.314-23.79 2.418 3.487-14.728 37.32 27.422-19.012 2.551 3.681-34.312 23.79-2.419-3.487zM447.022 199.734l7.332-6.833-7.281-16.821-9.999.667-1.896-4.381 44.451-2.413 1.498 3.462-32.208 30.7-1.897-4.381zm27.514-25.457l-23.373 1.51 6.226 14.387 17.147-15.897z"/></g></svg>