<svg xmlns="http://www.w3.org/2000/svg" xmlns:xlink="http://www.w3.org/1999/xlink" viewBox="0 0 194.602 248.783"><path d="M179.998 7.249C171.319.942 157.546 0 150.107 0c-8.902 0-22.999 1.272-39.594 7.336-27.841 10.174-51.487 27.97-61.71 46.448-5.763 10.413-6.91 22.721-3.152 33.767 3.02 8.874 10.57 21.164 29.386 29.33a58.451 58.451 0 0 1 6.233 3.15c-6.945-.364-14.115.281-21.271 1.972a40.08 40.08 0 0 0-2.46.473c-11.016 2.508-20.846 7.313-29.212 14.282-8.148 6.777-14.672 14.722-19.388 23.606-4.744 8.922-7.644 18.436-8.623 28.284-1.041 10.508.496 20.354 4.573 29.267 4.304 9.42 11.497 17.016 21.384 22.583 9.914 5.576 20.874 8.285 33.508 8.285 1.388 0 2.82-.034 4.25-.098 10.523-.473 46.996-4.238 74.602-32.856 25.301-26.223 35.919-58.025 29.899-89.552-3.545-18.563-14.204-34.641-30.828-46.502-.357-.254-.717-.489-1.073-.733 3.839-.731 8.254-1.621 8.829-1.752l26.189-5.978a13.606 13.606 0 0 0 5.282-2.492c1.2-.928 11.865-9.493 16.061-24.064 3.044-10.588 3.262-25.689-12.994-37.507" fill="#fff"/><path d="M59.362 240.531c-11.003-.073-20.111-2.345-28.659-7.153-8.219-4.625-14.164-10.864-17.674-18.542-3.414-7.47-4.696-15.785-3.813-24.716.866-8.696 3.434-17.114 7.637-25.02 4.179-7.871 9.981-14.928 17.244-20.968 7.288-6.071 15.874-10.263 25.521-12.458 2.085-.477 4.043-.712 5.813-.699 2.641.018 4.987.582 6.973 1.675 3.454 1.9 5.771 4.989 6.702 8.929.801 3.395.713 7.181-.263 11.255-.917 3.861-2.599 7.742-4.999 11.532-2.411 3.798-5.489 7.191-9.145 10.091-3.831 3.032-8.223 5.103-13.061 6.159-1.399.307-2.753.458-4.015.449-3.763-.025-6.96-1.461-9.254-4.153a14.278 14.278 0 0 1-2.121-3.386 28.524 28.524 0 0 0-2.546 3.999c-1.958 3.767-3.068 7.547-3.39 11.552-.326 3.999.093 7.928 1.244 11.68a24.455 24.455 0 0 0 5.661 9.704c2.666 2.826 6.117 5.05 10.259 6.611 3.057 1.153 6.614 1.75 10.578 1.776a47.74 47.74 0 0 0 4.608-.203c7.31-.726 14.213-2.745 20.484-6.004 6.24-3.252 11.748-7.469 16.369-12.525 4.6-5.039 8.326-10.884 11.076-17.371 2.854-6.737 4.974-20.021 3.285-31.369-.732-4.894-5.847-29.944-35.019-42.603-15.803-6.857-22.049-16.817-24.505-23.964-2.986-8.692-2.083-18.405 2.478-26.648 9.246-16.713 31.133-32.993 57.119-42.486 15.687-5.732 28.896-6.87 37.214-6.813 10.567.071 19.352 2.092 24.099 5.543 9.83 7.143 12.989 16.234 9.661 27.79-3.462 12.039-12.541 19.157-12.926 19.454l-.78.603-34.914 7.967s10.567-31.362 13.651-39.151c-6.446-.026-21.88 3.201-34.228 9.358-12.514 6.241-21.323 17.579-22.869 23.363-1.289 4.827.266 7.947 4.753 9.541 1.535.544 3.646 1.106 6.089 1.755 8.065 2.14 19.109 5.073 29.138 12.228 14.762 10.531 24.208 24.715 27.321 41.019 5.477 28.673-4.337 57.759-27.629 81.896-25.381 26.313-59.052 29.779-68.767 30.217a86.297 86.297 0 0 1-4.4.086" fill="#dadbda"/><path d="M172.624 18.05c-7.274-5.288-30.658-7.795-57.101 1.865C89.535 29.41 69.036 45.45 60.782 60.367c-7.585 13.711-4.506 33.699 19.847 44.266 26.968 11.7 35.929 34.163 37.71 46.108 1.889 12.671-.641 26.825-3.592 33.79-2.949 6.965-6.91 13.188-11.888 18.641-4.978 5.45-10.847 9.954-17.61 13.478-6.765 3.516-14.148 5.699-22.146 6.491-6.629.605-12.36-.023-17.193-1.846-4.835-1.821-8.825-4.416-11.966-7.745-3.143-3.328-5.378-7.169-6.702-11.494-1.328-4.326-1.804-8.784-1.429-13.372.369-4.589 1.666-9.001 3.884-13.267a33.016 33.016 0 0 1 3.836-5.755c.978-1.059 2.433-2.233 3.941-2.045 1.392.173 2.316 2.572 2.578 3.339l.006.02.075.224s0-.014.005-.039c.415 1.067.965 2.02 1.663 2.839 1.975 2.323 4.922 3.066 8.848 2.205 4.198-.915 7.941-2.689 11.231-5.294 3.286-2.602 6.001-5.599 8.147-8.977 2.138-3.379 3.618-6.773 4.426-10.177.815-3.402.899-6.459.261-9.168-.641-2.71-2.13-4.702-4.465-5.986-2.338-1.288-5.537-1.454-9.601-.526-8.943 2.037-16.827 5.852-23.65 11.536-6.828 5.678-12.213 12.197-16.156 19.629-3.948 7.428-6.322 15.202-7.133 23.354-.806 8.153.334 15.623 3.425 22.387 3.089 6.756 8.343 12.289 15.762 16.464 7.42 4.175 16.745 7.114 30.633 6.489 13.892-.624 43.589-5.888 65.741-28.852 23.604-24.466 31.315-52.469 26.452-77.934-3.127-16.387-12.983-29.245-25.491-38.168-12.458-8.885-27.239-10.962-34.105-13.399-6.681-2.371-9.56-7.773-7.632-14.986 2.042-7.633 12.126-19.695 25.194-26.213 13.33-6.647 30.153-10.125 37.073-9.812 3.441.156 4.514 3.175 3.663 5.617-2.461 7.037-11.513 31.886-11.513 31.886l26.309-6.005s8.265-6.382 11.364-17.149c3.133-10.883-.607-17.528-7.96-22.871" fill="#005d63"/><defs><path id="a" d="M89.176 124.282c-2.086 1.111-2.533 2.119-2.533 2.119s11.996 24.015 5.576 47.777c-7.152 26.46-37.751 33.329-37.751 33.329s-.809 1.826-.546 3.544c.244 1.596 2.105 2.105 2.105 2.105s38.694-7.113 46.213-36.771c6.823-26.923-9.585-52.812-9.585-52.812s-.247-.071-.687-.071c-.607.001-1.584.136-2.792.78"/></defs><clipPath id="b"><use xlink:href="#a" overflow="visible"/></clipPath><radialGradient id="c" cx="-290.614" cy="423.094" r="1" gradientTransform="matrix(-138.757 -51.0089 -58.5122 135.7192 -15335.525 -72081.938)" gradientUnits="userSpaceOnUse"><stop offset="0" stop-color="#e1e2e2"/><stop offset=".559" stop-color="#dfe0e0"/><stop offset=".85" stop-color="#d7d9d8"/><stop offset="1" stop-color="#d0d3d1"/></radialGradient><path clip-path="url(#b)" fill="url(#c)" d="M101.484 230.738l-81.189-29.846 40.944-94.97 81.188 29.846z"/><g fill="#005d63"><path d="M89.682 124.041s14.726 25.75 7.597 52.611c-7.117 26.8-43.422 34.885-43.422 34.885s.019-.094-.038-.484c-.034-.256.022-.477.022-.477s36.183-8.22 43.072-35.198c6.489-25.418-7.96-50.969-7.96-50.969s.068-.057.399-.212l.33-.156z"/><path d="M55.263 206.416a31.312 31.312 0 0 0 1.746 3.865c.193.371.234.885.089 1.149-.148.263-.42.183-.614-.177a33.148 33.148 0 0 1-1.787-3.939c-.153-.405-.153-.944.003-1.19.092-.161.223-.166.348-.055a.877.877 0 0 1 .215.347"/></g><defs><path id="d" d="M54.735 206.418c-.101.166-.101.516 0 .796a33.61 33.61 0 0 0 1.767 3.934c.129.236.314.295.41.115.097-.175.071-.516-.064-.759a32.982 32.982 0 0 1-1.742-3.883.527.527 0 0 0-.143-.236.153.153 0 0 0-.106-.051c-.046 0-.089.028-.122.084"/></defs><clipPath id="e"><use xlink:href="#d" overflow="visible"/></clipPath><linearGradient id="f" gradientUnits="userSpaceOnUse" x1="-290.66" y1="423.092" x2="-289.661" y2="423.092" gradientTransform="matrix(-3.4936 -1.0081 -1.3582 4.0091 -383.25 -1779.844)"><stop offset="0" stop-color="#004c51"/><stop offset="1" stop-color="#0d7d81"/></linearGradient><path clip-path="url(#e)" fill="url(#f)" d="M56.798 212.066l-3.74-1.079 1.788-5.277 3.74 1.079z"/><path d="M57.357 210.696c.053.669.078 1.325.115 1.953.023.517.041 1.022.048 1.505.003.281-.218.354-.503.168-.272-.193-.508-.577-.514-.858-.018-.465-.032-.947-.058-1.45-.034-.604-.079-1.236-.123-1.884-.027-.353.181-.521.47-.359.011 0 .02.012.033.02.27.167.512.563.532.905" fill="#005d63"/><defs><path id="g" d="M56.402 210.218c.045.603.079 1.187.112 1.751.027.55.051 1.078.064 1.594.01.188.157.444.343.569.185.127.328.078.331-.11a55.844 55.844 0 0 0-.053-1.629 93.116 93.116 0 0 0-.105-1.796c-.019-.228-.173-.491-.355-.602l-.023-.014a.299.299 0 0 0-.136-.039c-.116 0-.189.104-.178.276"/></defs><clipPath id="h"><use xlink:href="#g" overflow="visible"/></clipPath><linearGradient id="i" gradientUnits="userSpaceOnUse" x1="-290.488" y1="423.083" x2="-289.488" y2="423.083" gradientTransform="matrix(-1.9948 -.5755 -.5506 1.6241 -288.694 -641.916)"><stop offset="0" stop-color="#004c51"/><stop offset="1" stop-color="#0d7d81"/></linearGradient><path clip-path="url(#h)" fill="url(#i)" d="M57.175 214.485l-2.117-.611 1.41-4.158 2.118.61z"/><g fill="#005d63"><path d="M63.707 213.178c-.264-.68-.834-1.153-1.285-1.085-.042.004-.068.034-.106.048.401-.028.884.38 1.112.968.23.598.071 1.151-.372 1.204-.208.017-.431-.083-.63-.251.259.285.573.473.866.448.49-.053.67-.663.415-1.332M60.98 204.533c-.199-.774-.632-1.297-.98-1.193-.036.011-.059.05-.089.069.3-.015.643.416.811 1.064.181.69.052 1.347-.294 1.435-.133.027-.271-.048-.403-.168.194.27.42.434.631.391.383-.101.523-.829.324-1.598"/><path d="M60.663 204.159a34.972 34.972 0 0 0 2.484 4.096c.28.395.357.967.168 1.272-.182.302-.553.237-.827-.144a36.366 36.366 0 0 1-2.531-4.169h-.002c-.222-.428-.244-1.008-.054-1.303.135-.201.341-.213.53-.057.081.07.162.177.232.305"/></g><defs><path id="j" d="M59.964 204.224c-.127.194-.119.581.031.868a37.235 37.235 0 0 0 2.513 4.164c.186.261.427.306.552.105.127-.199.076-.582-.11-.847a34.991 34.991 0 0 1-2.48-4.113.629.629 0 0 0-.157-.206.274.274 0 0 0-.176-.075c-.066 0-.126.034-.173.104"/></defs><clipPath id="k"><use xlink:href="#j" overflow="visible"/></clipPath><linearGradient id="l" gradientUnits="userSpaceOnUse" x1="-290.592" y1="423.007" x2="-289.592" y2="423.007" gradientTransform="matrix(-4.5921 -1.9028 -2.1602 4.6965 -356.858 -2331.809)"><stop offset="0" stop-color="#004c51"/><stop offset="1" stop-color="#0d7d81"/></linearGradient><path clip-path="url(#k)" fill="url(#l)" d="M62.651 210.727l-4.916-2.037 2.639-5.736 4.916 2.037z"/><path d="M63.556 208.868a127.549 127.549 0 0 1-.141 4.741l.002-.003c-.015.399-.296.548-.616.341-.318-.207-.569-.691-.555-1.086.051-1.462.1-2.953.107-4.561.002-.479.268-.742.603-.587a.494.494 0 0 1 .111.069c.284.203.496.66.489 1.086" fill="#005d63"/><defs><path id="m" d="M62.442 208.406a115.925 115.925 0 0 1-.114 4.566c-.013.264.148.591.366.73.209.137.392.04.407-.223.069-1.473.124-3.037.141-4.688.006-.289-.135-.588-.321-.724-.026-.02-.052-.033-.075-.051a.288.288 0 0 0-.123-.028c-.158.002-.274.162-.281.418"/></defs><clipPath id="n"><use xlink:href="#m" overflow="visible"/></clipPath><linearGradient id="o" gradientUnits="userSpaceOnUse" x1="-290.462" y1="423.275" x2="-289.463" y2="423.275" gradientTransform="matrix(-2.596 -1.0757 -1.2212 2.655 -173.067 -1224.798)"><stop offset="0" stop-color="#004c51"/><stop offset="1" stop-color="#0d7d81"/></linearGradient><path clip-path="url(#n)" fill="url(#o)" d="M63.099 214.165l-3.044-1.262 2.409-5.238 3.044 1.262z"/><g fill="#005d63"><path d="M70.688 210.377c-.406-.713-1.165-.988-1.704-.634-.004.002-.004.005-.004.005.473-.213 1.074.026 1.409.612.363.637.231 1.419-.298 1.74-.489.267-1.101.025-1.447-.514.006.006.006.015.008.02.359.705 1.119 1.025 1.704.7.589-.353.735-1.223.332-1.929M66.317 201.42c-.334-.787-.926-1.138-1.339-.797-.002 0-.002.005-.004.007.353-.153.801.14 1.069.772.298.712.217 1.547-.191 1.868-.287.198-.638.073-.914-.261.321.523.792.742 1.168.485.45-.356.54-1.285.211-2.074"/><path d="M65.89 201.173a30.652 30.652 0 0 0 3.51 3.434c.39.318.556.972.357 1.449-.187.474-.647.603-1.032.288a30.93 30.93 0 0 1-3.583-3.513c-.318-.369-.412-1.033-.211-1.491.178-.385.507-.5.803-.307.052.038.107.088.156.14"/></g><defs><path id="p" d="M65.044 201.665c-.142.305-.081.754.134 1a30.899 30.899 0 0 0 3.56 3.517c.254.211.564.136.687-.183a.92.92 0 0 0-.232-.969 30.458 30.458 0 0 1-3.517-3.462c-.035-.035-.068-.073-.108-.093a.334.334 0 0 0-.195-.066c-.131 0-.254.088-.329.256"/></defs><clipPath id="q"><use xlink:href="#p" overflow="visible"/></clipPath><linearGradient id="r" gradientUnits="userSpaceOnUse" x1="-290.676" y1="423.169" x2="-289.676" y2="423.169" gradientTransform="matrix(-5.3558 -2.2193 -2.5195 5.4775 -420.739 -2758.004)"><stop offset="0" stop-color="#004c51"/><stop offset="1" stop-color="#0d7d81"/></linearGradient><path clip-path="url(#q)" fill="url(#r)" d="M68.808 208.012l-5.832-2.417 2.67-5.805 5.832 2.417z"/><path d="M69.969 205.11c.185 2.092.312 4.038.42 5.974.031.509-.281.855-.706.786-.417-.074-.779-.543-.813-1.054-.128-1.878-.247-3.734-.442-5.692-.052-.581.243-1.061.667-1.061a.723.723 0 0 1 .335.094c.284.161.499.529.539.953" fill="#005d63"/><defs><path id="s" d="M68.556 205.188c.172 1.972.316 3.866.428 5.719.015.338.256.659.536.711.276.053.49-.181.473-.52a173.251 173.251 0 0 0-.415-5.899c-.026-.284-.168-.536-.356-.639a.386.386 0 0 0-.219-.064c-.279-.001-.488.309-.447.692"/></defs><clipPath id="t"><use xlink:href="#s" overflow="visible"/></clipPath><linearGradient id="u" gradientUnits="userSpaceOnUse" x1="-290.751" y1="423.216" x2="-289.751" y2="423.216" gradientTransform="matrix(-3.6682 -1.52 -1.7256 3.7515 -265.123 -1820.79)"><stop offset="0" stop-color="#004c51"/><stop offset="1" stop-color="#0d7d81"/></linearGradient><path clip-path="url(#t)" fill="url(#u)" d="M69.771 212.19l-4.028-1.669 3.011-6.546 4.028 1.668z"/><g fill="#005d63"><path d="M77.493 206.878c-.399-.6-1.059-.794-1.629-.577.473-.104.991.1 1.31.58.44.676.306 1.608-.295 2.079-.574.461-1.343.277-1.75-.359.022.045.024.095.05.137.436.753 1.33.971 1.983.452.672-.531.82-1.562.331-2.312M72.192 197.613c-.377-.745-1.007-1.025-1.471-.679.396-.166.877.076 1.178.674.366.736.298 1.685-.171 2.12-.368.361-.861.241-1.205-.214.377.679 1.018.906 1.475.455.522-.481.6-1.544.194-2.356"/><path d="M71.691 197.422a28.539 28.539 0 0 0 4.137 3.082c.459.287.658.989.45 1.576-.2.585-.732.824-1.181.545a29.396 29.396 0 0 1-4.237-3.188v-.003c-.378-.341-.504-1.066-.273-1.623.202-.51.637-.699 1.005-.467.033.023.07.048.099.078"/></g><defs><path id="v" d="M70.721 198.164c-.156.366-.071.852.183 1.08a28.91 28.91 0 0 0 4.205 3.192c.296.189.651.025.787-.358.129-.395 0-.859-.301-1.047a29.084 29.084 0 0 1-4.14-3.124.403.403 0 0 0-.28-.116c-.181 0-.355.131-.454.373"/></defs><clipPath id="w"><use xlink:href="#v" overflow="visible"/></clipPath><linearGradient id="x" gradientUnits="userSpaceOnUse" x1="-290.513" y1="423.095" x2="-289.513" y2="423.095" gradientTransform="matrix(-5.8301 -2.5909 -2.9183 5.9721 -382.815 -3077.963)"><stop offset="0" stop-color="#004c51"/><stop offset="1" stop-color="#0d7d81"/></linearGradient><path clip-path="url(#w)" fill="url(#x)" d="M75.05 204.618l-6.425-2.855 2.914-5.965 6.426 2.855z"/><path d="M76.504 200.979c.263 2.282.496 4.569.658 6.776.048.589-.318 1.063-.805 1.054-.483-.006-.91-.482-.96-1.064a175.687 175.687 0 0 0-.672-6.445c-.071-.645.263-1.242.752-1.337.17-.029.335 0 .479.083.28.16.503.507.548.933" fill="#005d63"/><defs><path id="y" d="M75.375 200.468c-.327.055-.548.456-.499.883.258 2.203.488 4.383.655 6.486.032.39.319.711.638.716.33.002.566-.31.537-.701-.16-2.182-.384-4.432-.649-6.707-.034-.286-.174-.519-.366-.622a.456.456 0 0 0-.316-.055"/></defs><clipPath id="z"><use xlink:href="#y" overflow="visible"/></clipPath><linearGradient id="A" gradientUnits="userSpaceOnUse" x1="-290.641" y1="423.027" x2="-289.641" y2="423.027" gradientTransform="matrix(-4.3595 -1.9373 -2.1822 4.4656 -265.936 -2246.644)"><stop offset="0" stop-color="#004c51"/><stop offset="1" stop-color="#0d7d81"/></linearGradient><path clip-path="url(#z)" fill="url(#A)" d="M76.394 209.252l-4.818-2.142 3.591-7.348 4.818 2.14z"/><g fill="#005d63"><path d="M86.038 201.495c-.525-.565-1.282-.625-1.894-.237a1.3 1.3 0 0 1 1.553.3c.585.635.565 1.755-.06 2.485-.638.698-1.583.711-2.12.048a1.64 1.64 0 0 1-.234-.451c.067.243.174.474.331.673.6.736 1.649.724 2.351-.049.699-.812.724-2.061.073-2.769M78.775 192.645c-.467-.624-1.113-.772-1.589-.432.41-.182.908-.021 1.281.477.507.688.542 1.767.072 2.416-.456.563-1.16.508-1.625-.103.016.027.021.061.037.085.512.81 1.363.912 1.905.242.524-.719.485-1.918-.081-2.685"/><path d="M84.046 196.409c-.159.71-.743 1.138-1.296.958a32.74 32.74 0 0 1-4.599-1.921c-.224-.115-.448-.229-.67-.353-.478-.256-.713-1.016-.518-1.698.191-.693.741-1.04 1.225-.786.215.114.434.227.655.338a32.882 32.882 0 0 0 4.488 1.831c.029.011.058.021.087.034.503.229.777.91.628 1.597"/></g><defs><path id="B" d="M77.161 193.726c-.133.454.021.973.341 1.14.3.168.604.328.915.48a33.017 33.017 0 0 0 4.324 1.81c.364.124.751-.156.859-.63.108-.45-.081-.913-.416-1.067-.015-.01-.034-.012-.051-.021a33.425 33.425 0 0 1-4.258-1.755c-.305-.151-.6-.308-.897-.464a.457.457 0 0 0-.227-.062c-.251-.001-.494.218-.59.569"/></defs><clipPath id="C"><use xlink:href="#B" overflow="visible"/></clipPath><linearGradient id="D" gradientUnits="userSpaceOnUse" x1="-290.67" y1="423.111" x2="-289.67" y2="423.111" gradientTransform="matrix(-6.6036 -2.4779 -2.8477 6.7393 -630.918 -3375.271)"><stop offset="0" stop-color="#004c51"/><stop offset="1" stop-color="#0d7d81"/></linearGradient><path clip-path="url(#C)" fill="url(#D)" d="M82.794 199.442l-7.269-2.727 2.417-5.723 7.27 2.728z"/><g><path d="M84.15 195.089c.628 2.54 1.133 5.006 1.634 7.503.138.663-.214 1.31-.778 1.461-.552.153-1.111-.268-1.254-.925-.504-2.414-.995-4.753-1.597-7.131-.172-.7.133-1.459.68-1.724a.835.835 0 0 1 .695-.004c.286.127.523.416.62.82" fill="#005d63"/></g><g><defs><path id="E" d="M82.792 194.868c-.365.162-.569.67-.46 1.133a189.745 189.745 0 0 1 1.581 7.184c.089.44.464.712.834.627.374-.089.605-.526.519-.968 0-.001 0 0 0 0 0 .001 0 .001 0 0a196.292 196.292 0 0 0-1.601-7.426c-.066-.271-.224-.468-.414-.553a.548.548 0 0 0-.225-.051.548.548 0 0 0-.234.054"/></defs><clipPath id="F"><use xlink:href="#E" overflow="visible"/></clipPath><linearGradient id="G" gradientUnits="userSpaceOnUse" x1="-290.556" y1="423.042" x2="-289.556" y2="423.042" gradientTransform="matrix(-5.3839 -2.0202 -2.3217 5.4946 -495.663 -2711.06)"><stop offset="0" stop-color="#004c51"/><stop offset="1" stop-color="#0d7d81"/></linearGradient><path clip-path="url(#F)" fill="url(#G)" d="M84.923 204.91l-6.013-2.256 3.74-8.852 6.014 2.256z"/></g><g fill="#005d63"><path d="M94.089 194.024c-.546-.44-1.281-.398-1.94-.002.546-.266 1.133-.257 1.576.098.723.584.727 1.941-.025 2.996-.763 1.023-1.916 1.329-2.588.677-.303-.291-.445-.73-.463-1.201-.019.597.158 1.153.536 1.518.746.717 2.026.383 2.875-.757.835-1.175.831-2.682.029-3.329M85.064 186.155c-.479-.436-1.09-.469-1.618-.183a1.203 1.203 0 0 1 1.287.243c.637.58.709 1.786.125 2.658-.589.848-1.543 1.001-2.125.34a1.724 1.724 0 0 1-.284-.495c.085.29.203.558.393.771.646.73 1.705.562 2.355-.379.648-.967.567-2.306-.133-2.955"/><path d="M91.564 188.727c-.198.854-.887 1.505-1.565 1.455-2.306-.158-4.467-.434-6.517-.874v-.003c-.591-.124-.886-.893-.649-1.714.238-.834.915-1.408 1.514-1.281 1.98.395 4.079.654 6.331.791a.968.968 0 0 1 .372.104c.446.235.666.837.514 1.522"/></g><g><defs><path id="H" d="M83.081 187.888c-.161.551.034 1.063.433 1.155 2.049.454 4.176.721 6.469.895.451.036.914-.393 1.046-.962.101-.455-.049-.86-.346-1.019a.7.7 0 0 0-.238-.069c-2.27-.158-4.354-.411-6.351-.843a.525.525 0 0 0-.112-.011c-.368 0-.746.355-.901.854"/></defs><clipPath id="I"><use xlink:href="#H" overflow="visible"/></clipPath><linearGradient id="J" gradientUnits="userSpaceOnUse" x1="-290.626" y1="423.053" x2="-289.626" y2="423.053" gradientTransform="matrix(-6.7642 -3.4263 -3.8076 6.9518 -264.622 -3746.527)"><stop offset="0" stop-color="#004c51"/><stop offset="1" stop-color="#0d7d81"/></linearGradient><path clip-path="url(#I)" fill="url(#J)" d="M89.347 193.229l-7.687-3.894 3.043-5.557 7.688 3.895z"/></g><g><path d="M91.668 187.204a126.32 126.32 0 0 1 2.139 8.197c.172.754-.239 1.635-.928 1.977-.682.334-1.376 0-1.553-.747-.633-2.701-1.308-5.307-2.071-7.827-.222-.729.141-1.675.804-2.121.388-.261.797-.291 1.114-.124.226.121.406.342.495.645" fill="#005d63"/></g><g><defs><path id="K" d="M90.016 187.354c-.439.3-.68.916-.542 1.409a122.28 122.28 0 0 1 2.053 7.888c.12.5.572.725 1.031.507.459-.222.738-.809.623-1.313h.002-.002a124.851 124.851 0 0 0-2.097-8.13.715.715 0 0 0-.331-.438.592.592 0 0 0-.285-.069.856.856 0 0 0-.452.146"/></defs><clipPath id="L"><use xlink:href="#K" overflow="visible"/></clipPath><linearGradient id="M" gradientUnits="userSpaceOnUse" x1="-290.604" y1="423.138" x2="-289.605" y2="423.138" gradientTransform="matrix(-6.4936 -3.2892 -3.6552 6.6736 -245.865 -3585.777)"><stop offset="0" stop-color="#004c51"/><stop offset="1" stop-color="#0d7d81"/></linearGradient><path clip-path="url(#L)" fill="url(#M)" d="M92.436 198.947l-7.459-3.778 5.219-9.53 7.46 3.778z"/></g><g fill="#005d63"><path d="M100.906 183.989c-.658-.269-1.432-.039-2.059.525.536-.414 1.161-.572 1.701-.352.923.386 1.198 1.767.627 3.099-.553 1.326-1.805 1.988-2.678 1.532-.409-.218-.671-.634-.788-1.136.098.655.404 1.197.921 1.468.964.513 2.355-.218 2.97-1.695.636-1.478.332-3.016-.694-3.441M89.296 178.95c-.516-.229-1.091-.141-1.574.168.397-.192.84-.225 1.244-.048.827.372 1.137 1.536.693 2.618-.434 1.075-1.486 1.531-2.264 1.075-.344-.203-.562-.542-.693-.933.123.517.412.962.849 1.22.862.513 2.036 0 2.517-1.194.495-1.201.153-2.499-.772-2.906"/><path d="M96.952 179.371c-.013.911-.625 1.797-1.378 1.975a63.156 63.156 0 0 1-7.355 1.296c-.682.067-1.175-.595-1.088-1.502.074-.903.705-1.715 1.395-1.802a64.38 64.38 0 0 0 7.09-1.289.898.898 0 0 1 .586.019c.452.154.751.645.75 1.303"/></g><g><defs><path id="N" d="M95.535 178.908a63.801 63.801 0 0 1-7.129 1.258c-.459.06-.882.596-.934 1.198-.052.606.273 1.056.732 1.002 2.306-.262 4.798-.657 7.302-1.251.502-.117.919-.713.919-1.318.01-.442-.2-.766-.502-.873a.6.6 0 0 0-.213-.037.72.72 0 0 0-.175.021"/></defs><clipPath id="O"><use xlink:href="#N" overflow="visible"/></clipPath><linearGradient id="P" gradientUnits="userSpaceOnUse" x1="-290.616" y1="423.073" x2="-289.616" y2="423.073" gradientTransform="matrix(-7.5136 -2.561 -2.9807 7.654 -826.826 -3800.53)"><stop offset="0" stop-color="#004c51"/><stop offset="1" stop-color="#0d7d81"/></linearGradient><path clip-path="url(#O)" fill="url(#P)" d="M95.379 185.133l-9.173-3.127 2.271-5.832 9.173 3.127z"/></g><g><path d="M96.735 177.837c1.474 2.406 2.852 4.96 4.16 7.65v-.003c.353.73.09 1.775-.586 2.346-.673.56-1.509.434-1.867-.292-1.269-2.582-2.587-5.023-3.991-7.326-.396-.663-.219-1.728.409-2.384.421-.438.93-.574 1.345-.438.21.075.394.221.53.447" fill="#005d63"/></g><g><defs><path id="Q" d="M94.96 178.51c-.421.436-.539 1.145-.275 1.585 1.415 2.333 2.714 4.797 3.997 7.41.233.483.796.575 1.244.196.452-.378.62-1.076.389-1.566-1.309-2.671-2.647-5.203-4.11-7.615a.648.648 0 0 0-.569-.333c-.224.001-.465.109-.676.323"/></defs><clipPath id="R"><use xlink:href="#Q" overflow="visible"/></clipPath><linearGradient id="S" gradientUnits="userSpaceOnUse" x1="-290.635" y1="423.074" x2="-289.635" y2="423.074" gradientTransform="matrix(-7.8054 -2.6605 -3.0965 7.9513 -857.108 -3952.762)"><stop offset="0" stop-color="#004c51"/><stop offset="1" stop-color="#0d7d81"/></linearGradient><path clip-path="url(#R)" fill="url(#S)" d="M99.828 189.923l-8.808-3.002 4.118-10.576 8.808 3.002z"/></g><g fill="#005d63"><path d="M104.946 171.186c-.635-.011-1.229.358-1.68.939.387-.428.869-.688 1.377-.681 1.043.021 1.784 1.243 1.571 2.721-.205 1.482-1.207 2.595-2.243 2.476-.591-.068-1.067-.509-1.329-1.13.27.795.836 1.366 1.555 1.448 1.155.127 2.271-1.104 2.494-2.748.242-1.648-.587-3.007-1.745-3.025M91.698 170.939c-.529-.001-1.021.246-1.407.645.32-.275.701-.445 1.108-.443.954.006 1.645.976 1.47 2.17-.173 1.19-1.058 2.066-1.993 1.951-.435-.054-.801-.301-1.056-.651.281.492.735.842 1.289.912 1.041.124 2.025-.847 2.215-2.172.194-1.326-.569-2.4-1.626-2.412"/><path d="M99.615 168.343c.241.858-.129 1.92-.839 2.368-2.427 1.534-4.754 2.921-7.129 4.143-.682.345-1.377-.092-1.536-.985-.16-.891.25-1.896.93-2.25 2.256-1.186 4.479-2.525 6.843-4.018.246-.158.503-.216.746-.193.441.043.824.377.985.935"/></g><g><defs><path id="T" d="M98.042 168.438c-2.352 1.487-4.619 2.822-6.89 4-.457.235-.742.91-.625 1.503.108.599.567.888 1.025.655v.002c2.346-1.203 4.68-2.565 7.088-4.087.476-.294.729-1.007.558-1.579-.107-.37-.36-.596-.654-.626a.816.816 0 0 0-.502.132"/></defs><clipPath id="U"><use xlink:href="#T" overflow="visible"/></clipPath><linearGradient id="V" gradientUnits="userSpaceOnUse" x1="-290.588" y1="423.064" x2="-289.588" y2="423.064" gradientTransform="matrix(-7.9619 -.8365 -1.2753 8.0078 -1675.241 -3458.909)"><stop offset="0" stop-color="#004c51"/><stop offset="1" stop-color="#0d7d81"/></linearGradient><path clip-path="url(#U)" fill="url(#V)" d="M99.221 175.754l-9.834-1.033 1.17-7.344 9.833 1.033z"/></g><g><path d="M98.966 166.997c2.11 1.655 4.342 3.538 6.438 5.62 0 0 0-.002 0 0 .571.571.611 1.671.085 2.464-.521.791-1.415.979-1.981.41-1.992-1.977-4.143-3.805-6.197-5.431-.594-.464-.704-1.535-.247-2.379.338-.615.878-.944 1.378-.895a.975.975 0 0 1 .524.211" fill="#005d63"/></g><g><defs><path id="W" d="M97.352 168.288c-.307.558-.235 1.27.16 1.581 2.076 1.649 4.208 3.49 6.224 5.496.383.38.975.257 1.325-.266.344-.536.326-1.268-.055-1.646h-.004c-2.074-2.073-4.269-3.953-6.385-5.623a.718.718 0 0 0-.407-.148c-.318 0-.655.215-.858.606"/></defs><clipPath id="X"><use xlink:href="#W" overflow="visible"/></clipPath><linearGradient id="Y" gradientUnits="userSpaceOnUse" x1="-290.551" y1="423.065" x2="-289.55" y2="423.065" gradientTransform="matrix(-8.8677 -.9317 -1.4204 8.9189 -1869.934 -3871.8)"><stop offset="0" stop-color="#004c51"/><stop offset="1" stop-color="#0d7d81"/></linearGradient><path clip-path="url(#X)" fill="url(#Y)" d="M105.268 176.608l-9.486-.996 1.401-8.794 9.486.996z"/></g><g fill="#005d63"><path d="M105.996 158.847c-.436.061-.854.293-1.21.626.285-.227.607-.389.938-.434 1.008-.139 1.723.784 1.595 2.063-.11 1.292-1.061 2.386-2.061 2.442-.692.036-1.217-.416-1.44-1.104.204.87.83 1.456 1.657 1.415 1.114-.064 2.167-1.278 2.291-2.719.142-1.418-.656-2.439-1.77-2.289M93.25 160.992a2.373 2.373 0 0 0-.769.33c.164-.083.329-.154.498-.189.941-.197 1.598.477 1.457 1.511-.124 1.044-1.013 1.978-1.944 2.083-.566.063-1.015-.181-1.245-.603.216.585.754.943 1.464.864 1.035-.121 2.021-1.156 2.155-2.314.157-1.151-.574-1.897-1.616-1.682"/><path d="M100.814 157.343c.271.652-.057 1.585-.726 2.087a171.244 171.244 0 0 1-6.848 4.868c-.665.457-1.358.234-1.524-.488-.164-.726.235-1.664.901-2.113a169.555 169.555 0 0 0 6.517-4.628c.34-.26.71-.345 1.017-.286.291.054.531.251.663.56"/></g><g><defs><path id="Z" d="M99.316 157.709a162.886 162.886 0 0 1-6.583 4.65c-.445.299-.716.934-.599 1.413.118.479.569.625 1.014.33a169.592 169.592 0 0 0 6.806-4.808c.446-.336.665-.957.488-1.397a.606.606 0 0 0-.577-.388.943.943 0 0 0-.549.2"/></defs><clipPath id="aa"><use xlink:href="#Z" overflow="visible"/></clipPath><linearGradient id="ab" gradientUnits="userSpaceOnUse" x1="-290.55" y1="423.044" x2="-289.55" y2="423.044" gradientTransform="matrix(-6.5325 -1.5343 -1.897 6.6168 -995.95 -3083.277)"><stop offset="0" stop-color="#004c51"/><stop offset="1" stop-color="#0d7d81"/></linearGradient><path clip-path="url(#aa)" fill="url(#ab)" d="M100.076 166.291l-9.91-2.327 2.393-8.347 9.909 2.327z"/></g><g><path d="M100.151 156.379a41.738 41.738 0 0 1 6.331 3.595c.57.39.647 1.313.176 2.067-.475.752-1.321 1.043-1.893.645a41.405 41.405 0 0 0-6.113-3.517c-.578-.273-.714-1.123-.303-1.889.366-.686 1.047-1.069 1.597-.966.07.01.141.032.205.065" fill="#005d63"/></g><g><defs><path id="ac" d="M98.646 157.711c-.279.516-.184 1.081.202 1.263a41.504 41.504 0 0 1 6.136 3.571c.379.269.945.073 1.263-.425.317-.498.267-1.119-.111-1.386v.003a40.926 40.926 0 0 0-6.289-3.625.575.575 0 0 0-.134-.043.56.56 0 0 0-.129-.014c-.344.001-.717.256-.938.656"/></defs><clipPath id="ad"><use xlink:href="#ac" overflow="visible"/></clipPath><linearGradient id="ae" gradientUnits="userSpaceOnUse" x1="-290.577" y1="423.093" x2="-289.577" y2="423.093" gradientTransform="matrix(-8.3932 -1.9713 -2.4373 8.5014 -1301.018 -4008.78)"><stop offset="0" stop-color="#004c51"/><stop offset="1" stop-color="#0d7d81"/></linearGradient><path clip-path="url(#ad)" fill="url(#ae)" d="M106.048 164.618l-9.227-2.168 2.063-7.198 9.228 2.167z"/></g><g fill="#005d63"><path d="M104.64 147.511c-.305.063-.59.205-.85.395.191-.115.391-.203.603-.244.941-.191 1.691.546 1.637 1.646-.086 1.125-.931 2.14-1.888 2.268-.684.083-1.23-.282-1.455-.881.197.777.846 1.274 1.674 1.167 1.07-.137 2.002-1.265 2.095-2.518.064-1.224-.773-2.04-1.816-1.833M92.36 150.507c-.188.058-.37.145-.545.245.1-.046.191-.11.294-.14.898-.265 1.577.242 1.495 1.144-.122.925-.949 1.826-1.858 2.02-.633.133-1.127-.095-1.329-.531.155.607.751.944 1.545.776 1.003-.215 1.923-1.212 2.06-2.239.093-1.006-.659-1.566-1.662-1.275"/><path d="M99.615 146.659c.285.528.004 1.35-.629 1.837a329.352 329.352 0 0 1-6.504 4.861v-.006c-.649.472-1.338.368-1.524-.244-.191-.599.173-1.464.813-1.923a281.078 281.078 0 0 0 6.205-4.615c.372-.282.778-.387 1.106-.309a.756.756 0 0 1 .533.399"/></g><g><defs><path id="af" d="M98.189 147.089a301.242 301.242 0 0 1-6.279 4.651c-.425.311-.671.881-.55 1.284.126.41.579.484 1.013.176 2.174-1.544 4.303-3.151 6.478-4.81.425-.317.609-.87.43-1.229a.501.501 0 0 0-.359-.272.643.643 0 0 0-.147-.016.987.987 0 0 0-.586.216"/></defs><clipPath id="ag"><use xlink:href="#af" overflow="visible"/></clipPath><linearGradient id="ah" gradientUnits="userSpaceOnUse" x1="-290.634" y1="423.143" x2="-289.634" y2="423.143" gradientTransform="matrix(-5.7115 -1.6863 -2.0042 5.804 -713.715 -2794.989)"><stop offset="0" stop-color="#004c51"/><stop offset="1" stop-color="#0d7d81"/></linearGradient><path clip-path="url(#ag)" fill="url(#ah)" d="M98.699 155.712l-9.54-2.817 2.84-8.224 9.54 2.816z"/></g><g><path d="M98.913 145.899c2.133.623 4.182 1.482 6.256 2.532.57.289.694 1.073.274 1.756-.421.688-1.223 1.013-1.794.721-2.044-1.047-4.025-1.891-6.067-2.505-.577-.17-.749-.877-.376-1.568.356-.663 1.085-1.076 1.648-.954.019.006.04.009.059.018" fill="#005d63"/></g><g><defs><path id="ai" d="M97.521 147.162c-.254.463-.142.935.24 1.052a36.314 36.314 0 0 1 6.085 2.555c.38.198.914-.017 1.199-.475.274-.455.201-.982-.173-1.182v.002c-2.054-1.066-4.126-1.931-6.212-2.566-.013-.007-.031-.009-.045-.018a.553.553 0 0 0-.135-.015c-.348.001-.747.255-.959.647"/></defs><clipPath id="aj"><use xlink:href="#ai" overflow="visible"/></clipPath><linearGradient id="ak" gradientUnits="userSpaceOnUse" x1="-290.632" y1="423.069" x2="-289.631" y2="423.069" gradientTransform="matrix(-7.8521 -2.3182 -2.7553 7.9792 -1011.176 -3899.596)"><stop offset="0" stop-color="#004c51"/><stop offset="1" stop-color="#0d7d81"/></linearGradient><path clip-path="url(#aj)" fill="url(#ak)" d="M104.574 153.124l-8.701-2.569 2.139-6.197 8.702 2.57z"/></g><g fill="#005d63"><path d="M103.163 138.416c-.12-.83-.984-1.247-1.9-.953-.053.019-.099.044-.152.063.804-.242 1.561.129 1.666.859.089.771-.539 1.583-1.39 1.817-.778.209-1.428-.124-1.596-.726.101.771.899 1.202 1.828.953.947-.252 1.648-1.156 1.544-2.013M90.609 141.542c.574-.087 1.008.146 1.023.634.002.655-.673 1.439-1.521 1.767-.731.281-1.304.127-1.441-.308.022.637.751.864 1.662.516.938-.361 1.69-1.233 1.687-1.962-.019-.621-.641-.874-1.41-.647"/><path d="M96.569 137.711c.334.301.187.888-.331 1.324a378.51 378.51 0 0 1-5.486 4.54c-.569.455-1.235.531-1.495.163-.259-.368-.011-1.028.544-1.49a790.527 790.527 0 0 0 5.236-4.294c.386-.326.864-.464 1.22-.391a.61.61 0 0 1 .312.148"/></g><g><defs><path id="al" d="M95.306 138.257c-1.758 1.454-3.5 2.896-5.306 4.341-.371.305-.537.747-.369.992.173.251.618.205.992-.095 1.874-1.51 3.674-3.01 5.476-4.505.346-.288.448-.685.228-.888a.384.384 0 0 0-.211-.101.673.673 0 0 0-.129-.012c-.214.001-.47.093-.681.268"/></defs><clipPath id="am"><use xlink:href="#al" overflow="visible"/></clipPath><linearGradient id="an" gradientUnits="userSpaceOnUse" x1="-290.644" y1="422.983" x2="-289.644" y2="422.983" gradientTransform="matrix(-4.2092 -1.5794 -1.8151 4.2957 -360.534 -2134.352)"><stop offset="0" stop-color="#004c51"/><stop offset="1" stop-color="#0d7d81"/></linearGradient><path clip-path="url(#am)" fill="url(#an)" d="M95.578 146.136l-8.249-3.096 3.104-7.345 8.248 3.096z"/></g><g><path d="M102.371 139.129c-.291.527-.979.873-1.538.763-2.004-.389-3.941-.617-5.92-.66-.56-.009-.807-.444-.551-.972.251-.516.905-.934 1.459-.923 2.047.031 4.033.272 6.061.66a.17.17 0 0 1 .074.015c.498.135.679.618.415 1.117" fill="#005d63"/></g><g><defs><path id="ao" d="M94.696 138.421c-.18.349-.009.643.361.652 1.976.056 3.959.289 5.933.692.376.075.839-.148 1.03-.498.184-.337.067-.673-.271-.761-.014-.003-.029-.003-.041-.011h-.003a34.605 34.605 0 0 0-6.031-.688h-.016c-.364.001-.795.274-.962.614"/></defs><clipPath id="ap"><use xlink:href="#ao" overflow="visible"/></clipPath><linearGradient id="aq" gradientUnits="userSpaceOnUse" x1="-290.581" y1="423.083" x2="-289.581" y2="423.083" gradientTransform="matrix(-6.6368 -2.4903 -2.862 6.7732 -615.976 -3449.186)"><stop offset="0" stop-color="#004c51"/><stop offset="1" stop-color="#0d7d81"/></linearGradient><path clip-path="url(#ap)" fill="url(#aq)" d="M101.152 142.331l-7.377-2.768 1.793-4.245 7.378 2.768z"/></g><g fill="#005d63"><path d="M100.476 130.331c-.182-.551-.824-.792-1.534-.657.548-.034 1.014.197 1.154.64.217.605-.309 1.351-1.116 1.633-.755.272-1.448.047-1.681-.456.006.02.001.039.009.061.201.634 1.032.92 1.928.596.888-.314 1.472-1.14 1.24-1.817M89.981 134.822c-.084-.451-.593-.594-1.233-.41.447-.059.791.069.856.413.113.52-.495 1.275-1.307 1.669-.732.355-1.342.285-1.514-.097 0 .021-.006.044-.002.064.099.537.853.649 1.75.211.9-.43 1.574-1.267 1.45-1.85"/><path d="M93.935 130.556c.37.196.307.697-.15 1.116a331.94 331.94 0 0 1-4.913 4.476c-.514.461-1.178.614-1.477.347-.305-.262-.133-.849.377-1.3a372.823 372.823 0 0 0 4.681-4.234c.375-.345.897-.524 1.268-.47.081.013.15.034.214.065"/></g><g><defs><path id="ar" d="M92.754 131.177a622.325 622.325 0 0 1-4.737 4.275c-.345.303-.46.694-.255.869.2.18.641.073.988-.232a488.068 488.068 0 0 0 4.893-4.431c.302-.282.348-.615.102-.751a.595.595 0 0 0-.246-.052c-.24 0-.531.12-.745.322"/></defs><clipPath id="as"><use xlink:href="#ar" overflow="visible"/></clipPath><linearGradient id="at" gradientUnits="userSpaceOnUse" x1="-290.614" y1="423.124" x2="-289.614" y2="423.124" gradientTransform="matrix(-3.6694 -1.3769 -1.5823 3.7448 -304.276 -1850.298)"><stop offset="0" stop-color="#004c51"/><stop offset="1" stop-color="#0d7d81"/></linearGradient><path clip-path="url(#as)" fill="url(#at)" d="M93.11 138.585l-7.612-2.856 2.939-6.957 7.612 2.857z"/></g><g><defs><path id="au" d="M93.075 130.752c-.365.043-.761.326-.892.632-.132.301.074.522.44.477a36.695 36.695 0 0 1 5.91-.18c.369.022.799-.211.94-.523.134-.272.008-.518-.285-.573a.306.306 0 0 0-.109-.02h-.003a35.213 35.213 0 0 0-1.839-.049c-1.39 0-2.782.082-4.162.236"/></defs><clipPath id="av"><use xlink:href="#au" overflow="visible"/></clipPath><linearGradient id="aw" gradientUnits="userSpaceOnUse" x1="-290.609" y1="423.065" x2="-289.609" y2="423.065" gradientTransform="matrix(-6.2098 -2.3301 -2.6778 6.3374 -572.784 -3225.9)"><stop offset="0" stop-color="#004c51"/><stop offset="1" stop-color="#0d7d81"/></linearGradient><path clip-path="url(#av)" fill="url(#aw)" d="M98.573 134.354l-7.028-2.638 1.541-3.648 7.028 2.638z"/></g><g><defs><path id="ax" d="M89.901 126.76a219.606 219.606 0 0 1-3.295 3.428c-.24.257-.256.499-.029.552.226.054.612-.104.853-.358a285.946 285.946 0 0 0 3.389-3.538c.203-.224.161-.415-.09-.436-.005-.003-.013 0-.015-.006h-.011c-.254-.001-.607.149-.802.358"/></defs><clipPath id="ay"><use xlink:href="#ax" overflow="visible"/></clipPath><linearGradient id="az" gradientUnits="userSpaceOnUse" x1="-290.501" y1="423.178" x2="-289.501" y2="423.178" gradientTransform="matrix(-2.5031 -.9393 -1.0794 2.5546 -180.452 -1224.858)"><stop offset="0" stop-color="#004c51"/><stop offset="1" stop-color="#0d7d81"/></linearGradient><path clip-path="url(#ay)" fill="url(#az)" d="M90.383 132.306l-5.634-2.115 2.241-5.303 5.634 2.114z"/></g><g><defs><path id="aA" d="M95.354 125.188a41.34 41.34 0 0 0-5.26 1.267c-.32.102-.62.338-.653.538-.044.192.186.277.509.17a42.718 42.718 0 0 1 5.194-1.253c.327-.055.636-.265.699-.461.039-.151-.068-.254-.259-.269a.677.677 0 0 0-.23.008"/></defs><clipPath id="aB"><use xlink:href="#aA" overflow="visible"/></clipPath><linearGradient id="aC" gradientUnits="userSpaceOnUse" x1="-290.61" y1="423.159" x2="-289.61" y2="423.159" gradientTransform="matrix(-4.9708 -1.8652 -2.1435 5.0729 -442.398 -2561.53)"><stop offset="0" stop-color="#004c51"/><stop offset="1" stop-color="#0d7d81"/></linearGradient><path clip-path="url(#aB)" fill="url(#aC)" d="M94.995 129.372l-6.362-2.387 1.652-3.91 6.362 2.388z"/></g><g><defs><path id="aD" d="M116.693 23.121c-23.91 8.735-44.685 24.005-52.927 38.897-3.466 6.267-4.175 13.619-1.943 20.174 2.757 8.107 9.731 14.786 20.165 19.312 33.031 14.332 38.887 43.11 39.724 48.733 1.925 12.919-.465 27.7-3.823 35.625-3.098 7.31-7.308 13.907-12.513 19.61-5.244 5.743-11.486 10.52-18.557 14.204-7.162 3.725-15.032 6.031-23.407 6.861a55.984 55.984 0 0 1-5.044.237c-5.038 0-9.636-.77-13.664-2.288-5.283-1.993-9.739-4.886-13.242-8.597-3.488-3.694-6.006-8.012-7.483-12.836a38.992 38.992 0 0 1-1.568-14.644c.404-5.008 1.837-9.908 4.26-14.571a36.647 36.647 0 0 1 4.231-6.349l.126-.145c1.937-2.096 3.997-3.16 6.12-3.16.248 0 2.365-.15 3.891 1.463 1.525 1.616 1.957 3.44 2.012 3.578l.03.035.145.431.088.228c.286.728.648 1.358 1.085 1.87.535.628 1.392 1.35 3.296 1.35.666 0 1.413-.09 2.225-.268 3.653-.798 6.964-2.358 9.842-4.635 2.965-2.35 5.449-5.085 7.382-8.129 1.932-3.057 3.276-6.131 3.993-9.146.682-2.859.767-5.414.255-7.591-.415-1.762-1.303-2.963-2.789-3.781-.833-.459-1.934-.691-3.273-.691-1.143 0-2.462.171-3.925.503-8.422 1.917-15.9 5.562-22.228 10.833-6.471 5.381-11.626 11.642-15.325 18.607-3.717 6.992-5.988 14.426-6.749 22.09-.744 7.519.311 14.458 3.131 20.633 2.796 6.113 7.618 11.131 14.334 14.909 7.44 4.186 15.481 6.136 25.303 6.136 1.14 0 2.318-.028 3.506-.082 8.977-.402 40.083-3.599 63.436-27.812 21.46-22.244 30.537-48.852 25.56-74.926-3.439-18.008-15.017-29.534-24.124-36.03-8.85-6.314-19.084-9.031-26.559-11.016-2.61-.694-4.866-1.292-6.706-1.947-8.387-2.976-12.136-10.287-9.785-19.08 2.264-8.471 12.97-21.405 26.967-28.387 12.792-6.377 29.205-10.189 37.683-10.189.376 0 .732.009 1.067.024 2.524.114 4.631 1.234 5.93 3.152 1.337 1.975 1.636 4.59.797 6.997-1.691 4.843-6.543 18.224-9.385 26.041l19.407-4.428c1.743-1.521 7.317-6.877 9.642-14.949 2.419-8.404.48-13.957-6.689-19.169-2.553-1.856-9.324-4.023-20.005-4.023-7.565.001-19.593 1.099-33.92 6.336"/></defs><clipPath id="aE"><use xlink:href="#aD" overflow="visible"/></clipPath><linearGradient id="aF" gradientUnits="userSpaceOnUse" x1="-290.612" y1="423.087" x2="-289.612" y2="423.087" gradientTransform="scale(209.432 -209.432) rotate(-86.047 -371.694 55.69)"><stop offset="0" stop-color="#0e7c80"/><stop offset="1" stop-color="#004c50"/></linearGradient><path clip-path="url(#aE)" fill="url(#aF)" d="M178.95 5.551l15.618 226.032-177.433 12.261L1.517 17.811z"/></g></svg>