<svg xmlns="http://www.w3.org/2000/svg" viewBox="0 0 532.238 332.005"><path d="M528.589 224.992c0-.001 0-.001 0 0-3.271-6.981-7.724-12.981-13.261-17.879.032-9.069-1.987-17.394-4.05-24.497-1.202-4.139-.448-6.24 1.055-8.123 2.849-3.568 6.194-8.511 6.792-15.113.648-7.157-3.708-13.262-10.593-14.846-4.773-1.099-9.521-1.478-13.976-1.569 9.336-13.434 13.408-29.076 12.425-47.594l-.008-.13a13.485 13.485 0 0 0-.111-1.045c-2.807-18.694-11.473-35.702-26.467-51.916-3.244-11.785-12.075-26.465-35.058-34.997C430.44 1.753 414.703.632 406.165.024a12.38 12.38 0 0 0-10.924 5.279c-36.292 1.201-76.336 10.965-114.003 27.919-9.964 4.485-19.641 9.556-29.002 14.461-7.085 3.712-14.411 7.552-21.729 11.054-.08.038-.16.078-.238.118-13.971 7.151-32.506-4.864-36.092-7.353-5.037-3.487-11.959-2.714-16.1 1.795-4.143 4.511-4.326 11.474-.419 16.201l3.945 4.767c2.044 2.648 4.389 4.201 5.807 5.14.227.15.524.347.676.458l.166.172c3.564 3.599 6.763 6.248 9.76 8.242a12.328 12.328 0 0 0-1.42 4.774c-.53 6.212 3.674 11.852 9.776 13.119 14.754 3.068 25.553 4.169 40.331 1.202.138-.028.274-.058.411-.092 9.949-2.436 18.763-5.428 26.775-9.097l6.851 5.682c.071.059.144.118.217.175 10.277 8.051 22.55 12.362 37.223 13.028.157.625.366 1.242.624 1.845-9.542 5.371-14.915 14.237-15.533 25.667-.015.267-.034.636-.041 1.086a12.779 12.779 0 0 0-.295-.063c-5.397-1.102-10.472-1.16-15.381-1.216-.739-.009-1.48-.017-2.219-.029-1.674-1.393-3.78-2.348-6.305-2.855-6.455-1.295-13.024-2.038-18.818-2.694-5.721-.648-10.864 1.753-14.117 6.589a27.932 27.932 0 0 0-2.02 3.535c-2.422-2.458-5.666-4.718-10.013-5.901-9.456-2.575-17.79-2.483-25.483.278a55.954 55.954 0 0 0-9.458 4.415c.173-15.248-5.137-28.794-15.845-40.305-9.786-10.521-22.558-18.127-37.962-22.61-30.901-8.991-59.876-4.4-86.122 13.643-16.082 11.054-25.449 25.859-27.843 44.002-.73 5.532.265 10.868 2.958 15.859 5.759 10.673 15.951 16.663 28.698 16.867a37.244 37.244 0 0 0 5.286-.277c-2.222 8.647-3.676 17.931-4.392 27.97-.788 11.048-1.787 22.302-2.752 33.186-.371 4.187-.742 8.373-1.104 12.562-8.969-9.632-24.492-13.457-36.046-8.484-11.333 4.877-19.079 14.058-22.399 26.549l-.051.191c-.958 3.599-2.27 8.528-1.047 14.153 2.514 11.564 8.477 20.703 17.726 27.163 8.915 6.227 19.383 9.267 31.947 9.267.709 0 1.425-.01 2.147-.029 20.581-.55 38.216-9.824 51.001-26.82 7.668-10.193 12.754-22.188 16.493-38.895 2.551-11.395 4.025-22.173 4.468-32.716 4.978-.166 9.687-.571 14.242-1.222 12.238-1.747 22.768-5.393 31.909-11.076.273 6.633 1.776 12.617 4.567 18.125 1.789 3.532 4.046 7.431 7.177 10.896-1.316.04-2.637.1-3.962.183-18.583 1.174-32.602 6.011-44.117 15.225-9.03 7.225-14.933 16.618-17.544 27.918-.871 3.77-.312 7.206 1.664 10.216 3.824 5.826 11.836 8.233 18.237 5.491 3.542-1.519 6.428-2.455 9.083-2.947 5.653-1.048 9.81-.822 13.476.73 7.438 3.15 14.02 8.508 20.119 16.379 3.087 3.985 7.821 6.343 12.708 6.343.09 0 .181-.001.271-.003 4.8-.086 9.202-2.427 12.076-6.424.629-.876 1.643-1.742 3.013-2.577a39.83 39.83 0 0 1 4.797-2.471c.085.082.164.171.252.25v9.879a9.986 9.986 0 0 0-3.336 7.456v.55a10.001 10.001 0 0 0 10.44 9.99l17.139-.764c3.851-.171 7.037-.59 9.762-1.287a28.682 28.682 0 0 0 5.343-1.974 9.993 9.993 0 0 0 6.788 2.287 9540.133 9540.133 0 0 1 23.322-.969c3.677.945 7.499-.301 9.941-3.044h9.755a9.995 9.995 0 0 0 6.452 2.125c4.408-.128 8.821-.252 13.254-.356a9.997 9.997 0 0 0 9.74-10.704 9.944 9.944 0 0 0-.712-3.538c.087-.027.166-.056.252-.084.317 1.579.812 3.03 1.505 4.371 1.393 2.685 3.512 4.899 6.318 6.595 2.08 1.249 4.506 2.161 7.183 2.705 2.213.456 4.65.679 7.433.679h.196c5.574-.015 10.111-.905 13.8-2.676a9.995 9.995 0 0 0 6.154 2.128h.008a11851.84 11851.84 0 0 1 23.312.011c.96.292 1.938.433 2.901.433 1.419 0 2.812-.307 4.088-.878.95.309 1.961.482 3.012.491 6.121.053 12.247.104 18.362.2.391.006.775.009 1.154.009 4.477 0 8.128-.443 11.197-1.362a9.942 9.942 0 0 0 5.311 1.741c7.035.23 13.506.479 19.79.761l.215.011c1.098.392 2.23.58 3.348.58.797 0 1.585-.111 2.352-.297l.081.009c3.488.208 6.973.421 10.487.654a9.982 9.982 0 0 0 6.674-1.988 9.965 9.965 0 0 0 6.287 3.006c3.977.359 7.954.763 11.973 1.169a10.002 10.002 0 0 0 11.007-9.949v-.528c0-3.722-2.049-7.029-5.156-8.75l-1.302-2.887a1463.98 1463.98 0 0 1-2.833-6.3 619.11 619.11 0 0 0-2.564-5.698 9.997 9.997 0 0 0 .204-2.013v-.546c0-4.298-2.72-7.992-6.573-9.396 3.884-1.124 7.777-2.569 11.587-4.488 6.877-3.462 14.536-8.214 19.201-17.206 2.56-4.935 3.459-9.883 4.251-14.248l.179-.98c1.55-8.437.562-16.503-2.939-23.975z" fill="#fff"/><path d="M479.164 318.598v.536c-3.537-.235-7.044-.449-10.555-.658v-.534c2.132-.196 3.877-1.606 5.262-4.242.026-.052.058-.1.089-.149 1.437-2.756 2.9-5.518 4.337-8.284 1.442-2.761 2.905-5.536 4.374-8.313.115-.214.214-.402.256-.577.047-.168.063-.329.063-.481 0-.285-.125-.525-.344-.752-.209-.207-.575-.415-1.098-.598v-.538c3.741.188 7.482.4 11.245.622v.546c-.486.115-.831.272-1.061.465a.902.902 0 0 0-.345.737c0 .154.026.308.083.483.057.172.141.366.261.627a838.836 838.836 0 0 1 4.279 9.45c1.416 3.177 2.874 6.385 4.316 9.591.773 1.725 1.41 2.835 1.954 3.323.544.494 1.238.812 2.163.972v.528c-4.034-.408-8.057-.815-12.081-1.178v-.544c.773-.125 1.317-.379 1.661-.724.371-.358.523-.841.523-1.471 0-2.189-1.264-4.164-3.825-5.91-2.581-1.753-6.009-2.926-10.293-3.55a597.367 597.367 0 0 0-3.135 6.087 8.787 8.787 0 0 0-.575 1.379c-.126.402-.199.763-.199 1.063 0 .606.225 1.077.627 1.403.429.341 1.098.558 2.018.691m2.152-12.512c2.273.254 4.18.617 5.696 1.118a15.235 15.235 0 0 1 4.112 2.059c-.914-1.985-1.865-3.971-2.764-5.949-.888-1.97-1.808-3.94-2.696-5.902-.752 1.453-1.468 2.9-2.189 4.345-.716 1.445-1.438 2.887-2.159 4.329zm-11.474 3.096c.261.016.523.026.784.045-.867 1.586-1.698 3.169-2.535 4.758-.83 1.589-1.667 3.174-2.503 4.76a5.32 5.32 0 0 0-1.176-.379c-.433-.091-1.066-.162-1.954-.201-6.641-.298-13.288-.549-19.903-.766v-.507c1.264-.032 2.126-.303 2.623-.807.481-.504.716-1.641.716-3.415v-7.574-7.582c0-1.764-.235-2.911-.716-3.446-.496-.533-1.358-.854-2.623-.959v-.504c4.259.102 8.543.214 12.823.345v.51c-1.29.036-2.142.313-2.613.812-.481.517-.747 1.643-.747 3.415v14.401c0 1.724.288 2.824.831 3.3.549.476 1.589.75 3.109.813 2.931.117 5.466-.361 7.618-1.435 2.159-1.082 4.259-2.945 6.266-5.584zm-54.081 4.178c0 .883.314 1.414.972 1.589.669.178 2.106.285 4.29.314 3.736.052 6.672-.458 8.825-1.529 2.153-1.074 3.25-2.537 3.25-4.392 0-1.492-.758-2.871-2.247-4.17-1.474-1.288-3.595-2.396-6.323-3.297-.198.042-.397.086-.575.131-3.94.925-6.672 1.51-8.193 1.766v4.797l.001 4.791zm0-11.474c4.713-.883 8.078-1.753 10.121-2.602 2.038-.844 3.072-1.818 3.072-2.902 0-.818-.569-1.437-1.667-1.848-1.118-.415-2.874-.629-5.236-.661-2.905-.031-4.682.055-5.346.275-.632.209-.945.716-.945 1.5l.001 6.238zm-9.489 14.92v-.504c1.265-.063 2.142-.361 2.613-.865.481-.52.721-1.654.721-3.412v-7.548-7.55c0-1.761-.24-2.889-.721-3.42-.47-.52-1.348-.828-2.613-.912v-.507c6.929.058 13.889.128 20.849.225 3.135.044 5.351.35 6.667.925 1.296.567 1.955 1.494 1.955 2.761 0 .948-.57 1.782-1.667 2.492-1.118.723-3.224 1.57-6.354 2.542 3.914 1.006 6.819 2.265 8.742 3.786 1.902 1.502 2.874 3.294 2.874 5.335 0 2.404-1.207 4.172-3.626 5.298-2.414 1.126-6.061 1.633-10.983 1.554-6.152-.095-12.307-.148-18.457-.2zm-33.389-.057v-.507c1.264-.073 2.132-.376 2.618-.893.486-.512.721-1.657.721-3.42v-7.556-7.564c0-1.761-.229-2.908-.721-3.425-.486-.517-1.354-.815-2.618-.885v-.509c7.158.005 14.348.018 21.538.039.805 0 1.463-.05 2.012-.17.522-.12.951-.308 1.27-.564l1.379 4.052c.46 1.348.92 2.696 1.411 4.039h-.753c-1.087-1.717-2.816-3.083-5.141-4.073-2.33-.988-5.005-1.49-7.994-1.497-1.73-.003-2.879.172-3.428.528-.543.355-.831 1.131-.831 2.323v2.197c1.291 0 2.587.003 3.882.003 2.101.003 3.506-.154 4.228-.478.716-.324 1.207-.938 1.437-1.842.23 0 .491.003.747.003.319 1.434.663 2.868.977 4.306.314 1.434.659 2.866 1.003 4.298h-.742c-.867-1.688-1.902-2.848-3.078-3.451-1.176-.606-2.963-.912-5.376-.914-1.035-.003-2.07 0-3.078 0v10.471c0 1.641.402 2.691 1.176 3.122.805.444 2.247.666 4.378.666 3.187.011 6.03-.632 8.564-1.891 2.556-1.27 4.661-3.132 6.385-5.594.225 0 .455 0 .716.005-.742 1.607-1.526 3.208-2.242 4.815-.716 1.599-1.494 3.206-2.215 4.81a5.916 5.916 0 0 0-1.207-.321c-.408-.071-1.066-.11-1.928-.11-7.707-.013-15.409-.019-23.09-.013zm-35.479-23.987v-.523c4.452-.083 8.915-.146 13.398-.201v.512c-1.469.165-2.508.575-3.104 1.244-.606.674-.972 2.158-1.155 4.457-.105 1.374-.225 2.748-.314 4.12-.089 1.374-.147 2.751-.256 4.123-.036.384-.073.768-.089 1.137-.016.379-.026.758-.026 1.163 0 2.148.747 3.736 2.242 4.776 1.499 1.039 3.793 1.541 6.84 1.533a13.824 13.824 0 0 0 3.563-.465c1.155-.306 2.106-.708 2.853-1.228a4.292 4.292 0 0 0 1.547-1.915c.318-.776.496-1.845.496-3.206 0-.556-.016-.982-.031-1.28-.016-.28-.016-.556-.031-.81-.099-1.737-.214-3.483-.314-5.223-.099-1.747-.287-3.19-.517-4.319-.23-1.126-.512-1.951-.868-2.451-.711-1.016-1.922-1.57-3.678-1.68v-.525c3.971-.016 7.932-.016 11.904-.016v.525c-1.118.086-2.007.421-2.675 1.006-.659.588-1.003 1.33-1.003 2.218 0 .172.021.491.057.948.021.266.047.48.057.648.136 2.048.293 4.096.434 6.145.031.468.099 1.251.198 2.333.104 1.081.141 1.891.141 2.437 0 1.5-.34 2.814-.914 3.94-.58 1.129-1.468 2.074-2.649 2.824-2.383 1.518-5.926 2.273-10.608 2.286-2.1.008-3.971-.141-5.58-.473-1.609-.327-2.958-.826-4.055-1.484-1.202-.726-2.058-1.601-2.591-2.628-.533-1.032-.799-2.432-.799-4.222 0-.509.015-.896.026-1.176.021-.277.021-.528.031-.755.052-1.628.172-3.25.23-4.872.052-1.623.178-3.248.256-4.875.005-.107.016-.267.037-.486.01-.217 0-.373 0-.47 0-1.16-.23-1.967-.669-2.395-.45-.441-1.266-.665-2.384-.697zm-16.647 23.987c0 .178 0 .35.023.528-4.452.105-8.882.23-13.309.358v-.499c1.26-.112 2.124-.431 2.613-.964.489-.53.721-1.669.721-3.42v-7.514-7.514c0-1.753-.233-2.884-.721-3.378-.488-.499-1.353-.771-2.613-.802v-.504c6.869-.214 13.743-.421 20.645-.598 2.788-.071 4.891.23 6.294.902 1.385.663 2.075 1.716 2.075 3.125 0 1.941-1.583 3.678-4.776 5.225-3.219 1.562-8.138 2.981-14.779 4.296v6.588c0 1.868.282 3.033.805 3.456.539.437 1.551.667 3.022.715zm-3.828-12.776c4.802-1.165 8.165-2.255 10.121-3.263 1.954-1.011 2.905-2.158 2.905-3.435 0-1.137-.604-1.926-1.813-2.38-1.207-.449-3.305-.64-6.299-.559-2.239.063-3.652.178-4.138.33-.517.162-.776.561-.776 1.217v8.09zm-59.063 15.553v-.507c1.264-.128 2.124-.465 2.615-1.003.488-.538.721-1.685.721-3.454v-7.568-7.579c0-1.764-.229-2.908-.721-3.41-.488-.504-1.351-.771-2.615-.81v-.507c7.161-.217 14.349-.447 21.538-.692.805-.026 1.465-.108 2.014-.246.543-.139.948-.342 1.262-.606.462 1.327.922 2.655 1.382 3.974.46 1.322.922 2.649 1.408 3.966l-.719.026c-1.121-1.662-2.817-2.958-5.147-3.851-2.354-.896-5.003-1.293-7.994-1.191-1.753.06-2.879.264-3.449.643-.551.371-.833 1.16-.833 2.351v2.195c1.293-.047 2.586-.086 3.908-.133 2.072-.073 3.475-.293 4.199-.64.747-.358 1.21-.978 1.439-1.889.227-.01.489-.021.747-.028.316 1.418.661 2.837.974 4.251.319 1.418.663 2.832 1.009 4.246-.261.01-.52.016-.745.026-.867-1.643-1.894-2.769-3.054-3.315-1.199-.569-2.989-.791-5.374-.705l-3.103.11v10.469c0 1.638.402 2.657 1.204 3.07.781.397 2.244.569 4.342.483 3.193-.128 6.066-.878 8.598-2.244 2.532-1.361 4.658-3.313 6.385-5.837.227-.003.46-.013.687-.024-.747 1.628-1.521 3.258-2.241 4.88-.719 1.628-1.494 3.258-2.213 4.886a6.62 6.62 0 0 0-1.181-.269c-.431-.055-1.061-.063-1.952-.023-7.705.304-15.412.628-23.091.955zm-39.047 1.737v-.549c1.295-.133 2.165-.454 2.646-.982.465-.52.69-1.672.69-3.443v-8.052-8.055c0-1.771-.225-2.915-.69-3.404-.483-.509-1.351-.787-2.646-.852v-.554c4.543-.024 9.115-.065 13.687-.12 2.701-.036 5.147.133 7.331.52 2.187.387 4.172.988 5.923 1.813 2.646 1.243 4.719 2.853 6.184 4.81 1.465 1.957 2.184 4.102 2.184 6.432a8.618 8.618 0 0 1-1.296 4.606c-.881 1.442-2.155 2.696-3.851 3.791-1.583 1.024-3.337 1.784-5.32 2.296-1.983.507-4.543.839-7.707.98-5.721.256-11.443.512-17.135.763zm9.488-5.86c0 1.769.316 2.817.948 3.115.659.306 2.216.402 4.63.295 4.227-.18 7.561-1.196 9.949-3.017 1.207-.917 2.1-1.975 2.704-3.177.604-1.199.917-2.547.917-4.047 0-1.604-.4-3.088-1.118-4.452-.721-1.359-1.813-2.605-3.279-3.742-2.934-2.276-6.382-3.375-10.351-3.307-1.641.026-2.793.277-3.452.776-.635.478-.948 1.437-.948 2.863v14.693z" fill="#025541"/><path d="M496.906 95.247a2.386 2.386 0 0 0-.023-.222c-2.603-17.337-11-33.196-25.664-48.462-6.975-33.026-49.64-36.064-65.77-37.213a2.344 2.344 0 0 0-2.425 1.751 2.332 2.332 0 0 0 1.297 2.695c.56.254 1.087.503 1.595.753-37.667-.585-80.112 8.887-120.661 27.138-9.691 4.362-19.235 9.363-28.465 14.199-7.172 3.758-14.588 7.644-22.054 11.217-18.566 9.5-40.163-3.746-46.338-8.033a2.331 2.331 0 0 0-3.124 3.399l4.074 4.924c1.04 1.393 2.342 2.258 3.492 3.019.871.577 1.694 1.123 2.429 1.933 8.884 8.973 14.343 10.563 21.793 11.987 9.766 1.273 17.486.239 25.727-3.43l28.285-11.341c-14.391 11.06-33.457 20.555-62.366 21.554a2.33 2.33 0 0 0-.394 4.61c13.767 2.862 23.149 3.832 36.328 1.188 11.3-2.766 20.954-6.257 29.6-10.717l.951-.543c.084.099.18.192.282.277l11.555 9.583c11.662 9.135 26.804 12.536 46.162 10.335l-4.953 6.103a2.33 2.33 0 0 0 2.4 3.722c9.876-2.587 15.734.364 25.084 12.64a2.331 2.331 0 0 0 3.628.097c1.606 5.249 4.539 9.815 9.362 12.89 4.122 2.746 9.048 3.824 14.185 3.824 11.05 0 23.071-4.989 30.139-9.108a2.328 2.328 0 0 0 .971-2.919 2.328 2.328 0 0 0-2.771-1.338c-8.119 2.261-22.095 3.091-29.238.647-1.724-.526-3.017-1.5-4.179-3.157-.894-1.286-1.283-2.697-1.656-4.707-1.176-6.281.016-12.693 3.569-19.459 2.487-4.022 5.151-5.776 8.688-5.654l4.084.143c.94.048 1.818-.51 2.207-1.373a2.329 2.329 0 0 0-.437-2.562l-3.267-3.432c3.74-1.975 6.252-4.84 7.357-8.423.346-.427 1.046-.895 3.037-.338 2.6 1.578 5.189 1.338 7.282 1.142l.318-.03c.375 4.156-1.21 10.72-4.73 19.559a2.326 2.326 0 1 0 2.984 3.041l5.897-2.22-15.472 22.082a2.331 2.331 0 0 0 3.447 3.086c6.95-6.114 12.492-7.523 17.982-4.565a18.637 18.637 0 0 1 5.421 4.392c.057.067.118.131.184.191a35.946 35.946 0 0 0 4.518 3.554c6.936 4.54 20.004 2.327 27.559-.652 3.276-1.292 9.38-6.271 11.939-8.499 3.931-3.422 6.77-7.922 6.77-7.922 2.589 4.573 3.042 15.963 2.91 22.395-.021.986.243 3.352 1.167 3.702.917.347 2.275-.458 2.912-1.211 10.93-12.9 15.394-27.813 14.416-46.242zm-192.974-7.015c-7.824-1.202-15.798-3.407-23.517-5.554l12.235-6.969c4.334-2.773 9.259-4.944 14.742-6.502.166.193.364.36.594.495 8.711 5.08 19.547 10.1 34.898 10.364-11.373 7.773-24.163 10.449-38.952 8.166zm13.709-21.137a93.757 93.757 0 0 1 10.13-.804 2.327 2.327 0 0 0 2.077-1.412c1.599-3.735 4.923-8.376 9.685-11.019 3.308 4.081 9.853 5.136 15.882 5.982-12.733 8.458-24.466 9.524-37.774 7.253zm40.392 54.779c-3.576-9.212-3.767-13.65-3.383-17.025.014-.121.018-.242.014-.364-.221-5.222 3.055-7.895 6.85-10.992.111-.092.225-.184.337-.275-2.662 7.757-4.93 18.756-3.818 28.656z" fill="#eecf3d"/><path d="M412.185 13.987c2.527.893 8.589 3.53 12.437 6.147.85.575 1.621 1.613 2.548 2.224 10.98 7.225 22.903 18.227 19.69 26.961-1.071 2.92-4.255 3.984-6.604 6.725-1.4 2.624-4.091 2.32-7.811-.892-.072-.14-.142-.278-.214-.414 1.456-4.729.849-8.792-1.82-12.19-4.812-5.647-10.209-8.768-16.049-9.991-7.582-.325-14.15 1.056-19.248 4.929-4.676 3.876-9.609 7.899-15.934 10.448-8.689 5.397-17.377 5.697-26.059 3.676l-9.081-6.329 11.709-6.133c-5.283-6.857-15.499-.45-16.349 7.728-1.157 11.323 13.036 15.093 23.288 14.093-10.309 8.414-18.32 12.583-31.684 12.547-6.368-.432-13.45-3.227-19.633-4.605 14.9 9.545 32.212 11.152 45.377 7.235-6.711 7.143-14.578 12.412-23.003 15.86-16.363 5.95-33.993 1.535-52.648-5.533 14.938 13.233 28.418 17.146 47.807 16.781 4.94-.314 9.409-1.089 14.086-2.392l-8.553 9.938c6.94-.464 13.829 2.613 21.411 11.747-4.07-12.29-5.911-21.881 4.141-29.153 2.527-1.828 5.347-3.023 8.167-3.174a43.862 43.862 0 0 1-1.299 7.629l-1.142 4.366-1.328 5.104c-3.434 12.669-1.671 27.572 9.445 33.197 8.846 4.48 21.653 1.653 34.74-4.708-8.403 1.474-14.171 4.244-20.982 3.544-4.669-.482-8.468-.935-11.737-5.597-8.681-12.401-1.293-38.891 12.693-38.155-2.235-2.72-4.776-4.623-6.768-5.744 5.54 1.757 12.679-3.462 13.165-7.55 1.835-3.209 4.812-3.494 8.353-2.456 6.012 4.12 10.48 3.773 13.514-1.139 8.175-6.511 18.241-.129 15.135 11.301-3.748 11.677-4.676 22.175-2.962 30.431 1.099 5.297 3.269 8.3 6.475 11.48-1.135-3.783-1.921-6.175-2.385-9.955-1.377-11.341.236-22.76 4.805-34.814 3.883-3.299 7.717-4.99 12.308-3.777-10.802-9.406 6.896-39.694 17.263-33.608a14.33 14.33 0 0 0-.328-2.331c-3.212-24.277-39.829-32.398-54.936-33.451" fill-rule="evenodd" clip-rule="evenodd" fill="#025541"/><path d="M327.05 62.109c-9.002.411-18.105 2.114-25.937 5.026-3.598 1.335-6.743 3.077-10.048 5.137-25.776 16.099-51.945 26.911-79.413 20.9 22.839-.667 43.956-6.775 61.144-24.395-9.616 4.423-18.258 5.818-27.682 10.374-3.481 1.646-6.95 2.545-10.488 3.727-5.415 1.46-10.359 1.942-15.228 1.574-10.302-.339-23.202-11.155-29.863-20.347 10.655 6.772 18.083 10.773 28.289 13.525 3.484-.093 7.332-.703 11.548-1.828a117.443 117.443 0 0 0 15.592-6.879c15.482-8.221 30.859-15.674 46.101-22.189 15.318-6.543 30.674-12.147 45.652-16.377 21.296-4.99 43.742-9.352 71.57-9.67 18.041 1.139 45.884 7.064 55.914 28.396-15.192 4.687-21.424 15.899-18.697 33.629-10.602-1.388-15.82 11.148-15.463 28.086l13.622 18.53 4.74 2.72c-3.119 1.196-6.183 1.553-9.181 1.314-1.956-.157-3.791-.531-5.655-1.453-2.184-1.092-4.512-2.855-6.653-5.354-7.725-7.153-16.321-8.96-24.923-1.642l20.497-28.247-12.958 4.751c2.442-7.239 5.291-13.629 4.07-21.989.764-5.811 2.605-8.099 2.22-13.525-.878-5.633-2.549-10.956-5.219-15.999-3.277-5.433-7.832-9.245-13.871-11.105-12.152-2.11-23.945-.828-35.525 2.488-8.431 2.648-15.985 6.55-23.388 10.005-5.769 2.636-8.589 6.145-10.767 10.817" fill-rule="evenodd" clip-rule="evenodd" fill="#00834b"/><path d="M325.808 59.335c-11.523.529-21.761 3.084-30.734 7.672-27.008 17.405-54.084 31.594-83.229 26.122 22.835-.664 44.531-8.803 61.726-26.423-9.62 4.427-18.259 5.822-27.686 10.374a96.13 96.13 0 0 1-10.638 4.277c-5.412 1.463-10.359 1.942-15.228 1.578-10.298-.336-23.107-10.873-30.767-19.233 13.097 8.328 26.861 13.772 40.889 10.035a118.572 118.572 0 0 0 15.596-6.882c15.478-8.221 30.856-15.678 46.102-22.185 15.321-6.547 30.67-12.151 45.648-16.384 20.133-4.712 41.286-8.871 67.052-9.574 3.098-.086 6.111-.018 9.224.3 5.297.55 11.152 1.518 17.013 3.116 13.871 3.791 27.736 11.141 34.189 24.891-15.192 4.683-21.418 15.892-18.69 33.626-10.594-1.388-15.821 11.148-15.457 28.086l-4.062-6.7 6.082 28.496-1.885-1.684-2.47-2.756c-3.163-3.301-6.568-6.297-10.652-7.075-5.397-1.031-10.723.582-14.643 4.112a167.519 167.519 0 0 1 18.57-25.879l.849-2.07-12.615 4.859c2.442-7.236 4.241-12.53 3.013-20.89.771-5.808 3.97-9.884 3.584-15.306-.885-5.629-2.556-10.956-5.211-16.003-3.291-5.43-7.839-9.238-13.879-11.101-12.151-2.106-23.945-.828-35.525 2.488-8.431 2.649-16.548 5.765-23.959 9.22-5.76 2.634-10.03 6.221-12.207 10.893" fill-rule="evenodd" clip-rule="evenodd" fill="#025541"/><path d="M412.178 14.066c9.538 3.362 37.317 20.971 32.641 33.715-1.071 2.888-4.226 3.948-6.554 6.664-1.385 2.605-4.048 2.299-7.739-.885-.072-.135-.143-.275-.214-.41 1.442-4.688.836-8.717-1.813-12.084-4.762-5.597-10.11-8.692-15.906-9.902-7.511-.325-14.022 1.046-19.076 4.883-4.641 3.845-9.531 7.828-15.806 10.359-8.596 5.351-17.205 5.647-25.816 3.644l1.421-2.32c-3.977.711-6.939-.332-8.431-3.955-.143-3.587 8.31-9.566 10.98-2.798l-1.363-3.277c-5.247-6.8-14.229-1.05-15.057 7.057-1.085 10.505 11.766 15.563 21.932 14.571-10.223 8.338-18.162 12.468-31.413 12.44-6.31-.435-12.508-1.506-18.647-2.873 17.298 7.631 31.112 9.359 44.177 5.479-6.653 7.082-14.449 12.304-22.802 15.721-16.227 5.9-33.933 3.013-52.427-3.994l12.422 7.753c11.048 6.751 23.199 7.618 35.2 7.39 6.147-.39 11.558-1.492 17.555-3.459l-10.102 11.923c6.96-1.071 13.486 1.496 19.269 10.551a47.64 47.64 0 0 1-3.819-10.573c-.635-2.684-.9-4.527-.164-7.2 1.221-4.391 4.541-8.806 10.695-12.668 1.828-.804 3.655-1.396 5.483-1.496a43.882 43.882 0 0 1-1.293 7.571l-1.128 4.323-1.328 5.062c-3.398 12.558-1.649 27.333 9.367 32.912 8.774 4.44 21.631 2.145 36.381-2.474-8.331 1.467-15.984 2.01-22.738 1.314-4.641-.475-8.396-.921-11.637-5.544-8.61-12.294-1.528-38.552 12.35-37.823-2.306-2.506-4.512-4.584-6.482-5.694 5.498 1.738 12.565-3.434 13.051-7.485 1.82-3.184 4.769-3.466 8.281-2.434 5.961 4.084 10.394 3.737 13.4-1.124 8.103-6.457 17.17-.589 14.085 10.741-6.096 19.002-4.198 36.2 4.398 43.364-4.497-14.996-3.627-29.803 2.391-45.741 3.856-3.266 7.661-4.943 12.201-3.741-3.926-3.423-4.055-9.641-2.12-15.835l19.24-17.48a14.793 14.793 0 0 0-.328-2.313C461.767 22.262 420.203 16 412.178 14.066" fill-rule="evenodd" clip-rule="evenodd" fill="#00834b"/><path d="M404.696 52.694c5.826.261 14.522 2.76 22.032 6.019-5.847.314-6.725 3.127-4.198 7.639l-17.834-13.658z" fill-rule="evenodd" clip-rule="evenodd" fill="#00834b"/><path d="M381.208 46.71c2.22-1.064 4.633-2.459 7.153-4.084 4.198-2.927 8.124-6.511 12.951-7.935 5.961-1.749 11.723-1.664 17.319.967 5.412 2.774 11.851 7.368 10.295 14.985-.635 2.377-2.213 3.534-4.448 3.851-1.627.364-3.163 1.157-4.612 2.235-3.12 1.899-6.525 2.788-10.502 2.749-4.141-.043-7.532-1.353-11.288-3.255-3.79-2.642-7.717-4.337-11.673-5.898a18.894 18.894 0 0 0-4.783-1.481c-1.768-.303-3.096-.849-.412-2.134" fill-rule="evenodd" clip-rule="evenodd" fill="#010101"/><path d="M381.159 46.571l.107.274-.243.118-.214.11-.2.11-.164.104-.143.1-.129.093-.107.089-.086.082-.071.078-.043.064-.029.064-.014.047-.007.042.007.036.007.036.022.039.029.043.057.05.057.046.072.047.086.046.099.047.107.042.121.043.114.039.143.04.128.036.15.036.15.036.157.028.164.032.164.029-.043.289-.164-.025-.164-.032-.157-.032-.157-.036-.157-.036-.143-.039-.136-.039-.128-.04-.121-.046-.122-.05-.114-.05-.093-.053-.099-.064-.079-.061-.072-.072-.064-.078-.043-.089-.029-.097-.015-.104.015-.107.029-.108.057-.099.072-.097.086-.097.1-.1.114-.1.135-.104.157-.104.178-.107.2-.114.221-.118.245-.117zm.449 2.416l.043-.289.143.025.157.025.142.028.15.028.143.032.15.032.143.032.157.036.143.036.157.035.143.04.15.039.15.039.157.046.143.043.15.046.151.047.15.05.15.046.157.051.143.053.157.053.15.057.15.058.157.053.157.064.15.064.15.064.15.064.157.064.15.068.157.068-.1.279-.157-.075-.143-.064-.157-.064-.15-.067-.15-.061-.157-.061-.143-.058-.157-.061-.143-.053-.15-.057-.15-.053-.143-.053-.157-.05-.143-.042-.15-.05-.15-.05-.151-.043-.15-.046-.142-.04-.157-.04-.143-.039-.143-.039-.157-.036-.143-.036-.142-.036-.157-.029-.143-.035-.143-.028-.143-.029-.15-.028-.15-.028-.143-.025zm4.755 1.478zm0 0l.1-.279h-.015l.379.146.364.146.378.15.364.15.371.154.371.15.371.154.364.161.371.157.364.161.371.164.371.164.358.171.371.168.371.175.371.175.357.178.371.186.357.189.371.189.364.193.364.2.357.2.371.211.358.207.357.218.364.221.364.222.357.232.358.236.357.239.357.246-.135.25-.357-.243-.349-.24-.357-.232-.357-.229-.357-.225-.364-.218-.357-.214-.358-.21-.364-.203-.357-.204-.357-.196-.371-.193-.357-.193-.364-.185-.371-.179-.364-.178-.358-.178-.371-.171-.364-.172-.364-.167-.371-.168-.364-.16-.364-.157-.371-.157-.364-.161-.371-.153-.364-.154-.371-.153-.371-.146-.371-.15-.371-.146-.373-.149zm11.658 5.893l-.007-.004-.007-.007.014.011zm-.014-.01l.135-.25-.014-.011.357.175.343.178.349.164.343.168.349.156.336.161.343.153.336.146.343.143.343.139.342.136.336.128.343.125.336.121.343.115.343.107.342.104.343.099.343.093.35.085.35.079.357.078.35.068.349.061.357.057.371.05.371.046.364.032.371.028.379.025.378.015.379.004v.296l-.386-.007-.385-.014-.379-.022-.378-.032-.371-.039-.371-.04-.371-.05-.357-.057-.364-.061-.364-.072-.35-.076-.349-.082-.357-.086-.343-.096-.35-.1-.349-.103-.343-.107-.343-.118-.342-.121-.343-.129-.35-.125-.335-.139-.342-.139-.343-.146-.343-.146-.343-.154-.342-.161-.357-.16-.342-.164-.343-.171-.357-.175-.35-.175-.018-.007zm11.359 3.277v-.296l.371.003.371-.007.371-.007.357-.014.35-.022.35-.028.357-.029.342-.039.343-.042.343-.047.343-.057.328-.057.336-.064.336-.071.314-.079.328-.082.328-.086.314-.097.328-.097.307-.107.314-.107.306-.118.314-.121.307-.125.307-.132.3-.142.3-.143.3-.147.293-.16.3-.161.286-.168.292-.175.129.261-.3.178-.3.167-.292.165-.3.161-.307.15-.3.15-.307.135-.307.136-.314.129-.314.125-.314.118-.314.11-.314.108-.329.099-.328.093-.328.089-.328.083-.329.078-.336.072-.335.064-.336.061-.35.054-.343.05-.342.047-.357.035-.35.032-.357.026-.357.025-.364.01-.371.011-.371.003h-.371zm10.573-2.77l-.007.007.007-.007zm-.007.007l-.129-.261-.007.011.136-.104.135-.099.136-.097.143-.097.143-.093.143-.093.143-.093.136-.085.135-.086.143-.086.143-.086.143-.082.143-.078.143-.075.15-.075.143-.071.15-.075.143-.068.15-.064.15-.064.143-.061.15-.061.15-.057.143-.058.157-.05.143-.053.157-.043.15-.05.156-.043.151-.042.156-.039.157-.032.05.289-.157.031-.15.039-.143.043-.157.04-.142.046-.15.046-.15.05-.143.05-.143.053-.15.058-.15.057-.143.064-.143.061-.143.064-.142.068-.143.072-.143.068-.142.075-.143.075-.143.078-.135.079-.136.082-.143.082-.142.085-.129.086-.142.089-.143.089-.135.093-.136.097-.143.096-.129.097-.135.1-.01.008zm4.526-2.51v-.004.004zm.05.29l-.05-.289v-.004l.214-.032.2-.036.192-.042.193-.043.186-.054.186-.057.178-.064.178-.068.171-.071.157-.075.172-.086.157-.085.143-.097.157-.1.143-.104.142-.11.129-.121.136-.118.121-.129.121-.139.114-.136.114-.146.107-.157.1-.157.1-.167.086-.175.086-.179.086-.186.071-.192.072-.197.072-.207.057-.218.257.085-.071.225-.072.218-.072.207-.078.203-.086.201-.093.189-.1.182-.1.178-.114.164-.1.168-.128.153-.121.15-.121.146-.143.136-.135.132-.143.121-.143.118-.157.111-.157.107-.164.1-.164.093-.164.089-.179.078-.178.075-.186.071-.186.064-.192.061-.193.05-.2.05-.2.043-.207.039-.207.035.006-.001zm4.547-3.966v.011-.011zm0 .01l-.257-.085v.011l.121-.696.078-.678.029-.66v-.643l-.05-.625-.086-.611-.121-.596-.157-.575-.186-.561-.229-.55-.257-.531-.271-.518-.314-.504-.321-.489-.357-.475-.378-.46-.4-.453-.428-.432-.428-.417-.45-.411-.464-.396-.471-.382-.492-.371-.493-.354-.5-.346-.521-.332-.507-.322-.514-.31-.521-.3-.507-.285-.521-.275-.507-.265.107-.271.507.268.514.275.529.292.514.3.521.314.521.321.514.335.507.35.5.36.493.371.485.389.471.396.457.414.443.428.421.443.407.457.385.471.364.485.336.5.314.518.285.532.265.55.221.564.2.578.157.596.128.618.093.628.05.646.007.667-.036.678-.072.696-.129.714v.014zm-10.38-15.167h.007-.007zm.007 0l-.107.271-.521-.235-.521-.225-.529-.211-.529-.189-.521-.182-.528-.165-.521-.153-.529-.135-.535-.125-.536-.111-.528-.097-.529-.082-.542-.072-.529-.057-.535-.042-.542-.032-.536-.018-.543-.007-.542.01-.542.018-.543.032-.543.042-.542.053-.543.072-.557.079-.543.092-.55.104-.55.114-.557.121-.55.14-.55.146-.556.161-.072-.286.557-.165.556-.146.557-.139.557-.125.557-.114.556-.104.557-.093.55-.078.55-.068.55-.057.55-.043.557-.032.542-.025.542-.004.543.004.542.021.55.032.542.043.536.057.542.072.543.082.529.1.543.11.542.125.529.139.529.151.543.171.528.178.529.197.529.21.528.228.529.239h.007zm-17.398-.967l.072.286-.457.135-.443.15-.436.165-.435.175-.428.182-.421.193-.422.207-.414.207-.414.225-.415.225-.4.243-.414.239-.4.253-.4.257-.4.26-.385.268-.4.271-.385.275-.4.279-.385.282-.393.286-.393.286-.385.285-.385.29-.386.289-.385.29-.385.289-.4.286-.386.285-.385.282-.393.279-.4.275-.135-.25.399-.275.386-.279.385-.282.393-.286.386-.286.393-.289.385-.29.385-.285.386-.286.393-.289.393-.289.385-.286.386-.281.399-.278.393-.279.393-.271.4-.268.399-.264.4-.26.407-.25.407-.246.414-.239.414-.228.414-.229.421-.214.428-.203.421-.197.443-.186.442-.175.443-.167.442-.154.458-.138zm-12.858 8.196l-.007.004.007-.004zm-.135-.251l.135.25-.007.004-.228.153-.243.15-.229.153-.243.146-.228.143-.236.147-.221.143-.243.142-.229.14-.228.139-.229.136-.228.139-.229.132-.228.135-.222.132-.229.125-.221.132-.221.128-.221.121-.228.121-.214.121-.229.118-.214.118-.214.118-.214.118-.214.107-.221.111-.214.11-.207.107-.214.103-.214.104-.2.099-.107-.274.207-.096.214-.1.2-.107.214-.103.214-.11.214-.111.214-.11.214-.114.221-.115.221-.118.214-.121.214-.118.221-.125.221-.125.229-.121.221-.129.221-.132.228-.129.222-.132.235-.132.214-.136.236-.135.228-.14.235-.142.229-.14.228-.143.229-.146.235-.146.236-.15.235-.147.235-.146.243-.157-.01.005z" fill="#010101"/><path d="M385.106 46.721c1.727-.675 3.384-1.556 4.997-2.538 4.241-2.559 8.253-5.769 12.722-7.557 9.153-3.655 23.389 2.188 24.06 13.193-.179 1.995-1.442 3.266-3.784 3.819-1.635.436-3.37 1.611-5.005 2.285-5.619 2.745-13.357 1.046-23.467-4.287-5.904-2.634-7.518-3.123-9.48-3.48-1.163-.354-1.178-.832-.043-1.435M465.551 98.94c-.956-2.584-2.541-4.537-4.698-5.911.879 2.51 2.428 4.487 4.698 5.911z" fill-rule="evenodd" clip-rule="evenodd" fill="#fff"/><path d="M465.615 99.02l-.082-.051c-2.241-1.407-3.827-3.401-4.712-5.929l-.029-.09.08.051c2.184 1.392 3.77 3.387 4.711 5.927l.032.092zm-4.697-5.912c.874 2.439 2.409 4.374 4.568 5.751-.928-2.451-2.464-4.385-4.568-5.751z" fill="#fff"/><path d="M387.948 39.246l1.656-.011c-4.34 3.384-8.21 5.697-11.765 7.111-8.368 5.294-17.084 5.947-25.994 3.723l1.471-2.313c-1.649.325-3.284.303-4.734-.214l8.632-2.967c9.259-2.984 19.268-5.058 30.734-5.329" fill-rule="evenodd" clip-rule="evenodd" fill="#fff"/><path d="M448.788 132.12c10.309-2.445 19.605-8.846 27.565-20.301-12.787-2.738-17.87-6.868-26.108-17.216l-10.573-13.722c-11.109 10.445-13.258 23.067-11.187 35.14 2.384 13.875 5.668 19.34 20.303 16.099z" fill-rule="evenodd" clip-rule="evenodd" fill="#010101"/><path d="M441.685 133.286c-2.801 0-4.98-.585-6.741-1.768-3.813-2.561-5.394-7.811-6.707-15.454-2.427-14.157 1.361-26.057 11.261-35.366l.202-.19.171.22 10.574 13.723c8.19 10.287 13.343 14.422 25.96 17.123l.371.078-.216.311c-7.635 10.987-16.96 17.851-27.714 20.402l-.005.001c-2.763.611-5.122.92-7.156.92zm-2.043-52.031c-9.619 9.158-13.291 20.839-10.909 34.724 1.29 7.511 2.828 12.66 6.491 15.121 2.878 1.933 7.171 2.182 13.507.774 10.531-2.498 19.681-9.189 27.2-19.889-12.499-2.734-17.686-6.93-25.883-17.224l-10.406-13.506z" fill="#010101"/><path d="M469.614 47.713c31.063 33.504 32.305 64.271 10.858 92.949 1.092-16.528-.285-31.545-18.997-36.029-13.243-3.734-20.547-10.833-21.882-21.296-.671-10.048 4.927-20.9 16.784-32.559 4.713-4.125 7.275-8.655 13.237-3.065z" fill-rule="evenodd" clip-rule="evenodd" fill="#010101"/><path d="M480.164 141.493l.057-.847c.983-14.889.423-31.159-18.805-35.767-13.306-3.751-20.73-10.987-22.074-21.509-.673-10.087 4.998-21.107 16.858-32.77.742-.647 1.415-1.293 2.068-1.917 3.524-3.372 6.309-6.038 11.518-1.152l.011.013c15.17 16.361 23.644 32.655 25.186 48.43 1.474 15.083-3.34 30.17-14.31 44.84l-.509.679zm-15.6-96.151c-2.079 0-3.795 1.641-5.949 3.704-.657.627-1.335 1.276-2.072 1.921-11.741 11.546-17.363 22.434-16.701 32.353 1.315 10.287 8.615 17.382 21.701 21.071 19.23 4.608 20.147 20.578 19.233 35.437 10.535-14.352 15.147-29.085 13.707-43.806-1.533-15.661-9.96-31.854-25.048-48.131-1.943-1.82-3.487-2.549-4.871-2.549z" fill="#010101"/><path d="M418.561 39.407c.586 0 2.513.157 3.07.624 1.999 1.696 3.541 3.577 4.255 5.797.043.321.072.646.072.978a7.4 7.4 0 0 1-7.396 7.4c-4.084 0-7.403-3.316-7.403-7.4-.001-4.084 3.318-7.399 7.402-7.399z" fill-rule="evenodd" clip-rule="evenodd" fill="#ed2224"/><path d="M418.562 54.457c-4.222 0-7.658-3.432-7.658-7.651 0-4.219 3.435-7.651 7.658-7.651.398 0 2.557.118 3.23.684 2.252 1.91 3.67 3.844 4.332 5.912.061.424.086.745.086 1.056 0 4.218-3.43 7.65-7.648 7.65zm0-14.799c-3.945 0-7.153 3.207-7.153 7.148s3.208 7.148 7.153 7.148c3.94 0 7.143-3.207 7.143-7.148 0-.288-.02-.587-.07-.944-.623-1.934-1.991-3.792-4.168-5.639-.435-.365-2.148-.565-2.905-.565z" fill="#ed2224"/><path d="M421.166 41.627a4.15 4.15 0 0 1 0 8.299 4.152 4.152 0 0 1-4.155-4.147 4.157 4.157 0 0 1 4.155-4.152z" fill-rule="evenodd" clip-rule="evenodd" fill="#010101"/><path d="M421.167 50.177a4.408 4.408 0 0 1-4.407-4.399 4.41 4.41 0 0 1 4.407-4.402c2.425 0 4.4 1.975 4.4 4.402a4.406 4.406 0 0 1-4.4 4.399zm0-8.298a3.905 3.905 0 0 0-3.902 3.899 3.903 3.903 0 0 0 3.902 3.896 3.9 3.9 0 0 0 3.895-3.896 3.902 3.902 0 0 0-3.895-3.899z" fill="#010101"/><path d="M441.456 131.31c12.016-.686 23.196-6.547 32.205-18.302 1.67-3.277-.086-2.342-3.084-3.709-12.794-3.673-21.418-11.562-28.1-21.403-1.871-2.77-3.07-3.516-5.655-.896-10.209 11.58-9.267 25.947-4.691 38.299 1.608 4.329 4.728 6.275 9.325 6.011" fill-rule="evenodd" clip-rule="evenodd" fill="#eecf3d"/><path d="M469.992 50.669c27.672 30.973 30.22 57.339 11.837 84.696 1.028-15.388-1.935-26.947-18.819-31.395a7.33 7.33 0 0 1-2.028-.832c-7.946-4.644-16.884-13.425-19.119-21.985-.514-2.002-.514-3.477-.072-5.476 1.778-7.957 7.596-16.077 17.591-25.177 3.885-3.526 6.726-4.175 10.61.169" fill-rule="evenodd" clip-rule="evenodd" fill="#eecf3d"/><path d="M470.52 55.348c20.747 23.232 24.531 40.851 18.79 61.258-.072-25.616-5.954-38.127-21.753-54.097-3.519-3.555-5.597-4.323-8.132-3.709-7.489 1.824-11.323 11.491-15.606 17.095 2.298-7.082 8.21-15.039 14.049-19.808 1.757-1.435 3.598-2.638 5.319-3.255 2.414-1.117 4.613-.518 7.333 2.516" fill-rule="evenodd" clip-rule="evenodd" fill="#f6eaaa"/><path d="M482.714 132.552c.92-13.933-1.421-24.73-14.422-29.946-2.413-.971-4.897-1.617-7.254-2.788-8.481-4.233-15.977-12.589-18.29-21.475 4.911 9.606 11.037 17.58 23.616 21.814 13.908 4.719 20.419 14.757 16.35 32.395" fill-rule="evenodd" clip-rule="evenodd" fill="#f6eaaa"/><path d="M470.563 111.934c-12.787-3.674-21.418-11.562-28.1-21.408-1.877-2.766-3.07-3.512-5.661-.892-3.826 4.34-5.561 8.97-6.647 13.843 3.727-7.521 6.761-13.061 9.752-12.769 1.549.153 2.056 1.599 2.798 2.738 6.219 9.478 15.221 15.946 27.858 18.488" fill-rule="evenodd" clip-rule="evenodd" fill="#f6eaaa"/><path d="M377.625 56.108c5.868-1.538 11.423.161 17.306 2.282 1.806.649 3.555 1.309 5.311 2.052 6.418 2.702 14.422 4.451 24.481 1.214-9.746 6.514-22.496 3.006-32.434-2.295-4.769-2.549-8.853-4.12-14.664-3.253" fill-rule="evenodd" clip-rule="evenodd" fill="#010101"/><path d="M519.443 228.579c-3.038-6.485-7.325-12.034-13.018-16.441-.741-.573-1.413-1.053-1.324-2.223.657-8.636-1.13-16.946-3.516-25.162-1.795-6.18-1.34-11.913 2.842-17.152 2.281-2.857 4.299-5.918 4.649-9.777.194-2.135-.801-3.721-2.877-4.199-6.953-1.601-13.988-1.428-21.051-1.194-7.204.239-13.402 2.836-18.496 7.803-5.57 5.432-11.856 10.1-17.112 16.186-.548-1.902-.913-3.726-1.591-5.425-2.582-6.47-6.118-12.277-13.001-14.864-5.832-2.193-11.981-2.758-18.077-1.236-10.536 2.632-18.599 8.895-24.85 17.645-.422.591-.654 1.383-1.492 1.773.09-1.403.172-2.663.251-3.923.443-6.979-4.873-15.22-11.52-17.344-7.248-2.316-14.608-2.542-21.692.576-10.279 4.523-17.664 12.128-22.662 22.135-3.191 6.389-4.757 13.235-5.994 20.207-1.02 5.748-3.766 8.358-8.82 8.64.74-2.041 1.367-4.073 2.199-6.018 5.255-12.293 11.16-24.291 16.636-36.484 1.548-3.447 2.965-6.677 5.981-9.433 4.652-4.252 5.633-10.427 4.839-16.434-.608-4.603-3.233-8.75-7.71-10.513-6.104-2.403-12.275-2.163-18.286 1.169-7.008 3.885-10.173 9.846-10.591 17.573-.08 1.475-.002 3.003.752 4.278.942 1.593 1.264 2.831-.8 3.715-.583.249-.737.905-.959 1.466-6.253 15.833-12.835 31.537-18.734 47.51-.253.686-.601 1.132-1.372 1.247-1.793.269-3.451.97-5.104 1.684-.394.17-.845.667-1.24.211-.19-.219-.079-.752-.015-1.128.404-2.37 1.165-4.642 1.936-6.911 3.373-9.92 8.263-19.168 12.631-28.649 1.328-2.883 3.12-5.578 3.554-8.842.3-2.255-.732-3.839-2.973-4.297-6.11-1.248-12.32-.883-18.491-1.115-1.28-.048-2.377-.168-2.968-1.479-.466-1.034-1.383-1.293-2.412-1.499-5.946-1.193-11.956-1.881-17.976-2.562-2.225-.252-3.643.672-4.694 2.234-2.656 3.948-3.438 8.578-3.511 13.138-.045 2.828-.456 5.365-1.526 7.894-3.389 8.012-8.162 15.219-12.908 22.455-3.558 5.426-7.32 10.617-12.755 14.369-2.216 1.53-4.537 2.7-7.805 3.068 3.404-2.74 6.29-5.206 9.321-7.477 10.011-7.502 16.453-17.067 17.707-29.782.435-4.41.091-8.677-1.926-12.645-2.111-4.154-4.641-7.982-9.554-9.319-6.499-1.769-13.083-2.255-19.477.041-11.652 4.183-20.011 12.159-25.32 23.298-3.622 7.6-5.333 15.736-6.063 24.06-.613 6.991.125 13.869 3.346 20.228 3.187 6.292 7.161 12.089 14.238 14.367 6.747 2.171 13.723 3.325 20.842 1.566 13.065-3.228 23.876-9.917 31.958-20.797 2.04-2.746 4.059-5.507 6.412-8.701-.375 1.359-.625 2.184-.828 3.02-.847 3.497-1.615 7.016-1.401 10.644.411 6.964 5.377 13.218 11.388 14.85 8.631 2.343 16.491.757 23.695-4.322 1.766-1.245 3.147-2.173 4.792.109.496.688 1.529 1.028 2.364 1.427 2.564 1.226 5.365 1.651 8.125 1.943 9.677 1.024 18.371-1.202 25.387-8.335.751-.763 1.084-.718 1.604.116 1.285 2.06 2.98 3.737 4.93 5.174 3.746 2.759 8.069 3.912 12.557 4.797 14.011 2.762 26.205-1.063 36.971-10.049 1.29-1.077 1.7-.791 2.473.404 3.533 5.462 8.32 9.26 14.732 10.853 7.192 1.788 14.189 2.037 20.841-2.029 5.627-3.439 10.157-7.923 13.613-13.518.876-1.419 1.737-2.847 2.872-4.709-.315 2.56-.24 4.578.61 6.424 2.642 5.739 6.48 10.41 12.468 12.881 4.292 1.771 8.907 2.174 13.475 2.55 8.46.696 16.802.457 24.324-4.253.842-.527 1.143-.186 1.522.484 1.427 2.521 2.384 5.189 2.724 8.081.101.861-.132 1.556-.587 2.248-1.682 2.558-4.384 2.973-7.035 3.008-9.906.129-19.814.091-29.721.107-25.403.042-50.806.081-76.209.118-22.539.033-45.078.13-67.617.071a3041.853 3041.853 0 0 1-63.433-.809c-13.76-.324-27.514-.755-41.265-1.348-10.626-.458-21.238-1.465-31.896-.792-14.017.885-27.235 4.04-38.5 13.053-7.291 5.834-11.951 13.284-14.049 22.361-.197.854-.265 1.646.28 2.476 1.15 1.752 3.882 2.669 5.937 1.788 3.622-1.553 7.32-2.869 11.199-3.589 6.508-1.207 12.897-1.315 19.199 1.354 9.924 4.204 17.647 11.105 24.124 19.464 2.229 2.876 6.588 3.599 9.031.202 1.549-2.154 3.623-3.875 5.931-5.28 4.998-3.044 10.424-5.034 16.034-6.544 12.476-3.358 25.258-4.49 38.103-5.197 12.696-.699 25.407-.142 38.105-.537 27.588-.857 55.174-1.776 82.762-2.648 18.284-.578 36.565-1.251 54.853-1.63 13.828-.286 27.673.049 41.459-1.37 10.357-1.066 20.654-2.572 30.089-7.322 5.983-3.012 11.578-6.627 14.821-12.879 2.027-3.907 2.69-8.183 3.472-12.432 1.144-6.205.519-12.219-2.156-17.926zm-201.733-88.65c2.694-7.726 11.603-13.068 19.69-11.594 5.938 1.082 9.622 7.307 8.285 13.999-.817 3.915-2.727 7.173-5.868 9.673-.507.403-1.032 1.012-1.744.808-3.421-.978-6.776.033-10.045.597-8.755 1.512-12.247-7.953-10.318-13.483zm179.685 129.912c-10.317 3.714-21.068 4.992-31.913 5.774-13.352.963-26.735.515-40.099.911-27.602.819-55.201 1.737-82.801 2.612-18.357.582-36.71 1.307-55.071 1.68-10.641.216-21.295-.113-31.932.42-14.982.751-29.899 2.022-44.232 6.904-7.27 2.476-14.014 5.889-19.04 11.949-1.006 1.213-1.363.349-1.882-.315-4.071-5.219-8.604-9.982-13.884-14-13.688-10.416-28.451-12.031-44.218-5.376-.66.279-1.327.541-2.366.963 3.621-11.721 10.613-20.013 21.211-25.236 10.446-5.149 21.668-6.716 33.138-6.986 12.455-.292 24.859.956 37.29 1.387 19.552.679 39.108 1.097 58.668 1.398 39.586.608 79.174.311 118.761.246 30.071-.049 60.141-.118 90.212-.171 1.681-.003 3.313-.251 4.899-.803 4.968-1.728 7.22-5.583 6.299-10.77-.766-4.318-2.778-8.019-5.614-11.305-.518-.601-.966-1.205-1.943-.424-6.132 4.901-13.409 5.859-20.915 5.833-4.397-.016-8.814-.294-13.051-1.5-5.203-1.48-9.211-4.699-11.935-9.399-2.925-5.048-2.186-10.529 2.316-14.705 6.871-6.373 15.105-8.984 24.433-8.003 1.101.116 2.166.57 3.516.941-.966-3.623-1.602-7.106-1.86-10.657-.349-4.8-.18-9.573.429-14.34.067-.523.12-1.066.052-1.583-.087-.672-.357-1.316-1.055-1.583-.732-.281-1.079.35-1.483.757-4.631 4.66-8.447 9.885-11.449 15.759-3.709 7.258-9.28 12.261-17.694 13.344-1.319.17-1.881.804-2.379 1.983-3.146 7.447-6.76 14.632-12.471 20.52-8.728 8.999-21.092 10.488-30.624 3.692-4.059-2.894-6.918-6.769-9.026-11.248-.321-.682-.389-1.539-1.147-2.037-2.807 5.923-7.888 9.271-13.483 11.859-8.119 3.756-16.629 5.09-25.496 3.172-8.03-1.737-13.952-6.037-16.914-13.932-.09-.241-.246-.458-.377-.696-.813.301-1.119 1.018-1.463 1.618-4.74 8.245-12.499 10.872-21.328 11.485-2.398.166-4.805.055-7.136-.594-4.075-1.135-7.215-3.365-8.471-7.954-3.602 4.621-8.172 7.3-13.372 9.002-1.839.602-3.721 1.02-5.658 1.161-10.396.754-16.737-5.789-15.665-16.192.584-5.665 2.891-10.779 5.297-15.824 2.604-5.463 5.422-10.824 8.131-16.237.386-.772.773-1.562 1.01-2.387.483-1.68.171-3.21-1.324-4.263-1.603-1.129-3.421-1.451-5.323-.959-.58.15-.577.845-.757 1.331-2.363 6.359-4.78 12.66-8.138 18.623-4.16 7.387-8.432 14.657-14.204 20.904-9.416 10.191-21.089 15.715-35.006 15.661-9.762-.038-16.766-5.02-20.994-13.77-3.826-7.918-4.163-16.297-2.754-24.8 1.885-11.379 6.247-21.572 14.793-29.64 7.374-6.962 16.04-10.281 26.244-9.147 5.965.663 9.651 4.088 11.541 9.627 2.667 7.818.815 15.107-2.767 22.129-3.038 5.956-7.948 10.28-13.013 14.43-3.295 2.7-6.669 5.305-9.954 8.017-2.451 2.023-2.316 3.436.403 5.039 2.322 1.368 4.791 1.464 7.323.681 1.861-.575 3.569-1.47 5.167-2.572 5.252-3.624 9.679-7.973 13.198-13.396 5.435-8.375 11.177-16.546 14.961-25.866 1.393-3.43 2.184-6.914 1.79-10.701-.366-3.511 1.229-6.605 2.906-9.591.358-.637.917-.666 1.549-.588 4.953.614 9.911 1.192 14.859 1.844 1.237.163 2.594.257 1.872 2.31-.466 1.324.823 1.199 1.657 1.224 4.921.148 9.843.262 14.763.431 1.993.068 3.982.304 5.975.354 1.527.038 1.628.616 1.033 1.849-2.948 6.113-5.896 12.226-8.751 18.382-3.672 7.915-7.185 15.899-8.844 24.538a20.099 20.099 0 0 0-.374 4.165c.053 2.625 1.135 3.373 3.592 2.55 1.194-.4 2.322-.996 3.485-1.489 2.028-.859 4.072-1.724 6.326-1.625.862.038 1.157-.316 1.412-1.031 5.723-16.047 12.385-31.726 18.674-47.551.365-.918.743-1.829 1.076-2.648 6.787 3.755 13.727 1.723 20.712 1.091.064 1.08-.631 1.926-1.047 2.834-5.218 11.367-10.535 22.69-15.665 34.096-2.045 4.546-3.816 9.233-4.622 14.203-.444 2.735.008 3.17 2.686 2.455 3.55-.947 6.904-2.407 10.196-4.032 2.064-1.019 2.937-2.774 3.398-4.877 1.224-5.587 2.012-11.272 3.999-16.683 3.726-10.149 9.474-18.777 18.758-24.635 6.655-4.199 14.008-5.676 21.621-3.575 7.133 1.969 11.142 8.234 10.685 15.662-.304 4.93-1.089 9.805-2.58 14.522-1.308 4.137-4.142 7.068-7.904 9.109-1.892 1.027-3.758.881-5.335-.664-2.177-2.134-4.563-4.11-5.515-7.206-.519-1.689-.318-3.085 1.025-4.352 1.889-1.783 3.667-3.671 4.839-6.049 1.796-3.644 1.168-6.671-1.835-8.574-2.731-1.731-5.829-1.06-8.187 2.11-5.46 7.343-9.103 15.453-9.938 24.684-.282 3.12-.515 6.236-.15 9.361.85 7.264 5.837 11.637 13.188 11.695 2.782.022 5.21-.917 7.533-2.293 5.151-3.051 9.528-7.016 13.511-11.447.74-.824 1.056-1.747 1.188-2.868 1.523-12.92 6.217-24.347 16.166-33.129 6.708-5.921 14.558-8.975 23.601-8.621 8.022.314 14.768 5.548 17.474 13.582 1.366 4.056 2.15 8.236 2.495 12.499.042.523-.108 1.256.378 1.461.657.278.984-.498 1.414-.878a2.65 2.65 0 0 0 .411-.436c5.622-7.887 13.287-13.76 20.109-20.469 4.863-4.783 10.603-7.157 17.335-7.459 5.854-.263 11.696-.328 17.534.323 1.807.201 1.883 1.054 1.239 2.423-1.026 2.183-2.42 4.138-3.833 6.067-4.454 6.082-5.312 12.845-3.491 19.932 1.843 7.169 3.695 14.305 3.766 21.767.008.865.2 1.791-.04 2.584-.906 2.988.755 4.417 2.908 6.092 7.876 6.129 13.2 13.914 13.925 24.159 1.035 14.642-5.975 24.72-20.563 29.971zm-34.617-72.56c2.882-4.771 4.724-9.574 8.348-13.842.05 4.409-.066 8.418.561 12.381.121.766-.248.85-.915.814-2.522-.141-5.033.02-7.994.647zm-100.614-6.491c1.588 2.886 3.745 5.347 6.205 7.502 2.566 2.247 7.159 2.534 10.102.78 1.533-.914 3.033-1.884 4.605-2.865.049 2.164-.751 3.984-2.383 5.568-3.68 3.572-7.25 7.266-11.984 9.492-2.612 1.229-5.236 1.733-8.07.503-3.228-1.402-4.934-3.613-5.364-7.21-1.214-10.135 1.463-19.221 6.892-27.653a51.133 51.133 0 0 1 2.895-4.053c.555-.702 1.315-1.168 2.24-.437.852.674 1.082 1.468.559 2.452-1.043 1.96-2.462 3.625-4.03 5.175-2.989 2.95-3.667 7.112-1.667 10.746zM175.861 113.574c-9.199-9.89-20.671-16.105-33.434-19.818-27.741-8.071-53.775-4.14-77.663 12.281-13.045 8.967-21.479 21.038-23.594 37.07-.463 3.511.172 6.703 1.845 9.802 4.318 8.002 11.468 11.48 20.056 11.617 10.24.163 18.177-5.012 22.509-13.949 4.874-10.055 3.362-16.287-4.313-23.348-3.143-2.891-3.251-3.111.351-5.747.215-.157.43-.321.665-.441 4.679-2.397 9.246-5.067 14.281-6.662 8.632-2.735 17.423-3.898 26.283-1.26 4.851 1.444 8.852 4.398 12.576 8.511-.849-.247-1.225-.343-1.592-.465-3.977-1.323-7.708-1.638-11.644.73-5.997 3.607-12.012 7.161-17.553 11.443-7.439 5.75-13.941 12.329-18.288 20.826-7.838 15.322-11.356 31.812-12.566 48.766-1.113 15.588-2.599 31.132-3.936 46.694-.843 9.817-5.256 17.308-12.22 24.386 1.515-4.829 1.559-9.14-.76-13.222a42.13 42.13 0 0 0-2.965-4.499c-5.625-7.477-17.781-11.18-26.043-7.624-8.828 3.799-14.245 10.745-16.688 19.934-.827 3.112-1.715 6.317-.99 9.65 1.904 8.759 6.307 15.939 13.68 21.089 8.425 5.885 18.143 7.706 28.101 7.44 18.052-.482 32.487-8.491 43.278-22.836 7.825-10.402 11.916-22.513 14.726-35.067 2.856-12.76 4.49-25.683 4.361-38.782-.015-1.54.503-1.709 1.803-1.687 6.99.116 13.958-.193 20.891-1.183 13.19-1.883 25.259-6.378 35.507-15.136 5.151-4.403 9.027-9.74 11.5-16.065 3.238-8.284 4.259-16.982 4.882-25.773 1.001-14.15-3.419-26.325-13.046-36.675zm9.07 35.521c-.146 4.868-.564 9.698-1.449 14.494-3.133 17.476-13.614 28.721-29.843 35.012-12.374 4.797-25.324 5.928-38.453 5.731-4.976-.075-4.921-.118-4.9 4.918.077 18.377-2.085 36.411-8.641 53.712-3.788 9.996-8.712 19.423-16.953 26.471-14.735 12.602-31.571 16.837-50.247 10.655-9.676-3.203-16.471-9.816-19.451-19.9-1.15-3.89-1.375-7.684.201-11.521 2.076-5.055 4.701-9.739 9.073-13.165 6.033-4.727 12.651-5.444 19.479-2.043 6.573 3.274 10.794 8.382 10.901 16.106.045 3.266-1.264 6.094-3.367 8.541-.85.989-.928 1.472.549 1.765 2.744.543 5.645.63 7.539-1.451 4.982-5.475 10.382-10.695 12.475-18.236 1.53-5.51 1.643-11.179 2.452-16.767 2.291-15.833 2.372-31.86 4.137-47.728 1.721-15.474 5.66-30.388 14.101-43.722 5.22-8.246 12.638-14.337 20.62-19.77 3.969-2.702 8.12-5.098 12.392-7.285 3.606-1.846 8.68-.168 10.435 3.475.803 1.667.682 3.247-.735 4.558-.829.767-1.688 1.514-2.605 2.17-13.501 9.677-19.533 23.113-19.851 39.419-.081 4.125-.031 8.253-.152 12.376-.037 1.266.352 1.527 1.567 1.574 13.908.528 24.961-6.482 30.35-19.974 5.433-13.599 5.273-27.421-.556-40.839-5.833-13.427-16.587-19.722-31.135-19.953-8.782-.14-17.038 1.681-24.825 5.729-4.36 2.266-8.991 4.073-12.382 7.883-2.573 2.89-2.267 5.526 1.022 7.744 8.411 5.669 9.924 14.371 3.615 22.319-5.478 6.901-12.521 10.535-21.541 8.633-10.609-2.237-15.882-11.967-12.638-22.272 4.738-15.052 14.665-25.65 28.21-32.956 18.754-10.116 38.743-13.57 59.724-9.177 13.098 2.742 24.922 8.419 35.115 17.257 11.033 9.564 16.205 21.654 15.767 36.217zm-67.162 15.393c2.598-10.997 8.555-19.77 17.693-26.407 2.496-1.813 5.199-3.518 4.982-7.35 2.421 5.24 3.359 10.626 3.703 16.136.692 11.07-2.007 21.046-9.449 29.537-4.45 5.077-10.228 7.177-16.719 7.815-.549.054-1.303.368-1.25-.675.326-6.354-.443-12.777 1.04-19.056z" fill="#eecf3d"/><path d="M129.958 281.362c3.621-11.721 10.613-20.013 21.211-25.237 10.446-5.149 21.668-6.716 33.138-6.986 12.455-.292 24.859.955 37.29 1.387 19.552.679 39.108 1.097 58.668 1.398 39.586.609 79.174.311 118.761.246 30.07-.049 60.141-.118 90.212-.171 1.681-.003 3.313-.251 4.899-.803 4.968-1.728 7.22-5.583 6.299-10.77-.766-4.318-2.778-8.019-5.614-11.305-.518-.6-.966-1.205-1.943-.424-6.133 4.901-13.409 5.859-20.915 5.833-4.397-.016-8.814-.294-13.051-1.499-5.203-1.48-9.211-4.699-11.935-9.399-2.925-5.048-2.186-10.529 2.316-14.705 6.871-6.373 15.105-8.983 24.432-8.003 1.101.116 2.166.57 3.516.941-.966-3.623-1.602-7.106-1.86-10.657-.349-4.8-.18-9.573.429-14.34.067-.523.12-1.066.053-1.583-.087-.672-.357-1.316-1.055-1.583-.732-.281-1.079.35-1.483.757-4.631 4.66-8.447 9.885-11.449 15.759-3.709 7.258-9.28 12.261-17.694 13.344-1.319.17-1.881.804-2.379 1.983-3.146 7.447-6.76 14.632-12.471 20.52-8.728 8.999-21.092 10.488-30.624 3.692-4.059-2.894-6.918-6.769-9.026-11.248-.321-.682-.389-1.539-1.147-2.037-2.807 5.923-7.888 9.271-13.483 11.859-8.119 3.756-16.629 5.09-25.496 3.172-8.03-1.737-13.952-6.037-16.914-13.932-.09-.241-.246-.458-.377-.696-.813.301-1.118 1.018-1.463 1.618-4.74 8.245-12.499 10.872-21.328 11.484-2.398.166-4.805.055-7.136-.594-4.075-1.135-7.215-3.365-8.472-7.954-3.602 4.621-8.172 7.3-13.372 9.002-1.838.602-3.721 1.02-5.657 1.161-10.397.754-16.737-5.79-15.665-16.192.584-5.665 2.891-10.779 5.297-15.824 2.604-5.463 5.422-10.824 8.131-16.237.386-.772.773-1.562 1.01-2.386.483-1.68.171-3.21-1.324-4.263-1.603-1.129-3.421-1.451-5.323-.959-.58.15-.577.845-.758 1.331-2.363 6.359-4.78 12.66-8.138 18.623-4.16 7.387-8.432 14.658-14.204 20.904-9.416 10.192-21.088 15.715-35.005 15.661-9.762-.038-16.766-5.02-20.994-13.77-3.826-7.918-4.163-16.297-2.754-24.8 1.885-11.379 6.247-21.573 14.793-29.641 7.374-6.962 16.04-10.281 26.244-9.147 5.965.663 9.651 4.088 11.541 9.627 2.667 7.818.816 15.107-2.767 22.129-3.038 5.956-7.948 10.281-13.013 14.43-3.295 2.7-6.669 5.305-9.954 8.016-2.451 2.023-2.316 3.436.403 5.039 2.322 1.369 4.791 1.464 7.323.681 1.861-.575 3.569-1.47 5.167-2.572 5.252-3.624 9.679-7.973 13.198-13.396 5.435-8.375 11.177-16.546 14.961-25.866 1.393-3.43 2.185-6.914 1.79-10.701-.366-3.511 1.229-6.604 2.906-9.591.358-.637.917-.666 1.549-.588 4.953.614 9.911 1.192 14.859 1.844 1.237.163 2.594.257 1.872 2.31-.466 1.324.823 1.199 1.657 1.224 4.921.148 9.843.262 14.763.431 1.993.068 3.982.304 5.975.354 1.527.038 1.628.616 1.033 1.849-2.948 6.113-5.895 12.226-8.751 18.382-3.672 7.915-7.185 15.899-8.844 24.538a20.099 20.099 0 0 0-.374 4.165c.053 2.625 1.135 3.373 3.592 2.55 1.194-.4 2.322-.996 3.485-1.489 2.028-.859 4.072-1.724 6.326-1.625.862.038 1.157-.316 1.412-1.031 5.723-16.047 12.385-31.726 18.674-47.552.365-.918.743-1.829 1.076-2.648 6.787 3.755 13.727 1.723 20.711 1.091.064 1.08-.631 1.926-1.047 2.834-5.218 11.367-10.535 22.69-15.665 34.096-2.045 4.546-3.816 9.233-4.622 14.203-.444 2.736.008 3.17 2.686 2.455 3.55-.947 6.904-2.407 10.196-4.032 2.064-1.019 2.937-2.774 3.398-4.877 1.224-5.587 2.012-11.272 3.999-16.683 3.726-10.149 9.474-18.777 18.758-24.635 6.655-4.199 14.008-5.676 21.621-3.575 7.133 1.969 11.142 8.234 10.685 15.662-.304 4.93-1.089 9.805-2.58 14.522-1.308 4.137-4.142 7.068-7.904 9.109-1.892 1.027-3.759.881-5.335-.664-2.177-2.134-4.563-4.11-5.515-7.207-.519-1.689-.318-3.085 1.025-4.352 1.889-1.783 3.667-3.671 4.839-6.049 1.796-3.644 1.168-6.671-1.835-8.574-2.731-1.73-5.83-1.06-8.187 2.11-5.46 7.343-9.103 15.453-9.938 24.684-.282 3.12-.515 6.236-.15 9.361.85 7.264 5.837 11.637 13.188 11.695 2.782.022 5.21-.917 7.533-2.293 5.151-3.051 9.528-7.016 13.511-11.447.74-.824 1.056-1.747 1.188-2.869 1.523-12.92 6.217-24.347 16.166-33.129 6.708-5.921 14.558-8.975 23.601-8.621 8.022.314 14.768 5.548 17.474 13.581 1.366 4.056 2.15 8.236 2.495 12.499.042.523-.108 1.256.378 1.461.657.278.984-.498 1.414-.878a2.65 2.65 0 0 0 .411-.436c5.622-7.888 13.287-13.76 20.109-20.469 4.863-4.783 10.603-7.157 17.335-7.459 5.854-.263 11.696-.328 17.534.323 1.807.201 1.883 1.054 1.239 2.423-1.026 2.183-2.421 4.138-3.834 6.068-4.454 6.082-5.312 12.845-3.491 19.932 1.843 7.169 3.695 14.305 3.766 21.767.008.865.2 1.791-.04 2.584-.906 2.989.755 4.417 2.908 6.093 7.876 6.129 13.2 13.914 13.925 24.159 1.036 14.644-5.974 24.721-20.562 29.973-10.316 3.714-21.067 4.992-31.913 5.774-13.352.963-26.735.515-40.099.911-27.602.819-55.201 1.737-82.801 2.612-18.357.582-36.71 1.307-55.071 1.68-10.641.216-21.295-.113-31.932.42-14.982.751-29.899 2.022-44.232 6.904-7.27 2.476-14.014 5.889-19.04 11.949-1.006 1.213-1.363.349-1.881-.315-4.071-5.219-8.605-9.982-13.884-14-13.688-10.416-28.451-12.031-44.218-5.376-.66.281-1.327.543-2.366.965zm279.321-81.49c-.372 3.106-.66 6.22-.139 9.334.574 3.434 2.06 6.203 5.738 7.15 3.703.953 6.868-.03 9.361-2.905 2.789-3.217 4.07-7.112 4.774-11.237.196-1.149-.251-1.437-1.316-1.144-.896.247-1.806.416-2.757.25-4.598-.806-9.149-1.815-13.379-3.84-1.384-.662-1.795-.212-2.025 1.015-.086.457-.172.914-.257 1.377zm-200.501-15.89c-.089 1.226-.477 2.83-.511 4.509-.038 1.869.734 1.93 2.175 1.536 2.242-.613 4.176-1.729 5.741-3.41 2.947-3.166 4.899-6.797 4.493-11.275-.231-2.552-1.858-3.571-4.329-2.997-2.128.495-3.653 1.777-4.813 3.582-1.5 2.337-2.232 4.937-2.756 8.055zm270.397 27.674c-1.737 1.992-3.728 1.278-5.556 1.253-3.314-.045-6.633-.477-9.929.178-1.429.284-2.645.837-2.935 2.533-.571 3.331 1.251 6.294 4.506 7.213 6.806 1.924 13.852-3.523 13.914-11.177zm-55.449-24.944c1.517.075 3.435.185 5.355.255.694.025 1.396-.088 1.393-1.016-.012-3.398-.116-6.782-2.008-9.795-1.067-1.699-2.589-2.632-4.613-2.66-3.274-.045-6.99 2.962-7.698 6.176-.47 2.135.279 3.757 1.987 5.025 1.546 1.147 3.379 1.485 5.584 2.015z" fill="#025541"/><path d="M345.686 142.334c-.818 3.915-2.728 7.172-5.869 9.672-.507.403-1.032 1.012-1.744.808-3.421-.978-6.776.033-10.045.597-8.756 1.512-12.247-7.953-10.318-13.483 2.694-7.726 11.603-13.068 19.69-11.594 5.939 1.083 9.623 7.308 8.286 14zM183.482 163.589c-3.133 17.476-13.614 28.721-29.843 35.012-12.374 4.797-25.324 5.928-38.453 5.731-4.976-.075-4.922-.118-4.9 4.918.077 18.377-2.085 36.411-8.641 53.712-3.788 9.996-8.712 19.423-16.953 26.471-14.735 12.602-31.571 16.837-50.248 10.655-9.676-3.203-16.471-9.816-19.451-19.9-1.15-3.89-1.375-7.684.201-11.521 2.076-5.055 4.701-9.738 9.073-13.165 6.033-4.727 12.651-5.444 19.479-2.043 6.573 3.274 10.794 8.382 10.901 16.106.045 3.266-1.264 6.094-3.367 8.541-.85.989-.929 1.472.549 1.765 2.744.543 5.645.63 7.539-1.451 4.982-5.475 10.382-10.695 12.475-18.236 1.53-5.51 1.643-11.179 2.451-16.767 2.291-15.833 2.373-31.86 4.137-47.728 1.721-15.474 5.66-30.389 14.1-43.722 5.22-8.246 12.638-14.337 20.62-19.77 3.969-2.702 8.12-5.098 12.392-7.285 3.606-1.846 8.68-.168 10.435 3.475.803 1.667.682 3.247-.735 4.558-.829.767-1.688 1.513-2.605 2.17-13.501 9.677-19.533 23.113-19.851 39.419-.081 4.125-.031 8.253-.152 12.376-.037 1.266.352 1.527 1.567 1.574 13.908.528 24.961-6.482 30.35-19.974 5.433-13.599 5.273-27.421-.556-40.839-5.833-13.427-16.587-19.722-31.135-19.953-8.782-.14-17.038 1.681-24.825 5.729-4.36 2.266-8.991 4.073-12.382 7.882-2.573 2.89-2.267 5.526 1.022 7.744 8.411 5.669 9.924 14.371 3.615 22.319-5.478 6.901-12.521 10.535-21.541 8.633-10.609-2.237-15.882-11.967-12.638-22.272 4.738-15.052 14.665-25.65 28.21-32.956 18.754-10.117 38.743-13.57 59.724-9.177 13.098 2.742 24.922 8.419 35.115 17.257 11.033 9.566 16.205 21.656 15.767 36.219-.143 4.867-.561 9.697-1.446 14.493z" fill="#025541"/><path d="M409.278 199.869c.085-.46.172-.918.258-1.375.23-1.227.641-1.677 2.025-1.015 4.231 2.025 8.782 3.034 13.379 3.84.951.167 1.861-.003 2.757-.25 1.065-.293 1.512-.005 1.316 1.144-.704 4.125-1.985 8.019-4.774 11.237-2.493 2.876-5.658 3.858-9.361 2.905-3.678-.946-5.164-3.715-5.738-7.15-.52-3.113-.232-6.227.138-9.336zm9.178 3.975l-.017.061c-1.47-.396-2.946-.773-4.408-1.198-.684-.199-1.08-.271-1.089.704-.022 2.264.043 4.508.754 6.677.594 1.811 2.132 2.723 3.995 2.441 2.424-.366 6.307-4.681 6.336-6.99.01-.829-.608-.744-1.079-.841-1.493-.304-2.994-.571-4.492-.854zM208.778 183.982c.524-3.118 1.255-5.718 2.757-8.055 1.16-1.805 2.684-3.088 4.813-3.582 2.47-.574 4.097.445 4.329 2.997.406 4.478-1.546 8.11-4.493 11.275-1.566 1.682-3.499 2.798-5.741 3.41-1.441.394-2.213.333-2.175-1.536.033-1.679.421-3.282.51-4.509zm7.714-7.032c-2.179 1.79-3.108 4.223-3.629 6.874 1.843-1.947 3.513-3.988 3.629-6.874zM479.175 211.656c-.061 7.654-7.108 13.101-13.915 11.178-3.255-.92-5.077-3.882-4.506-7.213.291-1.696 1.506-2.249 2.935-2.533 3.296-.656 6.615-.223 9.929-.178 1.828.024 3.819.738 5.557-1.254zm-6.432 5.216c-1.462-.03-2.648-.072-3.835-.071-.862.001-1.729.019-2.585.109-.469.049-1.196-.145-1.26.604-.049.581.488.902.942 1.191 1.544.979 4.786.198 6.738-1.833zM423.726 186.712c-2.205-.53-4.039-.867-5.583-2.015-1.708-1.268-2.457-2.89-1.987-5.025.708-3.214 4.424-6.221 7.698-6.176 2.024.028 3.546.961 4.613 2.66 1.892 3.013 1.996 6.398 2.008 9.795.003.928-.699 1.041-1.393 1.016-1.92-.07-3.838-.18-5.356-.255zm-.158-4c2.684.459 2.856.271 2.217-2.092-.172-.635-.362-1.272-.618-1.876-.241-.568-.68-.974-1.338-1.033-1.068-.096-3.348 1.49-3.487 2.578-.187 1.459 1.229 1.472 2.063 1.969.443.264.973.383 1.163.454z" fill="#eecf3d"/><path d="M322.441 268.725c19.782-2.66 83.25-9.597 97.416-10.473-91.431 5.652-205.826-4.499-246.532-1.496-27.82 2.052-32.084 17.123-32.084 17.123 10.307-3.657 15.109-5.891 26.598-1.381 6.483 2.545 22.276 17.492 20.78 19.667 1.664-2.42 4.53-8.192 27.535-13.276 8.524-1.884 23.061-4.451 69.881-7.006l36.406-3.158z" fill-rule="evenodd" clip-rule="evenodd" fill="#00834b"/><circle cx="422.152" cy="46.49" r="1.48" fill="#fff"/></svg>