<svg xmlns="http://www.w3.org/2000/svg" viewBox="0 0 597.23 525.86"><path fill="#292929" d="M530.562 218.563l-7.343 8.107-12.083-1.836 5.354 10.555-5.966 10.096 12.237-1.989 7.801 8.259 1.07-11.318 11.013-5.201-11.777-5.353-.306-11.32z"/><path fill-rule="evenodd" clip-rule="evenodd" fill="#e60008" d="M537.392 226.373l19.187 9.092-19.22 8.742-2.659 20.651-14.392-15.322-20.711 3.726 10.2-18.169-10.206-18.463 20.823 4.132 14.388-15.006 2.59 20.617z"/><path fill-rule="evenodd" clip-rule="evenodd" fill="#fff" d="M534.664 228.348l14.903 7.062-14.926 6.79-2.071 16.077-11.207-11.931-16.125 2.901 7.939-14.143-7.927-14.34 16.176 3.209 11.218-11.701 2.02 16.076z"/><path fill-rule="evenodd" clip-rule="evenodd" fill="#272626" d="M530.614 218.406l1.482 11.801 10.872 5.152-10.886 4.952-1.516 11.773-8.211-8.741-11.809 2.125 5.812-10.354-5.782-10.46 11.803 2.342 8.235-8.59z"/><path d="M257.723 413.905c-4.63.864-9.621 1.215-14.265.284a33.33 33.33 0 0 1-5.066-1.432c-5.854-2.179-10.734-6.015-13.916-11.446-2.616-4.461-3.856-9.797-3.38-14.956l-2.395.585-3.728 35.411-7.023 1.797c-36.819 9.418-76.488 20.612-111.94 34.392l4.952-34.845-12.025 5.028-6.236 34.647-77.615 31.666 19.966-91.984-7.429 2.701 14.441-68.174 82.261-32.912.609-.176c4.302-1.243 9.2-1.721 13.657-1.265 3.502.357 5.925 1.386 8.308 2.854l57.804-18.326-3.411 27.283c11.924-2.959 23.888-5.73 35.815-8.711 4.52-1.13 9.654-.994 14.162.14.125.031.249.063.371.097.188-.128.379-.252.569-.376 3.788-2.46 8.316-4.475 12.725-5.473l.524-.119 47.284-8.122-.252-11.891 69.489-23.163-.453 29.913c16.047-.505 32.093-1.02 48.141-1.484 4.618-.133 9.283 1.158 13.441 3.267.24-.086.481-.17.723-.252 4.065-1.36 8.691-1.886 12.974-1.472l37.34 1.728.423.038c10.536.933 21.033 5.51 26.782 14.773 2.618 4.219 4.299 9.344 4.506 14.325l4.47 51.321c1.816 12.76-2.919 25.194-15.113 30.885-4.821 2.25-10.564 3.124-15.855 2.493-26.913-2.068-53.796-3.386-80.795-3.312-55.259.152-97.103 4.237-150.84 14.263z" fill-rule="evenodd" clip-rule="evenodd" fill="#e60008"/><path d="M360.803 272.678l-47.202 15.733.281 13.251-56.281 9.666-.251.057c-3.144.713-6.482 2.225-9.181 3.978a25.537 25.537 0 0 0-4.39 3.573l-.297.303-.357-.23c-1.391-.894-2.921-1.528-4.522-1.932-2.755-.692-6.078-.827-8.841-.136-16.856 4.213-33.789 8.003-50.575 12.507l-.748.2 3.287-26.301-46.612 14.777-.211-.149c-2.385-1.688-4.353-3.55-7.424-3.865-3.061-.313-6.55.038-9.507.891l-.084.025-76.326 30.539-9.145 43.167 7.538-2.741-19.805 91.235 52.733-21.094 6.337-35.207 33.875-14.167c.191-.077.382-.156.573-.236l.848-.356-5.069 35.495c30.501-10.589 63.125-19.848 95.437-28.025l3.738-35.504 24.597-5.999-1.187 14.842c-.372 2.993.36 6.206 1.88 8.801 1.903 3.247 4.808 5.426 8.295 6.724 1.104.412 2.247.727 3.402.958 3.203.643 6.918.283 10.106-.312 20.39-3.804 40.725-7.363 61.376-9.45l.253-5.667.793.606c1.617 1.235 3.444 2.139 5.389 2.73 2.557.777 5.573 1.044 8.253.695 25.562-1.99 51.108-3.292 76.753-3.361 27.371-.075 54.624 1.261 81.937 3.365 3.311.434 7.087-.107 10.116-1.52 7.801-3.642 10.087-11.666 8.866-19.714l-4.521-51.922c-.089-3.151-1.222-6.539-2.879-9.209-3.865-6.225-11.451-9.024-18.45-9.644l-.188-.016-37.438-1.734c-2.812-.308-5.992.036-8.672.934-1.6.536-3.12 1.283-4.5 2.255l-.324.228-.307-.251a20.203 20.203 0 0 0-1.592-1.179c-3.006-2.008-6.934-3.613-10.599-3.508-19.676.569-39.35 1.216-59.025 1.824l-.545.017.392-25.947z" fill-rule="evenodd" clip-rule="evenodd" fill="#fff"/><path d="M82.993 350.068l14.569-18.039 22.499-7.03c1.788-.513 4.185-.768 6.015-.582 5.727.586 6.154 4.99 4.628 9.822-.941 2.981-1.635 6.122-2.256 9.185-.76 3.751-1.407 7.53-2.001 11.311a514.733 514.733 0 0 0-3.464 26.526c.121 1.984-.61 4.621-1.41 6.392-2.318 5.132-6.864 8.495-11.987 10.544L71.007 414.33l-6.32 35.115-31.801 12.72L52.55 371.57l-7.723 2.807 4.255-20.565 35.295-14.824-1.384 11.08zm-.83 8.727l17.908-6.846-4.741 33.706-19.487 6.321 6.32-33.181zm311.897-9.771l9.742-.347.695 12.523-10.09.35-.347-12.526zm10.698 22.095l-11.017 8.263h-19.512c-1.143 0-2.541-.353-3.577-.835-2.448-1.138-3.678-3.201-3.818-5.866l-.347-30.288c.171-1.328.924-2.935 1.715-4.01 2.084-2.832 5.412-3.837 8.807-3.711l27.052-.348v-11.306H393.1l-.347 7.307-24.875.35.004-16.822c.243-1.139.82-2.402 1.449-3.38 1.377-2.144 3.362-3.483 5.943-3.634l45.957-.692c1.414.297 3.012 1.041 4.211 1.842 2.689 1.797 4.194 4.373 4.194 7.631l2.439 63.414h-27.317v-7.915zm65.763-45.674l-9.211-1.024 1.023 8.186 24.992 9.024c3.747.937 7.637 2.746 9.793 6.103.686 1.068 1.406 2.765 1.406 4.068l1.739 20.17c.637 3.825.391 8.33-3.591 10.188-1.466.684-3.594.962-5.203.701l-45.225-3.48c-3.435-.144-6.039-1.776-7.555-4.857-.638-1.296-1.175-3.158-1.229-4.622l-.7-14.706 26.618.349.695 9.394h9.22l-.342-8.544-26.032-7.633c-3.768-1.047-8.29-3.017-10.151-6.72-.577-1.147-1.001-2.876-.699-4.155l-1.044-22.267c.134-3.612 1.691-6.428 5.213-7.607 1.443-.483 3.447-.697 4.971-.48l37.577 1.739c4.091.361 8.161 1.815 10.418 5.452.787 1.269 1.493 3.198 1.493 4.721l1.049 16.107-24.53-2.452-.695-7.655zM351.008 308.57l10.087-.696v19.31l-10.089 1.045v32.534l10.784-.349.351 20.006-31.391 2.443c-1.378.224-3.221.051-4.537-.348-3.218-.977-4.893-3.407-5.304-6.689-.349-2.787-.327-5.944-.335-8.756-.011-4.228.07-8.461.178-12.687.196-7.665.475-15.35.847-23.009l-7.301.348-.35-18.957 9.393-1.392-.347-16.339 28.361-9.453-.347 22.989zm-71.483 72.668c-2.793 3.087-6.432 6.906-9.948 9.134-.569.36-2.127 1.265-2.846 1.184l-17.065 3.132c-2.774-.205-6.245-.989-7.77-3.59-.499-.85-.836-2.126-.661-3.116l2.086-26.089c.149-5.489 2.959-9.46 7.8-11.858 2.143-1.062 5.171-1.976 7.586-2.142l24.277-3.815v-10.605l-11.304 2.055v6.612l-25.581 4.554.702-12.981c.154-4.62 2.619-8.132 6.404-10.589 1.721-1.117 4.162-2.254 6.194-2.716l40.721-6.961c3.885 0 9.067.767 10.702 4.903.57 1.443.649 3.456.171 4.938l-2.786 62-27.998 2.8-.684-6.85zm-76.118-40.561l11.789-10.404 16.875-4.218c1.282-.32 3.008-.323 4.275-.005 3.145.79 4.262 3.358 4.262 6.41 0 4.172-.334 8.484-.653 12.646a624.168 624.168 0 0 1-1.454 16.155l-.007.062-28.972 7.067 1.405-16.864-8.95 1.375-5.618 53.365-30.381 7.771 9.152-73.924 28.971-7.771-.694 8.335zm-73.566 66.498l6.284-34.213-7.02 2.108 3.543-21.262 34.596-10.591-10.561 73.929-36.001 11.294 2.836-19.862 6.323-1.403zm11.931-81.455l28.98-9.188-2.833 22.665-27.564 8.482 1.417-21.959zm129.209 34.862l-.342 13.043 10.608-1.368.342-13.043-10.608 1.368z" fill-rule="evenodd" clip-rule="evenodd" fill="#272626"/><path d="M389.627 219.514s5.728 3.032 9.435 1.011c0 0 11.454 7.413 12.466 10.445 0 0-1.348 1.011 16.845 3.032 0 0 14.825 3.707 11.456 7.412 0 0 6.064 5.728 16.172 4.043 10.108-1.685-1.01-.338-1.01-.338s11.792.674-5.054-10.107c0 0-3.706-2.695 1.348-2.022 0 0 13.812-1.348 1.684-4.717 0 0-6.402.674-3.369-3.369 0 0 8.759-.338 1.348-3.707 0 0-2.694-1.347-3.705 3.37 0 0-7.412-2.695-4.38-7.749 0 0-.674-9.097-7.075-2.022 0 0 .675 9.771-2.022 3.706 0 0-2.023-14.149-22.91-17.182l-21.229 18.194zM312.851 82.813s49.859-34.409 51.264-28.792c0 0-.703 4.213 4.214-1.405 4.915-5.618-3.999-2.966 6.562-7.212 0 0 .689-3.328-2.18-4.247 0 0-4.131-5.394 7-6.312 0 0 11.134 2.295 12.625-5.395 0 0 3.328 3.329 6.313-.574 0 0 4.476-2.41 6.542-1.607 2.066.804.343-.115.343-.115s4.471-7.597 4.7.689c.004.112.006.227.007.344.114 8.837.917 5.624 1.261 5.738.345.115 0-.23 0-.23s7.804-.574 10.215-1.492c0 0 4.36.573-1.033 5.738 0 0 7.004-.23 5.856 4.131 0 0 7.231 4.935 2.639 5.509 0 0-5.049 1.722-5.507.803 0 0 3.213-2.754 3.213-3.328 0 0 .346-3.674-3.902-1.034-4.247 2.64 0 .345 0 .345s-5.74 2.754-1.149 7.231c0 0 5.968 1.263.115 4.705 0 0-3.673 4.132-8.492 3.444 0 0-3.099-.803 5.968-6.657 0 0 .804-4.59-3.903-.229 0 0-7.988 11.425-12.509 11.593a2.53 2.53 0 0 1-.231-.002c-4.476-.229-4.018 9.296-14.001 5.279 0 0-14.576 6.886-19.97 15.035 0 0-2.41-5.738-4.246-2.639 0 0-3.1 2.295.458 5.394 3.558 3.099-1.377 1.721-1.607 3.213-.229 1.492-8.035 5.278-8.035 5.278s-14.231 3.328-14.806 3.328c-.573 0-13.657-1.263-15.034-1.492-1.378-.23-7.23-3.559-8.034-4.82-.803-1.262-4.821-9.985-4.821-9.985l.165-.23zM430.303 22.77s-9.481 4.741-9.481 4.916c0 0 1.229 4.565 6.496 3.16 0 0 6.847-1.932 7.374-1.23 0 0 8.25-3.686 4.739-5.617 0 0-9.128 1.755-9.128-1.229zm8.251-20.716s2.634.175 2.634 1.756c0 1.579-.527 2.808-1.581 2.282-1.053-.527-2.807-2.282-1.93-2.282s-.001-2.283.877-1.756zm-24.931 15.801s-5.792 9.48 2.986 4.388c0 0 11.41-10.709 13.868-12.114 0 0 8.955-6.671 1.932-9.656 0 0-4.389-3.159-9.656 6.847.001.001-9.13 9.13-9.13 10.535zm-22.471 56.53s-.001 4.038-4.917 6.32c-4.915 2.282 5.97 2.633 7.023.175 0 0 3.512-7.022-2.106-6.495zM153.09 90.186s-7.023-1.053-7.725-3.16l-1.054-3.16s-5.266 0-2.106-4.213c3.16-4.214-11.938-4.565-11.938-5.969 0 0-10.886-.001-9.13 4.564 0 0-7.724 1.406-3.511-5.617 0 0-20.365-.703-24.227-11.237 0 0-18.258-10.885-22.121-9.481 0 0-19.311-1.053-10.534-4.564 0 0 13.693 7.021 7.374-.703 0 0-10.534-8.075-10.183-2.457 0 0 2.458 6.32-5.618 5.969s-.702-.351-.702-.351-6.671-5.969.351-2.809c0 0 4.213-.352-4.213-7.374 0 0-4.916 8.777-3.16 11.236 0 0 5.969 3.511-1.756 3.862 0 0-4.916-1.054 5.267 7.725 0 0-3.862 8.427-7.374 7.373 0 0 5.618 1.756 5.267 4.214s10.534 1.405 9.481 5.969c-1.053 4.564 3.861 4.564 6.671 2.809 2.809-1.756 5.969 14.045 14.748 11.938 8.778-2.107-5.969-6.32 4.916-5.267 10.884 1.053 8.075 2.458 12.991 1.053 4.916-1.405-.351 4.214-.351 4.214s29.494 21.769 37.922 19.663c8.426-2.107 20.715-24.227 20.715-24.227zm-19.663-21.067l-.702 1.053 1.755 1.053s2.809 1.756 2.809.702V69.82l-3.862-.701zM100.07 58.233l-1.054-.702s-1.053-.351-3.16 0c-2.106.352-2.106.352-3.16.352-1.053 0-.351 1.053-1.053 0s-1.053-2.107-1.053-2.107.351-1.405.702-2.458c.351-1.053 1.405-1.405 2.81-1.405h3.511l1.756 2.107 1.756 2.107-1.055 2.106zm-65.66-1.755v-2.107s.702-1.756-.351-2.458c-1.053-.702-1.405-.702-2.809-2.106-1.405-1.405-1.755-2.457-3.512-3.862-1.755-1.405-2.106-2.458-3.511-3.512-1.405-1.054.351-.352-1.405-1.054-1.756-.702-2.458-.351-2.458 1.054 0 1.404.702 3.863.702 3.863l.702 2.106 1.053.351 1.053.703v2.106l.703 2.457s0 .351 1.054.351c1.053 0 1.404-1.053 3.16 0 1.755 1.053 2.809 1.053 2.809 1.053l2.81 1.055zM4.213 52.966l-2.106-.352S0 51.912 0 52.966c0 1.053.351 3.16 1.404 3.511 1.054.351 3.16.351 3.16.351l1.054-1.756-1.405-2.106zm30.899 14.747l-3.863-5.266-4.915 1.053s-3.16.351-4.213-1.053c-1.054-1.405-1.405-2.106-2.458-2.458-1.053-.351-2.809-.702-2.809-.702l-4.213-1.054H9.129c-1.053 0-3.16.351-3.16.351l-2.107 1.054v3.512l1.054.702s-1.054-.702 1.053 0 3.511 1.053 3.511 1.053l3.16.702h5.618l1.053.351s-.001 1.755 1.404 1.755h2.458s2.108.351 3.511.351h3.862l4.566-.351zm107.796 161.868s-13.343 8.427-15.45 8.427c-2.107 0-8.427 11.235-19.663 12.64 0 0-4.214 12.641-26.686 10.533 0 0 9.831 7.725 0 9.831 0 0-3.511-5.618-8.427-4.213 0 0 .658 7.331-2.897 7.462 0 0-2.106.526-1.58-5.794l-2.239.132s-3.423 2.764-3.423 4.345c0 0-6.189-1.318-2.37-5.794 0 0 4.477-2.502 2.239-3.951 0 0-11.06 6.584-12.245 3.556 0 0-4.345-3.161 9.085-12.641 0 0 5.794-1.316 6.847-.658 0 0 11.601-10.078 12.916-12.767.079-.162.12-.296.12-.401 0-1.843 2.633-6.32 15.142-6.584 0 0 11.06-11.718 13.562-12.509 0 0 5.53-5.398 5.004-6.715 0 0-9.217-1.712-3.292-3.423 0 0 3.555.922 4.609.395 0 0 10.797-9.216 12.509-7.637 1.711 1.579 15.274 4.345 15.274 4.345l4.608 13.694-3.643 7.727zm-109.99 47.446s3.819-3.028 6.716-.527c0 0 3.16 3.029 5.004 2.766 0 0 2.633 5.397-10.403 5.397-.001.001-6.584-3.027-1.317-7.636zm17.249-4.213s1.712 1.711 2.897 1.317c1.185-.395-1.712 3.555-2.765 3.16-1.053-.395-1.975-3.291-1.185-3.291.789-.001 1.053-1.186 1.053-1.186zm44.11-8.296c-2.562 2.562-2.107 3.029-3.423 4.214 0 0-1.712 3.687 3.16 2.238 0 0 1.407-1.507 1.411-2.502a.757.757 0 0 0-.095-.394c-.526-.922.527-2.898.132-3.029-.001 0-.791-.922-1.185-.527zm368.799-29.505s9.433 4.38.674 4.38.674-2.022.674-2.022l-1.348-2.358zm13.477 16.845s12.801 2.022 6.738-5.728c0 0-7.412-7.749-8.76-6.401 0 0-2.696 3.706-1.011 7.412 0 .001 1.348 4.38 3.033 4.717zm-45.148-46.157s5.391 3.369 6.401 2.021c1.01-1.347-.336-6.738-2.695-5.053-2.358 1.684-3.706 3.032-3.706 3.032z" fill="#272626"/><path d="M338.757 92.408c8.76-2.029 18.979-2.228 27.511-.732 17.221 3.021 28.163 13.47 38.096 27.048 7.007 8.508 10.74 5.988 20.409.011l48.009-28.382c-9.201 22.341-17.313 49.674-30.765 69.284l13.655-.674-38.04 39.507c-15.814 18.059-36.559 31.481-61.201 31.859-5.07.078-10.415-.466-15.526-1.573a54.29 54.29 0 0 1-2.021 1.752 39.16 39.16 0 0 1-1.395 1.108c-3.379 2.739-7.098 5.095-11.16 6.675-.377.435-.758.868-1.144 1.297l-.528.589-.576.542c-17.843 16.789-40.25 27.107-64.383 30.869-49.035 7.641-106.056-12.879-131.87-56.913a95.319 95.319 0 0 1-9.461-22.088c-1.865-5.558-3.042-11.366-3.212-17.234l-.131-1.438v-1.039c0-5.351.973-10.626 3.156-15.52.32-.811.664-1.614 1.034-2.403-.401-4.958.166-9.971 1.556-14.749-2.56-11.279-.783-24.409 7.026-33.137 2.767-3.093 6.281-5.682 10.056-7.518a42.342 42.342 0 0 1 7.629-6.438c10.389-20.121 36.34-32.678 57.298-37.563l.303-.071.303-.062c34.054-6.914 70.188-4.308 99.709 15.426 7.846 5.246 15.696 12.189 21.925 19.689 4.644-.182 9.322.426 13.738 1.878z" fill-rule="evenodd" clip-rule="evenodd" fill="#272626"/><path d="M153.143 100.058c7.896-18.837 33.532-30.483 51.879-34.876l.164-.039.165-.033c31.469-6.252 64.917-4.312 92.242 13.956 7.998 5.346 16.925 13.413 23.004 21.913 5.897-1.158 12.154-.638 17.604 1.807 8.195-2.484 18.587-2.729 26.357-1.367 14.573 2.556 23.581 11.841 31.97 23.35 10.929 13.537 19.079 11.263 33.446 2.379l23.561-14.567-10.548 25.613c-8.387 20.362-23.561 34.803-45.99 37.526-3.013.366-6.298.499-9.651.398 8.179 5.853 28.611.848 38.867-2.464l-16.024 18.298c-13.909 15.886-32.154 28.151-53.912 28.485-5.686.088-12.409-.798-18.366-2.705a48.509 48.509 0 0 1-5.331 5.151c-.433.359-.873.707-1.321 1.047-2.747 2.226-5.832 4.2-9.178 5.385-.534.229-1.075.444-1.62.644l-.308.314a98.337 98.337 0 0 1-2.332 2.707l-.249.277-.272.256c-16.39 15.423-36.964 24.843-59.128 28.298-44.986 7.01-98.073-11.646-121.812-52.141a85.414 85.414 0 0 1-8.545-20.015c-1.625-4.787-2.671-9.818-2.781-14.88l-.12-1.313v-.587c0-4.034.71-8.014 2.388-11.689a32.159 32.159 0 0 1 1.324-2.978l.292-.576.373-.527.141-.194c-.999-5.461-.312-11.18 1.652-16.404-2.754-8.813-1.962-20.09 4.081-26.845 2.246-2.509 5.364-4.648 8.655-5.94 2.536-3.035 5.795-5.798 9.323-7.664z" fill-rule="evenodd" clip-rule="evenodd" fill="#fff"/><path d="M371.509 164.741c1.272 10.421 6.349 18.359 16.974 20.924 4.397 1.061 10.428 1.146 14.884.072l.963-.232-.653.746c-12.26 13.975-28.338 25.237-47.533 25.532-6.393.099-15.225-1.355-21.008-4.569-2.259 3.349-4.927 6.401-8.07 8.999-.365.302-.749.606-1.153.91-2.233 1.824-4.617 3.335-6.964 4.119a23.424 23.424 0 0 1-3.245 1.162 94.562 94.562 0 0 1-1.981 2.066 88.91 88.91 0 0 1-2.353 2.74c-15.115 14.223-34.084 22.862-54.529 26.049-41.489 6.465-91.112-10.609-113.011-47.965a76.627 76.627 0 0 1-7.744-18.206c-1.417-4.12-2.345-8.473-2.402-12.781l-.094-1-.019-.215v-.215c0-3.276.62-6.028 1.714-8.325.305-.821.658-1.631 1.062-2.429a15.645 15.645 0 0 1 2.753-2.959c-2.513-5.778-1.592-12.633 1.217-18.178l.153-.224c-2.888-5.846-3.447-16.191 1.148-21.326 1.767-1.975 4.753-3.772 7.421-4.254 2.357-3.567 6.764-7.504 11.026-8.626 4.543-17.74 30.89-29.104 46.972-32.954 29.207-5.803 60.362-4.307 85.745 12.662 8.515 5.693 19.185 15.653 24.047 25.026 6.322-3.087 14.781-3.199 20.635 1.005 6.825-3.193 18.081-3.664 25.599-2.347 11.143 1.955 18.42 8.85 26.588 20.085 4.337 5.421 11.317 12.362 18.511 12.99 8.746.763 20.396-4.819 26.364-8.51l.826-.511-.37.898c-7.212 17.493-19.798 29.893-39.029 32.229-7.35.89-17.265.15-24.444-2.388z" fill-rule="evenodd" clip-rule="evenodd" fill="#272626"/><path d="M301.527 100.193c-1.317-2.896-4.74-3.423-4.74-3.423l-.283.174a12.524 12.524 0 0 1-7.927 2.791c-6.774 0-12.265-5.268-12.265-11.769 0-1.37.245-2.683.693-3.906l.031-.194c-17.644-8.691-34.058-7.374-34.058-7.374-.702 10.358-10.359 9.832-10.359 9.832-9.48.174-11.762-9.481-11.762-9.481-15.402.467-25.84 5.62-28.017 6.788.026.277.039.556.039.84 0 5.211-4.4 9.433-9.827 9.433-2.147 0-4.132-.659-5.748-1.779-2.509 1.042-6.488 4.731-7.563 7.32a19.17 19.17 0 0 1 2.117-.134c6.489 0 11.749 4.998 11.749 11.167 0 6.167-5.372 11.165-11.749 11.165-6.377 0-11.374-4.635-11.719-10.387-1.532.648-5.07 3.185-5.635 5.051 3.198 1.838 8.565 5.903 9.647 9.694-5.969-4.915-11.06-5.442-11.06-5.442-5.091-1.579-9.13 4.916-9.13 4.916 11.326.072 16.146 2.933 20.138 4.899 10.312 5.08 18.326 14.375 30.356 15.311 18.235 1.422 44.197-9.775 59.836-17.914a10.302 10.302 0 0 1-.064-1.143c0-6.508 6.127-11.779 13.685-11.771 3.139.003 6.03.917 8.338 2.45 5.791-3.283 19.454-4.39 20.801-3.946-3.688-8.164 4.476-13.168 4.476-13.168zm-103.23 42.135c-5.964 0-10.798-4.953-10.798-11.06 0-6.109 4.834-11.061 10.798-11.061 5.963 0 10.797 4.953 10.797 11.061 0 6.107-4.834 11.06-10.797 11.06zm9.744-30.549c-6.399 0-11.587-5.314-11.587-11.869s5.187-11.87 11.587-11.87c6.399 0 11.587 5.315 11.587 11.87s-5.188 11.869-11.587 11.869zm27.65 18.962c-5.963 0-10.795-4.953-10.795-11.061s4.833-11.06 10.795-11.06c5.964 0 10.798 4.953 10.798 11.06 0 6.108-4.834 11.061-10.798 11.061zm21.06-21.797c-6.997 0-12.666-5.396-12.666-12.055 0-6.657 5.67-12.054 12.666-12.054 6.994 0 12.666 5.398 12.666 12.054 0 6.658-5.672 12.055-12.666 12.055zM330.934 115.115s13.356 6.99 1.641 16.005a22 22 0 0 0-8.381-5.821c3.194-1.603 7.333-5.619 6.74-10.184zM394.135 142.679s-11.442-12.286-16.206-19.39c-1.872 2.887-5.204 4.81-9.005 4.81-5.856 0-10.602-4.562-10.602-10.192a9.82 9.82 0 0 1 .696-3.637l.005-.033-8.075.175s-.455 7-7.652 9.458c0 0 15.012 3.339 19.903 16.295 1.156-4.396 5.483-7.669 10.658-7.669 6.06 0 10.972 4.48 10.972 10.008 0 5.526-4.912 10.007-10.972 10.007-2.479 0-4.759-.759-6.596-2.024.712 2.336 1.322 4.909 1.594 7.466 0 0 9.127 6.145 22.471 4.389l-.005-.028a9.876 9.876 0 0 1-.386-2.738c0-5.6 4.679-10.141 10.452-10.141 4.5 0 8.335 2.759 9.808 6.629 1.212-.8 7.496-5.055 10.503-9.171.001-.001-17.212 4.887-27.563-4.214z" fill="#e60008"/><path d="M371.971 181.689a10.098 10.098 0 0 1-7.331 3.125c-5.525 0-10.005-4.363-10.005-9.744 0-5.38 4.48-9.743 10.005-9.743.278 0 .552.02.824.041-.61-5.917-2.333-14.181-6.957-22.184-1.804 2.246-4.71 3.71-7.997 3.71-5.479 0-9.921-4.047-9.921-9.042 0-3.136 1.755-5.898 4.416-7.52-1.454-1.261-2.78-2.398-3.198-2.652-1.009 2.662-2.988 5.269-6.026 7.608l-.092.07a59.526 59.526 0 0 1 7.933 16.519 8.776 8.776 0 0 1 1.093-.067c5.284 0 9.568 4.44 9.568 9.92 0 4.919-3.454 9-7.983 9.783-.051 3.146-.314 6.549-.874 9.621l.255-.004c5.916 0 10.71 4.558 10.71 10.182 0 5.624-4.794 10.182-10.71 10.182-2.228 0-4.295-.65-6.006-1.759a59.186 59.186 0 0 1-1.425 2.879c6.437 3.738 26.309 11.759 52.376-11.301-.001-.004-9.169-.01-18.655-9.624z" fill="#e60008"/><path d="M285.927 120.04a195.43 195.43 0 0 0-.517 7.024c1.234-.354 14.142-5.181 16.642-5.803-2.219-4.621-13.031-2.174-16.125-1.221z" fill="#fff"/><path d="M143.258 130.741s-.526 5.529 3.161 10.27c0 0-6.32 8.954-2.107 16.853 0 0 12.377-10.533 70.313 14.221 0 0 10.271 5.53 31.075-4.213 0 0 11.223-4.438 45.822-28.178 0 0 28.441-18.434 39.502 3.951 0 0 16.589 29.494-5.531 56.092 0 0-18.434 31.338-68.732 3.95 0 0-22.91-10.797-38.975-25.544 0 0-33.18-16.328-48.191-17.38 0 0-31.074-7.9-31.074 12.114 6.365 72.932 120.46 105.259 174.596 45.03 0 0 19.751-2.896 26.598-35.286 2.88-10.679 1.312-23.774-3.236-34.804-2.874-6.967-7.364-15.273-14.905-17.879-14.485-5.012-34.791 8.682-34.791 8.703 4.865-8.226 24.279-14.79 25.807-14.483 0 0-1.329-2.612-11.532 1.247-5.29 1.997-10.62 4.004-15.854 6.127-.289.887-.88 9.948-14.196 18.365-12.608 7.683-22.474 14.359-34.26 18.503-3.989 1.177-17.398 4.979-21.593-5.531-2.083-5.007-6.438-12.527-12.673-12.011-2.916.239-5.742.276-8.433.067-13.821-1.077-20.964-10.267-32.27-15.836-6.61-3.256-10.203-4.311-17.849-4.359l-.655-.004-.017.015z" fill="#fff"/><path d="M295.733 141.537s7.375-2.633 8.164 6.057c0 0 4.476 22.121 4.213 23.964 0 0-5.003 4.213-23.7 7.374 0 0-4.04-12.12-4.947-16.563-1.481-7.251-1.027-10.695 6.527-15.301l9.743-5.531zM274.666 156.812s-.502-2.759-14.479 9.104c-2.642 2.241-.852 13.711.348 16.713 0 0 15.185-.274 19.136-2.116-.001 0-1.318-17.117-5.005-23.701zM234.791 180.345c1.519.497 11.435 2.537 21.968 2.537 0 0 0-15.8-6.847-12.641l-9.48 3.424c0 .001-6.084 1.596-5.641 6.68zM312.324 169.979s9.98-7.44 13.823-11.776c3.086-3.483 2.492-9.702-1.446-12.189 0 0-5.53-4.477-10.534-6.847 0 0-6.847-3.16-6.847 5.53 0 .001 3.161 22.648 5.004 25.282zM231.742 180.249s-5.794-1.054-6.583-1.317c0 0 2.106-2.37 6.583-2.107v3.424zM332.601 172.085s-1.063 16.548-14.002 29.453c-3.538 3.527-9.573 7.531-11.599.108-.376-1.377-.567-3.198-.47-5.596 0 0 1.053-15.011 3.161-19.224 0-.001 20.014-7.11 22.91-4.741zM306.004 177.615s-8.69 3.95-21.331 5.267c0 0-5.53 22.647-4.74 23.964-.603 2.814 16.26 4.373 18.618 2.229 1.985-1.805 5.464-8.312 7.453-31.46zM260.446 185.253s18.697-.527 19.75-2.107c0 0-.297 17.01-4.967 21.497-4.103 3.941-11.753-1.433-14.782-4.116v-15.274h-.001zM256.758 185.253s.791 11.06-1.054 13.958c0 0-20.276-9.218-21.593-11.588l.276-5.155c0-.002 9.996 2.521 22.371 2.785zM231.742 182.092l-.263 2.897s-6.32-2.37-6.32-4.213c-.115-1.246 4.366 1.455 6.583 1.316z" fill="#fff"/><path d="M184.867 150.227s-4.741 5.53-10.533-1.054c0 0-10.798-10.797-12.642-10.797 0 0-7.111-3.159-13.429.263 0 0 9.216-1.844 13.956 4.74 0 0-9.743-.789-13.693 5.268 0 0 9.216-2.898 13.166-1.844-.898 5.215 4.939 7.934 8.427 3.688 0 0 4.214 5.529 7.9 5.529.001.001 5.794 1.581 6.848-5.793z" fill="#292929"/><path d="M147.914 159.801c.477 1.794.763 3.512.496 5.363-.337 2.335 3.307 2.668 3.642.345.311-2.153.018-4.256-.537-6.343-.599-2.258-4.206-1.643-3.601.635zM167.029 166.542c.012-2.462.144-4.927-.192-7.376-.32-2.334-3.921-1.695-3.602.635.291 2.125.163 4.259.152 6.396-.011 2.338 3.631 2.698 3.642.345zM179.962 171.206c1.334-2.373 1.674-4.874 1.508-7.565-.061-.994-1.223-1.632-2.118-1.483-1.066.176-1.544 1.137-1.483 2.118.1 1.628-.091 3.389-.902 4.832-1.145 2.036 1.84 4.152 2.995 2.098zM191.816 176.113c2.758-1.731 3.459-4.367 3.254-7.479-.065-.987-1.221-1.642-2.118-1.483-1.062.187-1.549 1.129-1.483 2.118.084 1.274-.029 2.79-1.222 3.539-.836.524-1.325 1.47-.867 2.437.384.813 1.595 1.396 2.436.868zM205.613 181.708c1.743-2.385 3.175-4.667 2.885-7.737-.221-2.343-3.822-1.696-3.602.635.184 1.946-1.207 3.535-2.28 5.003-1.391 1.904 1.607 4 2.997 2.099zM218.325 188.68c3.184-1.092 3.281-4.88 3.274-7.678-.006-2.337-3.648-2.698-3.642-.345.003 1.361.419 4.163-1.202 4.719-.942.323-1.247 1.614-.868 2.437.453.979 1.508 1.186 2.438.867zM230.601 197.374c2.286-1.937 3.027-4.293 2.857-7.222-.058-.988-1.226-1.641-2.119-1.483-1.067.188-1.541 1.128-1.483 2.118.095 1.627-.388 2.752-1.621 3.797-1.795 1.522.565 4.317 2.366 2.79zM242.308 205.121c2.222-2.074 3.196-4.357 3.028-7.393-.055-.988-1.228-1.64-2.119-1.483-1.07.189-1.538 1.128-1.483 2.119.092 1.661-.609 2.864-1.793 3.968-1.714 1.599.64 4.401 2.367 2.789zM256.597 212.523c1.997-1.336 3.724-4.013 4.081-6.387.351-2.333-3.293-2.664-3.642-.345-.2 1.331-1.576 3.12-2.805 3.942-.821.55-.799 1.886-.212 2.578.698.824 1.753.764 2.578.212zM271.2 218.547c1.319-2.242 1.365-4.543 1.355-7.075-.009-2.336-3.651-2.698-3.642-.345.007 1.757.219 3.745-.71 5.322-1.187 2.018 1.8 4.131 2.997 2.098zM287.21 223.196c1.746-2.373 1.387-5.167 1.356-7.935-.026-2.333-3.668-2.697-3.642-.345.023 1.981.547 4.476-.71 6.182-1.398 1.9 1.6 3.994 2.996 2.098zM302.232 221.921c.686-2.19.794-4.382.795-6.66.001-2.337-3.641-2.698-3.642-.345-.001 1.936.001 3.872-.584 5.736-.703 2.242 2.726 3.518 3.431 1.269zM316.8 215.605c.159-1.546.172-3.095.172-4.648 0-.987-.6-1.896-1.649-1.994-.912-.086-1.993.656-1.993 1.649 0 1.553-.013 3.102-.172 4.648-.242 2.345 3.4 2.686 3.642.345zM324.501 202.687c.096.017.19.043.281.076.122.049.119.038-.007-.031l.141.095-.099-.094c.115.149.139.169.07.063-.065-.11-.051-.082.04.086.182.239.011-.058.049.101.035.145.064.291.084.439.006.043.037.502.031.306-.005-.199-.011.27-.013.311-.009.183-.026.365-.044.547-.238 2.346 3.404 2.687 3.642.345.229-2.261-.343-5.054-2.908-5.676-.959-.232-1.979.079-2.35 1.081-.31.843.118 2.117 1.083 2.351z" fill="#e60008"/><path d="M126.931 482.567c-3.687-7.638-5.53-.79-5.53-.79-.263 3.423-2.634 9.479-2.634 9.479-6.847-6.056-17.643 12.114-17.643 12.114-7.11 16.063-1.317 21.332-1.317 21.332 4.213 4.74 12.114-6.584 12.114-6.584v4.215c7.637 2.633 6.847-1.317 6.847-1.317-4.74 3.686 7.374-31.602 7.374-31.602 4.213-4.214.789-6.847.789-6.847zm321.805-41.61s-9.13 7.375-9.832 9.833c0 0-14.045 16.152-17.556 13.694 0 0-2.106-2.458.352-4.565 0 0 15.448-7.724 17.204-17.906 0 0 2.809-11.238-10.182-1.756 0 0-5.619 4.564-11.587 10.534 0 0-11.587 15.8-11.587 13.694 0 0 2.459-14.395 3.863-15.099 0 0 2.458-14.046-6.671-6.671l-5.619 4.564s1.755-10.883 4.916-12.64c0 0 3.159-8.428-5.267-9.833 0 0-5.819 1.293-4.429 9.462.059.344.131.701.215 1.072 2.108 9.129-2.809 15.098-3.862 15.8 0 0-21.419 22.473-23.525 22.121 0 0-9.832 9.831-6.671 0 0 0 3.862-12.288 9.128-16.501 0 0 7.727 4.213 7.727-2.458 0 0 1.754-8.428-3.863-10.534 0 0-3.863.352-9.129 8.777 0 0-21.418 26.334-25.982 25.982 0 0-5.618 4.919-3.161-3.861 0 0 21.768-11.588 18.259-21.77 0 0-3.513-6.671-17.557 8.428 0 0-10.181 10.884-7.021 21.77 0 0 4.564 7.02 15.098-2.81 0 0 8.077-6.671 9.481-8.428 0 0 1.054 15.451 11.237 9.833 0 0 21.066-17.908 23.875-22.121 0 0-4.213 21.068 1.054 16.504 0 0 1.055 3.511 4.565-7.724 3.511-11.238.35-1.056.35-1.056s7.725-17.205 10.183-18.258c2.457-1.053-2.809 10.886-2.107 11.235 0 0-3.861 14.75 2.107 13.696 0 0 5.969-4.565 10.884-10.534 0 0 1.757 11.939 9.481 5.969 0 0 21.418-14.397 22.471-19.663-.003-.001 5.615-5.266 3.158-8.78zm-138.342 18.26s-4.916-4.564-6.32-2.106c0 0-4.215 3.511-1.757 10.182l-2.107 2.106s-12.641 16.853-14.044 15.099c0 0 2.458-16.856 3.862-16.856 0 0 4.917-3.509 0-6.671h-7.725s-2.456 11.235-5.969 11.235c0 0-1.306 4.768-3.229 6.809.413-.52.674-1.329.421-2.594-.351-1.757-.702-6.322-.702-6.322s4.564-5.617-.351-5.617c0 0-7.724-2.456-7.724-1.053 0 0-1.755 10.182-4.214 10.534l-1.053 1.757s-2.459-8.076-5.969-8.428c0 0-5.97 0-3.161 10.884 0 0-14.747 16.152-16.503 15.8 0 0-1.053-8.777 7.373-17.203 0 0-2.809-10.886-15.8-2.81 0 0-20.717 21.418-24.579 21.068 0 0-15.098 16.152-18.961 13.342 0 0-8.076 1.755 11.587-26.686 0 0 7.022-11.936 8.778-10.182 1.756 1.754.702.352.702.352s11.938 1.053 9.481-7.375c0 0-1.756-3.512 0-3.863 0 0-4.916-9.828-10.534.352 0 0-18.259 18.96-25.632 39.679 0 0-8.778 18.256 9.48 12.641 0 0 5.267-2.81 24.579-20.015 0 0-2.458 22.471 11.237 9.481l4.915-7.023s0 12.64 8.427 5.268c0 0 9.129-11.238 11.938-12.992l-1.404 10.182s.352 8.426 4.915 2.107c0 0 13.695-26.686 15.801-26.334 0 0-5.266 18.608-3.512 19.312 0 0-.704 8.076 4.915 1.757 0 0 5.268-10.886 6.672-9.833 0 0 9.129-14.043 9.48-12.641 0 0-2.108 14.046-3.511 14.046 0 0-2.809 10.182 4.214 7.372 0 0 14.046-16.851 14.396-17.203 0 0 .701 9.83-1.756 11.587l.352 2.106s-4.565-.701-6.32 5.266c0 0 0 2.81 4.213 1.053 0 0-.701 15.8-3.159 16.504 0 0-2.458 5.969 4.213 2.458 0 0 4.564-22.825 6.671-23.527 0 0 23.175-21.418 26.335-34.41 0 .001-2.108-4.564-18.961 1.405zm-80.408 22.12c-.702 2.106-12.993 18.258-12.993 18.258-4.915-2.458 10.184-18.96 10.184-18.96 6.321-3.513 2.809.702 2.809.702zm42.516-1.788a1.999 1.999 0 0 1-.895.353 2.77 2.77 0 0 0 .895-.353zm46.669-14.012c-4.565 5.618-11.587 17.205-12.991 16.504-1.404-.704 3.863-14.046 3.863-14.046s6.319-4.215 6.671-3.162c0 0 7.022-4.914 2.457.704zm113.765-23.175c-.702 6.671-8.427 9.831-8.427 9.831-1.053-4.565 8.427-9.831 8.427-9.831zm-88.132 16.853c-.701 6.671-8.427 9.833-8.427 9.833-1.054-4.567 8.427-9.833 8.427-9.833zm-188.379 33.357c-.526 4.742-20.803 20.278-20.803 20.278-5.794 5.529-3.951-3.159-3.951-3.159 13.958-6.322 18.961-17.119 18.961-17.119 3.16-12.377-10.007-4.213-10.007-4.213-10.27 10.271-14.484 17.643-14.484 17.643-3.423 16.066 5.53 14.223 5.53 14.223 12.377-3.162 27.651-24.228 27.651-24.228 4.74-8.164-2.897-3.425-2.897-3.425zm-12.815.352c-.701 6.671-8.427 9.831-8.427 9.831-1.053-4.565 8.427-9.831 8.427-9.831zm-26.685 6.319c-.702 2.109-12.992 18.259-12.992 18.259-4.916-2.458 10.183-18.96 10.183-18.96 6.32-3.511 2.809.701 2.809.701z" fill="#272626"/><path fill="#292929" d="M571.214 280.042l-7.343 8.107-12.083-1.836 5.353 10.555-5.965 10.096 12.236-1.989 7.802 8.258 1.07-11.318 11.013-5.2-11.778-5.354-.305-11.319z"/><path fill-rule="evenodd" clip-rule="evenodd" fill="#e60008" d="M578.043 287.852l19.187 9.092-19.219 8.741-2.659 20.651-14.392-15.322-20.711 3.727 10.199-18.17-10.205-18.462 20.823 4.131 14.387-15.006 2.59 20.618z"/><path fill-rule="evenodd" clip-rule="evenodd" fill="#fff" d="M575.315 289.827l14.904 7.062-14.927 6.789-2.07 16.078-11.208-11.932-16.125 2.902 7.94-14.144-7.928-14.34 16.177 3.21 11.218-11.701 2.019 16.076z"/><path fill-rule="evenodd" clip-rule="evenodd" fill="#272626" d="M571.266 279.884l1.482 11.802 10.872 5.151-10.886 4.952-1.516 11.774-8.211-8.741-11.809 2.125 5.812-10.354-5.783-10.461 11.803 2.342 8.236-8.59z"/></svg>