<svg xmlns="http://www.w3.org/2000/svg" viewBox="0 0 582.082 535.143"><path d="M577.228 422.655c4.008-3.906 4.766-7.733 4.81-9.916.912-17.396-12.628-28.19-13.207-28.644a8.752 8.752 0 0 0-2.932-1.504c-1.543-.451-2.976-.67-4.38-.67-3.917 0-7.348 1.785-9.412 4.898-2.561 3.862-2.227 8.486-1.274 12.108-2.321.595-6.655 1.376-14.693 2.102-1.873.169-3.757.361-5.608.565 2.462-2.299 5.839-5.611 9.094-9.326 6.38-7.282 14.406-18.12 10.469-28.128a8.645 8.645 0 0 0-.184-.433c-1.551-3.395-4.906-5.588-8.547-5.588h-.002c-1.75 0-5.904.552-8.567 5.388a220.284 220.284 0 0 0-4.031-8.026c-.018-.201.008-.654.411-1.378.042-.075.083-.151.122-.227.07-.104.278-.398.67-.821 10.106-.694 10.382-.73 10.724-.775a11.965 11.965 0 0 0 9.984-8.657 11.984 11.984 0 0 0-4.022-12.582l-83.939-67.64c-4.063-32.272-15.623-63.322-33.636-90.416l4.076-4.487a11.91 11.91 0 0 0 3.034-6.61l1.81-15.039a12.03 12.03 0 0 0-2.928-9.386 12.023 12.023 0 0 0-8.986-4.048h-.838v-20.537l2.493-4.234a12.008 12.008 0 0 0 .08-12.048 12.033 12.033 0 0 0-10.416-6.044h-9.398a11.98 11.98 0 0 0-9.231-4.342h-12.443l-1.816-1.79c.621-1.468.939-3.04.939-4.657v-4.522c0-5.57-3.816-10.265-8.97-11.611-.222-8.64-2.786-16.67-7.666-23.967-16.313-24.394-53.358-31.068-58.824-31.932-4.323-.924-9.534-1.392-15.495-1.392-25.059 0-58.344 7.954-62.936 9.081-6.03 1.208-21.391 3.445-32.989 5.031-.851.031-1.687.046-2.492.046-20.966 0-24.563-10.384-24.823-11.241A11.984 11.984 0 0 0 159.59 0h-.007a12.034 12.034 0 0 0-10.929 7.025c-8.609 18.885-12.945 35.765-12.888 50.168.044 11.316 2.855 18.009 4.309 20.716 3.669 8.112 9.899 14.328 18.523 18.48a49.163 49.163 0 0 0 4.658 1.949c-22.295 10.423-42.445 24.563-59.987 42.105-19.425 19.425-34.676 42.047-45.331 67.239-10.674 25.235-16.257 51.984-16.61 79.552-6.923 5.004-14.12 11.75-19.227 16.843-3.983 3.972-9.938 10.25-11.991 12.938a9.795 9.795 0 0 0-.391.514c-15.551 21.952-8.507 34.426-5.457 38.202 5.101 6.956 13.901 12.455 26.79 16.719 1.976 14.656 14.567 25.993 29.756 25.993 3.27 0 6.457-.516 9.478-1.521a213.463 213.463 0 0 0 4.375 7.132c-6.541 32.295-20.964 83.542-28.968 98.7-3.769 7.014-7.815 12.89-12.028 17.472-2.221 2.414-3.136 5.833-2.09 8.942a8.749 8.749 0 0 0 9.058 5.94c14.285-1.252 28.932-8.959 43.535-22.906 8.512-7.555 15.377-19.104 21.595-36.322 2.266-6.312 4.766-15.339 7.464-26.942 16.781 14.781 35.652 26.713 56.278 35.567 26.374 11.322 54.416 17.062 83.347 17.062 1.037 0 2.101-.009 3.181-.025 6.868 4.033 12.283 8.049 16.073 11.149 6.437 4.616 7.259 9.472 16.092 8.754 4.787-.13 8.687-6.44 9.63-10.848 2.147-10.03 14.628-16.31 16.319-16.941 16.77-6.253 203.207-49.9 201.045-50.849l40.96-10.273c9.91-2.486 16.805-5.717 21.076-9.879z" fill="#b1b1b1"/><ellipse transform="rotate(-2.837 252.872 289.198)" cx="252.678" cy="288.987" rx="202.795" ry="202.797" fill-rule="evenodd" clip-rule="evenodd" fill="#fff"/><path d="M169.715 373.509c1.338 15.69 1.996 32.066 1.698 48.979a752.82 752.82 0 0 1 2.158-6.865 482.25 482.25 0 0 0-1.752-42.098c-.728-.003-1.43-.007-2.104-.016z" fill-rule="evenodd" clip-rule="evenodd" fill="#b8b8b8"/><path d="M171.678 439.065c.38.522.763 1.035 1.147 1.544l.04-.749a8.228 8.228 0 0 1-1.187-.795z" fill-rule="evenodd" clip-rule="evenodd" fill="#b8c1ca"/><path d="M400.599 399.703c-39.917-35.277-69.891-72.374-89.101-110.26-15.379-30.347-23.93-61.262-25.405-91.889-2.511-52.198 16.708-85.945 16.905-86.278l1.804 1.05c-.192.33-19.134 33.64-16.615 85.26 2.329 47.661 23.957 121.15 113.796 200.553l-1.384 1.564z" fill-rule="evenodd" clip-rule="evenodd" fill="#b8b8b8"/><g fill-rule="evenodd" clip-rule="evenodd" fill="#b8b8b8"><path d="M123.442 193.354l-1.27 2.204a468.852 468.852 0 0 1 2.774 6.029l1.401-1.966a441.59 441.59 0 0 0-2.905-6.267zM117.569 181.449l-1.257 2.128a377.567 377.567 0 0 1 3.676 7.397l1.259-2.187a376.624 376.624 0 0 0-3.678-7.338zM147.831 255.259a543.478 543.478 0 0 0-5.632-16.505l-1.609 1.7a543.795 543.795 0 0 1 5.253 15.448c.152.472.832 3.087.985 3.565l2.166-.548c-.057-.183-1.105-3.477-1.163-3.66zM128.821 205.156l-1.412 1.98a500.782 500.782 0 0 1 4.233 9.992l1.495-1.849a492.227 492.227 0 0 0-4.316-10.123zM149.736 261.28l-1.713 1.533a541.166 541.166 0 0 1 7.165 25.43c.45-.415.937-.808 1.479-1.168a16.22 16.22 0 0 1-.401-2.995 542.627 542.627 0 0 0-6.53-22.8zM135.388 220.806l-1.506 1.862a745.665 745.665 0 0 1 5.601 14.611l2.026-.603a856.296 856.296 0 0 0-6.121-15.87zM114.681 178.119c.183-.308.444-.558.751-.737-1.525-2.845-2.409-4.365-2.449-4.433l-1.804 1.057c.043.072 1.083 1.86 2.859 5.203l.643-1.09z"/></g><path d="M109.009 193.446a2.093 2.093 0 0 1-1.798-3.155l6.797-11.499c.22-.369.546-.662.935-.84l11.499-5.227a2.087 2.087 0 0 1 2.764 1.039 2.087 2.087 0 0 1-1.036 2.768l-10.898 4.955-6.46 10.932a2.092 2.092 0 0 1-1.803 1.027zM314.88 128.701c-.187 0-.375-.019-.561-.06l-14.288-3.137a2.64 2.64 0 0 1-.994-.451l-9.409-6.969a2.613 2.613 0 1 1 3.11-4.202l8.958 6.636 13.746 3.017a2.608 2.608 0 0 1 1.987 3.112 2.611 2.611 0 0 1-2.549 2.054zM314.88 143.685c-.155 0-.314-.014-.473-.043l-20.908-3.834a2.561 2.561 0 0 1-.948-.379l-12.898-8.362a2.62 2.62 0 0 1-.769-3.615 2.618 2.618 0 0 1 3.617-.769l12.452 8.079 20.396 3.736a2.617 2.617 0 0 1 2.099 3.044 2.617 2.617 0 0 1-2.568 2.143zM310.004 161.979c-.189 0-.379-.017-.572-.052l-20.905-3.834a3.183 3.183 0 0 1-1.093-.421l-15.679-9.755a3.138 3.138 0 0 1 3.316-5.326l15.174 9.441 20.318 3.727a3.134 3.134 0 0 1-.559 6.22zM311.456 185.499c-.225 0-.456-.021-.682-.063l-25.159-4.519a3.801 3.801 0 0 1-1.314-.499l-18.869-11.51c-1.768-1.077-2.315-3.359-1.207-5.093 1.099-1.736 3.423-2.266 5.193-1.187l18.261 11.139 24.452 4.395c2.051.367 3.409 2.294 3.03 4.304-.328 1.784-1.919 3.033-3.705 3.033zM113.543 208.309a2.089 2.089 0 0 1-1.813-3.132l8.413-14.613a2.08 2.08 0 0 1 .928-.852l14.234-6.642a2.091 2.091 0 0 1 1.768 3.789l-13.636 6.365-8.085 14.039a2.086 2.086 0 0 1-1.809 1.046zM156.475 408.858a2.089 2.089 0 0 1 .311-3.606l15.271-7.149c.388-.183.825-.24 1.249-.166l15.47 2.719a2.09 2.09 0 1 1-.723 4.117l-14.821-2.603-14.674 6.867c-.7.33-1.494.234-2.083-.179zM117.602 219.314a2.617 2.617 0 0 1-2.128-4.133l10.058-14.099a2.61 2.61 0 0 1 1.254-.945l15.283-5.4a2.608 2.608 0 0 1 3.334 1.591 2.612 2.612 0 0 1-1.592 3.335l-14.503 5.126-9.579 13.426a2.603 2.603 0 0 1-2.127 1.099zM153.533 390.074a2.617 2.617 0 0 1 .668-4.6l16.376-5.637a2.614 2.614 0 0 1 1.57-.041l15.578 4.479a2.613 2.613 0 1 1-1.442 5.023l-14.784-4.248-15.595 5.367a2.615 2.615 0 0 1-2.371-.343zM121.6 235.977a2.614 2.614 0 0 1-2.031-4.257l12.287-15.192a2.588 2.588 0 0 1 1.319-.869l17.241-4.915a2.613 2.613 0 1 1 1.43 5.027l-16.448 4.689-11.764 14.547a2.618 2.618 0 0 1-2.034.97zM124.944 258.919a2.612 2.612 0 0 1-1.899-4.409l15.922-16.814a2.614 2.614 0 0 1 1.343-.76l22.934-4.963a2.611 2.611 0 0 1 3.103 2 2.612 2.612 0 0 1-2 3.109l-22.143 4.794-15.361 16.225a2.606 2.606 0 0 1-1.899.818zM132.659 278.269a2.61 2.61 0 0 1-1.948-.873 2.611 2.611 0 0 1 .204-3.689l15.915-14.24a2.639 2.639 0 0 1 1.336-.634l23.461-3.706c1.43-.226 2.76.75 2.988 2.175a2.616 2.616 0 0 1-2.174 2.989l-22.697 3.585-15.344 13.725a2.61 2.61 0 0 1-1.741.668z" fill-rule="evenodd" clip-rule="evenodd" fill="#b12028"/><path d="M194.401 373.138c-.495 0-.996-.139-1.431-.431l-16.442-10.79-19.95 6.894a2.614 2.614 0 0 1-3.325-1.613 2.62 2.62 0 0 1 1.62-3.327l21.166-7.315a2.605 2.605 0 0 1 2.289.286l17.508 11.498a2.616 2.616 0 1 1-1.435 4.798zM350.07 386.29a2.61 2.61 0 0 1-2.462-1.736 2.606 2.606 0 0 1 1.586-3.337l24.255-8.664 3.603-15.85a2.612 2.612 0 1 1 5.095 1.157l-3.92 17.25a2.61 2.61 0 0 1-1.669 1.881l-25.612 9.149c-.29.103-.584.15-.876.15zM368.945 397.099a2.616 2.616 0 0 1-2.329-1.415 2.617 2.617 0 0 1 1.132-3.522l15.197-7.825.963-10.573a2.61 2.61 0 0 1 2.844-2.365 2.607 2.607 0 0 1 2.361 2.84l-1.096 12.004a2.614 2.614 0 0 1-1.401 2.085l-16.479 8.482a2.58 2.58 0 0 1-1.192.289z" fill-rule="evenodd" clip-rule="evenodd" fill="#666"/><path d="M379.939 402.788a2.614 2.614 0 0 1-1.197-4.937l15.199-7.828.965-10.573c.134-1.437 1.413-2.51 2.839-2.362a2.608 2.608 0 0 1 2.366 2.837l-1.097 12.004a2.609 2.609 0 0 1-1.405 2.085l-16.474 8.485a2.634 2.634 0 0 1-1.196.289zM366.564 362.678l.411-.148a2.613 2.613 0 0 0 1.672-1.881l3.918-17.25a2.61 2.61 0 0 0-1.97-3.126 2.61 2.61 0 0 0-3.124 1.972l-3.605 15.847-1.006.358c1.264 1.058 2.602 2.454 3.704 4.228z" fill-rule="evenodd" clip-rule="evenodd" fill="#b12028"/><path d="M253.595 488.769c-53.088 0-102.998-20.673-140.537-58.212s-58.213-87.45-58.213-140.538c0-53.088 20.673-102.999 58.213-140.538 37.539-37.539 87.45-58.213 140.537-58.213 53.088 0 102.999 20.674 140.538 58.213 37.539 37.539 58.213 87.449 58.213 140.538 0 53.088-20.673 102.999-58.213 140.538s-87.449 58.212-140.538 58.212zm0-385.924c-49.996 0-96.999 19.469-132.351 54.822-35.352 35.352-54.821 82.355-54.821 132.351 0 49.996 19.469 96.999 54.821 132.352 35.352 35.352 82.356 54.822 132.351 54.822 49.996 0 96.999-19.469 132.352-54.822 35.352-35.353 54.821-82.356 54.821-132.352 0-49.996-19.469-96.999-54.821-132.351-35.353-35.352-82.356-54.822-132.352-54.822z" fill="#b12028"/><path d="M540.993 336.808l-91.93-74.08v-8.391a3.257 3.257 0 0 0-3.255-3.255H433.87v-3.616a3.257 3.257 0 0 0-3.255-3.257h-4.655l-14.35-11.36c4.538-9.611 3.303-19.865 3.252-20.284-1.477-13.418-9.025-19.842-14.066-22.681l25.714-28.307c.458-.5.745-1.129.828-1.8l1.807-15.012a3.264 3.264 0 0 0-.798-2.549 3.26 3.26 0 0 0-2.434-1.094h-9.583v-31.666l3.703-6.288a3.255 3.255 0 0 0-2.801-4.909h-15.374v-1.085a3.255 3.255 0 0 0-3.254-3.257h-16.027l-9.523-9.384 2.853-3.878c.409-.56.633-1.236.633-1.929v-4.522a3.255 3.255 0 0 0-3.255-3.253h-6.306c1.686-10.158-.194-19.381-5.599-27.463-14.691-21.966-50.354-27.765-53.155-28.191-3.755-.827-8.427-1.249-13.897-1.249-24.7 0-58.797 8.322-61.025 8.872-8.371 1.7-32.041 4.931-34.137 5.217a78.344 78.344 0 0 1-3.255.069c-28.856.002-33.159-17.215-33.322-17.923a3.257 3.257 0 0 0-2.832-2.557 3.268 3.268 0 0 0-3.316 1.887c-19.198 42.115-10.173 60.788-8.702 63.361 5.59 12.729 19.554 19.453 40.405 19.453 14.519 0 27.609-3.183 29.92-3.775 7.542-.56 55.908-12.119 65.743-14.4.061-.014.121-.03.183-.047 9.909-2.906 23.411-3.253 23.577-3.253 6.509 0 15.172.946 19.467 2.132-.447.557-.775 1.983-.775 2.75l.056 1.865c0 .748.279 1.317.732 2.057l2.594 5.122-16.434 10.624a3.254 3.254 0 0 0-1.22 2.865l1.63 18.475a3.26 3.26 0 0 0 .682 1.704l21.062 26.675 1.469 28.616-19.692 11.252c.977-4.754.632-8.439.604-8.664-.01-.098-.026-.195-.042-.293-.435-2.238-2.474-7.441-11.99-7.441-2.294 0-4.056.3-4.255.335a3.285 3.285 0 0 0-1.499.692l-11.213 9.223c-.4.333-.713.748-.914 1.212-1.427-3.513-4.932-5.677-9.877-6.11.127-4.324-.402-9.679-.54-11.014a3.299 3.299 0 0 0-.344-1.146c-.588-1.151-2.39-4.651-5.742-4.651-2.944 0-4.821 2.712-5.63 5.346-.823 1.926-1.215 5.876-1.174 11.784-10.553.502-11.033 7.172-11.05 7.466-.009.186-.005.373.019.56.477 3.96 4.036 6.133 6.574 7.192v.499l-5.45 4.631a3.26 3.26 0 0 0-.722 4.09c.507.892.822 1.896 1.01 2.733h-41.501c-.59 0-1.169.16-1.675.464l-30.386 18.267a3.26 3.26 0 0 0-1.576 2.79v11.756c0 1.054.505 2.038 1.36 2.65l8.848 6.32.87 17.759c-2.249-.571-3.971-.42-3.949-.42-6.404.327-9.818 4.335-11.356 7.943a21.16 21.16 0 0 0-4.2-.445c-6.229 0-9.918 3.269-11.349 5.54-4.013 4.104-4.167 9.259-3.323 12.924-4.856 3.224-5.923 8.908-5.67 13.22-49.942 13.386-78.589 15.411-91.322 15.411-6.206.003-9.084-.472-9.105-.478a3.46 3.46 0 0 0-.376-.041c-3.36-.192-4.305-1.132-4.515-1.415-.306-.418-.223-.953-.201-1.079.444-.975 3.386-3.287 6.2-4.875a3.263 3.263 0 0 0 1.602-3.477l-1.81-9.042c-.213-1.058 1.596-3.76.597-4.178a3.245 3.245 0 0 0-3.033.269c-13.65 8.85-31.433 28.739-32.204 29.961-.043.069-.1.129-.149.195-12.605 17.794-7.155 26.071-5.677 27.789 14.524 20.291 75.76 24.556 124.647 24.556 15.598 0 26.872-.475 28.363-.541 2.231.116 5.074.176 8.46.176 44.826 0 179.546-18.866 182.506-19.093 47.366-2.519 183.038-11.683 184.392-11.863a3.25 3.25 0 0 0 2.71-2.346 3.256 3.256 0 0 0-1.088-3.422z" fill-rule="evenodd" clip-rule="evenodd" fill="#fff"/><path d="M288.61 198.372c.012-.027.032-.053.04-.079l-.229 3.157-1.435.734c.472-1.414 1.075-2.794 1.624-3.812zM283.806 190.795l-1.469-1.289a12.05 12.05 0 0 0 1.651-.761 3.324 3.324 0 0 0-.225.975c-.023.361-.007.719.043 1.075zM288.094 183.64a6.2 6.2 0 0 0 1.286 1.794l-2.785 1.164a7.463 7.463 0 0 0 1.499-2.958z" fill-rule="evenodd" clip-rule="evenodd" fill="#fff"/><path d="M445.808 264.285v-9.948h-15.193v-6.871h-5.784l-17.367-13.745c5.608-9.405 4.159-20.799 4.159-20.799-1.985-18.086-16.275-21.886-16.275-21.886l28.753-31.649 1.812-15.013h-12.841v-35.811l4.161-7.053h-18.628v-4.34h-17.366l-12.476-12.298 4.522-6.15V74.2h-10.308c11.571-45.938-55.345-55.705-55.345-55.705-22.605-5.063-73.608 7.597-73.608 7.597-8.864 1.81-34.567 5.287-34.567 5.287-35.339 1.571-40.052-20.418-40.052-20.418-19.813 43.466-8.758 60.527-8.758 60.527 12.297 28.576 66.916 13.927 66.916 13.927 5.426 0 65.472-13.927 65.472-13.927 10.493-3.074 27.669-3.074 27.669-3.074 18.811 0 29.301 5.762 29.301 5.762h-10.491v4.547l4.012 6.15-18.547 12.298 1.875 19.352 21.705 27.49 1.625 31.65-27.849 15.916-.543-.781c3.433-6.931 2.712-14.05 2.712-14.05-1.267-6.511-12.481-4.521-12.481-4.521l-11.213 9.224c.363 2.713 4.522 3.255 4.522 3.255l-.543 1.989-7.776 3.255c-.183 2.533 5.062 6.15 5.062 6.15l-.541 7.416-8.5 4.341c-.903-4.341 2.712-11.034 2.712-11.034l-6.873-6.026v-3.741c6.511-1.085 6.154-5.063 6.154-5.063-1.632-5.788-10.676-4.703-10.676-4.703.905-3.617-.177-13.926-.177-13.926-3.437-6.693-5.425.361-5.425.361-1.272 1.989-.905 13.926-.905 13.926-10.851-.723-11.122 4.342-11.122 4.342.458 3.797 6.598 5.244 6.598 5.244v4.342l-6.598 5.606c1.543 2.712 1.716 5.969 1.716 5.969 0 .904-2.712 1.627-2.712 1.627h-42.324l-30.381 18.266v11.755l10.129 7.237 1.253 25.606c-2.23-3.633-7.332-3.283-7.332-3.283-8.31.42-9.296 8.666-9.296 8.666-11.573-3.86-15.193 3.132-15.193 3.132-5.543 5.307-1.926 12.539-1.926 12.539-8.679 3.135-6.027 13.988-6.027 13.988-76.204 20.74-104.617 15.746-104.617 15.746-9.572-.547-7.655-6.655-7.655-6.655.756-2.101 6.747-6.518 6.747-6.518l.004-10.152c-13.383 8.68-29.763 28.319-29.763 28.319-12.299 17.36-5.79 23.87-5.79 23.87 20.257 28.94 150.473 22.788 150.473 22.788 32.919 1.812 184.746-23.238 184.746-23.238 47.746-2.535 190.177-7.507 190.177-7.507l-93.143-75.055zm-44.419-47.128c0 11.35-7.74 20.552-17.284 20.552-9.548 0-17.288-9.202-17.288-20.552 0-11.352 7.74-20.552 17.288-20.552 9.545 0 17.284 9.2 17.284 20.552zm2.334-87.516c0 6.067-4.033 10.987-9.002 10.987-4.973 0-9.004-4.92-9.004-10.987 0-6.071 4.031-10.99 9.004-10.99 4.969 0 9.002 4.919 9.002 10.99zm-137.042 94.922s-6.41-9.461-4.276-16.786c0 0-.739-10.073 12.986-9.463 0 0-3.066 9.156 1.362 12.208 0 0 5.037 6.411 10.68 2.594 0 0 55.551-30.521 57.836-31.286v-39.37l-23.653-27.669v-12.578h40.142v6.673l-11.298 6.104h-19.686l22.282 25.637v36.78l6.257-3.205V158.18l3.816-7.631v-23.654l-8.091-5.189 22.741-14.651 15.262-.764-3.052 5.494-11.906.917-2.441 2.747v31.591h31.132v17.549h-17.243s-30.98 16.482-34.487 19.077c0 0-46.091 27.164-36.626 41.052 0 0-10.379 1.676-9.004-16.177 0 0-39.987 18.313-31.287 34.641 0 0-10.682-3.664-8.7-12.666 0 0-31.588 15.567-29.451 32.811 0 0-7.837-7.784-.108-21.975 0-.001 4.99-8.702 26.813-16.789zm88.872 50.45l-12.408 7.683-.741-24.672 12.264-4.876h10.491l-6.65-4.727-40.63 2.659-123.36 59.245.589 15.957s-25.532 28.493-141.534 14.772c0 0 92.371 1.906 125.406-23.895v-10.131s-34.218 24.028-116.101 17.924c0 0 102.241-7.236 131.786-39.15v13.149l10.637-9.31V267.48l10.194-7.24-1.919-36.494-23.933 9.161v-9.161l22.305-13.149 31.174-.737v2.511l-18.466 9.307 2.955 57.914s4.872.444 7.682 2.217l80.52-39.596 34.422-1.477-23.934-19.649h16.69l35.462 30.583 44.468-1.716v9.694l-67.37 7.756v7.609zm3.977 63.367l23.012-66.414 17.58-2.031 2.916 66.681-43.508 1.764zm53.157-1.764l-6.678-67.621 14.351-1.727 41.514 67.713-49.187 1.635zm12.497-70.051l12.042-1.047 80.604 67.604-40.742 1.356-51.904-67.913z" fill-rule="evenodd" clip-rule="evenodd" fill="#021d49"/><path d="M78.408 352.613c15.424 23.091-9.449 47.964-32.54 32.539a10.923 10.923 0 0 1-3.007-3.007c-15.424-23.091 9.45-47.964 32.54-32.539a10.923 10.923 0 0 1 3.007 3.007z" fill-rule="evenodd" clip-rule="evenodd" fill="#fff"/><path d="M39.696 527.04a1.681 1.681 0 0 1-1.231-2.826c4.701-5.058 9.172-11.511 13.29-19.178 7.18-13.573 25.545-73.801 31.671-111.501l.018-.096c3.066-13.756 6.617-25.86 10.553-35.975 9.655-24.818 21.268-38.778 34.519-41.495.655-.198 1.172-.29 1.621-.29 1.146 0 1.697.616 1.923.984.28.453.502 1.21.007 2.264-1.684 4.562-3.336 10.253-4.91 16.918-4.005 16.173-7.808 36.434-11.308 60.237 0 0-1.652 11.229-1.657 11.252l-.38 2.004c-2.148 11.35-8.685 45.891-14.864 63.103-5.826 16.135-12.098 26.788-19.736 33.525-13.447 12.87-26.692 19.959-39.369 21.07a3.655 3.655 0 0 1-.147.004zm134.008-57.108c-4.767 0-8.633-.36-13.165-2.151-.318-.123-8.114-3.206-14.948-11.358-10.37-12.37-19.843-43.732-24.723-81.85a1.682 1.682 0 0 1 1.04-1.774c5.997-2.413 11.299-5.324 15.758-8.654 10.253-7.965 15.606-17.631 15.887-28.712.016-.932-.056-2.074-.218-3.384-.814-6.642-3.296-11.99-7.377-15.895-4.739-4.588-11.486-6.91-20.06-6.91-3.037 0-6.36.29-9.874.864-16.749 2.834-33.177 10.639-45.063 21.412-5.054 4.58-8.807 11.97-8.844 12.045a1.682 1.682 0 0 1-1.673.918 22.49 22.49 0 0 0-2.265-.118c-11.501 0-15.512 9.72-15.551 9.819a1.683 1.683 0 0 1-3.227-.865c.03-.2.723-4.934 1.797-7.511 5.81-13.962 14.197-23.485 28.949-32.87 15.183-9.684 34.358-16.001 56.989-18.773 3.717-.455 7.074-.717 9.978-.782 1.471-.062 2.965-.093 4.405-.093 19.438 0 33.372 5.755 41.414 17.106 3.634 5.245 5.577 11.401 5.95 18.834.872 17.402-13.234 33.869-39.727 46.389 10.837 42.286 27.678 70.233 50.054 83.064.796.29 2.203.87 2.364 2.241.121 1.022-.438 1.958-1.659 2.782-8.497 5.737-19.97 6.107-20.455 6.12-2.152.056-4.007.106-5.756.106z" fill-rule="evenodd" clip-rule="evenodd" fill="#021d49"/><path d="M141.519 294.971c18.945 0 32.297 5.466 40.043 16.397 3.484 5.03 5.293 10.973 5.642 17.946.786 15.665-11.377 31.918-39.063 44.925-.549.211-.77.74-.667 1.588 11.024 43.146 28.034 71.274 51.028 84.389.9.321 1.369.62 1.402.905.06.514-.654 1.005-.93 1.191-8.19 5.529-19.559 5.833-19.559 5.833-2.108.056-3.984.106-5.712.106-4.737 0-8.354-.376-12.546-2.033 0 0-7.643-2.96-14.278-10.875-9.54-11.38-19.236-41.087-24.343-80.983 6.154-2.476 11.531-5.428 16.136-8.866 10.745-8.347 16.267-18.354 16.561-30.017.018-1.005-.055-2.218-.229-3.631-.866-7.069-3.495-12.705-7.884-16.905-5.081-4.919-12.154-7.377-21.223-7.377-3.142 0-6.525.295-10.145.886-18.424 3.118-34.723 11.676-45.922 21.825-5.345 4.843-9.217 12.535-9.217 12.535a24.012 24.012 0 0 0-2.435-.127c-12.774 0-17.113 10.876-17.113 10.876s.681-4.695 1.684-7.106c5.811-13.962 14.049-23.032 28.3-32.098 15.041-9.592 33.806-15.768 56.291-18.522 3.676-.45 6.944-.706 9.811-.77 1.489-.062 2.943-.092 4.368-.092m-11.382 22.388c.558 0 .685.302.381.908-1.726 4.662-3.393 10.394-4.998 17.191-4.032 16.285-7.811 36.409-11.335 60.379l-1.644 11.181c-1.574 8.235-8.609 46.562-15.175 64.854-5.804 16.072-11.907 26.353-19.291 32.854-13.233 12.673-26.023 19.551-38.378 20.633 4.817-5.183 9.331-11.692 13.54-19.528 9.904-18.722 27.184-83.322 31.849-112.026 3.058-13.723 6.549-25.633 10.478-35.731 9.498-24.416 20.618-37.905 33.366-40.473.517-.162.919-.242 1.207-.242m11.382-25.752c-1.453 0-2.958.032-4.475.094-2.956.067-6.357.334-10.112.794-22.881 2.802-42.291 9.203-57.691 19.025-15.065 9.585-23.641 19.332-29.596 33.642-1.133 2.723-1.832 7.391-1.908 7.915a3.364 3.364 0 0 0 6.452 1.729c.14-.338 3.749-8.759 13.989-8.759.679 0 1.383.037 2.094.109a3.363 3.363 0 0 0 3.345-1.833c.035-.069 3.671-7.205 8.472-11.555 11.654-10.563 27.773-18.217 44.224-21.001 3.406-.555 6.637-.839 9.584-.839 8.237 0 14.414 2.103 18.883 6.43 3.861 3.694 6.109 8.563 6.885 14.898.151 1.235.22 2.298.204 3.16-.269 10.668-5.253 19.639-15.236 27.402-4.269 3.183-9.338 5.977-15.072 8.308 2.313-13.128 4.729-24.794 7.221-34.86l.009-.035c1.551-6.565 3.175-12.17 4.829-16.66.811-1.79.275-3.136-.13-3.792-.699-1.133-1.922-1.783-3.355-1.783-.599 0-1.249.108-2.032.34-7.06 1.469-13.678 5.899-19.671 13.168-5.762 6.99-11.147 16.865-16.004 29.35-3.967 10.195-7.542 22.381-10.626 36.219a4.066 4.066 0 0 0-.037.192C75.66 430.827 57.4 490.766 50.263 504.258c-4.04 7.523-8.428 13.858-13.031 18.811a3.364 3.364 0 0 0 2.757 5.641c13.06-1.144 26.639-8.381 40.361-21.507 7.846-6.931 14.259-17.798 20.178-34.188 6.223-17.336 12.779-51.971 14.933-63.353l.382-2.012c.009-.047.017-.095.024-.142l1.644-11.181a959.112 959.112 0 0 1 2.459-15.837c5.11 35.833 14.293 65.04 24.331 77.014 7.109 8.48 15.295 11.717 15.64 11.85 4.759 1.881 8.796 2.26 13.761 2.26 1.771 0 3.636-.05 5.795-.107.511-.014 12.458-.399 21.358-6.407 2.223-1.499 2.526-3.205 2.389-4.372-.263-2.244-2.312-3.191-3.318-3.572-10.841-6.249-20.445-16.21-28.549-29.612-8.092-13.382-14.9-30.535-20.246-51.004 26.338-12.76 40.326-29.548 39.431-47.393-.389-7.754-2.429-14.195-6.236-19.692a.729.729 0 0 0-.021-.029c-8.376-11.825-22.772-17.819-42.786-17.819z" fill="#fff"/><g fill-rule="evenodd" clip-rule="evenodd" fill="#021d49"><path d="M67.281 358.921c4.411 1.46 9.926 5.857 10.967 12.845.41-1.524.632-3.124.632-4.777 0-10.134-8.216-18.35-18.35-18.35-1.463 0-2.885.177-4.249.5.5.957 4.137 7.51 11 9.782z"/><path d="M75.081 377.768c2.291-9.69-4.697-14.763-8.712-16.093-8.565-2.836-12.595-11.048-12.762-11.396a1.457 1.457 0 0 1-.09-.249 18.407 18.407 0 0 0-9.956 9.973c.073.061.142.129.203.206a29.93 29.93 0 0 1 4.116 6.739c1.246 2.831 1.621 4.943 1.951 6.806.269 1.522.502 2.835 1.171 4.333.529 1.187 3.664 7.074 13.388 6.434.307-.021.598.059.843.207a18.36 18.36 0 0 0 9.818-6.527 1.448 1.448 0 0 1 .03-.433zM48.352 379.27c-.814-1.823-1.088-3.371-1.378-5.009-.317-1.786-.644-3.632-1.749-6.143a26.86 26.86 0 0 0-2.69-4.724 18.441 18.441 0 0 0-.355 3.596c0 6.331 3.207 11.914 8.085 15.212-1.1-1.285-1.691-2.436-1.913-2.932z"/></g><path d="M284.735 513.121c-.459 0-.905-.189-1.226-.53-.287-.305-29.253-30.574-77.136-36.078a1.68 1.68 0 0 1-1.268-2.505c1.748-3.054 17.404-29.864 28.977-30.863 2.548-.303 260.074-30.779 277.005-32.833.774-.127 13.581-2.211 25.516-3.289 8.917-.805 19.423-2.119 21.545-5.159.356-.511.7-1.336.221-3.199-.514-1.247-2.372-6.23-.546-8.983.526-.792 1.563-1.738 3.525-1.738.723 0 1.508.127 2.397.387.205.06.396.157.564.289.462.361 11.282 8.986 10.499 22.815.068 1.661-.966 8.298-20.548 13.209l-238.904 59.917c-18.858 4.729-26.592 20.777-29.042 27.457a1.68 1.68 0 0 1-1.579 1.103z" fill-rule="evenodd" clip-rule="evenodd" fill="#021d49"/><path d="M561.348 389.626c.537 0 1.173.099 1.926.319 0 0 10.65 8.326 9.85 21.493 0 0 .639 6.582-19.272 11.575l-112.24 28.15-126.664 31.767c-16.228 4.07-25.874 16.681-30.212 28.51 0 0-29.06-30.953-78.17-36.597 0 0 16.632-29.071 27.661-30.024 0 0 260.315-30.806 277.099-32.842 0 0 13.098-2.166 25.429-3.28 20.921-1.888 24.819-4.579 23.212-10.573 0 .001-3.588-8.498 1.381-8.498m0-3.364c-2.112 0-3.862.885-4.927 2.491-2.2 3.318-.417 8.558.346 10.439.31 1.267.079 1.597.001 1.709-.243.348-1.199 1.259-4.818 2.199-3.373.876-8.443 1.611-15.498 2.248-11.835 1.068-24.519 3.122-25.602 3.299-17.168 2.081-272.255 32.269-276.973 32.827-5.634.521-12.279 5.983-20.309 16.697-5.597 7.468-9.749 14.698-9.923 15.002a3.364 3.364 0 0 0 2.535 5.012c47.338 5.441 75.82 35.258 76.102 35.558a3.363 3.363 0 0 0 5.61-1.145c2.358-6.429 9.794-21.872 27.873-26.406l126.664-31.767 112.24-28.15c8.841-2.217 15.11-5.082 18.632-8.514 2.819-2.747 3.188-5.177 3.188-6.261.815-14.68-10.653-23.823-11.143-24.206a3.365 3.365 0 0 0-1.128-.578c-1.046-.305-1.984-.454-2.87-.454z" fill="#fff"/><path d="M183.809 437.571a6.16 6.16 0 0 1-.708-.036c-3.773-.162-6.482-1.402-8.055-3.685-2.524-3.667-.926-8.524-.856-8.729 8.924-26.873 17.613-49.322 17.7-49.546.078-.2.193-.383.34-.54 8.586-9.187 21.244-9.652 23.694-9.652.248 0 .381.005.381.005a1.685 1.685 0 0 1 1.583 2.049c-.302 1.347-14.502 40.099-17.49 48.248-.148.877.016 1.142.018 1.144.026.02.187.088.535.088.663 0 1.438-.242 1.68-.336a2.59 2.59 0 0 1 .124-.043c2.879-.869 7.226-6.685 9.29-10.147.018-.03.037-.06.057-.089 1.878-2.743 2.576-4.763 2.583-4.783 5.648-17.684 15.472-27.815 15.887-28.238l.06-.058c8.485-7.817 16.253-10.23 16.579-10.328 3.476-1.14 6.941-1.723 10.265-1.723 10.053 0 15.587 5.253 15.818 5.477.056.055.109.114.158.176 3.583 4.613 5.048 9.439 4.352 14.343-1.216 8.569-8.625 14.262-9.359 14.807-10.587 8.765-26.927 9.998-31.567 10.171-1.364 4.91-1.167 8.609.591 11.004 2.207 3.008 6.394 3.16 7.211 3.16l.236-.004c.038 0 .076.001.113.004.232.016.464.023.697.023 8.555-.001 17.567-10.015 17.657-10.117.054-.061.112-.117.174-.169 5.386-4.526 9.952-14.439 10.351-15.32l15.716-45.76c2.243-7.771 4.945-10.121 5.247-10.364 8.091-6.963 18.676-7.317 20.716-7.317.22 0 .336.004.336.004a1.684 1.684 0 0 1 1.582 2.067c-1.527 6.473-23.277 67.826-24.596 71.546-.405 1.778-.078 2.435.034 2.595.022.031.024.086.043.115 3.139-.222 7.924-5.915 10.248-9.526.032-.051.067-.1.105-.147 1.585-1.964 3.735-5.183 4.286-6.014 4.399-14.486 12.401-24.554 12.741-24.977 10.475-12.622 23.158-13.982 28.127-13.982.74 0 1.249.032 1.48.05.416-.018.823-.026 1.223-.026 7.679 0 12.422 3.198 15.05 5.881 2.866 2.927 3.895 5.886 3.938 6.01.029.084.051.171.066.259.654 3.828.311 7.212-.576 10.135.529-1.548.876-2.61.941-2.81.524-1.863 4.516-12.706 4.974-13.947.058-.157.139-.304.24-.438 7.628-10.004 21.596-10.339 22.186-10.349h.027a1.682 1.682 0 0 1 1.441 2.548c-.431.717-1.53 3.905-2.648 7.375 7.074-5.841 14.068-9.184 14.425-9.353.024-.012.049-.022.074-.033 2.436-1.013 4.607-1.527 6.449-1.527 4.258 0 6.025 2.728 6.427 4.344 3.591 8.477-2.292 16.353-2.546 16.685-8.307 11.561-17.64 12.463-20.303 12.463-.376 0-.578-.019-.578-.019a1.697 1.697 0 0 1-1.54-1.667c-.002-.359-.005-1.105 5.816-16.552.125-.602.087-.906.058-1.024a.407.407 0 0 0-.05-.003c-4.856.261-9.569 7.434-10.98 10.176-3.782 7.32-10.278 27.235-10.344 27.435-2.733 9.472-5.133 13.1-5.44 13.54-5.898 8.915-21.834 9.824-22.51 9.859a1.685 1.685 0 0 1-1.436-.677 1.683 1.683 0 0 1-.232-1.571l3.798-10.577c-13.742 13.765-26.596 15.408-31.935 15.408-1.611 0-2.541-.147-2.642-.164-14.582-2.242-18.432-11.007-19.386-16.541-6.731 8.041-18.874 20.525-29.378 20.525-.883 0-1.478-.107-1.76-.173-3.345-.451-4.982-2.249-5.767-3.686-1.271-2.324-1.273-5.346-.789-8.197-13.48 14.762-26.287 16.525-31.615 16.525-1.393 0-2.279-.119-2.555-.162-7.132-.662-12.399-3.147-15.654-7.388-2.146-2.795-3.019-5.853-3.338-8.329-16.175 19.047-26.421 20.599-29.295 20.599zm143.91-31.449c1.841 4.857 6.112 5.886 9.397 5.885 1.726 0 2.988-.291 3-.294 12.431-3.025 22.63-19.526 22.731-19.692 1.94-3.128 4.64-10.456 6.294-15.208-2.873 7.423-9.084 11.494-9.765 11.924-11.625 8.073-26.731 8.871-30.894 8.931-.892 3.359-.802 7.438-.763 8.454zm-83.932-20.56c-.192.556-3.513 10.022-5.095 14.534 9.359-1.169 13.64-11.39 13.685-11.5a1.95 1.95 0 0 1 .064-.14c5.01-9.681 4.704-19.632 4.676-20.308-3.916.715-7.183 4.997-9.264 8.533-2.395 4.07-3.798 8.084-4.055 8.848l-.011.033zm86.92 5.959c9.581-.763 14.051-11.482 14.097-11.594a1.81 1.81 0 0 1 .125-.249c5.897-9.574 4.635-20.007 4.622-20.112l-.009-.081-.006-.007c-6.325 1.166-11.766 11.808-13.795 17.397l-.005.012-5.029 14.634z" fill-rule="evenodd" clip-rule="evenodd" fill="#021d49"/><path d="M315.585 332.969c.184 0 .281.003.281.003-1.538 6.52-24.576 71.46-24.576 71.46-1.078 4.557 1.522 4.871 1.522 4.871 5.225-.017 11.835-10.305 11.835-10.305 1.894-2.349 4.515-6.348 4.515-6.348 4.339-14.467 12.513-24.646 12.513-24.646 10.163-12.246 22.635-13.354 26.815-13.353a15.5 15.5 0 0 1 1.443.054c.429-.02.849-.029 1.26-.029 13.734 0 17.395 10.751 17.395 10.751 2.418 14.153-10.139 21.906-10.139 21.906-11.77 8.193-27.184 8.659-30.541 8.659-.431 0-.664-.008-.664-.008-1.556 4.33-1.195 10.474-1.195 10.474 2.176 6.135 7.521 7.232 11.066 7.232 1.972 0 3.388-.34 3.388-.34 13.283-3.232 23.779-20.453 23.779-20.453 3.107-5.01 7.939-19.944 7.939-19.944.465-1.709 4.94-13.85 4.94-13.85 7.22-9.47 20.876-9.687 20.876-9.687-1.097 1.825-4.661 13.674-4.661 13.674 8.181-8.337 18.599-13.265 18.599-13.265 2.452-1.019 4.344-1.398 5.804-1.398 4.229 0 4.819 3.181 4.819 3.181 3.376 7.728-2.276 15.147-2.276 15.147-7.995 11.125-16.916 11.8-18.965 11.8-.283 0-.435-.013-.435-.013-.004-.796 5.751-16.066 5.751-16.066.672-2.964-1.07-3.187-1.609-3.187-.096 0-.153.007-.153.007-6.805.364-12.321 11.081-12.321 11.081-3.888 7.524-10.448 27.684-10.448 27.684-2.834 9.817-5.23 13.114-5.23 13.114-5.486 8.326-21.206 9.126-21.206 9.126l6.733-18.751c-15.399 19.312-30.716 21.332-36.452 21.332-1.518 0-2.366-.142-2.366-.142-20.291-3.119-18.233-19.327-18.233-19.327-16.459 21.114-27.118 23.288-30.81 23.288-.958 0-1.447-.146-1.447-.146-10.619-1.33-2.544-18.217-2.544-18.217-15.026 20.676-30.244 22.832-35.94 22.832-1.501 0-2.342-.15-2.342-.15-20.44-1.864-17.543-18.719-17.543-18.719-17.635 22.153-28.448 23.587-30.954 23.587-.373 0-.563-.032-.563-.032-10.77-.418-7.463-10.198-7.463-10.198 9.017-27.153 17.675-49.477 17.675-49.477 8.155-8.726 20.337-9.119 22.465-9.119.211 0 .323.004.323.004-.295 1.316-17.478 48.174-17.478 48.174-.523 2.73.83 3.357 2.182 3.357 1.146 0 2.29-.45 2.29-.45 4.583-1.384 10.248-10.896 10.248-10.896 2.059-3.007 2.79-5.196 2.79-5.196 5.6-17.531 15.493-27.596 15.493-27.596 8.299-7.646 15.927-9.956 15.927-9.956 3.64-1.193 6.907-1.651 9.777-1.651 9.487 0 14.647 5.003 14.647 5.003 11.603 14.936-4.715 26.793-4.715 26.793-11.732 9.747-31.013 9.843-31.771 9.843h-.023c-5.309 16.872 7.176 17.5 9.065 17.5.152 0 .236-.004.236-.004.27.018.54.027.81.027 9.408 0 18.913-10.68 18.913-10.68 5.984-5.028 10.834-15.988 10.834-15.988l15.755-45.872c2.164-7.519 4.697-9.561 4.697-9.561 7.718-6.638 17.858-6.944 19.663-6.944m14.042 60.276c11.577 0 16.735-12.685 16.735-12.685 6.277-10.192 4.858-21.209 4.858-21.209-.099-1.245-1.428-1.611-1.428-1.611-9.445 1.063-15.625 18.554-15.638 18.579-.01.023-5.8 16.875-5.8 16.875.433.035.856.051 1.273.051m-92.695 8.642c11.886 0 17.003-12.656 17.003-12.656 5.453-10.54 4.859-21.209 4.859-21.209.024-1.602-1.406-1.608-1.429-1.608-9.445 1.061-15.157 18.578-15.169 18.602-.247.719-5.911 16.859-5.911 16.859.219.008.434.012.647.012m78.653-72.282c-2.142 0-13.258.373-21.838 7.745-.694.587-3.474 3.327-5.728 11.11l-8.903 25.922c-.723-2.929-2.171-5.801-4.337-8.59a3.385 3.385 0 0 0-.315-.351c-.251-.243-6.261-5.95-16.988-5.951-3.493 0-7.126.609-10.799 1.809-.746.233-8.664 2.835-17.185 10.687a3.284 3.284 0 0 0-.12.116c-.427.434-10.508 10.83-16.287 28.896-.045.123-.708 1.923-2.372 4.354-.04.058-.079.118-.115.179-2.33 3.903-6.056 8.448-8.102 9.314 6.495-17.716 16.742-45.748 17.032-47.042a3.365 3.365 0 0 0-.624-2.787 3.376 3.376 0 0 0-2.543-1.309s-.152-.006-.438-.006c-2.572 0-15.862.491-24.923 10.186-.293.313-.523.68-.679 1.08-.087.224-8.792 22.712-17.731 49.633-.195.578-1.877 5.925 1.069 10.204 1.295 1.881 3.959 4.163 9.311 4.409.203.021.483.041.837.041 3.73 0 13.463-1.957 28.367-18.652a18.053 18.053 0 0 0 2.929 5.726c3.545 4.617 9.191 7.319 16.783 8.033.393.059 1.344.174 2.761.174 5.137 0 16.925-1.552 29.673-13.805.115 1.631.493 3.207 1.255 4.602.966 1.767 2.951 3.972 6.938 4.535.416.091 1.108.199 2.065.199 4.796 0 14.518-2.576 28.527-18.594.206.598.447 1.21.729 1.83 2.187 4.805 7.304 10.919 19.258 12.762.242.039 1.251.183 2.894.183 4.893 0 15.845-1.313 28.075-11.319l-1.522 4.238a3.365 3.365 0 0 0 3.336 4.495c.71-.036 17.44-.994 23.813-10.588.473-.68 2.904-4.465 5.668-14.022.373-1.141 6.598-20.117 10.221-27.129 1.199-2.314 4.137-6.605 7.118-8.423-5.144 13.712-5.14 14.368-5.136 15.062a3.364 3.364 0 0 0 3.079 3.333c.088.007.336.025.72.025 2.862 0 12.879-.95 21.678-13.176.592-.797 6.53-9.144 2.762-18.207-.598-2.12-2.852-5.473-8.018-5.473-2.094 0-4.415.541-7.095 1.655-.05.021-.099.043-.147.066-.291.137-4.862 2.322-10.36 6.209.332-.915.596-1.577.755-1.864a3.344 3.344 0 0 0 .025-3.402 3.362 3.362 0 0 0-2.919-1.674h-.055c-.624.01-15.38.366-23.497 11.011a3.37 3.37 0 0 0-.481.876c-.34.922-1.295 3.518-2.287 6.255-.561-1.509-5.302-12.883-20.526-12.883-.392 0-.793.008-1.193.023a21.672 21.672 0 0 0-1.51-.048c-5.205 0-18.49 1.419-29.404 14.569l-.034.042c-.347.432-8.458 10.638-12.966 25.304-.695 1.044-2.627 3.909-4.058 5.684a3.426 3.426 0 0 0-.212.294c-2.015 3.125-5.038 6.535-7.227 8.011 2.05-5.782 23.032-65.011 24.55-71.447a3.375 3.375 0 0 0-3.165-4.133 7.716 7.716 0 0 0-.389-.006zm21.736 47.849l.002-.005c1.96-5.388 6.165-13.2 10.664-15.638.036 3.378-.452 10.432-4.489 16.986a3.312 3.312 0 0 0-.252.497c-.034.082-3.313 7.806-9.998 10.009 1.846-5.372 3.922-11.415 4.073-11.849zm-91.944 8.655l.015-.043c1.782-5.297 5.674-12.944 10.013-15.484-.172 3.506-.979 10.38-4.457 17.102a3.332 3.332 0 0 0-.131.285c-.144.349-3.122 7.387-9.516 9.771 1.679-4.787 3.919-11.174 4.076-11.631zm114.932 4.027c.327-.209 1.345-.886 2.659-2.019-.553 1.217-1.078 2.257-1.543 3.007-.11.18-9.963 16.097-21.716 18.957-.001 0-1.098.245-2.593.245-5.495 0-7.133-3.025-7.728-4.538-.043-1.4.002-4.069.449-6.469 6.043-.216 19.532-1.598 30.472-9.183zm-90.822 7.159a25.43 25.43 0 0 0 2.277-1.973c-1.435 2.933-5.137 9.948-9.29 13.438a3.385 3.385 0 0 0-.349.339c-2.374 2.655-9.955 9.553-16.4 9.553-.197 0-.393-.007-.584-.019a3.382 3.382 0 0 0-.389-.004h-.072c-.413 0-4.091-.07-5.855-2.474-1.288-1.756-1.496-4.631-.623-8.391 6.003-.355 21.129-2.083 31.285-10.469z" fill="#fff"/><path d="M456.792 350.224c-.171 0-.809.058-2.021.764-.785.764-6.943 7.637-17.634 43.716-1.335 4.497-1.941 9.745-1.38 11.483.891-.213 2.775-1 4.199-3.902.037-.075.077-.15.12-.222.062-.106 6.286-10.781 11.215-25.521 3.656-10.924 5.685-20.124 5.742-25.999a1.343 1.343 0 0 0-.185-.316.407.407 0 0 0-.056-.003z" fill="none"/><path d="M456.791 348.542c-.555 0-1.528.189-3.023 1.085-.203.171-1.88 1.703-4.827 7.646-4.066 8.2-8.579 20.63-13.416 36.949-1.285 4.319-2.432 11.303-.962 13.314.175.239.383.4.834.409.101-.004 3.727-.15 6.068-4.92.018-.037.039-.075.06-.111.063-.108 6.368-10.913 11.36-25.839 3.828-11.438 5.842-20.707 5.831-26.827-.124-.46-.585-1.706-1.925-1.706zm-5.501 27.999c-4.929 14.74-11.153 25.415-11.215 25.521a3.645 3.645 0 0 0-.12.222c-1.424 2.902-3.308 3.689-4.199 3.902-.561-1.737.045-6.986 1.38-11.483 10.692-36.078 16.849-42.952 17.634-43.716 1.212-.706 1.85-.764 2.021-.764l.056.002c.066.07.137.209.185.316-.056 5.876-2.086 15.076-5.742 26z" fill="#fff"/><path d="M479.904 355.745c-2.127-7.459-6.835-11.821-15.266-14.145-1.578-.435-3.403-.655-5.425-.655-8.113 0-20.28 3.642-29.174 11.777-5.11 4.676-9.313 10.728-12.158 17.501-5.754 13.703-6.694 26.403-2.578 34.843 2.473 5.069 6.706 8.546 12.242 10.053 2.377.647 4.93.975 7.587.975 10.385 0 21.413-4.986 29.5-13.339 4.003-4.134 7.892-9.906 10.403-15.438 5.493-12.113 7.222-23.324 4.869-31.572zm-6.4 30.876c-2.436 5.368-6.204 10.962-10.08 14.965-7.777 8.032-18.354 12.827-28.292 12.827h-.001c-2.507-.001-4.911-.308-7.144-.916-5.055-1.376-8.918-4.546-11.172-9.167-3.903-8.004-2.95-20.198 2.617-33.454 2.75-6.55 6.81-12.397 11.742-16.91 8.561-7.832 20.251-11.336 28.039-11.336 1.871 0 3.546.2 4.978.594 7.907 2.179 12.122 6.062 14.096 12.985 2.244 7.862.545 18.663-4.783 30.412z" fill="#fff"/><path d="M464.191 343.222c-1.431-.394-3.107-.594-4.978-.594-7.788 0-19.477 3.505-28.039 11.336-4.932 4.513-8.992 10.36-11.742 16.91-5.567 13.257-6.52 25.45-2.617 33.454 2.254 4.621 6.117 7.791 11.172 9.167 2.233.608 4.637.915 7.144.916h.001c9.938 0 20.515-4.796 28.292-12.827 3.876-4.003 7.644-9.597 10.08-14.965 5.328-11.748 7.026-22.549 4.783-30.414-1.974-6.921-6.189-10.804-14.096-12.983zm7.782 42.704c-2.334 5.141-5.993 10.601-9.757 14.489-7.937 8.197-18.165 12.315-27.084 12.315-2.347 0-4.604-.285-6.703-.856-13.867-3.775-15.529-21.099-7.446-40.348 2.64-6.286 6.561-11.959 11.327-16.321 7.877-7.205 19.136-10.895 26.904-10.895 1.702 0 3.237.177 4.531.534 7.535 2.077 11.162 5.643 12.925 11.825 2.16 7.568.428 17.955-4.697 29.257z" fill="#fff"/><path d="M456.791 346.861c-1.02 0-2.316.371-3.958 1.366 0 0-6.646 4.096-18.921 45.518 0 0-4.7 15.763 1.452 15.882 0 0 4.735 0 7.61-5.86 0 0 6.392-10.869 11.505-26.157 3.528-10.543 5.975-20.695 5.916-27.558.001-.001-.613-3.192-3.604-3.191zm-3.906 30.214c-4.991 14.926-11.296 25.731-11.36 25.839a2.375 2.375 0 0 0-.06.111c-2.341 4.77-5.967 4.916-6.068 4.92-.451-.008-.66-.169-.834-.409-1.47-2.012-.323-8.995.962-13.314 4.836-16.318 9.349-28.749 13.416-36.949 2.947-5.943 4.624-7.474 4.827-7.646 1.495-.895 2.468-1.085 3.023-1.085 1.34 0 1.801 1.246 1.925 1.706.011 6.12-2.003 15.389-5.831 26.827z" fill="#fff"/><path d="M210.06 362.019c-.946 0-1.882-.102-2.784-.304-3.056-.685-5.535-2.506-6.8-4.995-1.189-2.339-1.233-5.033-.125-7.586 1.885-4.34 6.812-7.371 11.983-7.371.946 0 1.882.102 2.783.304 3.056.685 5.535 2.506 6.801 4.996 1.19 2.339 1.234 5.033.126 7.585-1.885 4.34-6.813 7.371-11.984 7.371z" fill-rule="evenodd" clip-rule="evenodd" fill="#021d49"/><path d="M212.334 343.444c.809 0 1.62.085 2.415.264 5.139 1.152 7.715 5.75 5.752 10.27-1.659 3.819-6.027 6.359-10.442 6.359-.809 0-1.62-.085-2.416-.264-5.139-1.152-7.713-5.748-5.751-10.271 1.66-3.817 6.027-6.358 10.442-6.358m0-3.363c-5.82 0-11.382 3.447-13.526 8.382-1.312 3.023-1.252 6.225.168 9.019 1.494 2.938 4.385 5.078 7.931 5.874 1.022.229 2.082.345 3.152.345 5.821 0 11.384-3.447 13.527-8.383 1.312-3.021 1.251-6.223-.169-9.017-1.494-2.939-4.385-5.08-7.933-5.875a14.417 14.417 0 0 0-3.15-.345z" fill="#fff"/><path d="M493.161 409.201c-.638 0-.986-.02-.986-.02-14.062-1.141-18.511-13.942-18.694-14.487-2.967-9.959 3.85-20.007 4.141-20.43l.04-.055c5.025-6.693 10.46-7.416 12.563-7.416.491 0 .856.038 1.064.066 8.051.07 10.805 6.629 11.136 10.106.005.051.008.101.008.152.045 10.955-10.11 11.932-10.213 11.94l-.069.004c-.194.008-.383.012-.57.012-4.335 0-6.945-2.121-7.809-2.961a2.393 2.393 0 0 0-.833-.179c-1.487 0-2.159 3.264-2.235 4.453-.131 2.604.474 4.643 1.797 6.034 2.047 2.153 5.366 2.385 6.699 2.385.334 0 .543-.015.574-.018 11.045-.593 15.608-9.669 15.992-10.475 3.798-11.255-.956-18.511-1.005-18.584a1.55 1.55 0 0 1-.06-.096c-3.219-5.551-4.405-8.524-4.454-8.648-4.367-10.501 4.127-18.095 9.259-20.658 8.323-4.58 24.813-4.96 25.512-4.974l.033-.001c.085 0 .17.007.255.02.631.096 2.552.391 2.724 2.076.122 1.195-.745 2.144-2.575 2.822-9.946 3.999-12.543 9.2-12.568 9.251l-.052.104c-2.45 4.399-.731 7.648-.714 7.681 5.48 10.408 6.549 13.768 6.73 14.443 1.183 3.479 1.367 6.5 1.055 9.017 3.654-4.946 7.133-11.312 8.633-14.344.267-.604 1.039-2.282 2.655-2.282 1.074 0 1.815.786 2.122 1.46l.035.084c1.87 4.752-1.228 11.781-9.208 20.889-5.692 6.497-11.76 11.672-12.016 11.888-11.187 9.965-25 10.741-28.966 10.741z" fill-rule="evenodd" clip-rule="evenodd" fill="#021d49"/><path d="M535.049 337.035c3.041.465-.18 1.658-.18 1.658-10.874 4.371-13.506 10.114-13.506 10.114-2.93 5.261-.72 9.306-.72 9.306 5.956 11.312 6.593 14.118 6.593 14.118 3.508 10.227-2.415 16.093-2.415 16.093 6.701-3.891 15.24-21.188 15.24-21.188.453-1.025.839-1.313 1.131-1.313.375 0 .593.477.593.477 3.908 9.933-20.748 30.88-20.748 30.88-10.853 9.666-24.326 10.34-27.876 10.34-.576 0-.892-.018-.892-.018-13.076-1.061-17.194-13.342-17.194-13.342-2.753-9.246 3.931-18.941 3.931-18.941 4.535-6.041 9.263-6.744 11.219-6.744.594 0 .932.065.932.065 8.776 0 9.594 8.584 9.594 8.584.039 9.529-8.672 10.258-8.672 10.258-.169.007-.336.011-.499.011-4.569 0-6.839-2.695-6.839-2.695-.678-.31-1.275-.445-1.803-.445-3.526 0-3.913 6.027-3.913 6.027-.477 9.485 7.675 10.208 10.174 10.208.45 0 .717-.023.717-.023 12.612-.676 17.414-11.527 17.414-11.527 4.162-12.222-1.174-20.147-1.174-20.147-3.193-5.506-4.345-8.422-4.345-8.422-4.943-11.889 8.475-18.55 8.475-18.55 8.044-4.45 24.763-4.784 24.763-4.784m0-3.363l-.067.001c-.715.014-17.585.404-26.273 5.174-.594.306-4.124 2.209-7.054 5.583-4.406 5.073-5.456 11.184-2.959 17.21.152.376 1.415 3.433 4.549 8.838.038.065.078.129.12.192.16.249 4.26 6.763.837 17.015-.517 1.061-4.661 8.896-14.467 9.422l-.114.008h.001c-.003 0-.164.011-.424.011-.87 0-3.837-.134-5.48-1.862-.989-1.039-1.438-2.649-1.336-4.783.071-.941.394-2.128.711-2.707 1.362 1.163 4.181 2.984 8.486 2.984a15.492 15.492 0 0 0 .78-.023c4.084-.342 11.795-3.629 11.755-13.623a3.892 3.892 0 0 0-.015-.305c-.379-3.986-3.523-11.493-12.691-11.627a9.838 9.838 0 0 0-1.183-.067c-7.073 0-12.083 5.656-13.909 8.088a2.77 2.77 0 0 0-.079.11c-.31.45-7.562 11.143-4.385 21.81l.034.109c.197.587 4.997 14.399 20.111 15.625l.083.006c.069.004.442.023 1.081.023 4.113 0 18.43-.805 30.085-11.166.54-.46 6.534-5.613 12.161-12.035 8.547-9.755 11.657-17.152 9.508-22.613a3.483 3.483 0 0 0-.071-.167c-.678-1.483-2.111-2.442-3.651-2.442h-.001c-1.24 0-2.965.565-4.175 3.244-1.363 2.752-3.36 6.363-5.531 9.77a24.234 24.234 0 0 0-1.032-4.224c-.284-1.007-1.537-4.639-6.831-14.694-.091-.193-1.216-2.711.678-6.111.059-.107.068-.113.109-.212.852-1.64 4.353-5.451 11.675-8.402 3.416-1.284 3.732-3.401 3.614-4.551-.114-1.113-.802-3.057-4.143-3.568a3.069 3.069 0 0 0-.507-.041zm-11.439 22.853l-.002-.002.002.002z" fill="#fff"/><path d="M463.745 344.843c-1.294-.356-2.829-.534-4.531-.534-7.767 0-19.027 3.69-26.904 10.895-4.766 4.362-8.687 10.036-11.327 16.321-8.083 19.249-6.421 36.573 7.446 40.348 2.099.571 4.356.856 6.703.856 8.918 0 19.147-4.118 27.084-12.315 3.764-3.888 7.423-9.347 9.757-14.489 5.125-11.302 6.857-21.689 4.697-29.258-1.763-6.181-5.39-9.747-12.925-11.824zm-9.265 32.765c-5.113 15.288-11.505 26.157-11.505 26.157-2.876 5.86-7.61 5.86-7.61 5.86-6.152-.119-1.452-15.882-1.452-15.882 12.275-41.421 18.921-45.518 18.921-45.518 1.642-.995 2.938-1.366 3.958-1.366 2.99 0 3.605 3.19 3.605 3.19.058 6.864-2.389 17.016-5.917 27.559z" fill="#021d49"/></svg>