<svg xmlns="http://www.w3.org/2000/svg" viewBox="0 0 408.485 381.39"><path d="M379.867 41.545c0 .242-.035.44.005.622 2.268 10.167 3.346 20.42 2.83 30.856-.304 6.145-.99 12.215-2.309 18.212-3.159 14.365-9.363 27.25-19.271 38.302-1.291 1.44-2.628 2.839-4.283 4.622l2.019-.659c2.874-.946 5.73-1.954 8.628-2.82 2.711-.81 5.496-1.293 8.349-1.077 1.498.114 2.929.437 3.688 2.027-.246.446-.468.876-.716 1.292-4.869 8.165-9.742 16.328-14.612 24.492-4.368 7.324-8.706 14.666-13.11 21.969-3.102 5.145-6.028 10.406-9.776 15.145-1.959 2.477-4.001 4.895-6.745 6.56-2.846 1.727-5.145.954-6.503-2.056-.114-.253-.172-.529-.27-.79-1.282-3.382-1.431-6.954-1.539-10.48-.113-3.68.16-7.374.332-11.059.094-2.013.163-4.049.532-6.023 2.363-12.658 4.741-25.314 7.241-37.946 2.581-13.044 5.196-26.083 8.003-39.08 2.205-10.21 4.697-20.36 7.123-30.523.71-2.976 1.817-5.867 2.413-8.861 1.474-7.399 2.025-14.891 1.849-22.436-.121-5.174-.721-10.278-2.209-15.248-1.523-5.089-3.847-9.725-8.066-13.215-1.977-1.636-4.133-3.033-6.745-3.25-2.592-.215-5.205-.191-7.779.468-3.372.863-6.532 2.202-9.551 3.891-7.95 4.45-14.52 10.552-20.648 17.128-7.227 7.755-13.562 16.213-19.512 24.955-9.382 13.785-17.692 28.198-25.339 42.974-5.073 9.803-9.765 19.798-14.637 29.702-.234.475-.563.905-.849 1.356-.025-2.424.181-4.705.373-6.987.339-4.021.589-8.052 1.023-12.063.928-8.567 1.864-17.136 2.964-25.682.718-5.583 1.57-11.16 2.659-16.683.984-4.991 1.933-9.973 2.327-15.045.313-4.025.452-8.052.053-12.085-.525-5.301-1.608-10.434-4.055-15.25-4.522-8.899-14.631-12.674-22.115-11.719-4.48.571-8.569 2.238-12.436 4.461-8.213 4.72-14.911 11.16-21.046 18.236-8.615 9.936-15.798 20.846-22.383 32.16-6.406 11.005-12.125 22.359-17.471 33.9-5.987 12.926-11.48 26.055-16.571 39.35-1.015 2.651-2.066 5.289-3.101 7.932l-.324-.083c.064-.523.104-1.051.195-1.57 1.212-6.921 2.554-13.823 3.609-20.767a308.79 308.79 0 0 0 2.185-18.013c.652-7.06 1.2-14.138 1.482-21.22.196-4.935-.134-9.89-.225-14.836-.152-8.242-1.138-16.389-3.023-24.416-2.127-9.057-5.279-17.695-11.809-24.659-5.489-5.855-11.917-9.551-20.515-8.623-6.697.723-12.986 2.541-18.948 5.49-7.696 3.807-14.41 8.994-20.535 14.933-5.505 5.338-10.372 11.22-14.813 17.44-6.599 9.245-12.213 19.054-17.244 29.217-6.238 12.599-11.392 25.631-16.084 38.842-3.715 10.461-6.347 21.219-8.452 32.116C1.947 156.27.549 167.66.15 179.137c-.29 8.35-.192 16.718.588 25.072.797 8.538 2.041 16.991 4.012 25.334 3.321 14.053 8.401 27.453 15.47 40.094a148.195 148.195 0 0 0 16.895 24.225c.666.776 1.058 1.484.83 2.614-1.759 8.737-3.451 17.488-5.137 26.239-1.987 10.318-4.081 20.618-5.865 30.97-.97 5.632-1.153 11.361-.26 17.059.391 2.492.986 4.931 2.46 7.053 1.575 2.268 3.685 3.468 6.554 3.581 3.687.145 6.929-1.104 10.061-2.74 4.318-2.255 8.221-5.134 12.003-8.172 5.373-4.315 10.342-9.061 15.182-13.944 1.627-1.641 3.423-3.144 4.874-4.923 3.157-3.87 5.548-8.224 7.634-12.739 5.804-12.559 9.395-25.801 12.254-39.252 2.751-12.942 4.731-26.01 6.095-39.169.2-1.925.412-3.892.982-5.729 2.461-7.921 4.969-15.829 7.625-23.688 4.089-12.098 8.182-24.198 12.515-36.211 4.424-12.264 9.047-24.461 13.753-36.622 4.382-11.322 9.164-22.488 14.448-33.431 3.343-6.922 6.896-13.743 11.299-20.084 1.876-2.703 3.884-5.321 6.617-7.259 3.432-2.434 5.258-1.85 6.53 2.106.945 2.939 1.222 5.987 1.302 9.059.238 9.072-.384 18.101-1.431 27.104-.562 4.835-1.021 9.702-1.967 14.47-1.815 9.149-3.957 18.234-5.939 27.35-2.752 12.656-5.484 25.316-8.222 37.975-1.825 8.438-3.654 16.875-5.465 25.316-1.65 7.691-3.323 15.378-4.907 23.082-1.795 8.734-3.509 17.484-5.243 26.23-1.015 5.118-1.912 10.261-3.027 15.357-1.093 4.993-1.945 10.004-1.603 15.118.128 1.916.572 3.858 1.187 5.684.91 2.704 2.973 4.133 5.883 4.328 2.163.145 4.188-.398 6.176-1.147 3.65-1.376 6.957-3.369 10.146-5.566 4.518-3.112 8.974-6.319 12.71-10.35 6.345-6.846 12.065-14.179 17.074-22.044 5.24-8.229 9.645-16.851 12.775-26.095 1.863-5.501 2.901-11.177 4.087-16.841 3.156-15.075 7.032-29.982 11.288-44.791 4.123-14.347 8.705-28.548 13.882-42.561 6.541-17.701 13.932-35.023 23.426-51.404 4.526-7.811 9.48-15.35 15.322-22.272 1.157-1.371 2.607-2.564 4.103-3.578 2.795-1.895 4.969-1.131 6.022 2.051.456 1.377.801 2.842.867 4.282.134 2.906.177 5.83.011 8.733-.226 3.955-.445 7.936-1.086 11.839-1.58 9.613-3.509 19.169-5.09 28.782a641.691 641.691 0 0 0-3.539 24.572 474.291 474.291 0 0 0-2.233 21.996c-.588 7.559-1.053 15.135-1.237 22.712-.144 5.914.168 11.841.381 17.759a83.487 83.487 0 0 0 2.747 18.546c1.283 4.811 3.015 9.456 6.367 13.31 1.197 1.376 2.49 2.673 4.39 3.104 2.353.535 4.717.7 7.133.443 6.092-.649 11.581-2.934 16.769-5.997 6.887-4.065 12.837-9.26 18.424-14.924 8.406-8.521 15.573-17.995 22.241-27.854 7.923-11.717 15.03-23.926 21.383-36.531 5.657-11.224 10.883-22.66 16.293-34.006.714-1.498 1.39-3.015 2.247-4.88 4.597 8.057 5.544 16.366 4.549 25.039 19.645-36.166 18.149-85.87-15.898-121.376zM73.842 119.291c-1.689 13.048-3.999 25.995-6.569 38.892-2.394 12.012-4.885 24.012-7.684 35.938-4.585 19.533-9.437 39.005-14.215 58.494-1.227 5.005-2.593 9.976-3.908 14.96-.134.508-.359.993-.668 1.833-.862-1.467-1.591-2.634-2.25-3.838-8.496-15.527-14.816-31.864-18.561-49.14-1.533-7.074-2.566-14.225-3.258-21.438-.721-7.512-.89-15.038-.6-22.548.56-14.507 2.862-28.78 6.722-42.8 3.751-13.623 8.822-26.741 15.368-39.289 1.743-3.34 3.428-6.775 5.665-9.784 4.035-5.429 8.847-10.164 15.302-12.802 5.089-2.08 8.763-.304 11.399 3.536 1.325 1.93 2.344 4.15 3.079 6.374 1.604 4.853 2.287 9.86 2.293 15.003.014 8.935-.971 17.771-2.115 26.609z" fill="#cf202e"/></svg>