<svg xmlns="http://www.w3.org/2000/svg" xmlns:xlink="http://www.w3.org/1999/xlink" viewBox="0 0 576.965 576.929"><defs><circle id="a" cx="288.483" cy="288.465" r="283.465"/></defs><clipPath id="b"><use xlink:href="#a" overflow="visible"/></clipPath><g clip-path="url(#b)"><path fill="#006948" d="M5.018 5.276h188.976v566.929H5.018z"/><path fill="#fff" d="M193.994 5.276H382.97v566.929H193.994z"/><path fill="#ce2029" d="M382.971 5.276h188.976v566.929H382.971z"/></g><circle cx="288.483" cy="288.465" r="276.333" fill="#131445"/><circle cx="290.612" cy="290.835" r="179.97" fill="#fff"/><defs><circle id="c" cx="290.612" cy="290.829" r="170.078"/></defs><clipPath id="d"><use xlink:href="#c" overflow="visible"/></clipPath><g clip-path="url(#d)"><radialGradient id="e" cx="312.265" cy="535.762" r="604.862" gradientTransform="matrix(.7866 -.1365 .1365 .7866 19.658 101.22)" gradientUnits="userSpaceOnUse"><stop offset="0" stop-color="#bfbfbf"/><stop offset=".103" stop-color="#d1d1d1"/><stop offset=".259" stop-color="#e6e6e6"/><stop offset=".436" stop-color="#f4f4f4"/><stop offset=".65" stop-color="#fcfcfc"/><stop offset="1" stop-color="#fff"/></radialGradient><circle cx="290.612" cy="290.829" r="175.755" fill="url(#e)"/></g><path d="M154.179 393.612l1.501-2.073c.157-.014.35-.094.566-.252l.402-.29c.252-.188.645-.433 1.078-.758l1.518-1.089c.564-.396 1.127-.847 1.721-1.281 1.178-.876 2.384-1.751 3.336-2.387l1.151-.773c.284-.184.435-.297.435-.297.279-.198.508-.479.648-.775.07-.148.118-.299.139-.445a.961.961 0 0 0 .001-.221l-.007-.053-.004-.026-.002-.013-.001-.003v-.001c.137.082.038.022.068.04v-.007c0-.03-.001-.06-.005-.088-.034-.231-.216-.383-.469-.432a.938.938 0 0 0-.311-.012l-.056.007-.028.004-.007.001-.004.001h-.001l-.054-.032h-.001l-.012.004a1.595 1.595 0 0 0-.397.215l-.977.719c-.578.434-1.394.98-2.164 1.547a114.86 114.86 0 0 0-3.015 2.274c-.212.165-.413.243-.586.252l2.539-3.907c.314-.491.646-.97.924-1.44l.76-1.284.77-1.236c.208.003.442-.065.682-.22l.115-.075c.067-.054.181-.123.32-.216.277-.186.675-.45 1.166-.763.24-.159.525-.319.79-.51l.006-.004c.051.027.016.006.028.012l.004-.002.014-.008.029-.016.058-.032.118-.064.242-.129.498-.268a36.456 36.456 0 0 1 2.227-1.105c.798-.361 1.602-.727 2.542-.98.453-.135.904-.262 1.342-.378l.646-.167c.102-.028.223-.046.285-.092l.11-.059.054-.029.007-.004c-.009-.006.088.042.049.021l.004-.001.016-.006.032-.012 2.288-.85a1.7 1.7 0 0 0 .288-.136c.082-.055.103-.141.203-.189.117-.137.196-.294.234-.462.077-.335-.008-.71-.276-1.046-.537-.673-1.594-.934-2.328-.585l-1.319.624c-.84.346-1.896.831-3.025 1.262a30.39 30.39 0 0 0-1.625.641l-.362.158-.087.039-.021.01-.011.005c.028.016-.041-.02-.035-.016l-.002.001-.005.003-.037.022-.145.088-.577.304c-.708.378-1.148.642-1.148.642a1.33 1.33 0 0 1-.773.189l.715-1.271c.419-.768 1.029-1.765 1.599-2.784.582-1.013 1.06-2.079 1.452-2.862l.462-.952c.127-.222.189-.354.189-.354.342.048.692.018 1.005-.118l.582-.248 1.579-.647 2.278-.927c.846-.34 1.776-.7 2.737-1.056l5.084-2.14 2.334-1.025c.849-.373.899-1.262.025-1.998-.847-.726-2.183-.99-2.977-.606l-1.484.662c-.895.391-2.031.924-3.222 1.418l-4.6 1.962c-.328.137-.715.162-1.106.104l.593-1.335 1.282-2.947c.858-2.173 1.681-4.361 1.681-4.361.42.046.825.007 1.152-.146l2.196-1.039c1.29-.643 3-1.53 4.73-2.45 1.719-.922 3.485-1.87 4.757-2.616l2.119-1.26c.764-.46.653-1.374-.253-2.024-.906-.65-2.261-.798-3.021-.349 0 0-2.19 1.302-4.365 2.522-2.242 1.208-4.458 2.339-4.458 2.339-.32.164-.722.216-1.142.183l.462-1.386c.268-.834.667-1.934.995-3.056l1.294-4.492c.423.01.824-.063 1.138-.244l.578-.333c.368-.213.901-.516 1.506-.895a246.596 246.596 0 0 0 4.513-2.846c1.644-1.064 3.322-2.16 4.504-3.018l2.01-1.437c.724-.524.538-1.425-.42-1.994-.957-.57-2.322-.6-3.043-.087 0 0-2.08 1.484-4.144 2.887-1.021.707-2.119 1.379-2.906 1.884l-1.326.832c-.305.19-.702.276-1.125.28l.346-1.419c.204-.852.504-1.983.714-3.133l.92-4.583c.423-.026.817-.134 1.115-.34l.549-.381 1.402-1.026c1.16-.856 2.711-2.021 4.267-3.224l2.286-1.79 1.929-1.611 1.885-1.607c.679-.585.418-1.467-.585-1.951s-2.366-.396-3.043.178c0 0-1.951 1.66-3.893 3.237l-1.427 1.151-1.288.981-1.254.943c-.289.216-.678.336-1.099.375l.228-1.443c.066-.433.154-.937.228-1.48l.197-1.705.536-4.644c.417-.063.81-.204 1.078-.437 0 0 2.889-2.48 5.792-5.16 1.476-1.332 2.834-2.712 3.889-3.763l1.743-1.769c.627-.643.293-1.5-.748-1.894-1.04-.394-2.392-.185-3.019.447 0 0-1.805 1.828-3.608 3.57-1.775 1.753-3.672 3.414-3.672 3.414-.27.24-.648.394-1.064.47l.107-1.457.051-.706a8783.002 8783.002 0 0 0 .077-2.506l.098-3.213.032-1.059c.008-.256.001-.402.001-.402.409-.1.772-.275 1.021-.531 0 0 2.669-2.728 5.333-5.66.679-.731 1.296-1.469 1.896-2.169l1.628-1.931 1.585-1.921c.57-.698.162-1.522-.909-1.82-1.071-.299-2.4.031-2.969.718 0 0-1.641 1.984-3.288 3.883-.824.952-1.648 1.887-2.267 2.58l-1.073 1.15c-.249.263-.612.451-1.021.564l-.018-1.461-.176-3.21-.178-3.21a15.957 15.957 0 0 0-.081-1.056l-.04-.4c.399-.137.746-.344.972-.621 0 0 2.426-2.958 4.827-6.117a253.232 253.232 0 0 0 4.549-6.447c.502-.744.045-1.531-1.074-1.728-1.11-.199-2.388.244-2.884.976 0 0-1.466 2.121-2.945 4.16a233.818 233.818 0 0 1-2.038 2.773l-.674.898-.268.34c-.225.285-.571.504-.969.653l-.04-.4a15.45 15.45 0 0 0-.13-1.051l-.451-3.182-.456-3.182-.265-1.437c.386-.172.714-.409.916-.705l1.349-2 1.376-2.086c.499-.769 1.048-1.601 1.54-2.429 2.013-3.314 3.95-6.811 3.95-6.811.448-.788-.133-1.515-1.251-1.617-1.117-.103-2.354.451-2.77 1.219 0 0-.287.552-.773 1.383-.478.829-1.118 1.926-1.765 3.007-1.291 2.167-2.611 4.256-2.611 4.256-.188.301-.51.549-.896.733 0 0-.022-.145-.082-.393l-.236-1.033-.717-3.133c-.27-1.137-.498-2.285-.749-3.125l-.385-1.409c.368-.204.673-.469.847-.781l1.164-2.108c.688-1.271 1.637-3.001 2.462-4.733a238.388 238.388 0 0 0 3.319-7.112c.349-.813-.288-1.488-1.398-1.497-1.111-.01-2.285.645-2.63 1.444l-.623 1.434c-.396.864-.939 2.011-1.484 3.142-1.091 2.266-2.215 4.459-2.215 4.459-.162.316-.456.59-.814.804l-1.416-4.455-.52-1.636-.51-1.408-.499-1.373c.346-.234.624-.523.77-.849l.97-2.197.978-2.283 1.024-2.626 1.001-2.667.232-.633.057-.155.028-.077c-.035-.007.003-.044.001-.065l.088-.292.316-1.082.254-.915c.037-.136.068-.262.115-.387.013-.058.059-.128.043-.169l.043-.156.162-.617c.209-.807-.523-1.405-1.606-1.328-1.084.077-2.123.795-2.347 1.597 0 0-.625 2.308-1.423 4.611l-.293.856-.324.841-.579 1.48-.572 1.432c-.133.329-.399.625-.735.868l-.555-1.351-1.233-2.968c-.435-1.085-.955-2.133-1.319-2.929l-.617-1.323c.304-.253.537-.557.64-.887 0 0 .279-.883.662-2.216a54.924 54.924 0 0 0 1.171-4.856c.349-1.756.629-3.512.807-4.827.097-.661.139-1.196.174-1.574l.051-.593c.011-.098-.003-.187-.007-.282a1.028 1.028 0 0 0-.021-.137l-.008-.033-.002-.008-.052.028v-.002l-.001-.002-.002-.003-.008-.014-.035-.055a1.231 1.231 0 0 0-.414-.366c-.345-.193-.809-.28-1.307-.214-.995.13-1.768.82-1.791 1.561 0 0-.01.531-.059 1.34-.1.836-.247 1.951-.474 3.093-.419 2.271-.986 4.54-.986 4.54-.08.327-.292.631-.572.885l-2.159-4.143c-.547-1.032-1.156-2.03-1.596-2.787l-.74-1.258c.225-.247.379-.539.412-.852 0 0 .099-.845.163-2.083.061-1.236-.002-2.817-.164-4.361a23.67 23.67 0 0 0-.412-2.171c-.15-.685-.252-1.352-.393-1.89-.284-1.077-.519-1.772-.519-1.772-.102-.314-.349-.586-.657-.775-.304-.191-.656-.309-1.001-.295-.685.024-1.103.575-.931 1.216-.021.014.118.467.284 1.169.162.705.379 1.64.504 2.626.112.995.228 1.977.27 2.738.047.757.043 1.279.043 1.279a1.29 1.29 0 0 1-.287.804l-2.544-3.911-2.675-3.821c.106-.199.151-.445.102-.722l-.092-.509c-.064-.321-.143-.789-.276-1.325a44.355 44.355 0 0 0-.502-1.81c-.093-.332-.216-.656-.302-1.015-.127-.329-.224-.687-.344-1.03a54.081 54.081 0 0 0-.714-2.014l-.354-.914-.358-.79c-.452-.974-.779-1.608-.779-1.608-.291-.573-.986-1.045-1.523-1.072-.537-.026-.728.409-.455.99 0 0 .797 1.666 1.467 3.403a46.173 46.173 0 0 1 1.122 3.608 1.04 1.04 0 0 1-.023.682l-1.008-1.33-1.033-1.363c-.371-.504-.817-1.002-1.236-1.521-1.695-2.063-3.419-4.099-3.419-4.099l-.387.328s1.636 2.099 3.3 4.172c.408.525.842 1.029 1.203 1.537l1.004 1.376.979 1.342a1.05 1.05 0 0 1-.658-.172l-.99-.623c-.592-.374-1.345-.893-2.105-1.402-1.549-.994-2.969-2.059-2.969-2.059-.497-.368-.952-.257-1.044.264-.092.521.198 1.261.677 1.637 0 0 .529.42 1.362 1.028l.678.487.741.56c.52.386 1.086.79 1.667 1.188.286.202.594.389.866.597.313.178.582.382.869.561.563.366 1.103.701 1.575.984l1.555.964c.236.143.479.188.7.159l2.552 3.872c.613.984 1.191 1.989 1.633 2.738l.738 1.247a1.323 1.323 0 0 1-.847-.101s-.467-.226-1.115-.59c-.653-.361-1.464-.873-2.278-1.374-.81-.504-1.621-.998-2.188-1.392-.575-.389-.931-.664-.952-.65-.515-.369-1.169-.165-1.457.443-.146.305-.18.657-.129.988.047.333.191.638.433.828 0 0 .529.428 1.39 1.037.417.313.926.667 1.452 1.061a22.76 22.76 0 0 0 1.69 1.221c1.256.773 2.669 1.474 3.741 2.008a44.66 44.66 0 0 0 1.831.876c.282.128.609.143.934.075l2.198 4.075 2.068 4.141c-.373.072-.745.062-1.055-.063 0 0-2.165-.864-4.184-1.727-1.001-.439-2.022-.851-2.773-1.162a43.016 43.016 0 0 1-1.138-.575c-.623-.323-1.601.002-2.25.747-.325.372-.511.78-.545 1.137a.973.973 0 0 0 .066.485l.025.052.007.013.002.003.001.002.001.001-.052.029.006.005.022.02c.03.027.063.052.099.076.075.045.138.094.224.129l.509.221c.324.141.801.337 1.346.591 1.104.5 2.618 1.164 4.202 1.829 1.568.67 3.28 1.305 4.485 1.839l2.08.87c.314.131.695.148 1.084.081l.596 1.318c.35.794.858 1.834 1.267 2.917l1.195 2.948.548 1.338c-.414.053-.814.024-1.139-.116l-1.406-.603-1.435-.605-.806-.335c-.253-.122-.528-.238-.791-.358-1.061-.477-2.079-.956-2.903-1.282l-1.328-.556c-.734-.308-1.947.029-2.737.747-.789.718-.869 1.54-.15 1.843 0 0 .817.327 1.947.882l.94.44.256.119c.012.014.064.011.044.039l.071.028.144.057.588.235 2.516 1.025 2.538 1.066 2.166.989 2.129.995c.319.151.718.193 1.133.152l.493 1.359.503 1.394.512 1.619 1.396 4.41c-.421.019-.821-.044-1.136-.211 0 0-2.188-1.161-4.342-2.248a214.792 214.792 0 0 0-2.952-1.468l-1.373-.633c-.762-.349-2.078-.088-2.949.565-.872.655-.964 1.444-.215 1.786 0 0 3.261 1.536 6.605 3.247 1.693.843 3.293 1.754 4.53 2.445l2.057 1.169c.308.177.706.252 1.127.246l.379 1.395c.248.832.471 1.968.738 3.093l.706 3.101.233 1.022c.059.246.081.389.081.389-.418-.018-.813-.115-1.117-.307 0 0-2.103-1.341-4.177-2.604l-2.842-1.709a34.668 34.668 0 0 0-1.304-.75c-.737-.411-2.083-.261-3.015.317-.93.578-1.093 1.356-.396 1.765 0 0 3.147 1.8 6.37 3.784.819.491 1.584 1.001 2.321 1.483l2.009 1.337 1.966 1.34c.294.202.686.311 1.109.342l.263 1.421.452 3.148.446 3.148c.066.429.109.787.129 1.04l.039.395c-.418-.055-.798-.186-1.073-.406l-.328-.261-.897-.68a224.8 224.8 0 0 0-2.717-2.016c-1.973-1.445-3.932-2.807-3.932-2.807-.694-.474-2.066-.439-3.042.055-.967.493-1.243 1.259-.558 1.722 0 0 3.021 2.058 6.074 4.314a227.1 227.1 0 0 1 5.896 4.698c.276.227.657.371 1.076.438l.039.396c.027.252.063.611.081 1.044l.176 3.175.175 3.175.018 1.445c-.411-.092-.779-.257-1.034-.501l-1.112-1.048a220.01 220.01 0 0 0-2.535-2.249c-1.843-1.614-3.679-3.142-3.679-3.142-.638-.533-1.99-.621-3.021-.216-1.032.406-1.353 1.142-.715 1.664l1.773 1.47 1.821 1.544c.662.572 1.393 1.189 2.063 1.818a226.646 226.646 0 0 1 5.467 5.207c.255.251.623.428 1.034.533 0 0 .007.145-.001.397l-.032 1.047-.097 3.178-.052 1.698-.024.781-.051.698-.105 1.441c-.401-.128-.753-.326-.987-.591 0 0-1.595-1.845-3.32-3.611a220.213 220.213 0 0 0-3.394-3.463c-.589-.589-1.928-.798-2.99-.487-1.062.311-1.444 1.017-.854 1.594l1.64 1.625c.975.985 2.324 2.324 3.551 3.699 2.507 2.74 5 5.679 5 5.679.234.273.569.481.968.622l-.53 4.595-.195 1.687c-.074.537-.16 1.036-.226 1.464l-.226 1.428c-.389-.163-.723-.391-.933-.676l-.911-1.229-.936-1.245-1.127-1.415c-1.539-1.918-3.086-3.753-3.086-3.753-.537-.64-1.852-.967-2.936-.751-1.083.217-1.523.887-.985 1.516l1.496 1.767 1.529 1.847 1.667 2.152a227.368 227.368 0 0 1 3.101 4.156l1.014 1.406.365.534c.198.291.523.529.906.703l-.91 4.535c-.207 1.138-.505 2.257-.706 3.1l-.343 1.404c-.374-.196-.687-.452-.872-.755l-.805-1.304c-.495-.781-1.108-1.803-1.806-2.826-1.372-2.046-2.76-4.012-2.76-4.012-.481-.685-1.763-1.126-2.859-1.004-1.096.122-1.59.753-1.106 1.427l1.342 1.893c.826 1.15 1.816 2.684 2.824 4.261 1.004 1.574 2 3.186 2.742 4.413.379.615.663 1.124.867 1.482l.32.565c.173.307.477.572.843.779l-1.28 4.445c-.324 1.11-.72 2.198-.984 3.024l-.457 1.372c-.355-.228-.646-.51-.805-.827 0 0-1.105-2.207-2.235-4.336-1.191-2.157-2.412-4.238-2.412-4.238-.423-.725-1.661-1.275-2.762-1.247-1.101.028-1.644.615-1.218 1.329l1.179 2.004c.702 1.21 1.556 2.823 2.433 4.484a205.354 205.354 0 0 1 2.36 4.635l.991 2.136c.147.321.427.611.774.849l-1.628 4.33-1.231 2.933-.549 1.338c-.311-.247-.559-.546-.687-.875l-.556-1.418a103.42 103.42 0 0 0-1.279-3.09c-.468-1.111-1.041-2.248-1.451-3.083l-.704-1.393c-.361-.759-1.548-1.414-2.645-1.481-1.124-.076-1.628.495-1.212 1.265l.314.589c.195.374.487.915.801 1.556a111.902 111.902 0 0 1 2.148 4.73 55.581 55.581 0 0 1 1.649 3.808c.14.376.26.727.371 1.053l.519 1.575.18.595c.094.322.292.609.546.842 0 0-.063.13-.155.367l-.446.95-.627 1.345a25.848 25.848 0 0 1-.734 1.534c-.518 1.036-.996 2.093-1.393 2.866l-.645 1.298a1.386 1.386 0 0 1-.275-.752s-.029-.513-.12-1.301l-.079-.637-.011-.166-.003-.042v-.008c.007.003-.062-.034-.033-.02l-.002-.011-.004-.023-.018-.092-.077-.378c-.11-.515-.25-1.074-.416-1.642-.171-.571-.272-1.102-.412-1.621a36.517 36.517 0 0 0-.427-1.432l-.372-1.36c-.208-.754-1.085-1.393-1.925-1.429-.42-.018-.749.118-.944.354a.875.875 0 0 0-.187.42c.029.101-.021.162-.008.253.018.094.046.191.085.29l.23.607c.15.389.332.93.532 1.576l.009.03.005.015.001.004c-.04-.019.056.031.046.027l.001.007.009.056.018.115c-.001.07.057.172.095.265l.248.585c.165.399.328.817.483 1.244.344.872.512 1.707.674 2.546.16.838.28 1.662.36 2.422.056.389.033.723.094 1.088-.029.314-.024.63-.04.911a49.146 49.146 0 0 1-.077 1.363c-.011.164-.015.296-.028.38l-.008.136c-.016.282.04.519.145.699l-.697 1.273-.743 1.288c-.272.471-.597.952-.903 1.445l-2.491 3.916c-.062-.164-.072-.382-.01-.644 0 0 .441-1.812.79-3.644.169-.921.344-1.83.425-2.539l.132-1.18a1.59 1.59 0 0 0-.013-.442l-.003-.012v-.001c-.107-.064-.03-.018-.054-.033v-.001l-.001-.003-.002-.007-.011-.027-.022-.051a1.039 1.039 0 0 0-.165-.263c-.168-.196-.386-.285-.598-.212a.582.582 0 0 0-.077.034l-.005.003h-.001l.068.041h-.002l-.003.001-.012.004-.024.008-.048.018a.82.82 0 0 0-.185.098c-.113.082-.216.19-.305.314a1.844 1.844 0 0 0-.331.899s-.012.186-.055.498l-.181 1.298c-.15 1.078-.413 2.488-.705 3.897-.151.701-.287 1.417-.462 2.058l-.488 1.755c-.154.508-.25.956-.341 1.254l-.137.473c-.076.255-.086.464-.047.618l-1.445 2.104.347.264zM424.463 394.347l-1.501-2.073c-.157-.014-.35-.094-.566-.252l-.402-.29c-.252-.188-.645-.433-1.078-.758l-1.518-1.089c-.564-.396-1.127-.847-1.721-1.281-1.177-.876-2.384-1.751-3.336-2.388l-1.151-.773c-.284-.184-.435-.297-.435-.297a2.027 2.027 0 0 1-.647-.775 1.577 1.577 0 0 1-.139-.445.961.961 0 0 1-.001-.221l.007-.053.004-.026.002-.013.001-.003v-.002l-.068.041v-.007c0-.03.001-.059.006-.088.034-.231.216-.383.469-.433a1.006 1.006 0 0 1 .311-.013l.056.007.028.004.007.001.004.001h.001l.054-.032h.001l.012.004c.127.043.258.117.397.215l.977.719c.578.434 1.394.98 2.164 1.547a114.86 114.86 0 0 1 3.015 2.274c.212.165.413.243.585.252l-2.539-3.907c-.314-.491-.646-.97-.924-1.44l-.76-1.284-.77-1.236a1.236 1.236 0 0 1-.682-.22l-.115-.075c-.067-.054-.181-.123-.32-.216-.277-.186-.675-.45-1.166-.763-.24-.159-.525-.319-.79-.509l-.006-.004c-.051.027-.016.006-.028.012l-.004-.002-.014-.008-.029-.016-.058-.032-.118-.064-.242-.129-.498-.268a36.456 36.456 0 0 0-2.227-1.105c-.798-.362-1.602-.727-2.542-.98a42.67 42.67 0 0 0-1.342-.378l-.646-.167c-.102-.028-.223-.046-.284-.092l-.11-.06-.054-.029-.007-.004c.009-.006-.088.042-.049.021l-.004-.001-.016-.006-.032-.012-2.288-.85a1.7 1.7 0 0 1-.288-.136c-.082-.055-.103-.141-.203-.189a1.085 1.085 0 0 1-.234-.462c-.077-.335.008-.71.276-1.046.536-.673 1.594-.934 2.328-.585l1.319.624c.84.346 1.896.831 3.025 1.262a30.39 30.39 0 0 1 1.625.641l.362.158.087.039.022.01.011.005c-.028.016.041-.02.035-.016l.002.001.005.003.037.022.146.088.577.304c.708.378 1.148.642 1.148.642.257.151.525.207.773.189l-.715-1.271c-.419-.768-1.029-1.765-1.599-2.784-.582-1.013-1.06-2.079-1.452-2.862l-.462-.952c-.127-.223-.189-.355-.189-.355a1.869 1.869 0 0 1-1.005-.118l-.583-.248-1.579-.647-2.278-.927c-.846-.341-1.776-.7-2.737-1.056l-5.084-2.14-2.334-1.025c-.849-.373-.899-1.262-.026-1.998.847-.726 2.183-.99 2.977-.606l1.484.662c.895.391 2.031.924 3.222 1.417l4.6 1.962c.328.137.715.162 1.106.104l-.593-1.335-1.282-2.947a325.991 325.991 0 0 1-1.681-4.362c-.42.046-.825.007-1.152-.146l-2.196-1.039c-1.291-.643-3-1.53-4.73-2.45-1.719-.922-3.485-1.87-4.757-2.616l-2.119-1.26c-.764-.46-.653-1.374.252-2.024.906-.65 2.261-.798 3.021-.349 0 0 2.19 1.301 4.365 2.522a245.995 245.995 0 0 0 4.458 2.339c.32.164.722.216 1.142.183l-.462-1.386c-.268-.835-.667-1.934-.995-3.056l-1.294-4.492c-.423.01-.824-.064-1.138-.243l-.578-.333c-.367-.213-.901-.516-1.506-.895a246.596 246.596 0 0 1-4.513-2.846c-1.644-1.064-3.322-2.16-4.504-3.018l-2.01-1.437c-.724-.524-.538-1.425.419-1.994.957-.57 2.322-.6 3.043-.088 0 0 2.08 1.484 4.144 2.887 1.021.707 2.119 1.379 2.906 1.884l1.326.832c.305.19.702.276 1.124.28l-.346-1.419c-.204-.852-.504-1.983-.714-3.133l-.92-4.583c-.423-.026-.817-.134-1.115-.34l-.549-.381-1.402-1.026c-1.16-.856-2.711-2.02-4.267-3.224l-2.286-1.79-1.929-1.611-1.885-1.607c-.679-.585-.418-1.467.585-1.951 1.002-.484 2.366-.396 3.043.178 0 0 1.951 1.66 3.893 3.237l1.427 1.151 1.288.981 1.254.943c.289.216.678.336 1.099.375l-.228-1.443c-.066-.433-.154-.937-.228-1.48l-.197-1.705-.536-4.644c-.417-.063-.81-.204-1.078-.437 0 0-2.889-2.48-5.792-5.16-1.476-1.332-2.834-2.712-3.889-3.763a2323.168 2323.168 0 0 0-1.744-1.769c-.627-.643-.293-1.5.748-1.894 1.04-.394 2.392-.185 3.019.447 0 0 1.805 1.828 3.608 3.57a95.916 95.916 0 0 0 3.672 3.414c.27.24.648.394 1.064.47l-.106-1.457-.051-.706a8783.002 8783.002 0 0 1-.077-2.506l-.098-3.213-.032-1.059c-.008-.256-.001-.402-.001-.402-.409-.1-.772-.275-1.021-.531 0 0-2.669-2.728-5.333-5.66-.679-.731-1.296-1.469-1.896-2.169l-1.628-1.931-1.585-1.921c-.569-.698-.162-1.522.909-1.82 1.071-.299 2.4.031 2.97.718a230.617 230.617 0 0 0 5.555 6.463l1.073 1.15c.249.263.612.451 1.021.564l.018-1.461.176-3.21.178-3.21c.018-.438.054-.802.082-1.056l.039-.4c-.399-.137-.746-.344-.972-.621 0 0-2.426-2.958-4.827-6.117a253.232 253.232 0 0 1-4.549-6.447c-.502-.744-.045-1.531 1.074-1.728 1.11-.199 2.388.244 2.884.976 0 0 1.466 2.121 2.945 4.16a233.818 233.818 0 0 0 2.038 2.773l.674.898.268.34c.225.285.571.504.969.653l.04-.4c.02-.255.064-.618.13-1.051l.451-3.182.457-3.182.265-1.437c-.386-.171-.714-.409-.916-.705l-1.349-2-1.376-2.086c-.499-.769-1.048-1.601-1.54-2.429-2.013-3.314-3.95-6.811-3.95-6.811-.448-.788.133-1.516 1.251-1.617 1.117-.103 2.354.451 2.77 1.219 0 0 .287.552.773 1.383a217.313 217.313 0 0 0 4.376 7.263c.188.301.51.549.896.733 0 0 .022-.145.082-.393l.236-1.033.717-3.133c.27-1.137.498-2.285.749-3.125l.385-1.409c-.368-.204-.673-.469-.847-.781l-1.164-2.108c-.688-1.271-1.637-3.001-2.462-4.733-1.701-3.469-3.319-7.112-3.319-7.112-.349-.813.288-1.488 1.397-1.497 1.111-.01 2.285.645 2.63 1.444l.623 1.434c.396.864.939 2.011 1.484 3.141a228.191 228.191 0 0 0 2.215 4.459c.162.316.456.59.814.804l1.416-4.455.52-1.636.51-1.408.499-1.373c-.346-.234-.624-.523-.77-.849l-.97-2.197-.978-2.283-1.024-2.626-1.001-2.667-.232-.633-.057-.155-.028-.077c.035-.007-.003-.044-.001-.065l-.088-.292-.316-1.082-.254-.915c-.037-.136-.068-.262-.115-.387-.013-.058-.059-.128-.043-.169l-.043-.156-.162-.616c-.209-.807.523-1.405 1.606-1.328 1.084.077 2.123.795 2.347 1.597 0 0 .625 2.308 1.423 4.611l.293.856.324.841.579 1.48.572 1.432c.133.329.4.625.735.868l.555-1.351 1.233-2.968c.435-1.085.955-2.133 1.319-2.929l.617-1.324c-.304-.253-.537-.557-.64-.887 0 0-.279-.883-.662-2.216a55.01 55.01 0 0 1-1.171-4.856 82.815 82.815 0 0 1-.807-4.827c-.097-.661-.139-1.196-.174-1.574a216.36 216.36 0 0 0-.051-.593c-.011-.098.004-.186.008-.282a.99.99 0 0 1 .021-.136l.008-.033.002-.008.052.028v-.001l.001-.001.001-.002.002-.003.008-.014.035-.056c.1-.145.241-.269.414-.366.344-.193.809-.28 1.307-.214.995.13 1.768.82 1.791 1.561 0 0 .009.531.059 1.34.099.836.247 1.951.474 3.093.419 2.271.986 4.54.986 4.54.08.327.292.631.572.885l2.159-4.143c.547-1.032 1.156-2.03 1.596-2.787l.74-1.258c-.225-.247-.379-.539-.412-.852 0 0-.099-.845-.163-2.083-.061-1.235.002-2.817.164-4.361.107-.756.25-1.494.412-2.171.15-.685.252-1.352.393-1.891.284-1.077.519-1.772.519-1.772.102-.314.349-.586.657-.775.304-.191.656-.309 1.001-.295.685.024 1.103.575.931 1.216.021.014-.118.467-.284 1.169-.162.705-.379 1.64-.504 2.626-.112.994-.228 1.977-.27 2.738-.047.757-.043 1.279-.043 1.279a1.29 1.29 0 0 0 .287.804l2.544-3.911 2.675-3.821a1.106 1.106 0 0 1-.102-.722l.092-.509c.064-.321.142-.789.276-1.325.136-.535.305-1.154.502-1.81.093-.332.216-.656.302-1.015.127-.329.224-.687.344-1.03.23-.692.474-1.378.714-2.014l.354-.914.358-.79c.452-.974.78-1.608.78-1.608.291-.573.986-1.045 1.523-1.072.537-.026.728.41.455.99 0 0-.797 1.666-1.467 3.403a46.173 46.173 0 0 0-1.122 3.608c-.071.264-.055.497.023.682l1.008-1.33 1.033-1.363c.372-.504.817-1.002 1.236-1.521 1.695-2.063 3.419-4.1 3.419-4.1l.387.328s-1.636 2.099-3.3 4.172c-.408.525-.842 1.029-1.203 1.537l-1.004 1.376-.979 1.342c.2.021.427-.03.658-.172l.99-.623c.592-.374 1.345-.893 2.105-1.402 1.549-.994 2.969-2.059 2.969-2.059.497-.368.952-.257 1.044.264.092.521-.198 1.261-.677 1.637 0 0-.529.42-1.362 1.028l-.678.487-.741.56c-.52.385-1.086.79-1.667 1.188-.286.202-.594.389-.866.597-.313.178-.582.382-.869.561-.563.366-1.103.701-1.575.984l-1.555.964a1.073 1.073 0 0 1-.7.159l-2.552 3.872c-.613.984-1.191 1.989-1.633 2.738l-.738 1.247c.287.055.582.031.847-.101 0 0 .467-.226 1.115-.59.653-.361 1.464-.873 2.278-1.374.81-.504 1.621-.998 2.188-1.392.575-.389.931-.664.952-.65.515-.369 1.169-.165 1.457.443.146.305.18.657.129.988-.047.334-.191.638-.433.828 0 0-.529.428-1.39 1.037-.417.313-.926.667-1.452 1.061a22.76 22.76 0 0 1-1.69 1.221c-1.256.773-2.67 1.474-3.741 2.008-1.065.537-1.831.876-1.831.876-.282.128-.609.143-.934.075l-2.198 4.075-2.068 4.141c.373.072.745.062 1.056-.063 0 0 2.165-.864 4.184-1.727 1.001-.438 2.022-.851 2.773-1.162a43.016 43.016 0 0 0 1.138-.575c.623-.323 1.601.002 2.25.747.325.373.511.78.545 1.137a.973.973 0 0 1-.066.485l-.025.052-.007.013-.002.003-.001.001-.001.001.052.029-.005.005-.022.02a.861.861 0 0 1-.099.076c-.075.045-.138.094-.224.129l-.509.221c-.324.141-.8.337-1.346.591-1.104.5-2.618 1.164-4.202 1.829-1.568.67-3.28 1.305-4.485 1.839l-2.08.87c-.314.131-.695.148-1.084.081l-.596 1.318c-.35.794-.858 1.834-1.267 2.917l-1.195 2.948-.548 1.338c.414.053.814.024 1.139-.117l1.407-.603 1.435-.605.806-.335c.253-.122.528-.238.791-.358 1.061-.477 2.079-.956 2.903-1.282l1.328-.556c.734-.308 1.947.029 2.737.747.789.718.869 1.54.15 1.843 0 0-.817.327-1.947.882a1163.275 1163.275 0 0 0-1.196.559c-.012.014-.064.011-.044.039l-.071.028-.144.057-.588.235-2.516 1.025-2.538 1.066-2.166.989-2.129.995c-.319.151-.718.193-1.133.152l-.493 1.359-.503 1.394-.513 1.619-1.396 4.41c.421.019.821-.044 1.136-.211 0 0 2.188-1.161 4.342-2.248a214.792 214.792 0 0 1 2.952-1.468l1.373-.633c.762-.349 2.078-.088 2.949.565.872.655.964 1.444.215 1.786 0 0-3.261 1.536-6.605 3.247-1.693.843-3.293 1.754-4.53 2.445l-2.056 1.169c-.308.177-.706.252-1.127.246l-.379 1.395c-.248.832-.471 1.968-.738 3.093l-.706 3.101-.233 1.022c-.059.246-.081.389-.081.389.418-.018.813-.115 1.117-.307 0 0 2.103-1.341 4.177-2.604l2.842-1.709c.763-.459 1.304-.75 1.304-.75.737-.411 2.083-.261 3.015.317.93.578 1.093 1.356.396 1.765 0 0-3.147 1.8-6.37 3.784-.819.491-1.584 1.001-2.321 1.483l-2.009 1.337-1.966 1.339c-.294.202-.686.311-1.109.342l-.263 1.421-.451 3.148-.446 3.148c-.066.429-.109.788-.129 1.04l-.039.396c.418-.055.798-.186 1.073-.406l.328-.262.897-.68a224.8 224.8 0 0 1 2.717-2.016c1.973-1.445 3.933-2.807 3.933-2.807.694-.474 2.066-.439 3.042.055.967.493 1.243 1.259.558 1.722 0 0-3.021 2.058-6.074 4.314-2.937 2.249-5.896 4.698-5.896 4.698-.276.228-.657.371-1.076.438l-.039.396a15.65 15.65 0 0 0-.081 1.044l-.176 3.175-.175 3.175-.018 1.445c.411-.092.779-.257 1.034-.501l1.112-1.048a220.01 220.01 0 0 1 2.535-2.249c1.843-1.614 3.679-3.142 3.679-3.142.638-.533 1.99-.621 3.021-.216 1.032.406 1.353 1.142.715 1.664l-1.773 1.47-1.821 1.544c-.662.572-1.393 1.189-2.063 1.818-2.731 2.501-5.468 5.207-5.468 5.207-.255.251-.623.428-1.034.533 0 0-.007.145 0 .397l.032 1.047.097 3.178.052 1.697.024.781.051.698.105 1.441c.402-.128.754-.326.987-.591 0 0 1.595-1.845 3.32-3.612a217.607 217.607 0 0 1 3.394-3.462c.589-.589 1.928-.799 2.99-.488 1.062.312 1.444 1.016.854 1.594l-1.64 1.626c-.975.985-2.324 2.324-3.551 3.699-2.507 2.74-5 5.679-5 5.679-.234.273-.569.481-.968.622l.53 4.595.195 1.687c.074.537.161 1.036.226 1.464l.226 1.428c.389-.163.723-.391.933-.676l.911-1.229.936-1.245 1.127-1.415c1.539-1.918 3.086-3.753 3.086-3.753.537-.64 1.852-.967 2.936-.751 1.083.217 1.523.887.985 1.516l-1.496 1.767-1.53 1.847-1.667 2.152a227.368 227.368 0 0 0-3.101 4.156l-1.014 1.405-.365.535c-.198.291-.523.528-.906.703l.91 4.535c.207 1.138.505 2.257.706 3.1l.343 1.404c.374-.196.687-.452.872-.754l.805-1.304c.495-.781 1.108-1.802 1.806-2.826 1.372-2.046 2.76-4.011 2.76-4.011.481-.685 1.763-1.126 2.859-1.004 1.096.122 1.59.753 1.106 1.427l-1.342 1.893c-.826 1.15-1.816 2.684-2.824 4.261-1.004 1.574-2 3.187-2.742 4.413-.379.615-.663 1.124-.867 1.482l-.32.565c-.173.307-.477.572-.843.779l1.28 4.445c.324 1.11.72 2.198.984 3.024l.457 1.372c.355-.228.646-.51.806-.827 0 0 1.105-2.207 2.235-4.336 1.191-2.157 2.412-4.238 2.412-4.238.422-.725 1.661-1.275 2.762-1.247 1.101.028 1.644.615 1.218 1.329l-1.179 2.004c-.702 1.21-1.556 2.824-2.433 4.485a205.354 205.354 0 0 0-2.36 4.635l-.991 2.136c-.147.321-.427.611-.774.85l1.628 4.33 1.231 2.933.549 1.338c.31-.247.559-.546.687-.875l.556-1.418c.334-.847.794-1.972 1.279-3.09.468-1.111 1.041-2.248 1.45-3.083l.704-1.394c.361-.759 1.548-1.414 2.645-1.48 1.124-.076 1.628.495 1.212 1.265l-.314.589c-.195.374-.486.915-.801 1.556a111.902 111.902 0 0 0-2.148 4.73 56.634 56.634 0 0 0-1.169 2.613c-.173.415-.333.816-.48 1.195-.139.376-.26.727-.37 1.053l-.519 1.575-.18.595a1.872 1.872 0 0 1-.546.842s.063.13.155.367l.446.95.627 1.345c.221.496.464 1.022.734 1.534.518 1.036.996 2.093 1.393 2.866l.645 1.298c.152-.199.255-.455.275-.752 0 0 .029-.513.12-1.301l.079-.637.011-.166.003-.042v-.008c-.007.003.062-.034.033-.02l.002-.011.004-.023.018-.092.077-.378c.11-.516.25-1.074.415-1.642.171-.571.272-1.102.412-1.621a37.68 37.68 0 0 1 .427-1.431l.372-1.36c.209-.754 1.085-1.393 1.926-1.429.42-.018.749.118.944.354.097.118.161.26.187.42-.029.101.021.162.008.253a1.714 1.714 0 0 1-.085.29l-.23.607c-.15.389-.332.93-.532 1.576l-.009.031-.004.025-.001.004c.04-.019-.056.031-.046.027l-.001.007-.009.056-.018.115c.001.07-.057.172-.095.265l-.248.585c-.165.399-.328.817-.483 1.244-.344.872-.512 1.707-.674 2.547-.16.838-.28 1.662-.36 2.422-.056.389-.033.723-.094 1.088.029.314.024.63.04.911.023.566.054 1.035.077 1.363.012.164.015.296.029.38l.008.136c.016.282-.04.519-.145.698l.697 1.273.743 1.288c.272.471.597.952.903 1.444l2.491 3.916c.062-.164.072-.382.01-.643 0 0-.44-1.812-.79-3.644-.169-.921-.344-1.83-.425-2.539l-.132-1.18a1.59 1.59 0 0 1 .013-.442l.003-.012v-.001c.108-.064.03-.018.054-.033v-.001l.001-.003.003-.007.01-.026.022-.051a1.039 1.039 0 0 1 .165-.263c.168-.196.387-.285.598-.212a.582.582 0 0 1 .077.034l.005.003h.001l-.068.041h.002l.003.001.012.004.024.008.048.018a.82.82 0 0 1 .185.098c.112.082.216.19.305.314.179.25.302.569.331.899 0 0 .012.186.056.498l.181 1.298c.15 1.078.413 2.488.705 3.897.151.701.287 1.417.462 2.058l.488 1.755c.154.508.25.957.341 1.255l.137.473c.076.255.086.464.048.618l1.445 2.104-.357.259z" clip-path="url(#d)" fill="#ce2029"/><g clip-path="url(#d)"><path d="M115.809 289.981c0 96.175 77.963 174.139 174.139 174.139 68.462 0 127.684-39.512 156.136-96.969-31.911 36.237-78.644 59.108-130.726 59.108-96.176 0-174.139-77.965-174.139-174.14 0-27.714 6.485-53.91 18.003-77.17-27.017 30.68-43.413 70.939-43.413 115.032z" fill="#e4e4e4"/></g><path d="M290.813 120.75c81.158 0 153.003 58.318 167.348 141.014 16.052 92.535-45.95 180.561-138.484 196.613a171.014 171.014 0 0 1-29.265 2.53c-81.158 0-153.003-58.318-167.348-141.014-16.052-92.535 45.95-180.561 138.485-196.613a171.077 171.077 0 0 1 29.264-2.53m0-5c-10.026 0-20.16.876-30.12 2.604-23.282 4.038-45.079 12.518-64.785 25.202-19.032 12.25-35.319 27.885-48.41 46.471-13.091 18.586-22.327 39.188-27.451 61.233-5.306 22.827-5.949 46.206-1.91 69.488 7.09 40.87 28.52 77.984 60.345 104.505 31.459 26.217 71.21 40.655 111.93 40.655 10.026 0 20.16-.876 30.12-2.604 23.282-4.039 45.079-12.518 64.785-25.202 19.032-12.25 35.319-27.885 48.41-46.471 13.091-18.586 22.327-39.188 27.451-61.233 5.306-22.827 5.949-46.206 1.91-69.488-7.09-40.87-28.52-77.984-60.344-104.505-31.461-26.216-71.212-40.655-111.931-40.655z" fill="#a6251b"/><g><g fill="#fff"><path d="M127.264 411.745l11.012 12.291c6.961 7.77 6.583 14.983-.384 21.227l-22.023 19.728c-6.968 6.243-14.18 5.827-21.141-1.942l-11.012-12.29 43.548-39.014zm.74 13.344l-31.106 27.866 3.924 4.379c2.214 2.473 4.663 2.953 7.773.167l22.645-20.288c3.11-2.787 2.901-5.272.687-7.745l-3.923-4.379zM144.356 450.592c5.682-7.432 13.373-8.277 21.51-2.057 8.137 6.222 9.335 13.865 3.653 21.296l-18.465 24.148c-5.681 7.432-13.372 8.278-21.509 2.058-8.137-6.222-9.335-13.866-3.653-21.297l18.464-24.148zm-10.532 30.948c-2.536 3.318-1.843 5.847.794 7.862 2.637 2.016 5.258 2.022 7.795-1.295l19.175-25.076c2.536-3.318 1.843-5.846-.794-7.862-2.638-2.016-5.258-2.022-7.795 1.295l-19.175 25.076zM196.706 467.985c9.03 4.625 11.234 11.761 6.969 20.085l-.839 1.636-8.777-4.496 1.105-2.156c1.904-3.717.939-5.993-2.014-7.506-2.955-1.514-5.366-.966-7.271 2.751-1.942 3.79-1.533 7.566 2.145 15.361 4.679 9.998 4.918 15.564 1.87 21.51-4.267 8.325-11.431 10.661-20.546 5.992-9.115-4.67-11.404-11.848-7.138-20.173l1.638-3.196 8.777 4.497-1.904 3.715c-1.904 3.718-.733 6.006 2.221 7.521 2.955 1.512 5.497 1.125 7.401-2.591 1.942-3.79 1.534-7.566-2.144-15.362-4.68-9.998-4.918-15.564-1.871-21.51 4.267-8.325 11.347-10.705 20.378-6.078zM232.065 483.153l10.173 2.302-11.058 48.875 16.739 3.789-1.843 8.146-26.913-6.091 12.902-57.021zM294.69 549.846l-10.515-.483-1.314-10.679-12.789-.588-2.286 10.514-9.567-.439 13.29-57.918 15.252.701 7.929 58.892zm-22.927-19.616l10.041.461-3.57-29.763-.189-.009-6.282 29.311zM332.023 545.656c-.779-1.406-1.286-2.261-1.969-6.972l-1.317-9.092c-.779-5.372-3.131-7.056-7.824-6.376l-3.565.517 3.414 23.554-10.323 1.496-8.385-57.855 15.579-2.256c10.698-1.55 15.932 2.164 17.226 11.09l.658 4.545c.862 5.95-.745 10.066-5.067 12.634l.024.164c5.436 1.154 7.749 5.207 8.624 11.24l1.293 8.926c.408 2.811.801 4.862 2.145 6.862l-10.513 1.523zm-18.449-47.958l2.575 17.77 4.036-.585c3.848-.557 5.978-2.384 5.308-7.013l-.826-5.702c-.6-4.133-2.458-5.72-6.118-5.189l-4.975.719zM357.428 504.689l13.584-4.529 2.642 7.924-13.583 4.529 5.416 16.241 17.091-5.7 2.643 7.925-26.987 8.998-18.493-55.46 26.987-9 2.642 7.924-17.092 5.698 5.15 15.45zM372.69 473.099l14.452-7.963c9.136-5.035 16.08-3.044 20.595 5.148l14.269 25.894c4.515 8.191 2.487 15.125-6.65 20.158l-14.452 7.963-28.214-51.2zm13.167 2.28l20.153 36.572 5.149-2.838c2.907-1.602 3.925-3.879 1.91-7.537l-14.671-26.624c-2.016-3.657-4.486-4.013-7.393-2.41l-5.148 2.837zM414.372 465.174c-5.976-7.197-5.085-14.885 2.795-21.425 7.88-6.541 15.599-6.003 21.574 1.195l19.42 23.395c5.976 7.198 5.086 14.885-2.794 21.427-7.88 6.541-15.6 6-21.574-1.197l-19.421-23.395zm27.82 17.181c2.668 3.214 5.286 3.103 7.841.982 2.553-2.12 3.145-4.674.477-7.887l-20.167-24.293c-2.668-3.214-5.286-3.102-7.84-.982s-3.145 4.674-.478 7.886l20.167 24.294zM442.974 418.048c6.515-7.778 13.962-8.345 21.134-2.339l1.408 1.18-6.332 7.56-1.857-1.556c-3.202-2.681-5.637-2.246-7.768.299-2.131 2.545-2.133 5.017 1.069 7.698 3.266 2.733 7.038 3.173 15.456 1.315 10.788-2.344 16.269-1.342 21.392 2.948 7.171 6.005 7.859 13.508 1.283 21.358-6.576 7.851-14.084 8.489-21.255 2.484l-2.754-2.306 6.333-7.56 3.201 2.681c3.201 2.681 5.693 2.047 7.824-.497 2.131-2.544 2.319-5.108-.883-7.79-3.266-2.734-7.039-3.173-15.456-1.317-10.789 2.345-16.269 1.344-21.392-2.946-7.169-6.004-7.918-13.435-1.403-21.212z"/></g></g><path d="M288.818 5C424.08 5 543.822 102.197 567.73 240.024c26.753 154.224-76.583 300.935-230.807 327.688a285.122 285.122 0 0 1-48.776 4.217c-135.263 0-255.004-97.197-278.913-235.024C-17.518 182.681 85.818 35.97 240.042 9.217A285.02 285.02 0 0 1 288.818 5m0-5a291.19 291.19 0 0 0-49.63 4.29c-38.361 6.655-74.274 20.625-106.741 41.522-31.357 20.183-58.193 45.944-79.763 76.568-21.57 30.623-36.787 64.568-45.23 100.891-8.742 37.608-9.8 76.128-3.146 114.489 5.949 34.296 17.812 66.777 35.258 96.542 16.855 28.756 38.443 54.206 64.166 75.642 51.834 43.196 117.328 66.986 184.415 66.986a291.19 291.19 0 0 0 49.63-4.29c38.361-6.654 74.274-20.624 106.741-41.522 31.357-20.183 58.193-45.944 79.762-76.568 21.57-30.623 36.787-64.568 45.23-100.891 8.742-37.608 9.8-76.128 3.146-114.489-5.949-34.295-17.812-66.777-35.258-96.542-16.855-28.756-38.443-54.205-64.166-75.642C421.399 23.789 355.905 0 288.818 0z" fill="#131445"/><g><g fill="#fff"><path d="M103.635 112.555l23.916-22.135 5.734 6.195-8.09 7.488 34.406 37.169-7.738 7.161-34.406-37.169-8.089 7.487-5.733-6.196zM162.551 96.258l12.222-7.755 4.523 7.127-12.222 7.755 9.272 14.61 15.379-9.757 4.523 7.127-24.281 15.405-31.664-49.889 24.28-15.406 4.523 7.127-15.377 9.758 8.822 13.898zM222.828 80.447l2.894 7.297c3.485 8.788.487 15.789-9.136 19.605-9.622 3.816-16.604.773-20.089-8.016L185.17 70.771c-3.486-8.788-.488-15.79 9.135-19.606 9.623-3.816 16.604-.772 20.09 8.017l2.115 5.336-9.267 3.674-2.333-5.885c-1.557-3.923-4.107-4.638-7.227-3.4-3.118 1.237-4.487 3.505-2.931 7.429l11.762 29.661c1.557 3.923 4.076 4.558 7.195 3.322 3.118-1.237 4.519-3.427 2.963-7.351l-3.112-7.847 9.268-3.674zM228.462 55.1c-1.75-9.291 2.808-15.646 12.98-17.56 10.172-1.915 16.729 2.349 18.479 11.64l5.688 30.197c1.75 9.292-2.808 15.647-12.979 17.562-10.172 1.915-16.73-2.349-18.48-11.64L228.462 55.1zm16.158 28.828c.782 4.149 3.15 5.336 6.447 4.715 3.297-.62 5.072-2.586 4.291-6.735l-5.906-31.358c-.781-4.149-3.15-5.335-6.447-4.715-3.297.621-5.072 2.587-4.291 6.735l5.906 31.358zM275.438 33.847l10.544-.029.149 50.648 17.349-.05.024 8.442-27.892.079-.174-59.09zM315.92 49.016c1.703-9.299 8.24-13.596 18.422-11.73 10.184 1.864 14.773 8.197 13.069 17.498l-5.536 30.226c-1.703 9.301-8.238 13.597-18.422 11.733-10.183-1.865-14.771-8.198-13.068-17.498l5.535-30.229zm4.73 32.708c-.761 4.152 1.024 6.11 4.325 6.714 3.3.604 5.663-.594 6.424-4.745l5.748-31.39c.761-4.152-1.024-6.109-4.324-6.713-3.301-.605-5.663.594-6.424 4.745l-5.749 31.389zM364.733 44.973l30.41 11.723-3.037 7.876-10.285-3.965-18.223 47.261-9.838-3.793 18.222-47.262-10.286-3.964 3.037-7.876zM405.294 90.654l12.358 7.533-4.393 7.208-12.359-7.533-9.006 14.775 15.552 9.48-4.394 7.207-24.555-14.967 30.751-50.456 24.556 14.966-4.394 7.208-15.552-9.478-8.564 14.057zM459.149 98.584c7.635 6.847 7.952 14.388 1.641 21.427l-1.24 1.383-7.421-6.655 1.635-1.822c2.817-3.142 2.461-5.617-.036-7.857-2.497-2.239-4.995-2.324-7.813.817-2.875 3.205-3.446 7.001-1.859 15.568 2 10.978.801 16.479-3.708 21.506-6.312 7.039-13.914 7.479-21.62.568-7.707-6.912-8.096-14.517-1.783-21.557l2.422-2.703 7.422 6.656-2.818 3.142c-2.817 3.143-2.263 5.681.235 7.921 2.497 2.24 5.081 2.516 7.899-.626 2.874-3.205 3.445-7.001 1.859-15.567-2-10.978-.801-16.479 3.707-21.507 6.312-7.038 13.842-7.541 21.478-.694z"/></g></g><g><path fill="#fff" d="M254.177 316.907l43.192-18.588v35.685l-43.192 18.676zM254.177 238.358l43.192-19.111v34.151l-43.192 18.692z"/><path fill="#c5c7c9" d="M272.578 230.216v33.91l24.791-10.728v-34.151z"/><path fill="#006948" d="M297.368 200.575h-43.191v37.783l43.191-19.11z"/><path fill="#a61c20" d="M347.842 384.378v-.001h-50.473v-50.373l-43.192 18.676v31.697h-8.815v40.796H371.021v-40.795z"/><path fill="#006948" d="M254.177 140.586h43.191v19.631h-43.191z"/><path fill="#06835d" d="M254.177 160.217h18.402v-11.942l24.789-7.689h-43.191zM272.579 230.216v-29.641h-18.402v37.783z"/><linearGradient id="f" gradientUnits="userSpaceOnUse" x1="255.511" y1="271.297" x2="255.511" y2="237.685"><stop offset="0" stop-color="#bfbfbf"/><stop offset="1" stop-color="#fff"/></linearGradient><path fill="url(#f)" d="M256.845 237.177l-2.668 1.181v33.732l2.668-1.106z"/><path fill="#c5c7c9" d="M272.579 308.998v35.725l24.79-10.719v-35.685z"/><linearGradient id="g" gradientUnits="userSpaceOnUse" x1="255.511" y1="314.708" x2="255.511" y2="352.235"><stop offset="0" stop-color="#bfbfbf"/><stop offset="1" stop-color="#fff"/></linearGradient><path fill="url(#g)" d="M256.845 315.749l-2.668 1.166v35.74l2.668-1.154z"/><path fill="#c8252c" d="M359.654 405.176h-87.075v-60.453l-18.402 7.957v31.697h-8.815v40.796h125.659v-40.795z"/><g><path fill="#131445" d="M343.085 161.991H228.886l-19.706 19.707-.004 25.919h36.804v-8.815h71.819l10.114 10.113-.001 24.646-10.113 13.19-99.788 43.355-8.834 13.2-.001 68.436h43.168v-40.794h-6.363v-12.58l92.045-39.799 25.285-20.493.001-75.86zM371.021 322.054h-36.805v8.896h-35.072v40.797h71.877z"/></g><g fill="#fff"><path d="M231.354 293.501l2.27 7.039 7.397.016-5.993 4.335 2.27 7.039-5.974-4.36-5.994 4.334 2.301-7.029-5.974-4.361 7.396.016zM258.27 281.367l2.271 7.039 7.396.017-5.993 4.334 2.27 7.039-5.974-4.36-5.993 4.334 2.3-7.029-5.974-4.361 7.396.017zM285.186 269.233l2.271 7.04 7.396.016-5.993 4.334 2.27 7.039-5.974-4.36-5.993 4.334 2.301-7.029-5.975-4.36 7.397.016zM312.103 257.099l2.27 7.04 7.396.016-5.993 4.334 2.27 7.039-5.974-4.36-5.993 4.334 2.301-7.029-5.974-4.36 7.396.016zM339.019 244.966l2.27 7.039 7.396.016-5.993 4.334 2.27 7.04-5.974-4.361-5.993 4.334 2.301-7.029-5.974-4.36 7.396.016z"/></g></g></svg>