<svg xmlns="http://www.w3.org/2000/svg" viewBox="0 0 566.826 448.884"><g fill="#91a9b9"><path d="M544.532 370.967c-.73-1.563-2.327-1.397-6.632-2.676 0 0-33.606-6.969-64.474-41.67 0 0-10.219-11.494-17.881-24.689-7.664-13.201-120.697-206.269-120.697-206.269s12.347-22.777 39.595-27.461c0 0 2.753-.349 3.185-2.123.453-1.883-1.497-3.115-3.185-3.837l-84.084-38.53s-6.592-3.528-13.876 0l-84.085 38.53c-1.697.722-3.645 1.954-3.186 3.837.426 1.775 3.186 2.123 3.186 2.123 27.248 4.685 39.593 27.461 39.593 27.461S118.958 288.731 111.294 301.932c-7.663 13.195-17.882 24.689-17.882 24.689-30.864 34.701-64.477 41.67-64.477 41.67-4.305 1.279-5.901 1.113-6.633 2.676-.813 1.748 1.743 3.958 1.743 3.958 18.852 19.783 21.066 45.734 21.18 47.011.122 1.284-.233 4.076 1.517 4.655 1.742.586 3.029-.698 3.029-.698s25.13-17.221 60.161-32.349c35.024-15.127 68.896-18.653 74.006-18.85 4.037-.164 3.883-1.452 3.883-1.452.373-1.489-3.67-3.14-3.67-3.14-11.282-5.268-16.842-12.342-18.255-14.689-2.181-3.619-.244-7.144-.244-7.144s16.184-46.425 117.038-44.811c0 0 95.193-4.584 118.503 44.811 0 0 1.936 3.525-.246 7.144-1.416 2.347-6.971 9.421-18.253 14.689 0 0-4.046 1.65-3.674 3.14 0 0-.157 1.288 3.88 1.452 5.114.196 38.982 3.723 74.011 18.85 35.024 15.128 60.163 32.349 60.163 32.349s1.277 1.284 3.028.698c1.743-.579 1.397-3.371 1.509-4.655.119-1.276 2.329-27.228 21.18-47.011-.002 0 2.56-2.21 1.741-3.958zM216.173 253.315l66.742-118.448 67.687 118.448H216.173z"/><path d="M210.001 373.58v1.01c-.692 11.923-10.818 18.058-10.818 18.058-5.941 3.592-10.35 3.891-14.375 4.163-.435-.021-10.011.818-22.158 3.392-12.371 2.549-28.239 6.875-43.944 13.665-28.858 12.445-51.009 26.683-55.566 29.709a4.682 4.682 0 0 1-.299.197 26.66 26.66 0 0 1-2.69 1.771c-2.648 1.503-6.809 3.314-12.501 3.332-.025 0-.052.008-.076.008a25.27 25.27 0 0 1-7.823-1.286c-5.062-1.587-9.696-5.438-12.061-9.03-2.478-3.611-3.346-6.667-3.862-8.877-.67-3.272-.69-5.293-.693-6.157a40.512 40.512 0 0 0-.423-2.829 66.55 66.55 0 0 0-2.131-8.572c-2.166-6.795-6.035-14.962-12.197-21.55-.702-.676-1.622-1.64-2.736-3.043-1.605-2.509-5.189-5.975-5.646-15.833-.018-3.207.698-6.898 2.234-10.105 1.444-3.326 4.719-7.417 8.082-9.651 3.351-2.313 5.963-3.108 7.504-3.598 3.094-.887 3.533-.887 4.807-1.287l.9-.264.733-.154.094-.021c.092-.02.236-.054.428-.106a56.815 56.815 0 0 0 2.957-.886c2.75-.901 6.939-2.478 12.018-4.992 10.177-5.059 23.854-13.833 37.108-28.728 0 0 .037-.039.259-.3.223-.265.585-.677 1.043-1.229a155.904 155.904 0 0 0 3.823-4.737c3.112-3.993 7.065-9.505 10.151-14.834 6.504-11.197 87.201-149.044 112.923-192.978-4.059-3.441-9.362-6.566-16.244-7.785a28.65 28.65 0 0 1-3.781-.88c-2.235-.766-5.458-1.715-9.831-5.44-2.822-2.444-6.199-6.805-7.532-12.489a24.362 24.362 0 0 1-.682-5.716c-.033-4.495 1.362-8.856 3.14-11.95 1.788-3.149 3.793-5.225 5.52-6.741 3.179-2.693 5.613-3.864 7.522-4.723l-.002-.003 83.71-38.358C272.653.959 278.52-.021 283.314 0c8.199.102 13.6 2.319 16.261 3.585h.005l84.065 38.516a31.707 31.707 0 0 1 5.11 2.853c2.234 1.612 5.225 3.947 7.942 8.659 1.769 3.083 3.153 7.427 3.126 11.925 0 1.542-.163 3.484-.626 5.499l-.061.283c-1.348 5.648-4.711 9.99-7.529 12.424-2.879 2.506-5.32 3.687-7.237 4.503-2.944 1.178-4.908 1.565-6.183 1.769-6.979 1.211-12.296 4.339-16.415 7.82 25.715 43.935 106.412 181.781 112.916 192.978 5.418 9.393 13.446 19.031 15.016 20.8.231.261.271.3.258.295 24.734 27.884 51.544 34.512 52.602 34.737l.72.154.912.264c.912.268 1.497.4 2.926.76 1.339.466 4.23.711 9.386 4.125 3.367 2.234 6.646 6.325 8.082 9.651l-20.058 9.366-7.929 3.572 7.929-3.572 20.058-9.366.06.134.066.138a24.015 24.015 0 0 1 2.11 9.834c-.459 9.838-4.033 13.329-5.649 15.838a31.301 31.301 0 0 1-2.801 3.113c-6.122 6.573-9.975 14.696-12.124 21.467-1.815 5.741-2.398 9.978-2.548 11.314a40.773 40.773 0 0 1-.071 1.865c-.276 2.108-.175 5.71-3.509 11.739-2.141 3.932-7.151 8.729-13.016 10.551h.01l-.404.127a25.496 25.496 0 0 1-7.539 1.155c-5.681-.018-9.884-1.835-12.56-3.366a29.367 29.367 0 0 1-2.618-1.72c-.086-.062-.189-.128-.307-.208-.64-.433-1.655-1.097-2.998-1.946a316.168 316.168 0 0 0-11.688-7.099c-10.075-5.87-24.398-13.56-40.879-20.67-15.703-6.79-31.57-11.116-43.941-13.665-12.156-2.573-21.722-3.412-22.188-3.392-3.034-.153-6.163-.485-10.136-2.017-3.824-1.436-9.076-4.882-12.191-10.621-1.6-2.882-2.415-6.009-2.685-8.704-.131-1.19-.131-2.061-.131-2.426a23.153 23.153 0 0 1 3.033-11.455c1.495-2.589 2.925-4.152 4.108-5.349 2.406-2.329 4.068-3.321 5.435-4.178 1.913-1.132 3.289-1.773 4.137-2.137.543-.25 1.056-.512 1.544-.777-2.327-2.373-5.153-4.618-8.529-6.766-7.09-4.511-16.443-8.201-26.346-10.79-19.824-5.268-41.486-6.146-51.188-6.107-1.816 0-3.207.022-4.117.048-.913.026-1.172.049-1.172.049l-.748.032-.731-.021c-1.57-.028-3.136-.038-4.71-.038-39.351.027-61.919 8-74.599 15.364-5.023 2.949-8.601 5.827-11.125 8.29.525.278 1.081.558 1.673.831l-.004.006c1.242.527 3.398 1.497 6.911 4.09 1.634 1.373 3.869 3.003 6.516 7.466a23.236 23.236 0 0 1 3.038 11.442m255.712.175c15.787 6.83 29.582 13.995 40.279 20.01a106.798 106.798 0 0 1 4.976-11.216c-14.797-6.854-34.867-19.16-54.068-40.679-.507-.626-11.347-12.659-20.482-28.283-3.766-6.489-33.983-58.122-63.184-108.013-29.221-49.919-57.416-98.091-57.476-98.187l-6.299-10.771 5.945-10.97c.761-1.351 4.885-8.826 13.652-17.335.455-.445.928-.892 1.414-1.336l-47.037-21.554-47.02 21.548c.484.45.953.897 1.415 1.342 8.757 8.509 12.89 15.984 13.649 17.335l5.94 10.97-6.303 10.771c-.059.096-28.255 48.268-57.471 98.187-29.204 49.891-59.418 101.523-63.184 108.013-9.141 15.624-19.98 27.657-20.486 28.283-19.202 21.526-39.288 33.833-54.082 40.685a104.831 104.831 0 0 1 5.015 11.195c10.69-6.006 24.48-13.17 40.266-19.995 15.147-6.533 29.836-11.023 42.51-14.116-.684-2.623-.969-5.163-.949-7.397.1-5.709 1.399-9.533 2.472-11.936 1.966-4.948 9.108-19.093 27.582-32.036 20.312-14.323 53.311-26.502 104.803-26.449 1.585 0 3.223.009 4.906.033 1.16-.04 3.424-.1 6.572-.1 8.974.006 25.072.472 43.461 3.52 18.378 3.118 39.141 8.553 57.749 20.23 12.316 7.769 23.855 18.805 30.955 33.852l-.017.008c1.105 2.267 2.805 6.325 2.914 12.878.022 2.247-.267 4.774-.953 7.397 12.681 3.093 27.375 7.577 42.536 14.116zm58.649 6.844l11.618-5.235-11.618 5.235zM216.171 275.454v-22.14l19.287 10.872-19.287-10.872v22.14h-37.895L282.771 90l105.974 185.455H216.171v-.001zm96.272-44.269l-29.397-51.456-28.993 51.456h58.39z"/></g><g fill="#fff"><path d="M544.532 370.967c-.73-1.563-2.327-1.397-6.632-2.676 0 0-33.606-6.969-64.474-41.67 0 0-10.219-11.494-17.881-24.689-7.664-13.201-120.697-206.269-120.697-206.269s12.347-22.777 39.595-27.461c0 0 2.753-.349 3.185-2.123.453-1.883-1.497-3.115-3.185-3.837l-84.084-38.53s-6.592-3.528-13.876 0l-84.085 38.53c-1.697.722-3.645 1.954-3.186 3.837.426 1.775 3.186 2.123 3.186 2.123 27.248 4.685 39.593 27.461 39.593 27.461S118.958 288.731 111.294 301.932c-7.663 13.195-17.882 24.689-17.882 24.689-30.864 34.701-64.477 41.67-64.477 41.67-4.305 1.279-5.901 1.113-6.633 2.676-.813 1.748 1.743 3.958 1.743 3.958 18.852 19.783 21.066 45.734 21.18 47.011.122 1.284-.233 4.076 1.517 4.655 1.742.586 3.029-.698 3.029-.698s25.13-17.221 60.161-32.349c35.024-15.127 68.896-18.653 74.006-18.85 4.037-.164 3.883-1.452 3.883-1.452.373-1.489-3.67-3.14-3.67-3.14-11.282-5.268-16.842-12.342-18.255-14.689-2.181-3.619-.244-7.144-.244-7.144s16.184-46.425 117.038-44.811c0 0 95.193-4.584 118.503 44.811 0 0 1.936 3.525-.246 7.144-1.416 2.347-6.971 9.421-18.253 14.689 0 0-4.046 1.65-3.674 3.14 0 0-.157 1.288 3.88 1.452 5.114.196 38.982 3.723 74.011 18.85 35.024 15.128 60.163 32.349 60.163 32.349s1.277 1.284 3.028.698c1.743-.579 1.397-3.371 1.509-4.655.119-1.276 2.329-27.228 21.18-47.011-.002 0 2.56-2.21 1.741-3.958zM216.173 253.315l66.742-118.448 67.687 118.448H216.173z"/><path d="M510.976 434.11c-.559-.371-1.844-1.232-3.875-2.528a354.324 354.324 0 0 0-12.115-7.355c-10.39-6.041-25.091-13.945-42.134-21.301-33.194-14.443-66.752-17.942-70.367-18.027-2.864-.168-5.405-.475-8.403-2.291-3.036-1.602-5.426-6.14-5.304-9.101-.01-.213-.01-.364-.01-.458.207-4.976 2.496-7.09 3.607-8.334 1.301-1.26 2.313-1.896 3.202-2.434a25.034 25.034 0 0 1 3.022-1.544c6.886-3.199 11.043-7.41 12.713-9.413-7.939-15.679-26.939-25.765-48.038-31.254-21.468-5.68-43.91-6.524-54.224-6.503-3.842 0-5.859.099-5.869.099l-.68.014a303.94 303.94 0 0 0-4.921-.048c-67.778.181-91.1 22.397-98.936 32.555-1.84 2.442-2.785 4.231-3.177 5.07 1.656 2.001 5.84 6.268 12.8 9.493.355.159.988.439 1.79.857 1.107.62 2.466 1.272 4.39 3.113 1.128 1.238 3.412 3.366 3.608 8.328 0 .147-.002.293-.009.447.133 2.913-2.229 7.477-5.273 9.101-3.009 1.827-5.57 2.134-8.44 2.302-3.601.085-37.164 3.584-70.362 18.027-25.552 11.033-45.852 23.301-54.237 28.656a185.984 185.984 0 0 0-3.919 2.555c-1.356 1.1-3.806 2.642-8.167 2.828-1.32 0-2.745-.214-4.13-.679-2.556-.8-4.839-2.707-6.041-4.525-1.257-1.829-1.729-3.431-2.022-4.661-.505-2.437-.376-3.912-.419-4.352h.007c-.075-1.617-2.679-24.271-18.145-40.511a17.222 17.222 0 0 1-1.858-2.042c-.998-1.484-2.903-3.515-3.121-8.488-.009-1.62.344-3.455 1.119-5.064.763-1.741 2.404-3.778 4.123-4.943 1.72-1.183 3.147-1.635 4.133-1.955 1.983-.579 2.981-.725 4.728-1.243l.832-.219.128-.029c.163-.037.446-.107.843-.213a60.79 60.79 0 0 0 3.645-1.089c3.22-1.058 7.939-2.835 13.584-5.636 11.301-5.607 26.286-15.261 40.715-31.478 0-.006.526-.585 1.53-1.789a184.9 184.9 0 0 0 4.108-5.082c3.324-4.285 7.56-10.152 11.048-16.165 6.913-11.913 98.84-168.933 117.442-200.719a51.935 51.935 0 0 0-4.594-5.055c-5.484-5.287-13.554-10.855-24.637-12.763l.004-.035c-1.141-.173-3.626-.328-7.555-3.427-1.482-1.271-3.175-3.478-3.843-6.339v-.002a11.749 11.749 0 0 1-.35-2.941c.005-4.794 2.721-8.16 4.562-9.689 1.826-1.563 3.371-2.308 4.658-2.881L272 14.522a25.744 25.744 0 0 1 11.311-2.605c5.787.05 9.739 1.752 11.299 2.504l83.843 38.425c1.324.583 2.956 1.334 4.899 2.991 1.839 1.536 4.536 4.908 4.543 9.691.01.807-.075 1.805-.342 2.967-.69 2.852-2.362 5.041-3.843 6.312-1.492 1.318-2.833 1.972-3.917 2.426-1.798.722-3.037.944-3.719 1.047-14.72 2.41-24.488 12.001-29.137 17.802 18.599 31.786 110.518 188.806 117.438 200.719 5.234 9.038 12.145 17.676 15.158 21.247 1.006 1.204 1.522 1.789 1.522 1.783 26.991 30.378 56.251 37.844 58.783 38.421l.131.029.844.219c1.279.37 2.213.578 3.385.884 1.134.338 2.817.564 5.466 2.314 1.715 1.165 3.357 3.202 4.122 4.943l-9.256 4.324 9.307-4.191a11.843 11.843 0 0 1 1.068 4.931c-.206 4.969-2.122 7.009-3.119 8.501a19.515 19.515 0 0 1-1.851 2.021c-15.259 16.032-18.001 38.217-18.151 40.434h.015c0 .036-.011.147-.011.312-.008.324-.008.852-.059 1.531-.146 1.357-.163 3.411-1.873 6.482-1.111 2.01-3.587 4.377-6.713 5.358-1.212.379-2.57.618-3.971.618-4.354-.179-6.826-1.726-8.196-2.852zM53.81 411.186c10.666-6.533 29.277-17.175 52.07-27.026 21.352-9.162 41.809-14.203 56.522-16.892-2.521-2.574-4.217-4.881-5.258-6.573-1.846-3.04-2.534-6.34-2.508-8.992.044-3.567.948-6.015 1.577-7.378 1.181-3.039 6.858-15.225 23.412-26.84 17.959-12.653 48.259-24.31 97.956-24.289 1.643 0 3.329.019 5.06.039.906-.031 3.139-.105 6.41-.105 11.369.021 35.156.812 59.432 7.177 24.042 6.403 49.811 18.374 61.945 43.601l-.003.005c.6 1.225 1.716 3.807 1.766 7.791.017 2.652-.652 5.921-2.501 8.992-1.038 1.684-2.74 3.999-5.266 6.573 14.718 2.689 35.174 7.729 56.535 16.892 22.783 9.852 41.393 20.493 52.064 27.026 1.914-8.759 6.126-22.113 15.461-34.978-12.355-4.129-38.306-15.419-62.697-42.793-.231-.292-10.74-12.035-19.078-26.357-3.805-6.544-33.992-58.14-63.209-108.053-29.22-49.912-57.41-98.084-57.47-98.181a10.174 10.174 0 0 1-.164-10.028c.342-.625 3.918-7.143 11.455-14.456 4.267-4.139 9.897-8.557 16.934-12.116l-68.148-31.227-.335-.163s-.003 0-.015-.007c-.063-.021-.227-.086-.451-.158a6.95 6.95 0 0 0-1.992-.314c-.783.005-1.488.128-2.581.642L212.58 64.225c7.032 3.561 12.663 7.977 16.928 12.116 7.546 7.313 11.119 13.831 11.464 14.456a10.207 10.207 0 0 1-.162 10.028c-.063.096-28.265 48.269-57.474 98.181-29.216 49.913-59.404 101.509-63.213 108.053-8.341 14.322-18.845 26.065-19.074 26.357-24.394 27.374-50.354 38.664-62.714 42.793 9.346 12.877 13.56 26.224 15.475 34.977zm142.514-32.268l-.014-.009.014.009zm19.849-115.384v-10.219l8.901 5.023-8.901-5.023v10.219a10.27 10.27 0 0 1-8.827-5.061 10.25 10.25 0 0 1-.077-10.172l66.74-118.449a10.183 10.183 0 0 1 8.87-5.199 10.171 10.171 0 0 1 8.902 5.148l67.689 118.447a10.224 10.224 0 0 1-.031 10.197 10.203 10.203 0 0 1-8.834 5.089H216.173zm116.813-20.436l-50.01-87.528-49.317 87.528h99.327z"/></g><path d="M544.532 370.967c-.73-1.563-2.327-1.397-6.632-2.676 0 0-33.606-6.969-64.474-41.67 0 0-10.219-11.494-17.881-24.689-7.664-13.201-120.697-206.269-120.697-206.269s12.347-22.777 39.595-27.461c0 0 2.753-.349 3.185-2.123.453-1.883-1.497-3.115-3.185-3.837l-84.084-38.53s-6.592-3.528-13.876 0l-84.085 38.53c-1.697.722-3.645 1.954-3.186 3.837.426 1.775 3.186 2.123 3.186 2.123 27.248 4.685 39.593 27.461 39.593 27.461S118.958 288.731 111.294 301.932c-7.663 13.195-17.882 24.689-17.882 24.689-30.864 34.701-64.477 41.67-64.477 41.67-4.305 1.279-5.901 1.113-6.633 2.676-.813 1.748 1.743 3.958 1.743 3.958 18.852 19.783 21.066 45.734 21.18 47.011.122 1.284-.233 4.076 1.517 4.655 1.742.586 3.029-.698 3.029-.698s25.13-17.221 60.161-32.349c35.024-15.127 68.896-18.653 74.006-18.85 4.037-.164 3.883-1.452 3.883-1.452.373-1.489-3.67-3.14-3.67-3.14-11.282-5.268-16.842-12.342-18.255-14.689-2.181-3.619-.244-7.144-.244-7.144s16.184-46.425 117.038-44.811c0 0 95.193-4.584 118.503 44.811 0 0 1.936 3.525-.246 7.144-1.416 2.347-6.971 9.421-18.253 14.689 0 0-4.046 1.65-3.674 3.14 0 0-.157 1.288 3.88 1.452 5.114.196 38.982 3.723 74.011 18.85 35.024 15.128 60.163 32.349 60.163 32.349s1.277 1.284 3.028.698c1.743-.579 1.397-3.371 1.509-4.655.119-1.276 2.329-27.228 21.18-47.011-.002 0 2.56-2.21 1.741-3.958zM216.173 253.315l66.742-118.448 67.687 118.448H216.173z" fill="#ed1c24"/><path d="M544.129 370.376c-.879-.945-2.568-.998-6.229-2.085 0 0-33.606-6.969-64.474-41.67 0 0-10.219-11.494-17.881-24.689-7.664-13.201-120.697-206.269-120.697-206.269s12.347-22.777 39.595-27.461c0 0 2.753-.349 3.185-2.123.453-1.883-1.497-3.115-3.185-3.837l-84.084-38.53s-6.592-3.528-13.876 0l-35.078 16.076c9.745 2.59 30.202 10.225 43.964 30.867 0 0 5.982 7.814 20.775 33.081 14.793 25.263 102.058 169.708 102.058 169.708l30.089 49.699s16.896 31.778 56.353 42.888c21.257 5.986 37.954 6.473 49.485 4.345zM167.904 317.191s-18.539 7.497-47.336 36.293c-27.619 27.615-43.719 28.153-52.073 29.197-5.862.732-26.21 2.342-45.928-12.139a2.709 2.709 0 0 0-.266.425c-.813 1.748 1.743 3.958 1.743 3.958 18.852 19.783 21.066 45.734 21.18 47.011.122 1.284-.233 4.076 1.517 4.655 1.742.586 3.029-.698 3.029-.698s25.13-17.221 60.161-32.349c35.024-15.127 68.896-18.653 74.006-18.85 4.037-.164 3.883-1.452 3.883-1.452.373-1.489-3.67-3.14-3.67-3.14-11.282-5.268-16.842-12.342-18.255-14.689-2.181-3.619-.244-7.144-.244-7.144s16.184-46.425 117.038-44.811c0 0 11.721-.551 27.933.848-13.205-1.744-92.686-10.933-142.718 12.885z" fill="#a71c20"/></svg>