<svg xmlns="http://www.w3.org/2000/svg" viewBox="0 0 130.673 124.05"><g fill="#001740"><path d="M113.184 64.861c1.203-17.972 14.271-34.494 14.271-34.494l-17.888-15.069c-.804 0-8.242 17.065-19.1 27.777-6.802 6.712-14.109 10.711-18.707 12.765.011-.288.017-.575.028-.867l1.004-27.051s5.227-.908 12.666-.362c7.44.544 8.642 1.632 9.249 1.089.6-.546 8.842-13.072 8.642-13.981-.168-.762-75.063-.762-75.232 0-.199.909 8.042 13.435 8.644 13.981.605.543 1.812-.546 9.249-1.089 7.436-.546 12.665.362 12.665.362l1.005 27.051v.036c-5.723-2.229-13.498-6.035-19.477-11.933C29.349 32.363 21.91 15.298 21.107 15.298L3.215 30.367s13.068 16.522 14.276 34.494C18.696 82.838 0 106.982 0 106.982s2.613 4.175 9.046 9.987c6.433 5.809 13.268 7.08 13.268 7.08s-1.609-16.523 3.417-30.684c5.028-14.159 6.433-30.138 5.425-35.402-1.004-5.264-3.613-13.617-3.613-13.617s5.827 6.172 17.085 15.979c5.428 4.723 10.704 7.165 14.727 8.433-1.663 20.197-7.92 34.689-7.92 34.689s2.012 2 6.033 3.632c1.565.636 6.627 1.936 8.264 1.76 1.64.176 6.7-1.124 8.266-1.76 4.022-1.633 6.035-3.632 6.035-3.632s-6.269-14.522-7.925-34.748c3.753-1.284 8.589-3.721 13.933-8.373 11.257-9.806 17.089-15.979 17.089-15.979s-2.613 8.352-3.618 13.617c-1.003 5.266.403 21.243 5.428 35.402 5.029 14.161 3.414 30.684 3.414 30.684s6.837-1.271 13.273-7.08c6.431-5.81 9.045-9.987 9.045-9.987s-18.696-24.145-17.488-42.122zM30.139 12.303S48.743 1.592 51.175 1.592c2.436 0 6.183 4.002 7.619 4.002 1.433 0 8.551-5.918 9.8-5.58 1.25.338-.312 4.229 2.183 4.115 2.499-.113 2.123-2.987 2.935-3.043.81-.057 1.936 3.495 3.184 3.495 1.25 0 2.497-2.087 3.682-2.087 1.186 0 21.414 9.865 21.414 9.865l-71.853-.056z"/></g></svg>