<svg xmlns="http://www.w3.org/2000/svg" viewBox="0 0 850.468 799"><path d="M282.203 313.423c3.481-2.102 5.862-5.285 8.252-8.45.728-.963.98-2.096 1.074-3.337 2.982-39.697 21.422-70.819 52.772-94.687a74.492 74.492 0 0 1 20.917-11.207c7.305-2.517 14.679-3.641 21.977.04 1.844.93 1.959-.589 2.481-1.512 3.765-6.664 9.551-10.15 17.098-10.562 4.49-.245 8.996.017 13.496.329 9.786.678 19.465 1.936 28.901 4.81.265-.531.524-.852.59-1.208 2.197-11.904 9.469-19.848 19.872-25.246 6.552-3.4 13.611-5.124 20.977-5.398 10.913-.404 20.455 9.322 20.309 20.562-.05 3.851-.05 3.849 3.638 3.765 7.99-.183 15.738-1.961 23.488-3.666 2.683-.591 5.135-.679 7.691.573 2.724 1.334 5.632 2.28 8.286 3.795 8.492 4.847 11.872 12.223 9.626 21.769-1.941 8.251-5.124 16.127-7.727 24.179-1.504 4.658-3.12 9.28-4.696 13.915-.336.987-.928 1.929-.44 3.032-.55-.207-.621.014-.425.475l.364-.552c4.016-3.387 6.962-7.378 8.256-12.64 2.462-10.009 4.257-20.223 8.456-29.736 12.35-27.979 31.45-49.767 58.936-63.696 12.125-6.144 25.032-9.021 38.722-8.606 20.848.631 31.083 17.752 32.761 30.595 1.381 10.588-.733 20.549-5.174 30.096-6.696 14.391-17.133 25.71-29.5 35.368-11.876 9.273-24.956 16.43-39.03 21.788-1.101.419-2.195.854-3.575 1.391 1.308 1.712 2.976 1.783 4.624 1.806 5.103.069 9.98-1.072 14.717-2.87 9.314-3.534 17.197-9.311 24.552-15.859 12.23-10.886 22.591-23.458 32.49-36.426 5.947-7.791 11.777-15.673 17.664-23.509.87-1.159 1.645-2.115 1.022-3.889-5.071-14.437-2.871-28.463 2.886-42.154 4.149-9.869 10.468-18.092 19.56-23.948 8.039-5.178 16.764-7.14 26.171-4.802 14.776 3.673 22.496 17.882 17.613 32.353-1.961 5.81-5.187 11-8.337 16.215-.943 1.563-1.86 3.144-2.926 4.946 2.769 1.381 5.237 2.589 7.685 3.838 5.322 2.715 10.407 5.791 14.97 9.69 9.496 8.115 14.391 18.528 15.043 30.873 1.336 25.269-8.721 45.928-26.57 63.045-12.209 11.708-26.713 19.357-43.755 22.219 1.823 1.948 3.922 2.349 6.405 1.976 18.842-2.827 37.684-5.661 56.544-8.37 12.181-1.75 24.387-3.348 36.596-4.906 7.526-.96 10.512 1.328 12.157 8.985.115.531.188 1.03.778 1.233v2.385c-22.341 10.082-42.778 23.178-61.571 38.875-8.144 6.801-15.822 14.093-23.25 21.667-1.456 1.486-1.679 2.924-1.668 4.928.032 6.165 2.263 10.908 6.719 15.335 3.473 3.449 7.072 6.7 10.693 9.97 12.582 11.36 21.766 24.932 25.529 41.64 1.625 7.212 4.145 14.221 4.917 21.636.563 5.402 1.105 10.789.801 16.236-.412 7.402-.571 14.816-.933 22.221-.737 15.078-5.435 28.853-13.058 41.627-8.346 13.988-17.092 27.74-26.913 40.764-.682.906-1.056 2.164-2.729 2.494-1.656-9.145-.123-18.727-3.627-27.581-1.782.285-2.685 1.517-3.778 2.423-13.36 11.086-22.433 25.288-29.372 40.955-7.182 16.207-11.379 33.265-13.783 50.786-.684 4.982-1.103 10.012-2.007 14.952-2.237 12.225-8.309 22.49-16.657 31.522-9.474 10.245-20.899 17.864-33.087 24.421-2.944 1.585-5.522 3.445-7.808 5.949-6.514 7.136-14.394 12.413-23.217 16.346-2.054.915-3.549.864-5.365-.65-5.527-4.607-10.667-9.533-14.467-15.709-.849-1.378-1.619-2.475-3.531-2.734-18.352-2.484-34.25-10.533-48.659-21.83-2.014-1.579-4.23-2.591-6.585-3.526-13.509-5.377-27.255-10.232-39.918-17.533-7.716-4.448-14.939-9.566-21.375-15.754-.544-.524-.948-1.268-2.13-1.417-.531 5.383 1.1 10.679.604 15.971-.385.255-.717.353-1.119.158-8.954-4.277-17.967-8.466-26.551-13.445-24.299-14.088-39.785-35.235-48.528-61.59a145.122 145.122 0 0 1-7.363-42.09c-.026-1.022.269-2.103-.433-3.17-1.487-.175-2.721.66-3.997 1.258-6.19 2.902-11.518 7.02-16.358 11.785-3.775 3.72-7.424 7.567-11.186 11.297-1.097 1.09-1.951 2.514-3.466 2.989-.752-.123-.917-.653-1.085-1.145-5.574-16.113-9.307-32.563-9.081-49.738.331-25.459 4.943-49.99 16.011-73.091 1.862-3.885 2.684-8.012 3.402-12.185 1.64-9.555 3.977-18.902 8.058-27.746.277-.598.521-1.217.715-1.846.071-.228-.043-.514-.091-.914-3.833-.496-7.571.636-11.364.86-1.553.091-1.669 1.475-2.035 2.578-1.582 4.772-3.125 9.556-4.734 14.32-8.749 25.898-22.164 48.915-42.289 67.675-17.207 16.039-37.115 27.141-60.329 31.793-18.792 3.769-37.186 2.857-54.588-5.969-15.406-7.812-25.076-20.141-27.68-37.399-1.666-11.044-.123-21.897 3.165-32.541 8.231-26.655 25.53-45.605 49.678-58.814 2.407-1.317 5.127-2.093 7.188-4.03l1.119-.22c-.123-.124-.239-.347-.366-.352-.404-.018-.754.108-.695.634-3.254-.193-6.185 1.256-9.278 1.877-18.344 3.687-30.584-9.663-32.919-22.412-1.576-8.6-.393-16.96 2.326-25.045 9.957-29.601 18.284-59.709 28.068-89.358 3.266-9.895 5.475-19.877 5.541-30.305.005-.791.002-1.582.002-2.921-1.266 1.255-1.443 2.455-1.802 3.565-13.208 40.778-25.98 81.706-39.754 122.292-14.247 41.986-40.224 75.105-78.33 98.221-16.403 9.948-34.294 15.927-53.424 17.728-12.426 1.168-24.625-.1-36.033-5.671-15.68-7.66-25.04-20.441-29.226-37.104-4.351-17.313-2.006-34.174 4.34-50.601 5.605-14.512 14.116-27.041 26.752-36.291 23.021-16.852 47.735-18.347 73.631-7.357 3.23 1.372 5.365 3.572 5.297 7.164-.073 3.848-1.168 7.392-4.967 9.293-2.252 1.126-4.548 2.152-6.611 3.61-4.595 3.247-7.911 7.383-9.084 13.026-.301 1.449-.374 2.89-.111 4.338.893 4.904 3.435 6.793 8.406 6.13 5.391-.719 9.567-3.679 13.212-7.481 3.418-3.567 6.012-7.723 8.267-12.095 3.778-7.315 6.548-15.032 9.119-22.831 18.061-54.782 36.427-109.464 54.09-164.377 1.999-6.214 1.959-6.214-4.634-6.314-19.466-.296-38.933-.644-58.401-.961-3.986-.065-7.916.286-11.775 1.424-9.22 2.72-13.239 9.115-12.678 18.558.443 7.426 2.957 14.278 7.638 20.119 2.383 2.971 3.504 5.919 1.705 9.455-1.875 3.685-6.703 6.466-10.459 5.965-16.039-2.142-30.896-7.291-43.481-17.804-11.911-9.951-19.733-22.354-21.877-37.968-2.108-15.345 2.696-28.502 13.022-39.72 8.67-9.419 19.766-14.918 31.774-18.774 11.538-3.706 23.45-5.331 35.478-6.308 14.912-1.212 29.817-2.487 44.727-3.71 11.217-.92 22.439-1.779 33.655-2.704 14.383-1.186 28.76-2.422 43.143-3.617 11.083-.92 22.169-1.801 33.252-2.719 11.479-.949 22.955-1.932 34.433-2.883 10.821-.896 21.643-1.754 32.463-2.658 14.645-1.224 29.281-2.564 43.934-3.681 8.733-.666 17.396-1.565 25.768-4.305 15.588-5.102 28.941-13.552 39.376-26.345 3.877-4.755 7.164-9.912 8.88-15.835 1.069-3.693 3.303-5.898 6.777-7.094.492-.17 1.042-.185 1.226-.799h3.976c.123.214.192.539.375.624 16.561 7.8 27.508 21.115 36.094 36.74 6.048 11.005 9.472 22.71 8.814 35.356-1.224 23.512-11.508 42.357-30.038 56.654-12.312 9.498-26.494 14.637-41.807 16.982-10.687 1.636-21.394.962-32.095.758-30.968-.592-61.937-1.278-92.902-1.959-13.496-.298-26.993-.618-40.484-1.051-4.261-.137-7.397 1.57-9.817 4.904-1.96 2.701-3.442 5.676-4.477 8.819-4.878 14.82-9.669 29.669-14.473 44.513-.155.477-.107 1.02-.178 1.823 6.231-.209 12.109 1.599 18.171 1.83-.084.3.032.463.343.434.096-.01.181-.125.272-.193l-.495-.355c-.822-2.635-2.518-4.886-3.164-7.623-1.616-6.851-.938-13.459 2.158-19.717 7.44-15.036 19.952-23.608 35.927-27.475 6.266-1.517 12.584-1.33 18.831.501 13.726 4.024 20.092 14.508 17.404 28.583-1.334 6.981-4.569 12.975-9.357 18.092-8.865 9.474-19.573 15.615-32.589 17.371-.361.049-.82-.017-.882.216-.254.946.29 1.184.675 1.5 11.565 9.496 14.119 21.64 9.816 35.391-3.749 11.983-8.121 23.771-12.157 35.666-2.759 8.135-5.415 16.305-8.113 24.46-.201.302-.421.677-.092.943.369.303.605-.039.771-.36zm153.242-68.579c1.013-.232 1.414-1.148 1.98-1.841 5.957-7.296 11.347-14.988 15.926-23.227 1.283-2.31 2.371-4.728 3.536-7.103.49-.998.692-1.969-.18-2.922-2.235-2.443-3.801-5.36-5.499-8.291-1.237 1.209-1.616 2.62-2.159 3.909-5.145 12.201-9.048 24.853-13.487 37.312-.252.705-.647 1.49-.052 2.25-.22-.24-.435-.258-.523-.01-.043.125.073.306.117.461l.341-.538zM266.896 368.072c1.397.388 2.567-.378 3.812-.759 5.297-1.621 10.57-3.332 15.898-4.851 13.59-3.874 27.413-6.772 41.194-9.859 1.14-.256 3.174-.027 2.957-1.863-.179-1.504-1.952-.785-2.997-.863-8.364-.627-16.089-2.907-22.617-8.43-2.578-2.18-2.581-2.19-4.846.168-9.663 10.065-20.215 19.004-32.527 25.719-.32.175-.54.531-.807.802-.351.091-.7.182-1.053.272.141.112.281.317.421.317.392-.001.72-.14.565-.653zm432.54-118.408c-1.934.539-2.761 2.335-3.987 3.632-15.165 16.03-32.062 29.631-52.752 37.978-.484.195-.935.484-.749 1.263.888 0 1.825.117 2.722-.019 6.45-.972 12.891-1.282 19.361-.129.856.153 1.811-.243 2.719-.394 7.195-1.195 14.418-2.184 21.726-1.541 6.214.546 12.087-.535 17.739-3.064 4.723-2.114 8.768-5.444 13.857-7.233-1.321-1.334-2.74-1.317-3.945-1.771-9.216-3.476-14.75-9.855-16.257-19.74-.463-3.032.163-6.063-.49-9.047.503.155.579-.015.332-.434l-.276.499zm62.223-95.627c2.434-3.991 4.804-7.793 7.09-11.646 2.632-4.439 5.406-8.815 7.127-13.726 3.998-11.414-1.758-21.939-13.509-24.643-8.676-1.997-16.181.771-23.06 5.87-16.099 11.931-24.362 39.853-16.793 58.101 1.122 2.704.713 4.553-1.032 6.798-6.175 7.948-12.092 16.096-18.184 24.111-10.431 13.726-21.346 27.036-34.261 38.554-7.652 6.825-15.898 12.773-25.477 16.667-6.467 2.629-13.158 4.026-20.165 3.487-5.962-.459-10.53-4.888-10.815-10.27-.073-1.4.228-2.309 1.736-2.582.644-.117 1.257-.409 1.886-.616 17.294-5.69 33.112-14.121 47.088-25.818 9.956-8.331 18.344-18.012 23.779-29.944 3.956-8.686 6.176-17.669 4.54-27.371-2.446-14.5-13.307-24.015-27.979-24.296-11.758-.224-22.933 2.333-33.375 7.558-28.624 14.319-47.84 37.056-58.847 66.901-2.844 7.711-4.162 15.859-6.132 23.817-.585 2.367-1.469 4.517-2.798 6.515-5.066 7.607-11.649 13.69-19.049 18.95-.535.381-1.124.723-1.737.949-1.622.598-2.645-.049-2.604-1.782.048-1.998.713-3.889 1.37-5.767 2.792-7.996 5.629-15.978 8.343-24 2.885-8.525 5.75-17.059 8.43-25.649 1.485-4.756 1.697-9.797-2.308-13.346-5.184-4.593-10.882-8.066-18.619-6.051-9.37 2.441-18.973 3.658-28.72 2.922-1.849-.139-3.715-.174-5.425-1.304.026-1.498 1.001-2.673 1.535-3.997 3.951-9.82-4.602-19.546-13.005-18.772-2.509.231-5.022.378-7.466.967-9.716 2.344-18.096 6.776-23.5 15.597-5.543 9.045-4.628 18.118 2.504 25.893.359.39.699.814 1.116 1.13 1.789 1.358 1.881 2.98.988 4.911-.943 2.04-1.59 4.223-2.623 6.211-9.568 18.424-22.027 34.586-37.86 48.08-.956.815-1.813 1.875-3.52 1.997.946-4.281 2.604-8.159 3.998-12.109 6.036-17.096 11.557-34.375 18.219-51.247 1.068-2.705 2.355-5.328 3.63-7.944.699-1.433.414-2.236-1.163-2.574-.514-.11-1-.353-1.511-.486-11.62-3.016-23.515-3.844-35.433-3.844-6.701 0-11.507 3.509-13.644 10.154-.752 2.342-1.593 4.656-2.373 6.919-1.546-.157-2.039-1.217-2.727-1.949-3.481-3.699-7.649-5.47-12.786-5.185-3.222.18-6.284.856-9.283 1.946-12.322 4.476-22.724 11.969-31.913 21.087-21.962 21.791-35.057 47.871-37.215 79.02-.173 2.497-.896 4.63-2.276 6.638-4.437 6.463-10.145 11.486-17.085 15.111-.818.428-1.666.848-2.551 1.093-2.544.704-3.825-.283-3.714-2.978.105-2.528.885-4.945 1.694-7.325 5.653-16.669 11.364-33.319 16.987-49.998 1.86-5.516 4.277-10.865 5.509-16.569 1.73-8 .872-15.56-4.668-22.071-2.898-3.409-6.572-5.722-10.662-7.414-6.014-2.487-12.264-4.206-18.601-5.605-2.84-.626-5.707-1.171-8.589-1.559-3.047-.409-3.06-.307-3.497 2.608-.078.524-.194 1.046-.22 1.573-.495 9.466-2.86 18.5-5.826 27.471-9.637 29.148-17.692 58.796-27.669 87.842-2.251 6.558-3.148 13.382-2.57 20.357.856 10.337 9.433 21.076 22.409 19.943 6.533-.571 12.679-2.657 18.7-5.088 18.145-7.322 32.44-19.762 45.205-34.21.848-.959 1.401-2.219 2.591-2.72.919.19 1.064.921 1.385 1.461 3.272 5.495 8.089 9.015 14.083 11.007 4.058 1.348 8.249 1.861 12.518 1.82 2.895-.028 5.792-.006 9.077-.006-.686 3.616-2.284 6.695-3.148 9.973-.802 3.041-2.387 4.428-5.541 5.091-12.553 2.639-25.097 5.351-37.513 8.609-16.948 4.447-33.534 9.863-48.908 18.45-15.432 8.619-28.424 19.897-37.241 35.437-7.639 13.468-12.359 27.851-11.738 43.524.498 12.642 5.412 23.353 15.288 31.534 10.979 9.097 23.948 12.804 37.881 13.344 23.36.906 44.342-6.454 63.475-19.384 23.539-15.909 39.73-37.81 50.971-63.624 4.448-10.214 7.518-20.917 11.041-31.459.715-2.141 1.63-3.238 4.048-3.435 5.533-.45 11.033-1.294 16.558-1.869 1.475-.153 2.404-.729 3.141-1.995 1.672-2.87 3.691-5.508 5.965-7.922 4.61-4.896 10.19-8.177 17.21-10.252-2.976 3.022-5.682 5.392-7.942 8.132-11.327 13.738-19.041 29.242-22.095 46.873-1.341 7.732-3.07 15.268-6.76 22.298-1.59 3.028-2.645 6.35-3.783 9.595-4.899 13.936-7.751 28.283-8.873 43.019-1.26 16.511-.551 32.806 4.4 48.725.358 1.148.239 2.652 1.737 3.439.731-.682 1.43-1.281 2.064-1.941 3.675-3.82 7.419-7.563 11.613-10.834 6.447-5.027 13.454-8.922 21.504-10.714 3.313-.737 3.526-.589 3.5 2.601a174.92 174.92 0 0 0 .581 15.871c1.06 12.882 3.707 25.404 8.241 37.483 6.446 17.162 16.214 32.068 30.397 43.937 9.043 7.567 19.397 12.843 29.991 17.741.149.068.44-.175.731-.301.497-7.751-1.03-15.525-.301-23.411.621.23.828.576 1.068.896 9.648 12.988 21.902 22.936 35.992 30.713 11.047 6.098 22.905 10.359 34.612 14.929 3.735 1.459 7.169 3.186 10.357 5.668 13.807 10.74 28.972 18.533 46.613 20.658 2.287.275 3.741 1.43 4.99 3.352 3.322 5.121 7.117 9.873 11.604 14.066 1.728 1.614 3.221 1.799 5.296.654 5.849-3.232 11.419-6.874 15.502-12.212 3.393-4.435 7.589-7.512 12.474-10.1 11.411-6.049 21.951-13.377 30.645-23.068 7.765-8.654 13.339-18.433 14.777-30.192 1.333-10.898 2.787-21.775 5.302-32.485 4.578-19.5 11.699-37.907 22.965-54.6 7.054-10.452 15.866-19.141 26.04-26.504 2.132-1.543 2.242-1.508 3.69.654 2.308 3.448 3.885 7.214 4.618 11.316.354 1.986.736 3.963 1.113 5.988 1.16-.437 1.503-1.19 1.918-1.841 5.69-8.938 11.599-17.747 16.98-26.869 5.957-10.096 10.416-20.856 11.575-32.686 1.096-11.206 1.525-22.454 1.619-33.715.011-1.313-.303-2.63-.348-3.95-.365-10.437-3.591-20.346-6.355-30.22-4.293-15.339-13.551-27.686-26.066-37.564-1.546-1.22-3.317-2.159-4.516-3.837-2.47-3.457-5.25-6.662-8.455-9.464-1.174-1.026-1.726-2.173-1.875-3.745-.387-4.074-.94-8.132-1.485-12.189-.286-2.135.401-3.73 1.909-5.317 20.212-21.278 42.87-39.428 68.526-53.748 4.508-2.516 9.137-4.811 13.7-7.228.671-.354 1.66-.631 1.415-1.634-.218-.904-.822-1.709-1.872-1.834-.645-.078-1.321-.023-1.972.062-9.97 1.308-19.945 2.572-29.901 3.967-14.41 2.02-28.807 4.132-43.209 6.217-5.367.776-10.73 1.579-16.094 2.392-2.308.349-2.334.45-1.425 2.769.433 1.108.89 2.213 1.224 3.353 1.323 4.498 1.279 7.415-.188 11.498-.636-1.664-1.204-3.128-1.753-4.599-1.122-3.003-2.648-5.783-4.673-8.265-4.301-5.27-9.773-7.917-16.675-7.494-4.11.252-7.659 1.845-11.055 4.021-8.51 5.451-17.758 8.139-27.914 7.16-5.051-.488-10.023.14-15.02.707-3.524.4-6.957 1.724-10.611.946-4.325-.92-8.695-.916-13.022-.036-4.417.899-8.654.346-12.882-1.034-6.231-2.036-12.327-4.628-19.112-4.568.303-1.128 1.056-1.071 1.663-1.181 10.891-1.987 21.231-5.613 31.077-10.618 18.249-9.277 33.115-22.739 46.507-37.968 10.96-12.459 20.489-25.999 29.801-39.701 2.829-4.163 5.732-8.273 8.611-12.402.54-.775 1.11-1.608 2.224-.81 4.404 3.152 9.292 5.659 12.982 9.769 4.45 4.961 5.74 10.662 3.761 16.98-3.035 9.685-9.467 16.484-18.677 20.44-6.704 2.88-13.405 2.612-19.639-1.755-2.298-1.609-4.273-1.002-5.286 1.694-2.243 5.981-3.816 12.099-3.487 18.597.39 7.679 4.052 13.042 11.17 15.858 7.848 3.105 16.029 3.527 24.19 1.743 12.962-2.835 24.299-9.108 34.084-17.931 16.126-14.539 25.844-32.306 26.375-54.493.333-13.91-4.303-25.39-15.783-33.756-5.711-4.162-11.99-7.266-18.357-10.235-2.134-1-4.353-1.847-6.454-3.329zM404.802 140.79v.198c4.108 0 8.233-.25 12.316.051 9.194.679 18.279-.066 27.24-1.951 19.792-4.163 36.411-13.634 48.154-30.448 11.271-16.135 15.476-34.024 10.242-53.197-4.276-15.659-13.153-28.816-25.262-39.698-3.363-3.021-7.041-5.621-11.046-7.726-3.508-1.844-4.928-1.254-6.366 2.35-.93 2.333-1.87 4.68-3.044 6.894-7.437 14.032-18.779 24.121-32.414 31.861-14.279 8.104-29.88 11.089-46.046 12.104-10.698.672-21.375 1.686-32.06 2.575-11.869.987-23.735 2.021-35.607 3.006-10.42.865-20.845 1.68-31.266 2.538-12.134 1-24.268 2.033-36.403 3.031-7.389.607-14.781 1.15-22.169 1.766-11.473.957-22.942 1.979-34.417 2.923-11.083.911-22.172 1.727-33.252 2.641-11.476.946-22.942 1.994-34.42 2.928-8.576.698-17.152 1.384-25.571 3.265-13.747 3.071-26.535 8.163-37.352 17.53-18.106 15.679-21.15 40.808-6.984 60.069 12.461 16.943 30.357 24.037 50.346 27.124 1.951.301 3.4-.687 4.385-2.155.99-1.476-.511-2.396-1.231-3.418-5.247-7.438-8.37-15.589-8.416-24.791-.061-12.238 5.964-20.184 17.787-23.623 5.694-1.656 11.508-1.562 17.336-1.551 18.414.032 36.807 1.143 55.224.954 2.281-.024 4.5.373 6.629 1.114 4.23 1.475 5.742 4.386 4.632 8.707-.262 1.024-.631 2.021-.961 3.027-12.04 36.721-24.04 73.456-36.141 110.157-7.251 21.995-14.561 43.972-22.043 65.889-3.18 9.307-7.437 18.143-13.757 25.817-4.039 4.907-8.92 8.683-15.101 10.508-2.792.824-5.64 1.529-8.6.968-6.968-1.318-11.56-8.099-10.75-15.866.754-7.223 4.117-13.034 9.608-17.686 2.753-2.333 5.867-4.077 9.139-5.55 1.551-.698 2.075-2.032 2.075-3.533.002-1.317-1.296-1.555-2.227-1.965-24.55-10.827-51.874-7.563-71.606 11.48-19.738 19.05-27.976 42.778-24.473 70.005 3.057 23.745 19.685 42.132 47.785 43.652 20.54 1.11 39.53-4.791 57.51-14.235 16.359-8.59 30.462-20.114 42.815-33.814 17.068-18.933 30.079-40.263 37.972-64.583 14.826-45.695 29.608-91.405 44.416-137.105 3.956-12.211 7.909-24.425 11.934-36.614 1.718-5.202 4.16-10.015 8.107-13.958 3.293-3.292 7.308-4.877 11.863-4.604 13.622.816 27.272.339 40.903 1.013 12.167.602 24.359.392 36.542.798 18 .598 36.016.773 54.025 1.128zm-76.436 34.657c.28-7.677-2.552-12.776-8.611-15.761-5.102-2.512-10.559-3.572-16.194-2.866-11.77 1.473-21.642 6.84-29.552 15.57-5.593 6.173-9.042 13.309-8.032 22.035.576 4.967 2.898 8.8 7.072 11.363 5.357 3.288 11.295 4.442 17.522 3.77 9.786-1.055 18.303-5.145 25.661-11.528 7.01-6.08 12.125-13.307 12.134-22.583zm397.613 57.419c1.199.026 2.36-.149 3.53-.436 5.828-1.432 10.245-4.985 13.653-9.665 7.641-10.495 5.28-16.731-3.622-22.683-2.502-1.673-2.525-1.707-4.243.757-5.527 7.923-11.005 15.88-16.553 23.787-2.611 3.724-2.321 5.019 1.858 7.038 1.694.816 3.505 1.152 5.377 1.202zM367.923 798.172c-.011.275-.023.553-.036.828h-.796c.279-.275.558-.553.832-.828zM407.639 799l-.029-.838.825.838h-.796zM374.639 609.516c1.878 5.745 3.756 11.491 5.637 17.233.328 1.006.81 1.983.985 3.012.365 2.145 1.627 2.679 3.646 2.649 6.219-.094 12.439-.049 18.659-.016.883.006 1.828-.288 2.722.304.125 1.207-.993 1.41-1.642 1.889-4.888 3.623-9.831 7.169-14.723 10.789-3.112 2.3-3.031 1.572-1.818 5.435 1.818 5.8 3.749 11.565 5.632 17.343.243.747.608 1.478.269 2.378-1.148.12-1.823-.78-2.604-1.339-5.055-3.617-10.116-7.227-15.082-10.966-1.53-1.152-2.64-1.158-4.167-.006-4.645 3.503-9.396 6.868-14.113 10.277-1.063.767-2.153 1.495-3.249 2.255-.899-.987-.283-1.812-.026-2.608 1.821-5.661 3.681-11.309 5.496-16.974 1.439-4.496 1.373-3.49-2.028-6.03-4.878-3.636-9.834-7.165-14.754-10.747-.519-.378-1.018-.783-1.503-1.161.631-1.375 1.693-.815 2.486-.825 5.823-.055 11.646-.023 17.469-.032 5.318-.007 4.309.301 5.894-4.429 2.053-6.12 3.995-12.28 5.986-18.423.278-.006.553-.006.828-.008zM191.712 723.532c.909-.929 2.03-.489 3.021-.498 5.431-.048 10.863-.006 16.293-.029 5.933-.023 4.587.479 6.431-4.794 1.745-4.995 3.272-10.064 4.91-15.094.348-1.068.768-2.112 1.312-3.591 1.697 3.241 2.336 6.36 3.379 9.317 1.32 3.743 2.573 7.515 3.651 11.332.601 2.135 1.656 2.931 3.924 2.886 7.007-.139 14.016-.049 21.045-.049.461 1.397-.741 1.627-1.373 2.093-5.218 3.853-10.442 7.699-15.74 11.445-1.528 1.081-1.933 2.032-1.266 3.931 2.148 6.111 4.024 12.322 6.014 18.491.239.741.721 1.44.168 2.569-3.122-2.242-6.202-4.448-9.276-6.664-2.793-2.012-5.634-3.959-8.348-6.075-1.478-1.152-2.604-1.181-4.141-.029-5.296 3.969-10.696 7.803-16.063 11.678-.522.375-1.09.689-1.761 1.11-.291-1.436.298-2.487.647-3.568 1.828-5.664 3.702-11.313 5.525-16.98.942-2.931.927-2.967-1.651-4.859-4.589-3.368-9.223-6.677-13.799-10.064-1.021-.76-2.334-1.232-2.902-2.558zM176.682 696.432c-5.747-4.157-11.309-8.181-16.875-12.202-2.876-2.077-2.89-2.086-5.711-.049-4.825 3.484-9.626 7.004-14.467 10.468-.805.579-1.46 1.514-2.979 1.433 2.025-6.227 4.115-12.322 5.978-18.482 1.57-5.195 2.543-4.028-2.415-7.615a1754.552 1754.552 0 0 1-13.464-9.828c-.684-.505-1.715-.751-1.791-1.944 1.077-.718 2.29-.372 3.427-.378 5.823-.039 11.646 0 17.467-.026 3.172-.013 3.202-.039 4.17-2.973 1.653-5.021 3.254-10.061 4.891-15.088.53-1.627 1.103-3.245 1.705-5.011 1.145.592 1.199 1.64 1.495 2.552 1.92 5.907 3.921 11.792 5.734 17.731.642 2.106 1.655 2.915 3.93 2.853 6.083-.165 12.175-.058 18.261-.058h3.071c-.262 1.627-1.417 1.928-2.206 2.513-4.571 3.387-9.188 6.713-13.784 10.061-3.41 2.478-3.4 2.478-2.038 6.677 1.831 5.658 3.647 11.319 5.477 16.977.202.62.59 1.199.124 2.389z" fill-rule="evenodd" clip-rule="evenodd" fill="#c85412"/><path d="M407.664 798.243c-5.692-4.07-11.387-8.139-17.079-12.215-3.355-2.404-2.539-2.378-6.025.11-5.595 3.992-11.13 8.068-16.689 12.112-.416-1.385.246-2.581.65-3.83 1.836-5.658 3.596-11.345 5.522-16.974.704-2.054.417-3.329-1.494-4.626-4.922-3.348-9.684-6.933-14.484-10.459-.902-.66-2.012-1.148-2.86-2.779h5.833c5.032 0 10.064.01 15.094-.003 3.601-.013 3.622-.019 4.71-3.325 2.148-6.528 4.27-13.063 6.402-19.591 1.396.084 1.219 1.252 1.478 2.022 2.011 6.02 4.083 12.021 5.904 18.096.658 2.193 1.724 2.886 3.947 2.847 6.994-.126 13.993-.045 21.105-.045.199 1.391-.89 1.65-1.532 2.122-5.119 3.762-10.2 7.583-15.445 11.161-1.925 1.313-2.129 2.52-1.402 4.581 1.975 5.61 3.735 11.297 5.564 16.958.401 1.247 1.038 2.453.801 3.838zM115.862 624.894c-2.787-1.013-4.828-3.16-7.201-4.794-3.491-2.4-6.933-4.882-10.273-7.489-1.532-1.197-2.622-1.113-4.133.029-4.757 3.591-9.621 7.036-14.451 10.53-1.066.77-2.164 1.495-3.631 2.504.387-3.047 1.493-5.435 2.268-7.903 1.386-4.416 2.693-8.867 4.303-13.205.752-2.022.291-3.115-1.37-4.286-5.304-3.74-10.526-7.592-15.751-11.442-.571-.42-1.546-.608-1.401-1.99h14.913c2.12 0 4.254-.149 6.357.039 2.238.2 3.287-.618 3.934-2.792 1.776-5.959 3.79-11.847 5.721-17.757.284-.87.632-1.721 1.221-3.306 1.564 4.668 2.928 8.686 4.256 12.717.953 2.892 1.946 5.771 2.748 8.705.508 1.854 1.494 2.458 3.387 2.429 6.758-.097 13.516-.036 20.273-.036h1.569c-.197 1.537-1.371 1.821-2.148 2.397-4.894 3.626-9.773 7.282-14.787 10.74-1.939 1.336-2.526 2.52-1.666 4.878 1.99 5.467 3.633 11.06 5.399 16.608.349 1.1 1.034 2.164.482 3.397l-.019.027zM482.914 694.113c-5.436 3.963-10.89 7.9-16.306 11.895-3.127 2.307-3.496 1.52-2.003 6.053 1.776 5.399 3.487 10.818 5.21 16.233.31.974.998 1.905.435 3.044-1.456-.045-2.308-1.174-3.34-1.905-4.746-3.371-9.498-6.735-14.125-10.265-1.677-1.278-2.845-1.161-4.464.075-4.414 3.371-8.961 6.567-13.462 9.824-1.164.841-2.358 1.64-3.688 2.562-.765-1.032-.265-1.828-.006-2.63a9340.518 9340.518 0 0 0 5.459-16.983c1.281-3.998 1.598-3.368-2.057-6.036-4.701-3.432-9.414-6.848-14.116-10.278-.734-.534-1.595-.935-2.069-1.879.826-.945 1.941-.476 2.89-.482 6.088-.052 12.176-.12 18.261.019 2.318.055 3.512-.521 4.209-2.95 1.75-6.095 3.859-12.083 5.834-18.112.197-.605.221-1.307.897-1.76 1.244.171.984 1.381 1.236 2.122 2.04 6.004 4.1 12.008 5.918 18.083.616 2.061 1.611 2.64 3.641 2.61 7.11-.103 14.224-.042 21.336-.042l.31.802zM208.11 608.163c-1.076.171-1.674-.66-2.397-1.181-4.618-3.316-9.217-6.664-13.825-9.999-4.456-3.222-3.11-2.85-7.293.103-4.215 2.976-8.353 6.059-12.534 9.077-1.053.76-2.15 1.456-3.237 2.187-.875-1.291-.048-2.209.246-3.138 1.842-5.794 3.649-11.601 5.671-17.33.751-2.122.356-3.29-1.514-4.565-4.807-3.277-9.462-6.777-14.142-10.235-1.021-.754-2.311-1.242-3.146-2.999h9.941c3.704 0 7.408.01 11.114-.003 3.45-.013 3.466-.02 4.582-3.439 1.886-5.778 3.743-11.565 5.63-17.343.233-.712.215-1.582 1.37-2.271.414 1.135.818 2.161 1.163 3.203 1.821 5.522 3.618 11.051 5.443 16.569 1.077 3.267 1.09 3.274 4.655 3.28 5.82.01 11.643-.016 17.466.019 1.001.006 2.064-.294 3.245.359-.471 1.058-1.427 1.521-2.219 2.1-4.694 3.442-9.409 6.855-14.109 10.284-3.097 2.261-3.094 2.268-1.858 6.108 1.697 5.283 3.4 10.565 5.087 15.851.354 1.113 1.024 2.18.597 3.432l.064-.069zM103.194 529.534c-.466-1.252.207-2.316.569-3.429 1.839-5.658 3.62-11.339 5.567-16.958.721-2.087.34-3.355-1.53-4.642-5.014-3.449-9.888-7.104-14.798-10.704-.799-.585-1.844-.954-2.376-2.478h11.547c3.444 0 6.892-.12 10.328.045 1.951.091 2.805-.647 3.364-2.442 2.125-6.813 4.383-13.584 6.585-20.358 1.495-.058 1.302 1.158 1.554 1.905 2.054 6.143 4.144 12.28 6.028 18.478.576 1.892 1.49 2.442 3.377 2.41 6.09-.107 12.181-.039 18.273-.039h3.408l.217.702c-1.868 1.362-3.736 2.727-5.608 4.086-3.746 2.724-7.505 5.435-11.241 8.175-2.74 2.009-2.759 2.038-1.757 5.16 1.902 5.917 3.845 11.821 5.779 17.728.204.621.519 1.213.22 2.193-.891.139-1.519-.566-2.179-1.042-4.62-3.326-9.229-6.664-13.836-10.006-4.663-3.387-3.254-2.973-7.644.091-4.448 3.106-8.786 6.373-13.196 9.537-.838.602-1.535 1.495-2.704 1.524l.053.064zM297.987 735.449c-.437-1.246.202-2.316.561-3.432 1.784-5.532 3.586-11.06 5.352-16.599 1.03-3.225 1.022-3.251-1.645-5.208-4.585-3.361-9.197-6.69-13.786-10.048-1.019-.747-1.988-1.559-3.799-2.986h5.936c5.425 0 10.853-.123 16.272.058 2.269.074 3.267-.66 3.908-2.821 1.687-5.7 3.614-11.326 5.466-16.977.346-1.058.789-2.083 1.37-3.604 1.441 2.271 1.79 4.364 2.455 6.302 1.543 4.497 2.897 9.061 4.424 13.564 1.31 3.872.689 3.468 4.959 3.474 6.743.013 13.488.003 20.241.003.387 1.401-.818 1.563-1.44 2.022-5.098 3.782-10.174 7.599-15.397 11.203-1.872 1.294-2.24 2.51-1.512 4.607 2.122 6.114 4.06 12.296 6.053 18.455.156.479.188 1 .322 1.741-1.182.207-1.791-.54-2.454-1.016-4.825-3.484-9.626-7.004-14.452-10.481-3.531-2.546-2.881-2.407-6.054-.107-4.713 3.41-9.407 6.849-14.13 10.245-.84.605-1.546 1.478-2.701 1.546l.051.059zM214.58 638.058c1.226-.896 2.305-.55 3.288-.557 5.83-.042 11.661-.013 17.49-.026 3.576-.006 3.588-.013 4.671-3.306 1.779-5.402 3.542-10.815 5.315-16.22.399-1.213.812-2.423 1.229-3.662 1.334.628 1.224 1.844 1.543 2.801 1.93 5.775 3.943 11.523 5.645 17.362.683 2.342 1.713 3.154 4.157 3.086 6.353-.172 12.717-.061 19.077-.052.636 0 1.271.068 2.177.123-.472 1.288-1.501 1.692-2.279 2.265-4.801 3.533-9.637 7.017-14.457 10.52-2.781 2.025-2.784 2.032-1.687 5.432 1.866 5.794 3.743 11.584 5.611 17.375.236.734.749 1.436.318 2.306-1.195.152-1.837-.818-2.633-1.388-4.956-3.546-9.934-7.062-14.777-10.756-1.811-1.378-3.086-1.3-4.864.068-4.511 3.471-9.179 6.742-13.812 10.054-1.042.744-1.923 1.808-3.343 1.967-.519-1.129.087-2.074.406-3.057 1.834-5.664 3.686-11.322 5.503-16.993.951-2.97.945-3.009-1.611-4.878-4.807-3.523-9.647-7.004-14.463-10.51-.809-.589-1.579-1.233-2.504-1.954zM11.901 554c.396-3.089 1.692-5.839 2.538-8.702 1.197-4.057 2.439-8.11 3.956-12.054.791-2.061.197-3.112-1.432-4.257-4.87-3.426-9.655-6.971-14.467-10.478-.849-.618-1.671-1.271-2.497-1.902.506-1.355 1.6-.828 2.395-.835 6.221-.048 12.445-.136 18.663.029 2.284.062 3.306-.763 3.947-2.856 1.781-5.813 3.724-11.578 5.613-17.356.327-.996.702-1.977 1.173-3.29 1.283 1.546 1.486 3.222 1.991 4.72 1.734 5.134 3.332 10.317 5.018 15.466 1.054 3.219 1.084 3.241 4.37 3.251 6.221.023 12.442.003 18.664.016.636 0 1.27.084 1.988.139-.068 1.433-1.229 1.744-1.993 2.306-4.898 3.613-9.789 7.24-14.789 10.708-1.846 1.278-2.202 2.465-1.425 4.616 2.015 5.594 3.723 11.296 5.541 16.961.353 1.097.644 2.216 1.232 4.254-3.413-2.468-6.054-4.377-8.692-6.289-3.002-2.174-5.968-4.393-9.006-6.515-3.051-2.125-2.329-2.239-5.406-.058-4.859 3.442-9.643 6.987-14.473 10.471-.843.61-1.584 1.422-2.909 1.655zM324.258 607.374c-5.454-3.944-10.889-7.919-16.369-11.824-3.739-2.666-2.832-2.582-6.363-.068-5.486 3.911-10.928 7.88-16.518 11.921-.796-1.064-.092-1.863.139-2.598 1.905-6.049 3.736-12.131 5.875-18.1.793-2.21.281-3.332-1.514-4.584-4.885-3.4-9.663-6.955-14.46-10.481-.809-.592-1.838-.99-2.352-2.287 1.006-.511 2.051-.327 3.034-.333 5.956-.019 11.911.01 17.867-.016 3.167-.013 3.191-.042 4.16-2.999a2232.759 2232.759 0 0 0 5.606-17.352c.322-1.013.605-2.016 1.481-3.248 1.702 5.157 3.263 10.035 4.937 14.874.98 2.837.873 6.59 3.303 8.243 2.255 1.53 5.658.417 8.553.469 4.102.078 8.207.013 12.309.029.864.003 1.728.1 3.005.178-1.035 1.53-2.206 2.119-3.222 2.863-4.704 3.429-9.378 6.9-14.147 10.236-1.687 1.181-2.051 2.29-1.334 4.296 1.997 5.6 3.722 11.296 5.551 16.958.358 1.106.7 2.216 1.05 3.326-.196.167-.394.332-.591.497z" fill-rule="evenodd" clip-rule="evenodd" fill="#c85412"/><path d="M813.823 369.105c-12.107-.072-21.415-9.482-21.26-21.49.152-11.659 9.715-20.911 21.569-20.87 11.809.041 21.221 9.436 21.221 21.182 0 12.055-9.348 21.251-21.53 21.178zm-.041-3.115c9.75.114 17.39-7.536 17.597-17.617.209-10.218-7.381-18.326-17.216-18.394-9.752-.067-17.47 7.651-17.621 17.621-.154 10.272 7.346 18.274 17.24 18.39z" fill-rule="evenodd" clip-rule="evenodd" fill="#231d47"/><path d="M208.045 608.234c.291-.071.422.016.378.259 0 .003-.18.013-.209-.029-.06-.084-.073-.2-.105-.301l-.064.071zM103.142 529.469c-.307.43.304.269-.22.275-.2.003-.113-.233.272-.214a.825.825 0 0 1-.052-.061zM115.881 624.868c.272-.239.466-.188.527.165.019.103-.068.226-.107.34l-.44-.479.02-.026zM297.935 735.391c-.068.087-.136.178-.206.265-.176-.142-.089-.21.257-.207l-.051-.058z" fill-rule="evenodd" clip-rule="evenodd" fill="#c85412"/><path d="M611.259 40.157c4.692-.662 8.77-.822 12.843-.256 2.742.382 3.56 1.048 5.791 3.878 4.199-2.875 8.812-4.703 13.911-5.297 2.286-.266 4.522-.114 6.675.59 4.016 1.314 6.395 4.098 6.916 8.344.581 4.725-.891 8.895-3.62 12.668-3.028 4.186-7.067 7.085-11.762 9.164-1.179.522-2.612.556-3.062 1.097-.629.825-.519.947-.156 1.068 6.884 2.27 8.904 6.29 6.305 13.131-2.678 7.046-5.626 13.988-8.364 21.012-.424 1.088-1.802 2.522-.269 3.495 1.228.777 2.484-.423 3.518-1.209 2.167-1.649 3.536-3.893 4.563-6.383 2.619-6.358 5.283-12.699 7.892-19.062 4.286-10.453 11.971-16.546 23.183-18.086 1.506-.206 2.743-.793 3.968-1.634 2.934-2.011 6.292-2.762 9.776-2.827 5.441-.102 7.513 2.653 6.03 7.828-.178.624-.419 1.231-.701 2.047 4.395.697 8.062-.853 11.07-3.439 4.725-4.059 10.145-6.089 16.176-6.822 1.474-.179 2.79-.541 4.065-1.384 3.214-2.127 6.86-2.672 10.64-2.502 4.812.217 6.664 2.685 5.532 7.333-.681 2.792-.307 3.225 2.397 2.781 2.528-.415 4.598-1.781 6.549-3.437 1.668 4.273.977 6.692-2.454 8.942-2.383 1.562-5.111 2.282-7.867 2.521-2.056.179-2.944 1.106-3.67 2.877-3.009 7.343-6.057 14.672-9.254 21.935-4.019 9.14-10.81 15.235-20.526 17.838-4.162 1.115-8.393 1.282-12.492-.315-4.387-1.709-6.708-4.942-6.828-9.728-.082-3.26.78-6.282 2.048-9.224 2.774-6.437 5.569-12.865 8.345-19.302.291-.678.508-1.389.919-2.522-2.242.503-4.019.878-5.784 1.307-1.571.382-1.736 1.855-2.225 3.042-3.185 7.7-6.208 15.47-9.561 23.096-4.571 10.39-12.54 16.812-23.623 19.345-1.961.448-3.947.476-5.93.326-4.814-.365-7.23-2.112-10.145-7.33-1 .399-1.485 1.374-2.171 2.081-4.59 4.736-9.841 8.44-16.249 10.271-2.832.809-5.902 1.583-8.191-.934-2.129-2.344-1.394-5.293-.39-7.915 3.545-9.262 7.221-18.473 10.857-27.701.632-1.601 1.312-3.185 1.428-4.932.312-4.717-4.831-8.833-9.401-7.597-1.318.357-1.449 1.485-1.812 2.396-2.242 5.655-4.404 11.341-6.591 17.017-4.277 11.107-8.548 22.217-12.83 33.323-2.172 5.635-6.046 9.228-12.193 10.024-6.684.865-11.869-3.475-12.303-10.266.223-.125.461-.374.673-.353 5.842.564 9.199-2.601 11.188-7.604 3.862-9.707 7.646-19.445 11.429-29.183 5.077-13.066 10.155-26.132 15.164-39.222 1.715-4.474 3.238-9.025.573-14.311zm109.453 25.532c-3.332.52-4.93 2.68-6.082 5.321-3.96 9.08-7.911 18.163-11.855 27.249-.634 1.459-1.215 2.946-1.074 4.586.165 1.92 1.108 2.831 3.038 2.976 1.369.104 2.609-.322 3.801-.934 2.85-1.465 4.613-3.865 5.849-6.742 3.337-7.766 6.7-15.521 10.044-23.285 1.25-2.903 1.268-2.941-1.182-4.872-1.413-1.113-2.134-2.616-2.539-4.299zm-46.517 5.047c-3.161 1.236-5.131 3.139-6.224 5.799-4.016 9.762-7.958 19.555-11.903 29.345-.5 1.244-.851 2.604.186 3.737 1.151 1.257 2.661 1.034 4.066.552 3.565-1.223 6.203-3.626 7.639-7.05 3.625-8.638 7.07-17.352 10.593-26.032.461-1.135.479-1.973-.948-2.451-1.722-.576-2.809-1.879-3.409-3.9zm-54.448.955c9.807-2.42 17.001-7.209 21.757-15.411 1.001-1.73 1.638-3.59 1.535-5.642-.098-1.98-1.142-3.176-3.026-3.633-4.403-1.068-11.11 2.185-12.882 6.403-2.445 5.823-4.739 11.71-7.384 18.283z" fill-rule="evenodd" clip-rule="evenodd" fill="#231d47"/><path d="M577.224 57.433c4.628.429 8.125-.88 10.898-4.15 1.996 3.994 1.197 7.512-2.193 10.198-2.588 2.05-5.669 2.991-8.853 3.101-2.289.08-3.186 1.032-3.926 3.007-4.495 12.013-9.297 23.913-13.616 35.987-3.44 9.615-10.213 15.115-19.743 17.795-1.307.367-2.989.199-3.589 1.99-.833 2.481-2.564 4.752-2.106 7.534.299 1.821 1.978 2.085 3.428 1.986 1.97-.133 3.932-.531 5.868-.947 4.008-.862 7.98-1.876 12.058-2.401 2.557-.329 5.037-.142 7.429.745 2.855 1.057 4.961 2.967 6.153 5.833 2.753 6.628-.456 16.644-6.729 20.752-1.148-1.913-2.197-3.89-3.461-5.72-3.039-4.401-7.005-6.469-12.586-5.475-6.656 1.185-13.399 1.795-20.118.26-1.278-.291-2.562-.703-3.735-1.278-4.091-2.009-5.694-5.377-4.615-9.842.558-2.307 1.404-4.544 2.117-6.815.386-1.232.77-2.464 1.19-3.813-1.724-.533-3.266-.891-4.715-1.479-4.505-1.828-6.882-5.18-6.974-10.091-.069-3.771.87-7.35 2.185-10.828 4.723-12.49 9.362-25.015 14.286-37.427 5.546-13.978 19.245-20.433 33.65-16.009 1.459.448 2.433.423 3.601-.49 2.441-1.912 5.187-3.147 8.34-3.366 5.622-.391 8.154 2.688 6.662 8.156-.207.763-.486 1.506-.906 2.787zm-45.487 56.436c4.945.074 9.346-2.708 11.172-7.413 4.691-12.084 9.271-24.21 13.868-36.329.951-2.507 1.05-5.013-1.137-6.959-2.153-1.914-4.668-2.283-7.413-1.253-3.767 1.414-6.033 4.298-7.405 7.845a2800.724 2800.724 0 0 0-14.08 37.097c-1.611 4.343.379 6.943 4.995 7.012z" fill-rule="evenodd" clip-rule="evenodd" fill="#231d47"/><path d="M571.318 111.794c.592.074 1.254.112 1.897.245 2.897.596 3.719 2.355 2.306 4.887-1.983 3.558-9.058 6.756-13.055 5.902-3.484-.743-4.406-3.269-2.041-6.062 2.8-3.307 6.573-4.7 10.893-4.972zM761.659 154.037c2.101 1.482 4.32 2.329 6.456 3.325 6.366 2.969 12.646 6.073 18.357 10.235 11.481 8.366 16.117 19.846 15.783 33.756-.531 22.187-10.248 39.954-26.375 54.493-9.784 8.823-21.121 15.097-34.084 17.931-8.16 1.784-16.341 1.362-24.19-1.743-7.118-2.816-10.78-8.179-11.17-15.858-.328-6.498 1.244-12.616 3.487-18.597 1.013-2.696 2.987-3.304 5.286-1.694 6.234 4.367 12.935 4.635 19.639 1.755 9.21-3.956 15.643-10.755 18.677-20.44 1.98-6.318.689-12.019-3.761-16.98-3.69-4.111-8.578-6.617-12.982-9.769-1.115-.798-1.684.035-2.224.81-2.879 4.129-5.783 8.239-8.611 12.402-9.312 13.702-18.84 27.242-29.801 39.701-13.393 15.229-28.259 28.691-46.507 37.968-9.845 5.005-20.186 8.631-31.077 10.618-.607.11-1.36.053-1.663 1.181 6.785-.061 12.882 2.532 19.112 4.568 4.228 1.381 8.464 1.933 12.882 1.034 4.327-.881 8.697-.885 13.022.036 3.654.778 7.086-.547 10.611-.946 4.996-.567 9.968-1.195 15.02-.707 10.156.98 19.405-1.709 27.914-7.16 3.397-2.176 6.945-3.769 11.055-4.021 6.902-.423 12.374 2.223 16.675 7.494 2.025 2.482 3.551 5.263 4.673 8.265.55 1.47 1.118 2.934 1.753 4.599 1.467-4.083 1.511-7 .188-11.498-.335-1.139-.791-2.245-1.224-3.353-.909-2.319-.883-2.42 1.425-2.769 5.364-.814 10.727-1.616 16.094-2.392 14.402-2.085 28.799-4.197 43.209-6.217 9.956-1.395 19.931-2.658 29.901-3.967.65-.086 1.326-.14 1.972-.062 1.05.125 1.653.93 1.872 1.834.244 1.003-.744 1.28-1.415 1.634-4.563 2.417-9.192 4.712-13.7 7.228-25.656 14.32-48.314 32.47-68.526 53.748-1.508 1.587-2.195 3.182-1.909 5.317.545 4.057 1.098 8.115 1.485 12.189.149 1.572.701 2.719 1.875 3.745 3.204 2.801 5.985 6.007 8.455 9.464 1.199 1.678 2.97 2.617 4.516 3.837 12.515 9.877 21.773 22.225 26.066 37.564 2.765 9.875 5.99 19.783 6.355 30.22.045 1.32.359 2.637.348 3.95-.094 11.261-.523 22.509-1.619 33.715-1.158 11.83-5.618 22.59-11.575 32.686-5.381 9.122-11.29 17.931-16.98 26.869-.416.65-.759 1.404-1.918 1.841-.377-2.025-.759-4.002-1.113-5.988-.733-4.102-2.31-7.867-4.618-11.316-1.448-2.161-1.558-2.197-3.69-.654-10.174 7.363-18.986 16.052-26.04 26.504-11.266 16.693-18.388 35.099-22.965 54.6-2.515 10.711-3.969 21.587-5.302 32.485-1.438 11.759-7.012 21.538-14.777 30.192-8.694 9.692-19.233 17.019-30.645 23.068-4.885 2.588-9.08 5.664-12.474 10.1-4.083 5.338-9.653 8.98-15.502 12.212-2.075 1.145-3.568.961-5.296-.654-4.487-4.193-8.281-8.945-11.604-14.066-1.249-1.922-2.703-3.076-4.99-3.352-17.64-2.125-32.806-9.918-46.613-20.658-3.188-2.481-6.622-4.209-10.357-5.668-11.707-4.571-23.565-8.831-34.612-14.929-14.09-7.777-26.344-17.724-35.992-30.713-.239-.32-.446-.667-1.068-.896-.729 7.887.797 15.66.301 23.411-.291.126-.582.369-.731.301-10.595-4.898-20.948-10.174-29.991-17.741-14.184-11.869-23.952-26.776-30.397-43.937-4.534-12.079-7.182-24.602-8.241-37.483a175.27 175.27 0 0 1-.581-15.871c.026-3.19-.188-3.339-3.5-2.601-8.05 1.792-15.057 5.687-21.504 10.714-4.194 3.271-7.939 7.013-11.613 10.834-.634.66-1.333 1.259-2.064 1.941-1.498-.786-1.38-2.29-1.737-3.439-4.951-15.919-5.659-32.214-4.4-48.725 1.123-14.735 3.974-29.082 8.873-43.019 1.139-3.245 2.193-6.567 3.783-9.595 3.69-7.03 5.419-14.566 6.76-22.298 3.054-17.63 10.768-33.135 22.095-46.873 2.26-2.74 4.966-5.11 7.942-8.132-7.02 2.075-12.6 5.356-17.21 10.252-2.274 2.415-4.293 5.052-5.965 7.922-.738 1.267-1.666 1.842-3.141 1.995-5.525.575-11.025 1.419-16.558 1.869-2.418.197-3.334 1.294-4.048 3.435-3.523 10.542-6.593 21.245-11.041 31.459-11.241 25.814-27.432 47.715-50.971 63.624-19.133 12.93-40.115 20.29-63.475 19.384-13.933-.54-26.902-4.247-37.881-13.344-9.876-8.181-14.79-18.892-15.288-31.534-.621-15.673 4.099-30.056 11.738-43.524 8.817-15.539 21.808-26.818 37.241-35.437 15.374-8.586 31.96-14.003 48.908-18.45 12.416-3.258 24.959-5.97 37.513-8.609 3.154-.663 4.739-2.05 5.541-5.091.864-3.278 2.462-6.357 3.148-9.973-3.285 0-6.182-.023-9.077.006-4.269.041-8.459-.471-12.518-1.82-5.994-1.992-10.811-5.512-14.083-11.007-.32-.54-.466-1.271-1.385-1.461-1.19.501-1.744 1.761-2.591 2.72-12.765 14.447-27.06 26.887-45.205 34.21-6.02 2.43-12.167 4.517-18.7 5.088-12.975 1.134-21.553-9.605-22.409-19.943-.578-6.975.319-13.799 2.57-20.357 9.977-29.046 18.032-58.694 27.669-87.842 2.966-8.971 5.331-18.005 5.826-27.471.026-.527.142-1.049.22-1.573.437-2.916.45-3.017 3.497-2.608 2.882.388 5.749.933 8.589 1.559 6.337 1.399 12.587 3.118 18.601 5.605 4.091 1.692 7.764 4.005 10.662 7.414 5.54 6.511 6.399 14.071 4.668 22.071-1.233 5.704-3.649 11.052-5.509 16.569-5.622 16.68-11.334 33.329-16.987 49.998-.809 2.38-1.588 4.797-1.694 7.325-.112 2.695 1.169 3.682 3.714 2.978.885-.245 1.732-.666 2.551-1.093 6.941-3.625 12.648-8.649 17.085-15.111 1.38-2.008 2.103-4.142 2.276-6.638 2.158-31.149 15.253-57.23 37.215-79.02 9.189-9.119 19.591-16.612 31.913-21.087 2.999-1.089 6.061-1.766 9.283-1.946 5.137-.285 9.305 1.486 12.786 5.185.688.732 1.181 1.792 2.727 1.949.78-2.263 1.621-4.577 2.373-6.919 2.137-6.645 6.942-10.154 13.644-10.154 11.917 0 23.813.827 35.433 3.844.511.134.996.376 1.511.486 1.577.338 1.862 1.141 1.163 2.574-1.275 2.616-2.562 5.239-3.63 7.944-6.662 16.871-12.183 34.151-18.219 51.247-1.394 3.951-3.052 7.828-3.998 12.109 1.706-.121 2.564-1.181 3.52-1.997 15.833-13.494 28.293-29.656 37.86-48.08 1.033-1.988 1.68-4.172 2.623-6.211.893-1.931.801-3.553-.988-4.911-.417-.316-.757-.74-1.116-1.13-7.131-7.775-8.047-16.849-2.504-25.893 5.404-8.821 13.784-13.253 23.5-15.597 2.444-.59 4.958-.736 7.466-.967 8.403-.773 16.956 8.953 13.005 18.772-.534 1.324-1.509 2.499-1.535 3.997 1.71 1.13 3.576 1.164 5.425 1.304 9.747.737 19.35-.481 28.72-2.922 7.736-2.016 13.435 1.458 18.619 6.051 4.005 3.549 3.793 8.589 2.308 13.346-2.68 8.59-5.545 17.124-8.43 25.649-2.714 8.022-5.551 16.004-8.343 24-.657 1.878-1.321 3.769-1.37 5.767-.041 1.732.982 2.379 2.604 1.782.613-.226 1.202-.569 1.737-.949 7.4-5.259 13.983-11.342 19.049-18.95 1.33-1.998 2.213-4.148 2.798-6.515 1.97-7.958 3.288-16.106 6.132-23.817 11.007-29.845 30.223-52.582 58.847-66.901 10.443-5.224 21.618-7.781 33.375-7.558 14.672.281 25.533 9.796 27.979 24.296 1.635 9.702-.584 18.685-4.54 27.371-5.435 11.932-13.823 21.613-23.779 29.944-13.977 11.697-29.794 20.129-47.088 25.818-.629.207-1.242.499-1.886.616-1.508.273-1.808 1.182-1.736 2.582.285 5.382 4.853 9.811 10.815 10.27 7.007.539 13.698-.857 20.165-3.487 9.579-3.893 17.825-9.842 25.477-16.667 12.915-11.518 23.83-24.828 34.261-38.554 6.091-8.015 12.008-16.163 18.184-24.111 1.745-2.245 2.155-4.095 1.032-6.798-7.57-18.248.694-46.17 16.793-58.101 6.879-5.098 14.384-7.867 23.06-5.87 11.751 2.704 17.508 13.229 13.509 24.643-1.721 4.911-4.495 9.287-7.127 13.726-2.288 3.857-4.658 7.659-7.092 11.65zm-21.304 360.037c12.874-14.243 20.398-31.065 23.895-49.802 1.118-5.994 1.664-12.057 1.689-18.168.008-1.802-.639-2.62-2.57-2.565-3.966.11-7.919-.023-11.884.589-5.88.906-11.411 2.944-17.724 5.163 7.945-6.538 16.396-10.086 25.577-12.024 5.605-1.181 5.617-1.119 4.369-6.603-1.386-6.077-6.111-9.726-12.366-9.54a14.998 14.998 0 0 0-6.125 1.48c-6.599 3.174-12.629 7.217-18.25 11.888-.914.76-1.742 1.576-2.224 2.74-4.146 9.996-11.615 16.909-20.809 22.156-2.161 1.236-3.811 2.831-4.793 5.105-2.653 6.13-5.857 11.833-12.112 15.162 2.064 2.856 4.759 4.257 7.513 5.564 4.568 2.167 9.389 3.581 14.342 4.49 1.802.33 2.451 1.1 2.436 2.876-.023 3.18-.008 6.347-.358 9.517-.906 8.197-3.11 16.094-5.381 23.978-.359 1.252-1.055 2.452-.484 3.866 1.633-.223 2.391-1.579 3.313-2.63 2.454-2.798 4.422-5.94 6.227-9.188a107.925 107.925 0 0 0 9.736-23.819c.781-2.831 2.113-3.995 4.933-4.555 6.168-1.219 10.328-4.975 12.518-10.96.709-1.938.322-3.186-1.169-4.509-3.917-3.481-8.299-6.082-13.278-7.732-.975-.323-2.271-.214-3.089-1.537 6.661-.281 12.966.042 19.101 2.061 2.685.883 2.672.831 3.783-1.647 1.344-3.002 1.637-6.234 1.782-9.446.493.036.699 0 .73.058.296.576.623 1.142.831 1.75 3.793 10.986 2.814 21.597-2.454 31.9-2.903 5.677-6.51 10.905-10.13 16.126-22.218 32.049-38.089 66.799-44.911 105.411-.553 3.131-1.472 6.179-3.064 8.974-1.071 1.883-2.439 3.471-4.504 4.303-2.14.864-4.27.485-6.098-.66-1.773-1.113-.302-2.918-.422-4.403-.031-.382.159-.776.222-1.168 1.245-7.761 1.637-15.538.306-23.324-.299-1.741-.385-3.655-2.082-5.024-1.279.903-1.663 2.148-2.012 3.416-.736 2.675-1.486 5.347-2.209 8.029-1.512 5.619-3.084 11.219-5.598 16.505-.694 1.459-1.373 2.155-3.306 1.75-6.776-1.42-13.684-1.275-20.576-1.255-4.896.016-9.736.754-14.324 1.097-.715-.595-.704-1.139-.725-1.666-.335-8.473-.607-16.938 1.027-25.333.21-1.077.924-2.323-.511-3.206-.941.343-1.467 1.135-1.999 1.876-2.724 3.785-4.751 7.936-6.428 12.274-2.345 6.062-3.919 12.348-5.349 18.669-.322 1.423-.726 2.42-2.298 2.785-2.355.55-4.404 1.818-6.292 3.277-1.68 1.297-3.524 1.65-5.572 1.64-5.135-.016-9.092-2.533-12.608-5.907-4.661-4.468-7.969-9.906-10.454-15.793-8.872-21.018-10.897-42.737-5.672-64.926 3.63-15.415 11.264-28.477 24.618-37.678.273-.191.369-.644.55-.977-7.329-3.455-17.305-4.361-26.502-3.468-15.356 1.491-28.769 7.35-39.772 19.455-1.111-7.521-.971-14.153.767-20.736 3.225-12.212 10.302-21.933 19.659-30.134 2.679-2.345 5.549-4.47 8.333-6.696-.498-3.28-2.879-5.263-5.218-7.133-4.657-3.723-10.114-5.684-15.96-6.615-1.294-.204-2.659-.13-4.087-1.291 8.985-13.833 22.067-21.096 37.594-23.808.623-.768.233-1.068.06-1.391-1.967-3.685-1.74-5.555 1.111-8.487.642-.662 1.362-1.258 2.09-1.829.985-.77 1.697-1.535 1.365-2.991-.66-2.898 1.056-4.734 3.123-6.353 1.98-1.551 4.332-2.434 6.81-3.628-.744-.335-1.198-.663-1.695-.746-10.834-1.807-20.278-6.69-29.105-13.004-4.214-3.015-8.699-5.516-13.711-7.051-4.089-1.252-7.741-3.397-11.064-6.108-7.435-6.068-9.247-14.13-4.996-22.73 3.759-7.605 10.331-11.486 18.26-13.384 6.894-1.65 13.872-1.783 20.911-.965 8.016.931 15.965 2.118 23.612 4.816-5.559.031-11.132-.155-16.676.146-8.238.446-16.288 1.939-23.709 5.817-3.204 1.674-6.078 3.789-8.133 6.826-3.466 5.122-2.412 10.731 2.677 14.215 2.904 1.988 6.189 2.963 9.669 3.266 3.965.345 7.937.263 11.911.169 9.263-.218 18.527-.857 27.795-.173 5.711.422 11.285 1.499 16.474 4.031 3.274 1.596 3.133 1.842 2.404 4.762-1.278 5.118 1.415 7.896 6.653 7.41 2.795-.26 5.373-1.362 8.063-2.031 1.246.851 2.399 1.672 0 2.563a7.144 7.144 0 0 0-2.044 1.169c-.615.508-1.051 1.246-.723 2.1.294.77 1.055.665 1.695.677 1.588.029 3.183-.056 4.767.05 9.305.625 18.022 2.907 25.284 9.175.623.537 1.485.928 1.601 2.268-4.755-2.079-9.318-3.796-14.119-4.746-6.272-1.24-12.573-1.887-18.905-.398-.985.231-2.099.373-2.397 1.887 1.635 1.04 3.456 1.06 5.261 1.221 9.823.882 19.34 3.005 28.334 7.165 3.867 1.789 7.505 3.947 10.431 7.122.565.613 1.325 1.199 1.118 2.368-.579-.126-.975-.138-1.302-.296-15.054-7.356-31.044-9.372-47.562-8.299-6.549.426-12.802 2.038-18.583 5.215-1.577.865-4.04 1.731-3.533 3.741.56 2.224 3.282 1.995 5.144 1.841 6.499-.539 12.956.425 19.439.276 2.378-.053 4.746.154 7.124.448 6.476.801 12.675 2.69 18.905 4.472 3.062.877 6.129 1.752 9.355 1.564 11.238-.653 22.195.873 32.877 4.338 4.817 1.563 9.296 1.056 13.826-1.14 6.7-3.249 13.762-5.559 21.132-6.67 7.644-1.152 14.923-3.468 22.048-6.341 2.453-.988 4.888-2.085 6.91-3.859 2.805-2.462 2.611-4.456-.668-6.096-2.638-1.32-5.486-1.834-8.443-1.957-10.422-.435-20.209 2.023-29.64 6.261-.885.398-1.695 1.391-2.91.734.354-1.527 1.496-2.47 2.497-3.494 3.861-3.948 8.524-6.685 13.543-8.864 1.575-.684 3.237-1.183 4.786-1.921 1.427-.679 1.435-1.766.121-2.7-1.897-1.353-4.045-1.155-6.137-.78a30.561 30.561 0 0 0-11.704 4.719c-.906.606-1.849 1.153-3.245 2.019.885-3.04 2.242-4.988 4.06-6.546 1.881-1.613 3.943-3.017 5.925-4.509-1.058-2.101-2.818-3.021-4.613-3.856-1.807-.84-3.697-1.436-5.694-1.658-1.108-.124-1.373-.633-.621-1.532 7.296-.769 10.051-3.624 10.549-11.063.057-.855.206-1.49.872-2.05 3.264-2.746 6.623-5.25 11.18-5.257.917-.002 1.853-.065 2.746-.26 2.549-.556 3.216-1.391 3.345-4.083.165-3.499-.757-6.769-2.096-9.961-1.92-4.581-5.069-8.262-8.485-11.757 1.834-.322 2.913 1.035 4.1 1.974 4.003 3.168 7.057 7.129 9.42 11.646.445.848.508 2.024 2.051 2.501-.778-10.577-5.414-18.558-14.261-24.023-1.469-.908-2.721-1.917-3.973-3.124-5.701-5.498-12.65-7.728-20.5-7.452-.159 1.432 1.127 2.675-.281 3.605-1.263.834-2.56.402-3.753-.248-.565-.309-1.046-.788-1.52-1.238-2.281-2.168-4.974-3.455-8.1-3.811-7.763-.885-15.549-1.369-23.363-1.359-.757.001-1.705-.31-2.195.438-.642.983.207 1.737.755 2.442.899 1.16 2.059 2.025 3.279 2.847.959.647 2.37.728 3.025 1.978-2.952.835-5.347-.585-8.34-1.368.348 6.414 2.116 11.943 5.494 16.985 1.511 2.253 3.394 4.226 5.954 5.058 2.214.72 2.465 2.099 2.269 3.934-.545 5.097-2.407 9.713-5.059 14.068-.888 1.456-1.776 1.166-2.931.485-4.337-2.557-8.665-5.123-12.374-8.579-1.752-1.632-3.291-3.435-4.456-5.547-.558-1.013-.763-1.913.126-2.883 2.541-2.776 2.37-6.135 1.549-9.385-1.308-5.187-4.031-9.707-7.274-14.017-3.51 1.998-6.936 3.654-11.351 3.799 3.245-2.677 7.466-3.818 8.531-8.499-6.611-.361-12.811-1.568-18.991-2.871-4.456-.939-8.332-.133-11.626 3.241-3.101 3.176-7.133 4.458-11.435 4.885-1.077.108-2.619.588-3.146-.865-.45-1.235.59-2.229 1.37-3.109 1.533-1.728 3.502-2.808 5.684-3.485 1.386-.43 2.813-.73 4.201-1.153.857-.261 1.713-.615 1.76-1.993-8.584-1.22-16.909-1.241-25.05 1.812-1.496.561-2.963 1.147-4.246 2.109-2.758 2.071-3.368 4.531-2.027 7.671.552 1.29 1.88 2.205 1.911 3.763-1.158.409-2.189.056-3.217-.126-20.146-3.576-39.536-1.041-58.113 7.419-7.214 3.284-12.77 8.495-15.922 15.915-1.402 3.303-2.501 6.748-1.409 10.406.611 2.052-.539 2.183-2.059 2.187-6.35.018-12.701.121-19.03.746-.961-2.071-2.642-3.619-3.974-5.419-3.152-4.261-6.231-8.561-8.196-13.534-.294-.746-1.142-1.512-.145-2.473 8.547 5.754 17.844 8.092 28.709 6.269-3.974-2.324-7.994-3.205-11.934-5.695 2.97-.501 5.276-.783 7.528-1.302 2.146-.496 4.448-.649 6.549-2.146-.67-.266-1.019-.492-1.391-.54-10.307-1.341-20.037-4.713-29.682-8.386-4.335-1.65-8.759-2.987-13.352-3.678-4.607-.694-5.876.791-4.613 5.267 1.857 6.589 5.296 12.366 9.165 17.924 3.636 5.224 7.921 9.922 12 14.788-1.294 1.025-2.908 1.167-4.417 1.604-11.79 3.412-22.904 8.256-32.849 15.554-8.152 5.983-14.751 13.262-18.769 22.673-.605 1.419-1.299 2.819-1.304 4.482 1.66-.061 2.611-1.076 3.714-1.732 9.459-5.624 19.547-8.7 30.669-7.733 7.924.687 15.24 3.369 22.177 7.047 6.782 3.596 13.375 7.546 20.066 11.314 5.089 2.865 10.313 5.44 16.066 6.696 1.991.437 4.036.631 6.939 1.069-4.995 3.081-9.601 4.399-14.472 4.975-7.893.932-15.557-.261-23.102-2.518-8.804-2.633-17.753-4.244-26.986-3.913-14.226.512-26.588 5.486-36.812 15.477-8.22 8.036-13.613 17.838-17.54 28.526-4.189 11.4-6.153 23.256-7.012 35.31a102.977 102.977 0 0 0-.083 13.516c12.066-7.577 12.061-7.599 27.851-10.909 1.435-.301 1.91-1.113 2.36-2.29.99-2.595 1.983-5.199 3.162-7.712 11.039-23.564 28.362-39.987 53.87-46.862 9.969-2.685 20.12-3.691 31.232-1.598-5.868 1.122-10.991 1.863-15.793 3.785-25.504 10.193-41.809 29.008-49.357 54.991-5.648 19.445-4.775 39.292.44 58.863 4.083 15.327 10.894 29.241 21.738 40.997 2.12 2.3 4.323 4.503 7.586 6.415.108-2.29.165-4.092.285-5.891.387-5.787 1.994-11.193 5.2-16.058.545-.828.917-1.983 2.25-1.935 11.528 16.747 26.29 32.149 33.82 35.18.468-4.332-.678-8.809 1.252-13.218 4.725 13.742 14.646 22.037 24.595 25.792 2.599.98 5.127 2.151 7.688 3.232 8.556 3.61 16.935 7.557 24.366 13.241 1.771 1.352 3.512 2.747 5.268 4.121.495-.679.286-1.148.168-1.669-1.163-5.156-4.739-8.773-7.998-12.587-6.155-7.204-14.121-11.914-22.399-16.181-9.679-4.985-16.578-12.668-21.252-22.344-3.583-7.411-5.14-15.221-3.782-23.528.511-3.125 1.711-6.056 2.307-9.514-4.039 2.252-6.428 5.522-8.4 9.142-3.148 5.784-4.459 12.144-5.671 18.52-.264 1.388-.364 2.798-1.398 4.351-14.946-13.26-23.581-29.836-28.217-49.259-9.959 8.818-13.456 20.06-15.703 32.01-2.848-6.807-4.293-13.758-4.729-20.895-1.216-19.882 3.387-38.412 13.644-55.434 12.547-20.823 30.49-34.921 53.778-42.109.006 1.174-1.074 1.404-1.758 1.925-3.588 2.73-7.065 5.587-10.289 8.738-15.054 14.709-22.921 32.515-22.551 53.649.251 14.376 4.199 27.921 10.271 40.877.217.462.351 1.236 1.322 1.145 3.238-11.316 8.948-21.153 17.758-29.063 8.768-7.867 18.96-12.904 30.734-15.715-1.847 4.144-3.573 7.719-5.053 11.394-4.477 11.118-6.426 22.641-4.82 34.595 1.978 14.719 8.924 26.989 19.127 37.529 3.682 3.801 7.656 7.317 11.387 11.077 6.659 6.706 11.426 14.425 13.352 23.877 1.854 9.097 7.56 15.567 15.371 20.257 1.614.967 3.35 1.931 5.461 1.844.674-5.03 1.013-9.899 4.217-14.506 2.518 7.182 4.319 14.231 10.763 19.426.128-7.033 1.035-13.15 5.63-18.879 1.503 11.901 4.607 22.554 9.532 33.21 8.649-10.119 14.857-21.153 20.047-32.938 1.334 5.037-.393 9.867-.489 15.046 3.012-2.371 5.042-5.296 6.963-8.253 1.98-3.047 3.68-6.276 5.983-10.255-.163 5.496-.639 9.973-1.284 15.039 5.417-3.652 10.153-7.185 14.313-11.471 5.977-6.156 9.765-13.386 11.216-21.894 1.291-7.57 1.999-15.211 3.008-22.816 1.799-13.577 4.94-26.766 10.959-39.156.585-.854 1.404-1.637.919-2.837l.448-1.388c1.449.084 1.575-1.21 2.057-2.054 1.769-3.102 3.403-6.286 5.215-9.362 8.636-14.667 18.492-28.387 31.195-39.874 5.027-4.545 10.458-8.537 16.576-11.51 5.385-2.617 8.28-1.042 9.915 3.338.06.162.401.217.612.323.221-.126.501-.207.654-.391.335-.408.624-.857.898-1.307 4.202-6.939 7.554-14.237 9.679-22.098 1.182-4.374 1.865-8.825 1.986-13.309.186-6.868-1.179-13.409-5.122-19.238-1.281-1.892-.687-3.051 1.535-3.529 1.006-.217 1.791.249 2.654.563.954.349 1.373 1.702 3.112 1.326 0-2.562-.121-5.205.024-7.835.38-6.855-.505-13.487-3.584-19.663-4.733-9.49-11.534-16.741-22.159-19.623-1.182-.32-2.37-.691-4.388.071 13.847 7.861 19.62 19.337 18.674 34.628-1.59-.336-2.73-.663-3.895-.799-1.652-.194-2.845.511-3.293 2.181-.731 2.73-1.229 5.237 1.367 7.599 3.502 3.18 5.608 7.379 6.656 11.979 2.376 10.436 1.035 20.497-3.455 30.166-.205.443-.619.793-1.037 1.31-1.44-1.789-.891-3.963-1.721-5.758-1.514-3.271-3.966-4.134-7.036-2.271-1.655 1.003-2.643 2.565-3.625 4.138-3.515 5.622-7.34 11.022-11.819 15.916-3.579 3.896-7.244 7.736-12.247 9.887zm-104.531-23.071c0 3.882-.129 7.434.024 10.973.458 10.533 3.251 20.338 9.402 29.037.61.864 1.268 1.692 1.947 2.501.448.537 1.092.854 1.766.634.841-.278 1.171-1.019 1.169-1.873-.002-.527-.024-1.064-.141-1.576-2.902-12.707-1.783-25.236 1.595-37.678 1.152-4.238 1.114-4.251 5.312-4.807 7.326-.967 14.185-3.3 20.28-7.489 4.44-3.05 7.864-7.094 9.694-12.248 1.135-3.193.254-5.37-2.641-7.049-1.367-.796-2.865-1.362-4.288-2.061-7.775-3.808-15.258-8.12-20.87-14.852-2.97-3.562-6.517-6.121-10.473-8.307-6.394-3.533-13.082-6.372-20.172-8.13-5.786-1.436-11.686-2.842-17.629-1.134-5.131 1.474-10.176 3.5-12.604 8.763-.917 1.989-1.74 2.627-3.964 2.646-7.196.058-14.24 1.191-20.741 4.535-1.655.854-3.387 1.711-4.666 3.808 23.031-5.419 44.738-.152 67.01 5.396-2.387.417-4.201.227-6.007.1-4.621-.317-9.239-.702-13.863-.98-5.967-.356-11.893-.084-17.768 1.158-1.891.401-2.785 1.171-2.41 3.232.306 1.685.031 3.52.545 5.115.73 2.268-.291 2.623-2.137 3.076-9.173 2.239-17.236 6.629-24.217 12.985-1.006.915-1.922 1.928-2.881 2.895 22.892-8.569 46.223-13.157 70.624-11.196-2.871.938-5.812 1.527-8.73 2.213-6.455 1.517-12.812 3.325-18.376 7.127-2.027 1.385-4.094 2.776-5.325 5.263 9.337 5.842 18.947 9.783 30.535 7.923zM486.343 305.55c-3.199-5.33-3.77-10.89-3.329-16.711.408-5.37 2.148-10.339 4.332-15.187a646.608 646.608 0 0 0 16.005-38.918c1.113-2.973 2.214-5.967 2.206-9.217-.01-3.347-.747-4.214-4.17-4.413-3.449-.201-6.819-.799-10.195-1.487-3.423-.696-2.889-1.538-4.558 2.325-7.762 17.973-18.79 33.717-32.56 47.581-12.865 12.955-27.432 23.72-43.012 33.13-2.445 1.478-3.922 3.266-4.859 5.886-4.189 11.712-8.513 23.376-12.726 35.081-.375 1.047-1.255 2.078-.695 3.319.149.106.27.265.362.248 11.719-2.033 23.431-4.103 35.156-6.101 1.721-.293 1.771-1.199 1.423-2.537-.898-3.456-1.894-6.893-2.604-10.388-1.001-4.927-2.019-9.907-.877-14.95 3.007-13.285 16.646-19.664 27.639-17.842 7.322 1.214 14.439 3.295 21.375 5.962 3.69 1.419 7.391 2.814 11.087 4.219zm-165.082 91.57c-2.038.252-3.348.325-4.618.587-12.338 2.543-24.324 6.189-35.733 11.586-7.932 3.754-15.431 8.17-21.595 14.546-2.789 2.884-5.087 6.108-6.145 10.045-2.494 9.293 1.713 18.335 13.204 18.626 4.561.116 8.972-.511 13.229-2.087 14.156-5.237 24.602-14.761 31.647-27.985 4.17-7.827 6.423-16.441 10.011-25.318zm18.785-104.174c.078 2.453.065 4.289.555 6.116 1.676 6.238 6.467 8.019 11.743 4.255.961-.685 1.844-1.519 2.633-2.4 2.496-2.79 4.288-6.018 5.736-9.457 4.521-10.738 8.256-21.761 11.947-32.799 2.808-8.401 5.377-16.884 8.275-25.253 1.21-3.495-.624-6.021-4.765-4.887-2.32.635-4.48 1.603-6.468 2.956-5.802 3.948-10.198 9.165-13.794 15.136-4.178 6.942-7.529 14.269-10.285 21.873-2.939 8.109-5.177 16.382-5.577 24.46zm251.984-.899c-11.945-3.59-21.291-10.412-27.273-21.609-.556.442-1.014.705-1.342 1.081-7.701 8.811-16.712 16.174-25.849 23.396-8.223 6.499-16.642 12.664-26.98 15.491-.37.101-.569.505-.325 1.11 10.515.247 21.022.359 31.062-4.005 3.859-1.676 8.013-2.678 12.044-3.947 2.019-.635 3.997-1.34 5.92-2.24 10.343-4.841 21.083-8.282 32.743-9.277zm19.947-72.115c.654 0 .932.06 1.17-.011.632-.191 1.266-.398 1.866-.67 12.463-5.667 23.421-13.388 32.376-23.817 2.25-2.62 4.144-5.496 5.608-8.637 1.422-3.053 2.088-6.255 1.923-9.636-.294-6.003-3.17-8.106-8.88-6.497-2.062.581-3.953 1.502-5.752 2.638-13.758 8.687-22.389 21.124-26.688 36.675-.872 3.154-1.793 6.35-1.623 9.955zm122.589 167.845c3.31.114 5.81.18 8.265.839 2.331.625 4.516 1.384 6.255 3.186 1.591 1.652.59 3.667.702 5.747 10.862-1.373 20.964-.275 29.754 6.78.141-.712.249-.969.226-1.215a9.206 9.206 0 0 0-.254-1.561c-1.734-6.52-5.508-11.326-11.77-14.075-7.156-3.141-14.577-4.314-22.596-2.962 1.09-1.529 2.57-2.329 3.204-3.846 1.016-2.435.068-4.993-2.271-5.952-2.671-1.093-5.333-.07-5.935 2.544-.876 3.795-2.701 7.063-5.58 10.515zm-162.939-8.732c4.647 5.985 11.662 10.004 19.575 12.134 3.415.919 5.939.143 8.146-2.268 5.441-5.946 3.612-6.966-2.062-8.851-.193-.063-.472.14-.71.218-1.147 5.354-2.54 7.136-5.454 6.987-3.219-.164-4.995-2.821-5.842-8.975-4.381.043-8.803-.192-13.653.755zM745.55 142.894c4.675-6.497 8.882-12.217 12.927-18.048 1.132-1.631.296-3.105-1.813-3.934-3.178-1.25-7.483.097-9.813 3.397-3.936 5.575-3.554 11.534-1.301 18.585zm-85.592 376.34c1.828-5.05 3.369-9.524 4.718-14.085 1.182-4.002-.946-5.926-4.277-7.159-2.984-1.103-4.336-.259-4.372 2.876-.072 6.13 1.134 12.034 3.931 18.368zm33.775-3.487c4.419-2.753 10.85-16.809 10.054-21.39-7.065 1.003-10.003 4.276-10.051 11.241-.023 3.307-.003 6.613-.003 10.149zm-9.757-4.099c3.356-4.616 4.527-9.475 5.905-14.243.183-.637.058-1.336-.495-1.802-1.891-1.598-6.905.019-7.177 2.533-.48 4.435-.635 8.925 1.767 13.512zm-12.992 1.495c3.581-4.484 4.962-9.132 6.106-13.881.185-.767.254-1.579-.508-2.155-1.944-1.472-6.711-.081-6.95 2.278-.451 4.425-.513 8.905 1.352 13.758zm55.309-140.473c-2.221 2.337-2.318 4.483-.553 6.732 1.396 1.78 3.314 2.091 5.629.806 3.659-2.029 4.629-5.479 4.833-9.324.057-1.073-.495-1.41-1.428-1.325-.773.07-1.54.215-2.384.339-.079 1.018-.139 1.924-.22 2.827-.084.926-.317 1.805-.815 2.61-1.312 2.119-2.968 2.132-4.11-.023-.362-.679-.535-1.459-.952-2.642zM635.591 598.4c-1.991 4.694-2.463 9.039-2.87 13.38-.199 2.138.775 3.296 2.41 3.39 1.618.094 3.201-1.084 3.214-2.795.034-4.6-.25-9.181-2.754-13.975zm31.854-1.032c-3.889 4.429-6.122 9-8.147 13.694-.469 1.087-1.195 2.371.041 3.228 1.202.835 2.531.214 3.677-.553.919-.615 1.559-1.495 1.839-2.514 1.177-4.289 2.435-8.572 2.59-13.855zm-22.649 5.548c-2.4 3.38-2.874 6.784-3.777 10.028-.152.547-.12 1.096.307 1.436 1.153.915 2.431.715 3.74.327 1.16-.346 1.789-1.042 1.784-2.255-.013-3.15-.28-6.249-2.054-9.536zm10.716.094c-3.083 2.873-4.401 6.444-5.829 9.954-.286.702-.207 1.249.545 1.605 1.642.779 4.818-.055 5.09-1.647.538-3.167 1.355-6.402.194-9.912z" fill-rule="evenodd" clip-rule="evenodd" fill="#231d47"/><path d="M404.802 140.79c-18.009-.355-36.025-.53-54.027-1.128-12.183-.406-24.375-.196-36.542-.798-13.63-.674-27.28-.196-40.903-1.013-4.555-.273-8.57 1.311-11.863 4.604-3.947 3.943-6.389 8.756-8.107 13.958-4.024 12.189-7.977 24.403-11.934 36.614-14.808 45.7-29.59 91.41-44.416 137.105-7.893 24.32-20.904 45.65-37.972 64.583-12.353 13.701-26.456 25.224-42.815 33.814-17.98 9.443-36.969 15.344-57.51 14.235-28.1-1.52-44.728-19.907-47.785-43.652-3.503-27.227 4.734-50.955 24.473-70.005 19.732-19.043 47.056-22.307 71.606-11.48.932.411 2.229.649 2.227 1.965 0 1.502-.524 2.835-2.075 3.533-3.272 1.474-6.386 3.217-9.139 5.55-5.491 4.652-8.854 10.463-9.608 17.686-.81 7.766 3.782 14.548 10.75 15.866 2.96.561 5.808-.144 8.6-.968 6.18-1.824 11.062-5.601 15.101-10.508 6.32-7.673 10.577-16.51 13.757-25.817 7.483-21.917 14.792-43.894 22.043-65.889 12.1-36.701 24.1-73.436 36.141-110.157.33-1.006.699-2.003.961-3.027 1.11-4.321-.403-7.233-4.632-8.707-2.129-.741-4.348-1.137-6.629-1.114-18.417.189-36.81-.922-55.224-.954-5.828-.01-11.643-.105-17.336 1.551-11.824 3.439-17.849 11.385-17.787 23.623.045 9.202 3.169 17.353 8.416 24.791.72 1.021 2.221 1.942 1.231 3.418-.985 1.468-2.434 2.456-4.385 2.155-19.989-3.087-37.885-10.18-50.346-27.124-14.166-19.261-11.122-44.39 6.984-60.069 10.818-9.368 23.605-14.459 37.352-17.53 8.419-1.881 16.995-2.567 25.571-3.265 11.478-.935 22.944-1.982 34.42-2.928 11.08-.913 22.169-1.73 33.252-2.641 11.474-.944 22.944-1.965 34.417-2.923 7.389-.616 14.781-1.158 22.169-1.766 12.134-.998 24.269-2.031 36.403-3.031 10.422-.858 20.846-1.672 31.266-2.538 11.872-.985 23.738-2.019 35.607-3.006 10.685-.889 21.362-1.903 32.06-2.575 16.167-1.015 31.767-3.999 46.046-12.104 13.635-7.74 24.977-17.829 32.414-31.861 1.174-2.214 2.114-4.561 3.044-6.894 1.438-3.604 2.858-4.194 6.366-2.35 4.005 2.105 7.683 4.705 11.046 7.726 12.108 10.882 20.985 24.039 25.262 39.698 5.234 19.174 1.029 37.062-10.242 53.197-11.743 16.815-28.362 26.285-48.154 30.448-8.961 1.884-18.046 2.63-27.24 1.951-4.083-.301-8.207-.051-12.316-.051.002-.066.002-.132.002-.198z" fill-rule="evenodd" clip-rule="evenodd" fill="#231d47"/><path d="M328.366 175.447c-.01 9.275-5.124 16.502-12.134 22.583-7.358 6.383-15.875 10.472-25.661 11.528-6.227.671-12.165-.482-17.522-3.77-4.173-2.563-6.496-6.396-7.072-11.363-1.009-8.726 2.439-15.862 8.032-22.035 7.91-8.729 17.781-14.097 29.552-15.57 5.635-.705 11.093.354 16.194 2.866 6.059 2.985 8.891 8.084 8.611 15.761z" fill-rule="evenodd" clip-rule="evenodd" fill="#231d47"/><path d="M266.964 368.136c.265-.271.485-.628.806-.802 12.312-6.715 22.865-15.654 32.527-25.719 2.264-2.358 2.268-2.349 4.846-.168 6.528 5.523 14.253 7.804 22.617 8.43 1.045.078 2.818-.641 2.997.863.217 1.837-1.816 1.608-2.957 1.863-13.781 3.086-27.604 5.985-41.194 9.859-5.328 1.519-10.601 3.23-15.898 4.851-1.246.381-2.415 1.147-3.812.759l.068.064zM250.242 375.28c-.058-.526.291-.652.695-.634.126.006.243.229.366.352l-1.119.22c-.002 0 .058.062.058.062z" fill-rule="evenodd" clip-rule="evenodd" fill="#fff"/><path d="M266.896 368.072c.155.514-.173.653-.566.654-.139 0-.28-.205-.421-.317l1.055-.272-.068-.065zM282.203 313.423c-.167.321-.403.663-.768.366-.328-.266-.108-.641.092-.943l.676.577zM699.436 249.664l.275-.498c.247.419.171.589-.332.434l.057.064zM550.726 244.841l-.364.552c-.196-.461-.125-.682.425-.475l-.061-.077zM435.445 244.844l-.341.538c-.044-.155-.16-.336-.117-.461.088-.248.303-.231.523.01l-.065-.087zM262.978 205.88l.495.355c-.091.067-.176.183-.272.193-.311.029-.427-.134-.343-.434l.12-.114z" fill-rule="evenodd" clip-rule="evenodd" fill="#fff"/><path d="M483.274 364.741c6.329-.624 12.679-.728 19.03-.746 1.52-.004 2.67-.134 2.059-2.187-1.092-3.658.006-7.103 1.409-10.406 3.153-7.42 8.709-12.631 15.922-15.915 18.577-8.46 37.967-10.996 58.113-7.419 1.029.182 2.059.535 3.217.126-.031-1.558-1.359-2.473-1.911-3.763-1.341-3.14-.731-5.6 2.027-7.671 1.283-.962 2.75-1.548 4.246-2.109 8.141-3.052 16.466-3.031 25.05-1.812-.047 1.379-.902 1.732-1.76 1.993-1.388.423-2.814.723-4.201 1.153-2.182.677-4.15 1.757-5.684 3.485-.78.88-1.82 1.874-1.37 3.109.527 1.453 2.069.973 3.146.865 4.302-.427 8.335-1.709 11.435-4.885 3.295-3.373 7.17-4.18 11.626-3.241 6.18 1.303 12.38 2.51 18.991 2.871-1.064 4.681-5.286 5.822-8.531 8.499 4.416-.146 7.841-1.801 11.351-3.799 3.243 4.31 5.965 8.83 7.274 14.017.82 3.25.992 6.61-1.549 9.385-.89.971-.684 1.871-.126 2.883 1.165 2.112 2.704 3.915 4.456 5.547 3.709 3.457 8.037 6.022 12.374 8.579 1.155.681 2.043.971 2.931-.485 2.653-4.355 4.514-8.971 5.059-14.068.196-1.835-.055-3.214-2.269-3.934-2.56-.832-4.443-2.805-5.954-5.058-3.379-5.042-5.147-10.571-5.494-16.985 2.992.784 5.388 2.203 8.34 1.368-.655-1.25-2.066-1.331-3.025-1.978-1.22-.822-2.379-1.687-3.279-2.847-.548-.705-1.397-1.459-.755-2.442.49-.747 1.438-.437 2.195-.438 7.814-.01 15.6.474 23.363 1.359 3.126.356 5.82 1.642 8.1 3.811.474.45.956.929 1.52 1.238 1.192.65 2.489 1.082 3.753.248 1.409-.929.123-2.172.281-3.605 7.85-.277 14.798 1.954 20.5 7.452 1.252 1.207 2.504 2.216 3.973 3.124 8.848 5.465 13.483 13.446 14.261 24.023-1.543-.476-1.606-1.652-2.051-2.501-2.363-4.517-5.417-8.478-9.42-11.646-1.187-.939-2.266-2.296-4.1-1.974-1.713-.216-2.635-1.615-3.761-2.639a22.784 22.784 0 0 0-5.917-3.907c-7.16-3.267-14.646-3.586-22.339-2.741.171.894.749.923 1.228 1.026 11.188 2.398 17.64 9.545 20.071 20.437 2.243 10.055-.183 19.353-5.223 28.123-.773 1.345-2.033 2.45-2.17 4.132-.752.899-.487 1.408.621 1.532 1.996.221 3.887.817 5.694 1.658 1.796.835 3.555 1.755 4.613 3.856-1.981 1.493-4.044 2.896-5.925 4.509-1.818 1.558-3.175 3.506-4.06 6.546 1.396-.865 2.339-1.412 3.245-2.019a30.567 30.567 0 0 1 11.704-4.719c2.091-.375 4.239-.573 6.137.78 1.313.935 1.305 2.021-.121 2.7-1.549.738-3.211 1.237-4.786 1.921-5.019 2.179-9.682 4.916-13.543 8.864-1.001 1.024-2.143 1.967-2.497 3.494 1.215.657 2.025-.337 2.91-.734 9.431-4.238 19.219-6.696 29.64-6.261 2.957.123 5.805.637 8.443 1.957 3.279 1.64 3.473 3.634.668 6.096-2.022 1.775-4.456 2.871-6.91 3.859-7.125 2.873-14.404 5.189-22.048 6.341-7.371 1.111-14.433 3.421-21.132 6.67-4.531 2.196-9.009 2.703-13.826 1.14-10.682-3.465-21.639-4.991-32.877-4.338-3.227.188-6.294-.687-9.355-1.564-6.231-1.783-12.429-3.672-18.905-4.472-2.378-.294-4.746-.502-7.124-.448-6.483.149-12.94-.815-19.439-.276-1.862.154-4.584.383-5.144-1.841-.508-2.011 1.956-2.876 3.533-3.741 5.781-3.177 12.034-4.789 18.583-5.215 16.518-1.072 32.508.943 47.562 8.299.327.159.723.17 1.302.296.207-1.17-.553-1.755-1.118-2.368-2.926-3.175-6.564-5.333-10.431-7.122-8.993-4.16-18.51-6.284-28.334-7.165-1.805-.162-3.626-.181-5.261-1.221.298-1.514 1.412-1.656 2.397-1.887 6.333-1.489 12.633-.842 18.905.398 4.801.949 9.364 2.667 14.119 4.746-.117-1.339-.979-1.731-1.601-2.268-7.263-6.268-15.979-8.55-25.284-9.175-1.584-.106-3.179-.021-4.767-.05-.641-.012-1.401.093-1.695-.677-.328-.854.108-1.592.723-2.1a7.158 7.158 0 0 1 2.044-1.169c2.399-.891 1.246-1.711 0-2.562-.594-2.298-2.552-3.626-3.887-5.385-5.397-7.12-9.854-14.681-11.732-23.545-2.46-11.62 2.407-20.007 13.707-23.597 1.148-.366 2.302-.719 4.23-1.321-10.47-4.289-19.89-4.694-29.013 1.253-2.248 1.466-4.039 3.379-5.326 5.756-1.548 2.861-1.559 2.855-5.106 2.399-7.647-2.698-15.596-3.885-23.612-4.816-7.039-.818-14.017-.684-20.911.965-7.929 1.898-14.501 5.779-18.26 13.384-4.251 8.6-2.439 16.662 4.996 22.73 3.322 2.711 6.975 4.856 11.064 6.108 5.013 1.535 9.498 4.036 13.711 7.051 8.827 6.315 18.271 11.198 29.105 13.004.497.083.951.411 1.695.746-2.478 1.194-4.83 2.077-6.81 3.628-2.067 1.619-3.783 3.455-3.123 6.353.332 1.456-.38 2.221-1.365 2.991-.728.571-1.448 1.168-2.09 1.829-2.852 2.932-3.078 4.802-1.111 8.487.173.323.563.623-.06 1.391-15.526 2.712-28.608 9.976-37.594 23.808 1.428 1.161 2.794 1.087 4.087 1.291 5.846.932 11.303 2.892 15.96 6.615 2.339 1.87 4.72 3.853 5.218 7.133-10.891.288-21.571 1.698-31.738 5.884-23.288 7.188-41.231 21.286-53.778 42.109-10.256 17.022-14.86 35.552-13.644 55.434.437 7.136 1.881 14.088 4.729 20.895 2.247-11.95 5.744-23.192 15.703-32.01 4.636 19.423 13.271 35.999 28.217 49.259 1.034-1.553 1.134-2.963 1.398-4.351 1.211-6.376 2.523-12.736 5.671-18.52 1.972-3.62 4.361-6.891 8.4-9.142-.595 3.458-1.796 6.389-2.307 9.514-1.359 8.307.199 16.117 3.782 23.528 4.675 9.676 11.573 17.359 21.252 22.344 8.278 4.267 16.244 8.977 22.399 16.181 3.259 3.814 6.835 7.431 7.998 12.587.118.521.327.99-.168 1.669-1.757-1.375-3.497-2.769-5.268-4.121-7.431-5.684-15.809-9.63-24.366-13.241-2.56-1.08-5.089-2.252-7.688-3.232-9.949-3.756-19.871-12.05-24.595-25.792-1.93 4.409-.784 8.886-1.252 13.218-7.529-3.031-22.292-18.433-33.82-35.18-1.333-.049-1.705 1.106-2.25 1.935-3.206 4.865-4.814 10.271-5.2 16.058-.12 1.799-.176 3.6-.285 5.891-3.262-1.912-5.465-4.115-7.586-6.415-10.844-11.756-17.655-25.669-21.738-40.997-5.215-19.572-6.088-39.418-.44-58.863 7.549-25.983 23.853-44.798 49.357-54.991 4.802-1.922 9.925-2.662 15.793-3.785-11.112-2.093-21.263-1.087-31.232 1.598-25.508 6.874-42.831 23.298-53.87 46.862-1.179 2.513-2.172 5.118-3.162 7.712-.45 1.178-.925 1.989-2.36 2.29-15.79 3.31-15.785 3.332-27.851 10.909-.278-4.694-.23-9.123.083-13.516.859-12.053 2.822-23.91 7.012-35.31 3.927-10.688 9.32-20.49 17.54-28.526 10.224-9.99 22.587-14.964 36.812-15.477 9.233-.332 18.182 1.279 26.986 3.913 7.546 2.258 15.209 3.45 23.102 2.518 4.87-.576 9.477-1.894 14.472-4.975-2.903-.439-4.948-.633-6.939-1.069-5.753-1.257-10.978-3.832-16.066-6.696-6.691-3.769-13.284-7.719-20.066-11.314-6.937-3.678-14.253-6.36-22.177-7.047-11.122-.967-21.21 2.109-30.669 7.733-1.103.657-2.054 1.671-3.714 1.732.005-1.663.699-3.063 1.304-4.482 4.018-9.41 10.617-16.69 18.769-22.673 9.946-7.299 21.06-12.142 32.849-15.554 1.509-.437 3.123-.579 4.416-1.606 3.213.52 6.236-.626 9.34-1.068zm77.249 48.031c-8.87-2.34-14.56-8.55-19.918-15.206a170.678 170.678 0 0 0-4.34-5.169c-5.431-6.234-11.903-10.84-20.066-12.818-4.013-.972-8.12-1.004-12.196-1.393-15.599-1.485-30.274 1.356-43.944 9.096-.826.467-1.942.671-2.308 1.958 6.389-1.042 12.71-1.504 19.059-1.571 9.087-.095 17.959.87 26.14 5.304 4.343 2.353 8.07 5.522 11.774 8.725 3.814 3.3 7.864 6.26 12.251 8.754 10.765 6.117 21.919 7.215 33.548 2.32zm75.307-64.134c-3.277-.351-4.996-.15-7.615.787-5.684 2.033-7.579 5.923-5.449 11.55 1.914 5.056 5.338 9.001 9.739 12.38-3.37-8.835-5.707-17.476 3.325-24.717zm68.381 20.543c.725.184 1.106-.165 1.405-.61 2.556-3.784 4.214-7.903 4.419-12.502.303-6.78-4.772-10.236-11.424-7.572 7.808 5.332 6.824 13.008 5.6 20.684z" fill-rule="evenodd" clip-rule="evenodd" fill="#c85412"/><path d="M528.383 468.811c10.167-4.186 20.848-5.596 31.738-5.884-2.784 2.226-5.655 4.351-8.333 6.696-9.357 8.201-16.434 17.922-19.659 30.134-1.737 6.583-1.878 13.215-.767 20.736 11.004-12.105 24.416-17.964 39.772-19.455 9.197-.893 19.174.013 26.502 3.468-.181.333-.276.786-.55.977-13.354 9.2-20.988 22.263-24.618 37.678-5.224 22.188-3.199 43.908 5.672 64.926 2.484 5.888 5.792 11.326 10.454 15.793 3.516 3.374 7.473 5.891 12.608 5.907 2.048.01 3.892-.343 5.572-1.64 1.888-1.459 3.937-2.727 6.292-3.277 1.572-.365 1.977-1.362 2.298-2.785 1.43-6.321 3.004-12.607 5.349-18.669 1.677-4.338 3.704-8.489 6.428-12.274.532-.741 1.058-1.533 1.999-1.876 1.435.883.721 2.129.511 3.206-1.634 8.395-1.362 16.861-1.027 25.333.021.527.01 1.071.725 1.666 4.589-.343 9.428-1.08 14.324-1.097 6.892-.02 13.8-.165 20.576 1.255 1.933.404 2.612-.291 3.306-1.75 2.514-5.286 4.086-10.886 5.598-16.505.723-2.682 1.473-5.354 2.209-8.029.349-1.268.733-2.514 2.012-3.416 1.697 1.369 1.783 3.283 2.082 5.024 1.331 7.786.94 15.563-.306 23.324-.063.392-.253.786-.222 1.168.12 1.485-1.351 3.29.422 4.403 1.828 1.145 3.958 1.524 6.098.66 2.065-.831 3.434-2.42 4.504-4.303 1.592-2.795 2.51-5.842 3.064-8.974 6.823-38.612 22.693-73.363 44.911-105.411 3.62-5.221 7.227-10.449 10.13-16.126 5.268-10.303 6.247-20.914 2.454-31.9-.209-.608-.535-1.174-.831-1.75-.031-.058-.236-.023-.73-.058-.145 3.212-.438 6.444-1.782 9.446-1.111 2.478-1.098 2.53-3.783 1.647-6.135-2.019-12.44-2.342-19.101-2.061.818 1.323 2.114 1.213 3.089 1.537 4.979 1.65 9.36 4.251 13.278 7.732 1.491 1.323 1.878 2.572 1.169 4.509-2.19 5.985-6.35 9.741-12.518 10.96-2.821.56-4.152 1.724-4.933 4.555a107.925 107.925 0 0 1-9.736 23.819c-1.805 3.248-3.774 6.389-6.227 9.188-.922 1.051-1.679 2.407-3.313 2.63-.571-1.414.125-2.614.484-3.866 2.271-7.884 4.476-15.78 5.381-23.978.35-3.17.335-6.337.358-9.517.014-1.776-.634-2.546-2.436-2.876-4.953-.909-9.774-2.323-14.342-4.49-2.755-1.307-5.45-2.708-7.513-5.564 6.255-3.329 9.459-9.032 12.112-15.162.982-2.274 2.632-3.869 4.793-5.105 9.194-5.247 16.663-12.16 20.809-22.156.482-1.164 1.31-1.98 2.224-2.74 5.621-4.67 11.651-8.714 18.25-11.888a14.998 14.998 0 0 1 6.125-1.48c6.255-.186 10.979 3.463 12.366 9.54 1.249 5.484 1.236 5.423-4.369 6.603-9.181 1.938-17.632 5.486-25.577 12.024 6.313-2.219 11.845-4.257 17.724-5.163 3.964-.611 7.917-.479 11.884-.589 1.931-.055 2.578.763 2.57 2.565-.024 6.111-.571 12.173-1.689 18.168-3.497 18.737-11.021 35.559-23.897 49.806-2.787 2.665-4.87 5.875-6.91 9.103-9.197 14.531-16.131 30.179-22.525 46.085l-.45 1.388c-1.119.686-.815 1.828-.917 2.837-6.019 12.39-9.16 25.579-10.959 39.156-1.009 7.605-1.718 15.246-3.008 22.816-1.451 8.508-5.239 15.738-11.216 21.894-4.16 4.286-8.896 7.819-14.313 11.471.646-5.066 1.121-9.543 1.284-15.039-2.303 3.979-4.003 7.208-5.983 10.255-1.922 2.957-3.952 5.881-6.963 8.253.096-5.179 1.823-10.009.489-15.046-5.19 11.785-11.398 22.819-20.047 32.938-4.925-10.656-8.029-21.309-9.532-33.21-4.595 5.729-5.503 11.847-5.63 18.879-6.444-5.195-8.244-12.244-10.763-19.426-3.204 4.607-3.542 9.475-4.217 14.506-2.111.087-3.846-.877-5.461-1.844-7.811-4.691-13.517-11.161-15.371-20.257-1.926-9.453-6.693-17.171-13.352-23.877-3.731-3.759-7.706-7.275-11.387-11.077-10.203-10.539-17.148-22.81-19.127-37.529-1.606-11.953.343-23.476 4.82-34.595 1.48-3.675 3.206-7.25 5.053-11.394-11.774 2.811-21.965 7.848-30.734 15.715-8.81 7.91-14.52 17.747-17.758 29.063-.971.091-1.105-.683-1.322-1.145-6.072-12.956-10.02-26.501-10.271-40.877-.371-21.134 7.497-38.939 22.551-53.649 3.224-3.151 6.701-6.007 10.289-8.738.689-.521 1.769-.751 1.763-1.925z" fill-rule="evenodd" clip-rule="evenodd" fill="#fff"/><path d="M635.824 491.003c-11.588 1.86-21.197-2.08-30.533-7.922 1.231-2.487 3.298-3.879 5.325-5.263 5.564-3.801 11.921-5.609 18.376-7.127 2.918-.686 5.858-1.275 8.73-2.213-24.401-1.96-47.732 2.627-70.624 11.196.959-.967 1.875-1.98 2.881-2.895 6.981-6.357 15.044-10.746 24.217-12.985 1.846-.453 2.866-.809 2.137-3.076-.514-1.595-.239-3.429-.545-5.115-.375-2.061.519-2.831 2.41-3.232 5.875-1.242 11.801-1.514 17.768-1.158 4.624.278 9.242.663 13.863.98 1.807.126 3.62.317 6.007-.1-22.273-5.548-43.979-10.814-67.01-5.396 1.279-2.096 3.012-2.954 4.666-3.808 6.501-3.345 13.545-4.477 20.741-4.535 2.224-.019 3.047-.657 3.964-2.646 2.428-5.263 7.473-7.289 12.604-8.763 5.943-1.708 11.843-.302 17.629 1.134 7.089 1.758 13.778 4.597 20.172 8.13 3.956 2.187 7.503 4.746 10.473 8.307 5.613 6.732 13.095 11.044 20.87 14.852 1.424.699 2.921 1.265 4.288 2.061 2.895 1.679 3.777 3.856 2.641 7.049-1.829 5.153-5.254 9.197-9.694 12.248-6.094 4.189-12.954 6.522-20.28 7.489-4.198.556-4.16.57-5.312 4.807-3.377 12.442-4.497 24.971-1.595 37.678.116.511.139 1.048.141 1.576.002.854-.328 1.595-1.169 1.873-.674.22-1.318-.097-1.766-.634a37.632 37.632 0 0 1-1.947-2.501c-6.151-8.699-8.945-18.504-9.402-29.037-.156-3.541-.026-7.092-.026-10.974z" fill-rule="evenodd" clip-rule="evenodd" fill="#fff"/><path d="M486.343 305.55c-3.696-1.406-7.397-2.8-11.086-4.22-6.936-2.667-14.053-4.748-21.375-5.962-10.994-1.822-24.633 4.556-27.639 17.842-1.142 5.043-.125 10.023.877 14.95.71 3.495 1.706 6.932 2.604 10.388.348 1.338.298 2.243-1.423 2.537-11.725 1.999-23.437 4.068-35.156 6.101-.092.016-.214-.142-.362-.248-.56-1.241.32-2.272.695-3.319 4.214-11.704 8.537-23.369 12.726-35.081.937-2.62 2.413-4.409 4.859-5.886 15.58-9.41 30.147-20.175 43.012-33.13 13.77-13.864 24.798-29.608 32.56-47.581 1.669-3.864 1.135-3.022 4.558-2.325 3.376.688 6.746 1.287 10.195 1.487 3.422.199 4.16 1.067 4.17 4.413.008 3.25-1.093 6.244-2.206 9.217a646.339 646.339 0 0 1-16.005 38.918c-2.184 4.848-3.924 9.817-4.332 15.187-.443 5.822.128 11.383 3.328 16.712zm-64.525-1.988c-2.184.682-3.785 2.409-5.828 3.303-2.667 1.168-3.854 3.313-4.77 5.905-2.685 7.6-5.538 15.14-8.267 22.725-.331.924-1.134 1.816-.448 3.334l19.233-3.431c-3.777-19.152-3.576-20.908.616-31.318.223-.258.527-.583.204-.868-.337-.299-.591.013-.74.35zm53.914-9.274c.139-.611.304-.994.301-1.375-.086-7.97 2.146-15.365 5.394-22.553 5.331-11.803 10.21-23.796 14.847-35.888.663-1.726 1.255-3.48 1.828-5.238.196-.602.503-1.448-.205-1.791-1.692-.82-3.578-.863-5.422-.94-1.611-.066-1.734 1.412-2.211 2.415-10.868 22.857-26.549 41.887-45.988 57.942-.773.639-1.81 1.088-2.256 2.613 12.01-2.989 22.681 2.05 33.712 4.815z" fill-rule="evenodd" clip-rule="evenodd" fill="#c85412"/><path d="M589.219 340.227c3.547.455 3.558.462 5.106-2.399 1.288-2.377 3.078-4.29 5.326-5.756 9.123-5.947 18.543-5.542 29.013-1.253-1.928.602-3.081.955-4.23 1.321-11.299 3.59-16.167 11.977-13.707 23.597 1.878 8.864 6.334 16.425 11.732 23.545 1.335 1.759 3.293 3.087 3.887 5.385-2.69.669-5.268 1.771-8.063 2.031-5.237.485-7.93-2.293-6.653-7.41.729-2.92.87-3.166-2.404-4.762-5.189-2.531-10.763-3.608-16.474-4.031-9.268-.683-18.532-.045-27.795.173-3.974.094-7.947.176-11.911-.169-3.481-.303-6.766-1.278-9.669-3.266-5.088-3.484-6.143-9.093-2.677-14.215 2.054-3.037 4.929-5.152 8.133-6.826 7.421-3.879 15.471-5.371 23.709-5.817 5.546-.303 11.118-.117 16.677-.148zm19.366-4.782c-6.2 2.086-9.927 5.694-12.286 10.802-1.766 3.822-1.739 3.829-5.529 2.495-.301-.105-.71-.454-.948.13-.12 8.291 5.247 14.518 14.423 16.324-3.348-10.412-4.545-20.501 4.34-29.751z" fill-rule="evenodd" clip-rule="evenodd" fill="#fff"/><path d="M710.919 569.266c6.394-15.906 13.328-31.554 22.525-46.085 2.039-3.229 4.123-6.438 6.91-9.103 5.004-2.155 8.67-5.994 12.238-9.896 4.479-4.894 8.304-10.294 11.819-15.916.982-1.572 1.97-3.135 3.625-4.138 3.07-1.863 5.522-.999 7.036 2.271.83 1.795.281 3.969 1.721 5.758.417-.518.831-.867 1.037-1.31 4.49-9.669 5.831-19.73 3.455-30.166-1.048-4.6-3.154-8.799-6.656-11.979-2.596-2.362-2.098-4.869-1.367-7.599.448-1.669 1.642-2.375 3.293-2.181 1.165.136 2.305.463 3.895.799.946-15.291-4.827-26.767-18.674-34.628 2.019-.762 3.206-.392 4.388-.071 10.625 2.882 17.427 10.133 22.159 19.623 3.079 6.176 3.964 12.808 3.584 19.663-.145 2.63-.024 5.273-.024 7.835-1.739.375-2.158-.977-3.112-1.326-.864-.314-1.648-.78-2.654-.563-2.222.479-2.816 1.637-1.535 3.529 3.943 5.83 5.309 12.371 5.122 19.238-.121 4.484-.804 8.935-1.986 13.309-2.125 7.861-5.477 15.159-9.679 22.098-.273.45-.563.899-.898 1.307-.152.184-.432.265-.654.391-.21-.107-.552-.162-.612-.323-1.635-4.38-4.53-5.956-9.915-3.338-6.117 2.973-11.549 6.965-16.576 11.51-12.702 11.487-22.559 25.207-31.195 39.874-1.812 3.076-3.445 6.26-5.215 9.362-.48.845-.606 2.139-2.055 2.055zM321.261 397.12c-3.588 8.877-5.841 17.491-10.011 25.318-7.046 13.224-17.491 22.747-31.647 27.985-4.257 1.576-8.668 2.203-13.229 2.087-11.491-.291-15.698-9.333-13.204-18.626 1.058-3.937 3.356-7.161 6.145-10.045 6.164-6.376 13.663-10.792 21.595-14.546 11.41-5.397 23.395-9.043 35.733-11.586 1.27-.262 2.58-.335 4.618-.587zm-10.684 8.838c-.479-.149-.744-.331-.948-.28-12.359 3.141-24.23 7.515-35.219 14.08-4.338 2.593-8.38 5.574-11.688 9.44-2.003 2.339-3.62 4.882-3.95 8.069-.561 5.438 1.797 8.32 7.222 8.708 3.211.233 6.352-.23 9.383-1.252 18.922-6.392 29.607-20.219 35.2-38.765zM340.046 292.946c.4-8.078 2.638-16.351 5.576-24.462 2.756-7.605 6.108-14.931 10.285-21.873 3.596-5.971 7.992-11.187 13.794-15.136 1.988-1.353 4.149-2.321 6.468-2.956 4.141-1.134 5.975 1.392 4.765 4.887-2.898 8.369-5.467 16.852-8.275 25.253-3.691 11.038-7.426 22.062-11.947 32.799-1.448 3.44-3.24 6.667-5.736 9.457-.789.882-1.673 1.715-2.633 2.4-5.276 3.764-10.067 1.983-11.743-4.255-.489-1.825-.476-3.661-.554-6.114zm31.73-55.333c-4.309 3.02-7.5 7.048-10.21 11.476-6.615 10.804-11.216 22.439-14.078 34.761-.93 4-1.472 8.071-1.097 12.201.068.755-.065 1.722.87 2.023.872.281 1.466-.431 2.022-.977 2.811-2.751 4.422-6.233 5.862-9.8 6.188-15.33 11.204-31.072 16.395-46.752.314-.949.932-1.954.194-2.992.315.195.448.175.396-.066-.117.042-.237.083-.354.126zM592.03 292.047c-11.661.995-22.401 4.436-32.743 9.277-1.923.9-3.901 1.605-5.92 2.24-4.031 1.269-8.184 2.27-12.044 3.947-10.04 4.364-20.547 4.253-31.062 4.005-.244-.606-.045-1.009.325-1.11 10.337-2.827 18.756-8.992 26.98-15.491 9.137-7.222 18.148-14.585 25.849-23.396.328-.376.786-.639 1.342-1.081 5.982 11.198 15.328 18.019 27.273 21.609zm-28.723-11.459c-6.719 7.085-14.08 12.701-21.76 19.184 11.284-1.949 20.238-7.524 30.614-10.599-3.458-2.659-6.061-5.424-8.854-8.585z" fill-rule="evenodd" clip-rule="evenodd" fill="#c85412"/><path d="M483.274 364.741c-3.104.442-6.127 1.587-9.339 1.073-4.078-4.864-8.362-9.562-11.999-14.786-3.869-5.558-7.308-11.335-9.165-17.924-1.263-4.476.007-5.961 4.613-5.267 4.594.692 9.018 2.028 13.352 3.678 9.645 3.673 19.376 7.045 29.682 8.386.372.049.721.274 1.391.54-2.101 1.496-4.403 1.65-6.549 2.146-2.252.519-4.558.801-7.528 1.302 3.94 2.49 7.96 3.371 11.934 5.695-10.865 1.824-20.162-.514-28.709-6.269-.996.962-.149 1.727.145 2.473 1.965 4.973 5.043 9.273 8.196 13.534 1.335 1.8 3.015 3.348 3.976 5.419z" fill-rule="evenodd" clip-rule="evenodd" fill="#fff"/><path d="M611.977 219.932c-.17-3.605.751-6.801 1.622-9.957 4.299-15.55 12.93-27.988 26.688-36.675 1.799-1.136 3.689-2.058 5.752-2.638 5.71-1.61 8.586.494 8.88 6.497.165 3.381-.501 6.583-1.923 9.636-1.464 3.141-3.358 6.017-5.608 8.637-8.954 10.429-19.913 18.151-32.376 23.817-.6.272-1.234.48-1.866.67-.237.074-.515.013-1.169.013zm36.17-43.89c-14.053 7.148-22.548 17.915-27.661 32.179 1.519-.003 2.213-.64 2.94-1.105 5.144-3.283 9.993-6.948 14.37-11.214 3.237-3.154 6.154-6.563 8.346-10.542 1.423-2.582 2.269-5.305 2.005-9.318z" fill-rule="evenodd" clip-rule="evenodd" fill="#c85412"/><path d="M709.688 382.396c.137-1.682 1.397-2.787 2.17-4.132 5.04-8.77 7.466-18.068 5.223-28.123-2.431-10.892-8.883-18.039-20.071-20.437-.479-.103-1.056-.132-1.228-1.026 7.693-.845 15.179-.526 22.339 2.741a22.801 22.801 0 0 1 5.917 3.907c1.126 1.024 2.048 2.423 3.761 2.639 3.416 3.495 6.565 7.177 8.485 11.757 1.339 3.192 2.261 6.462 2.096 9.961-.129 2.692-.796 3.527-3.345 4.083-.893.194-1.829.258-2.746.26-4.557.006-7.916 2.51-11.18 5.257-.666.56-.815 1.195-.872 2.05-.498 7.439-3.253 10.294-10.549 11.063zm13.556-22.791c6.273-4.048 8.31-11.26 5.265-16.975-.223-.417-.536-1.135-1.157-.686-2.468 1.792-3.148-.497-4.247-1.802-2.902-3.443-5.085-4.709-8.668-4.949 7.472 6.317 9.148 14.775 8.807 24.412z" fill-rule="evenodd" clip-rule="evenodd" fill="#fff"/><path d="M734.566 387.777c2.879-3.453 4.704-6.721 5.58-10.515.602-2.614 3.264-3.638 5.935-2.544 2.339.959 3.286 3.517 2.271 5.952-.634 1.517-2.114 2.317-3.204 3.846 8.02-1.352 15.44-.18 22.596 2.962 6.263 2.75 10.036 7.555 11.77 14.075.136.506.207 1.037.254 1.561.023.246-.086.503-.226 1.215-8.789-7.054-18.892-8.153-29.754-6.78-.111-2.08.89-4.095-.702-5.747-1.739-1.802-3.924-2.56-6.255-3.186-2.455-.659-4.956-.725-8.265-.839z" fill-rule="evenodd" clip-rule="evenodd" fill="#c85412"/><path d="M571.627 379.045c4.849-.948 9.271-.713 13.652-.756.848 6.155 2.623 8.811 5.842 8.975 2.915.149 4.307-1.633 5.454-6.987.238-.078.517-.281.71-.218 5.674 1.885 7.504 2.905 2.062 8.851-2.206 2.412-4.731 3.188-8.146 2.268-7.911-2.129-14.927-6.148-19.574-12.133z" fill-rule="evenodd" clip-rule="evenodd" fill="#fff"/><path d="M745.55 142.894c-2.253-7.051-2.635-13.01 1.301-18.584 2.331-3.3 6.635-4.647 9.813-3.397 2.109.829 2.945 2.302 1.813 3.934-4.045 5.83-8.252 11.55-12.927 18.047z" fill-rule="evenodd" clip-rule="evenodd" fill="#c85412"/><path d="M659.958 519.234c-2.797-6.334-4.003-12.238-3.93-18.368.036-3.135 1.388-3.979 4.372-2.876 3.33 1.233 5.459 3.157 4.277 7.159-1.35 4.561-2.891 9.035-4.719 14.085zM693.733 515.747c0-3.536-.02-6.842.003-10.148.049-6.965 2.986-10.239 10.051-11.241.796 4.58-5.635 18.636-10.054 21.389zM683.976 511.648c-2.402-4.587-2.247-9.077-1.766-13.512.272-2.514 5.286-4.131 7.177-2.533.553.466.678 1.164.495 1.802-1.379 4.768-2.55 9.627-5.906 14.243zM670.984 513.143c-1.865-4.853-1.804-9.333-1.352-13.758.239-2.358 5.006-3.749 6.95-2.278.762.576.692 1.388.508 2.155-1.143 4.748-2.525 9.397-6.106 13.881zM726.293 372.67c.417 1.183.59 1.963.951 2.643 1.142 2.155 2.798 2.142 4.11.023.498-.805.731-1.684.815-2.61.081-.903.141-1.809.22-2.827.844-.124 1.611-.268 2.384-.339.933-.085 1.485.252 1.428 1.325-.204 3.845-1.174 7.295-4.833 9.324-2.315 1.285-4.233.974-5.629-.806-1.764-2.25-1.667-4.396.554-6.733zM635.591 598.4c2.504 4.794 2.789 9.375 2.755 13.975-.013 1.711-1.597 2.889-3.214 2.795-1.635-.094-2.609-1.252-2.41-3.39.405-4.341.877-8.686 2.869-13.38zM667.445 597.368c-.155 5.283-1.414 9.566-2.591 13.855-.28 1.019-.92 1.899-1.839 2.514-1.145.767-2.475 1.388-3.677.553-1.236-.857-.51-2.142-.041-3.228 2.026-4.694 4.26-9.265 8.148-13.694zM644.796 602.916c1.775 3.287 2.041 6.386 2.054 9.537.005 1.213-.624 1.909-1.784 2.255-1.309.388-2.586.589-3.74-.327-.427-.34-.459-.89-.307-1.436.903-3.245 1.376-6.648 3.777-10.029zM655.512 603.01c1.161 3.51.344 6.745-.194 9.912-.272 1.591-3.449 2.426-5.09 1.647-.752-.356-.831-.903-.545-1.605 1.427-3.51 2.746-7.081 5.829-9.954z" fill-rule="evenodd" clip-rule="evenodd" fill="#fff"/><path d="M709.552 573.491c.102-1.009-.202-2.151.917-2.837.487 1.2-.332 1.983-.917 2.837z" fill-rule="evenodd" clip-rule="evenodd" fill="#c85412"/><path d="M817.92 349.857l6.409 10.078c-2.564.882-4.233.43-5.472-1.808-1.278-2.308-2.835-4.46-4.171-6.739-.678-1.157-1.508-1.649-2.865-1.621-1.407.028-2.247.277-2.155 1.967.117 2.108-.011 4.231.034 6.345.029 1.357-.209 2.273-1.892 2.302-1.561.027-2.035-.551-2.02-2.084.065-6.876.044-13.752.014-20.629-.006-1.382.235-2.229 1.944-2.158 3.169.131 6.362-.135 9.514.133 5.336.454 8.061 4.627 6.437 9.485-.744 2.225-1.268 2.664-5.777 4.729zm-8.212-7.478c.01 4.831-.304 4.114 4.257 4.15 1.042.008 2.106-.059 3.12-.276 1.892-.405 2.947-1.643 3.018-3.604.074-2.046-1.132-3.15-2.955-3.634-2.061-.546-4.181-.249-6.276-.26-.822-.004-1.14.517-1.16 1.258-.02.789-.004 1.577-.004 2.366zM560.523 412.772c-11.63 4.895-22.784 3.796-33.548-2.32-4.386-2.494-8.437-5.454-12.251-8.754-3.704-3.202-7.431-6.371-11.774-8.725-8.181-4.434-17.053-5.399-26.14-5.304-6.349.066-12.67.529-19.059 1.571.366-1.287 1.482-1.49 2.308-1.958 13.669-7.74 28.345-10.581 43.944-9.096 4.076.388 8.183.421 12.196 1.393 8.163 1.977 14.635 6.584 20.066 12.818a169.687 169.687 0 0 1 4.34 5.169c5.358 6.656 11.048 12.866 19.918 15.206z" fill-rule="evenodd" clip-rule="evenodd" fill="#231d47"/><path d="M635.83 348.638c-9.032 7.241-6.695 15.882-3.325 24.717-4.401-3.378-7.825-7.323-9.739-12.38-2.13-5.627-.234-9.517 5.449-11.55 2.619-.937 4.338-1.138 7.615-.787zM704.211 369.181c1.224-7.676 2.208-15.352-5.6-20.683 6.653-2.664 11.727.791 11.424 7.572-.206 4.599-1.863 8.718-4.419 12.502-.299.444-.681.793-1.405.609zM421.818 303.562c.149-.336.403-.648.741-.349.324.285.02.61-.202.869a7.758 7.758 0 0 1-.539-.52z" fill-rule="evenodd" clip-rule="evenodd" fill="#fff"/><path d="M608.585 335.445c-8.885 9.25-7.688 19.339-4.34 29.751-9.176-1.806-14.543-8.032-14.425-16.324.239-.583.649-.235.949-.129 3.79 1.334 3.762 1.327 5.529-2.495 2.361-5.11 6.087-8.718 12.287-10.803z" fill-rule="evenodd" clip-rule="evenodd" fill="#231d47"/><path d="M310.577 405.958c-5.593 18.546-16.278 32.373-35.2 38.765-3.031 1.022-6.172 1.485-9.383 1.252-5.425-.388-7.783-3.271-7.222-8.708.33-3.187 1.947-5.73 3.95-8.069 3.308-3.866 7.35-6.847 11.688-9.44 10.989-6.565 22.86-10.939 35.219-14.08.204-.052.47.131.948.28zM371.776 237.613l.354-.127c.052.241-.081.262-.4.061-.002-.005.046.066.046.066z" fill-rule="evenodd" clip-rule="evenodd" fill="#fff"/><path d="M723.244 359.605c.341-9.637-1.335-18.095-8.807-24.411 3.583.239 5.766 1.506 8.668 4.949 1.1 1.304 1.779 3.594 4.247 1.802.621-.45.933.268 1.157.686 3.045 5.714 1.007 12.925-5.265 16.974z" fill-rule="evenodd" clip-rule="evenodd" fill="#231d47"/></svg>